G04 #@! TF.GenerationSoftware,KiCad,Pcbnew,5.99.0-unknown-243631a095~131~ubuntu18.04.1*
G04 #@! TF.CreationDate,2021-09-05T03:56:41+03:00*
G04 #@! TF.ProjectId,FreeEEG128-alpha,46726565-4545-4473-9132-382d616c7068,rev?*
G04 #@! TF.SameCoordinates,Original*
G04 #@! TF.FileFunction,Paste,Bot*
G04 #@! TF.FilePolarity,Positive*
%FSLAX46Y46*%
G04 Gerber Fmt 4.6, Leading zero omitted, Abs format (unit mm)*
G04 Created by KiCad (PCBNEW 5.99.0-unknown-243631a095~131~ubuntu18.04.1) date 2021-09-05 03:56:41*
%MOMM*%
%LPD*%
G01*
G04 APERTURE LIST*
G04 Aperture macros list*
%AMRoundRect*
0 Rectangle with rounded corners*
0 $1 Rounding radius*
0 $2 $3 $4 $5 $6 $7 $8 $9 X,Y pos of 4 corners*
0 Add a 4 corners polygon primitive as box body*
4,1,4,$2,$3,$4,$5,$6,$7,$8,$9,$2,$3,0*
0 Add four circle primitives for the rounded corners*
1,1,$1+$1,$2,$3*
1,1,$1+$1,$4,$5*
1,1,$1+$1,$6,$7*
1,1,$1+$1,$8,$9*
0 Add four rect primitives between the rounded corners*
20,1,$1+$1,$2,$3,$4,$5,0*
20,1,$1+$1,$4,$5,$6,$7,0*
20,1,$1+$1,$6,$7,$8,$9,0*
20,1,$1+$1,$8,$9,$2,$3,0*%
%AMRotRect*
0 Rectangle, with rotation*
0 The origin of the aperture is its center*
0 $1 length*
0 $2 width*
0 $3 Rotation angle, in degrees counterclockwise*
0 Add horizontal line*
21,1,$1,$2,0,0,$3*%
%AMFreePoly0*
4,1,51,0.155869,0.189091,0.163498,0.190299,0.183473,0.180121,0.204796,0.173193,0.209336,0.166944,0.216219,0.163437,0.314605,0.065053,0.318113,0.058169,0.324361,0.053629,0.331288,0.032309,0.341467,0.012332,0.340259,0.004702,0.342646,-0.002645,0.342646,-0.095739,0.337960,-0.110161,0.337960,-0.125324,0.329047,-0.137592,0.324361,-0.152013,0.312094,-0.160926,0.303181,-0.173193,
0.288760,-0.177879,0.276492,-0.186792,0.261329,-0.186792,0.246907,-0.191478,-0.246907,-0.191478,-0.261329,-0.186792,-0.276492,-0.186792,-0.288760,-0.177879,-0.303181,-0.173193,-0.312094,-0.160926,-0.324361,-0.152013,-0.329047,-0.137592,-0.337960,-0.125324,-0.337960,-0.110161,-0.342646,-0.095739,-0.342646,-0.002645,-0.340259,0.004702,-0.341467,0.012332,-0.331289,0.032307,-0.324361,0.053629,
-0.318111,0.058170,-0.314604,0.065053,-0.216219,0.163437,-0.209336,0.166944,-0.204796,0.173193,-0.183473,0.180121,-0.163498,0.190299,-0.155869,0.189091,-0.148522,0.191478,0.148522,0.191478,0.155869,0.189091,0.155869,0.189091,$1*%
%AMFreePoly1*
4,1,48,0.110161,0.186792,0.125324,0.186792,0.137592,0.177879,0.152013,0.173193,0.160926,0.160926,0.173193,0.152013,0.177879,0.137592,0.186792,0.125324,0.186792,0.110161,0.191478,0.095739,0.191478,-0.095739,0.186792,-0.110161,0.186792,-0.125324,0.177879,-0.137592,0.173193,-0.152013,0.160926,-0.160926,0.152013,-0.173193,0.137592,-0.177879,0.125324,-0.186792,0.110161,-0.186792,
0.095739,-0.191478,0.038978,-0.191478,0.031631,-0.189091,0.024002,-0.190299,0.004027,-0.180121,-0.017296,-0.173193,-0.021836,-0.166944,-0.028719,-0.163437,-0.163437,-0.028720,-0.166945,-0.021836,-0.173193,-0.017296,-0.180120,0.004024,-0.190299,0.024001,-0.189091,0.031631,-0.191478,0.038978,-0.191478,0.095739,-0.186792,0.110161,-0.186792,0.125324,-0.177879,0.137592,-0.173193,0.152013,
-0.160926,0.160926,-0.152013,0.173193,-0.137592,0.177879,-0.125324,0.186792,-0.110161,0.186792,-0.095739,0.191478,0.095739,0.191478,0.110161,0.186792,0.110161,0.186792,$1*%
%AMFreePoly2*
4,1,57,0.195015,0.341746,0.197191,0.342329,0.200525,0.340774,0.218481,0.337608,0.232451,0.325886,0.248978,0.318179,0.318179,0.248978,0.321152,0.244733,0.323103,0.243606,0.324361,0.240149,0.334819,0.225214,0.336409,0.207049,0.342646,0.189911,0.342646,-0.189911,0.341746,-0.195015,0.342329,-0.197191,0.340774,-0.200525,0.337608,-0.218481,0.325886,-0.232451,0.318179,-0.248978,
0.248978,-0.318179,0.244733,-0.321152,0.243606,-0.323103,0.240149,-0.324361,0.225214,-0.334819,0.207049,-0.336409,0.189911,-0.342646,-0.189911,-0.342646,-0.195015,-0.341746,-0.197191,-0.342329,-0.200525,-0.340774,-0.218481,-0.337608,-0.232451,-0.325886,-0.248978,-0.318179,-0.318179,-0.248978,-0.321152,-0.244733,-0.323103,-0.243606,-0.324361,-0.240149,-0.334819,-0.225214,-0.336409,-0.207049,
-0.342646,-0.189911,-0.342646,0.189911,-0.341746,0.195015,-0.342329,0.197191,-0.340774,0.200525,-0.337608,0.218481,-0.325886,0.232451,-0.318179,0.248978,-0.248978,0.318179,-0.244733,0.321152,-0.243606,0.323103,-0.240149,0.324361,-0.225214,0.334819,-0.207049,0.336409,-0.189911,0.342646,0.189911,0.342646,0.195015,0.341746,0.195015,0.341746,$1*%
%AMFreePoly3*
4,1,51,0.261329,0.186792,0.276492,0.186792,0.288760,0.177879,0.303181,0.173193,0.312094,0.160926,0.324361,0.152013,0.329047,0.137592,0.337960,0.125324,0.337960,0.110161,0.342646,0.095739,0.342646,0.002645,0.340259,-0.004702,0.341467,-0.012332,0.331288,-0.032309,0.324361,-0.053629,0.318113,-0.058169,0.314605,-0.065053,0.216219,-0.163437,0.209336,-0.166944,0.204796,-0.173193,
0.183473,-0.180121,0.163498,-0.190299,0.155869,-0.189091,0.148522,-0.191478,-0.148522,-0.191478,-0.155869,-0.189091,-0.163498,-0.190299,-0.183473,-0.180121,-0.204796,-0.173193,-0.209336,-0.166944,-0.216219,-0.163437,-0.314604,-0.065053,-0.318111,-0.058170,-0.324361,-0.053629,-0.331289,-0.032307,-0.341467,-0.012332,-0.340259,-0.004702,-0.342646,0.002645,-0.342646,0.095739,-0.337960,0.110161,
-0.337960,0.125324,-0.329047,0.137592,-0.324361,0.152013,-0.312094,0.160926,-0.303181,0.173193,-0.288760,0.177879,-0.276492,0.186792,-0.261329,0.186792,-0.246907,0.191478,0.246907,0.191478,0.261329,0.186792,0.261329,0.186792,$1*%
%AMFreePoly4*
4,1,48,-0.031631,0.189091,-0.024001,0.190299,-0.004024,0.180120,0.017296,0.173193,0.021836,0.166945,0.028720,0.163437,0.163437,0.028719,0.166944,0.021836,0.173193,0.017296,0.180121,-0.004027,0.190299,-0.024002,0.189091,-0.031631,0.191478,-0.038978,0.191478,-0.095739,0.186792,-0.110161,0.186792,-0.125324,0.177879,-0.137592,0.173193,-0.152013,0.160926,-0.160926,0.152013,-0.173193,
0.137592,-0.177879,0.125324,-0.186792,0.110161,-0.186792,0.095739,-0.191478,-0.095739,-0.191478,-0.110161,-0.186792,-0.125324,-0.186792,-0.137592,-0.177879,-0.152013,-0.173193,-0.160926,-0.160926,-0.173193,-0.152013,-0.177879,-0.137592,-0.186792,-0.125324,-0.186792,-0.110161,-0.191478,-0.095739,-0.191478,0.095739,-0.186792,0.110161,-0.186792,0.125324,-0.177879,0.137592,-0.173193,0.152013,
-0.160926,0.160926,-0.152013,0.173193,-0.137592,0.177879,-0.125324,0.186792,-0.110161,0.186792,-0.095739,0.191478,-0.038978,0.191478,-0.031631,0.189091,-0.031631,0.189091,$1*%
%AMFreePoly5*
4,1,48,0.110161,0.186792,0.125324,0.186792,0.137592,0.177879,0.152013,0.173193,0.160926,0.160926,0.173193,0.152013,0.177879,0.137592,0.186792,0.125324,0.186792,0.110161,0.191478,0.095739,0.191478,-0.095739,0.186792,-0.110161,0.186792,-0.125324,0.177879,-0.137592,0.173193,-0.152013,0.160926,-0.160926,0.152013,-0.173193,0.137592,-0.177879,0.125324,-0.186792,0.110161,-0.186792,
0.095739,-0.191478,-0.095739,-0.191478,-0.110161,-0.186792,-0.125324,-0.186792,-0.137592,-0.177879,-0.152013,-0.173193,-0.160926,-0.160926,-0.173193,-0.152013,-0.177879,-0.137592,-0.186792,-0.125324,-0.186792,-0.110161,-0.191478,-0.095739,-0.191478,-0.038978,-0.189091,-0.031631,-0.190299,-0.024001,-0.180120,-0.004024,-0.173193,0.017296,-0.166945,0.021836,-0.163437,0.028720,-0.028719,0.163437,
-0.021836,0.166944,-0.017296,0.173193,0.004027,0.180121,0.024002,0.190299,0.031631,0.189091,0.038978,0.191478,0.095739,0.191478,0.110161,0.186792,0.110161,0.186792,$1*%
%AMFreePoly6*
4,1,51,0.110161,0.337960,0.125324,0.337960,0.137592,0.329047,0.152013,0.324361,0.160926,0.312094,0.173193,0.303181,0.177879,0.288760,0.186792,0.276492,0.186792,0.261329,0.191478,0.246907,0.191478,-0.246907,0.186792,-0.261329,0.186792,-0.276492,0.177879,-0.288760,0.173193,-0.303181,0.160926,-0.312094,0.152013,-0.324361,0.137592,-0.329047,0.125324,-0.337960,0.110161,-0.337960,
0.095739,-0.342646,0.002645,-0.342646,-0.004702,-0.340259,-0.012332,-0.341467,-0.032309,-0.331288,-0.053629,-0.324361,-0.058169,-0.318113,-0.065053,-0.314605,-0.163437,-0.216219,-0.166944,-0.209336,-0.173193,-0.204796,-0.180121,-0.183473,-0.190299,-0.163498,-0.189091,-0.155869,-0.191478,-0.148522,-0.191478,0.148522,-0.189091,0.155869,-0.190299,0.163498,-0.180121,0.183473,-0.173193,0.204796,
-0.166944,0.209336,-0.163437,0.216219,-0.065053,0.314605,-0.058169,0.318113,-0.053629,0.324361,-0.032309,0.331288,-0.012332,0.341467,-0.004702,0.340259,0.002645,0.342646,0.095739,0.342646,0.110161,0.337960,0.110161,0.337960,$1*%
%AMFreePoly7*
4,1,51,0.004702,0.340259,0.012332,0.341467,0.032307,0.331289,0.053629,0.324361,0.058170,0.318111,0.065053,0.314604,0.163437,0.216219,0.166944,0.209336,0.173193,0.204796,0.180121,0.183473,0.190299,0.163498,0.189091,0.155869,0.191478,0.148522,0.191478,-0.148522,0.189091,-0.155869,0.190299,-0.163498,0.180121,-0.183473,0.173193,-0.204796,0.166944,-0.209336,0.163437,-0.216219,
0.065053,-0.314604,0.058170,-0.318111,0.053629,-0.324361,0.032307,-0.331289,0.012332,-0.341467,0.004702,-0.340259,-0.002645,-0.342646,-0.095739,-0.342646,-0.110161,-0.337960,-0.125324,-0.337960,-0.137592,-0.329047,-0.152013,-0.324361,-0.160926,-0.312094,-0.173193,-0.303181,-0.177879,-0.288760,-0.186792,-0.276492,-0.186792,-0.261329,-0.191478,-0.246907,-0.191478,0.246907,-0.186792,0.261329,
-0.186792,0.276492,-0.177879,0.288760,-0.173193,0.303181,-0.160926,0.312094,-0.152013,0.324361,-0.137592,0.329047,-0.125324,0.337960,-0.110161,0.337960,-0.095739,0.342646,-0.002645,0.342646,0.004702,0.340259,0.004702,0.340259,$1*%
%AMFreePoly8*
4,1,48,0.110161,0.186792,0.125324,0.186792,0.137592,0.177879,0.152013,0.173193,0.160926,0.160926,0.173193,0.152013,0.177879,0.137592,0.186792,0.125324,0.186792,0.110161,0.191478,0.095739,0.191478,0.038978,0.189091,0.031631,0.190299,0.024002,0.180121,0.004027,0.173193,-0.017296,0.166944,-0.021836,0.163437,-0.028719,0.028720,-0.163437,0.021836,-0.166945,0.017296,-0.173193,
-0.004024,-0.180120,-0.024001,-0.190299,-0.031631,-0.189091,-0.038978,-0.191478,-0.095739,-0.191478,-0.110161,-0.186792,-0.125324,-0.186792,-0.137592,-0.177879,-0.152013,-0.173193,-0.160926,-0.160926,-0.173193,-0.152013,-0.177879,-0.137592,-0.186792,-0.125324,-0.186792,-0.110161,-0.191478,-0.095739,-0.191478,0.095739,-0.186792,0.110161,-0.186792,0.125324,-0.177879,0.137592,-0.173193,0.152013,
-0.160926,0.160926,-0.152013,0.173193,-0.137592,0.177879,-0.125324,0.186792,-0.110161,0.186792,-0.095739,0.191478,0.095739,0.191478,0.110161,0.186792,0.110161,0.186792,$1*%
%AMFreePoly9*
4,1,15,0.385355,0.085355,0.400000,0.050000,0.400000,0.020711,0.397487,0.014645,0.385355,-0.014645,0.314644,-0.085355,0.279289,-0.100000,-0.350000,-0.100000,-0.385355,-0.085355,-0.400000,-0.050000,-0.400000,0.050000,-0.385355,0.085355,-0.350000,0.100000,0.350000,0.100000,0.385355,0.085355,0.385355,0.085355,$1*%
%AMFreePoly10*
4,1,15,0.314644,0.085355,0.385355,0.014645,0.385355,0.014644,0.400000,-0.020711,0.400000,-0.050000,0.385355,-0.085355,0.350000,-0.100000,-0.350000,-0.100000,-0.385355,-0.085355,-0.400000,-0.050000,-0.400000,0.050000,-0.385355,0.085355,-0.350000,0.100000,0.279289,0.100000,0.314644,0.085355,0.314644,0.085355,$1*%
%AMFreePoly11*
4,1,15,0.085355,0.385355,0.100000,0.350000,0.100000,-0.350000,0.085355,-0.385355,0.050000,-0.400000,0.020711,-0.400000,-0.004289,-0.389644,-0.014645,-0.385355,-0.085355,-0.314644,-0.100000,-0.279289,-0.100000,0.350000,-0.085355,0.385355,-0.050000,0.400000,0.050000,0.400000,0.085355,0.385355,0.085355,0.385355,$1*%
%AMFreePoly12*
4,1,15,0.085355,0.385355,0.100000,0.350000,0.100000,-0.279289,0.091421,-0.300000,0.085355,-0.314645,0.014644,-0.385355,-0.020711,-0.400000,-0.050000,-0.400000,-0.085355,-0.385355,-0.100000,-0.350000,-0.100000,0.350000,-0.085355,0.385355,-0.050000,0.400000,0.050000,0.400000,0.085355,0.385355,0.085355,0.385355,$1*%
%AMFreePoly13*
4,1,15,0.385355,0.085355,0.400000,0.050000,0.400000,-0.050000,0.385355,-0.085355,0.350000,-0.100000,-0.350000,-0.100000,-0.385355,-0.085355,-0.400000,-0.050000,-0.400000,-0.020711,-0.385355,0.014644,-0.314645,0.085355,-0.304289,0.089644,-0.279289,0.100000,0.350000,0.100000,0.385355,0.085355,0.385355,0.085355,$1*%
%AMFreePoly14*
4,1,15,0.385355,0.085355,0.400000,0.050000,0.400000,-0.050000,0.385355,-0.085355,0.350000,-0.100000,-0.279289,-0.100000,-0.304289,-0.089644,-0.314645,-0.085355,-0.385355,-0.014644,-0.400000,0.020711,-0.400000,0.050000,-0.385355,0.085355,-0.350000,0.100000,0.350000,0.100000,0.385355,0.085355,0.385355,0.085355,$1*%
%AMFreePoly15*
4,1,15,0.014644,0.385355,0.085355,0.314645,0.085355,0.314644,0.100000,0.279289,0.100000,-0.350000,0.085355,-0.385355,0.050000,-0.400000,-0.050000,-0.400000,-0.085355,-0.385355,-0.100000,-0.350000,-0.100000,0.350000,-0.085355,0.385355,-0.050000,0.400000,-0.020711,0.400000,0.014644,0.385355,0.014644,0.385355,$1*%
%AMFreePoly16*
4,1,15,0.085355,0.385355,0.100000,0.350000,0.100000,-0.350000,0.085355,-0.385355,0.050000,-0.400000,-0.050000,-0.400000,-0.085355,-0.385355,-0.100000,-0.350000,-0.100000,0.279289,-0.085355,0.314644,-0.014645,0.385355,-0.004289,0.389644,0.020711,0.400000,0.050000,0.400000,0.085355,0.385355,0.085355,0.385355,$1*%
G04 Aperture macros list end*
%ADD10RotRect,1.560000X0.650000X45.000000*%
%ADD11RoundRect,0.147500X-0.017678X0.226274X-0.226274X0.017678X0.017678X-0.226274X0.226274X-0.017678X0*%
%ADD12RoundRect,0.218750X0.335876X0.026517X0.026517X0.335876X-0.335876X-0.026517X-0.026517X-0.335876X0*%
%ADD13RoundRect,0.147500X0.017678X-0.226274X0.226274X-0.017678X-0.017678X0.226274X-0.226274X0.017678X0*%
%ADD14RoundRect,0.147500X0.226274X0.017678X0.017678X0.226274X-0.226274X-0.017678X-0.017678X-0.226274X0*%
%ADD15RotRect,1.550000X0.300000X45.000000*%
%ADD16RotRect,1.550000X0.300000X315.000000*%
%ADD17RotRect,1.500000X0.600000X45.000000*%
%ADD18RotRect,0.900000X1.200000X315.000000*%
%ADD19RoundRect,0.147500X-0.226274X-0.017678X-0.017678X-0.226274X0.226274X0.017678X0.017678X0.226274X0*%
%ADD20RoundRect,0.218750X-0.026517X0.335876X-0.335876X0.026517X0.026517X-0.335876X0.335876X-0.026517X0*%
%ADD21RotRect,1.500000X0.600000X135.000000*%
%ADD22RotRect,0.400000X1.350000X135.000000*%
%ADD23RotRect,1.500000X1.900000X135.000000*%
%ADD24RotRect,1.400000X1.900000X225.000000*%
%ADD25RotRect,1.300000X1.400000X225.000000*%
%ADD26RotRect,0.800000X1.500000X225.000000*%
%ADD27RotRect,1.000000X0.950000X225.000000*%
%ADD28RotRect,0.900000X1.200000X135.000000*%
%ADD29RoundRect,0.147500X-0.147500X-0.172500X0.147500X-0.172500X0.147500X0.172500X-0.147500X0.172500X0*%
%ADD30RoundRect,0.147500X0.172500X-0.147500X0.172500X0.147500X-0.172500X0.147500X-0.172500X-0.147500X0*%
%ADD31RoundRect,0.218750X0.026517X-0.335876X0.335876X-0.026517X-0.026517X0.335876X-0.335876X0.026517X0*%
%ADD32RotRect,1.700000X1.600000X225.000000*%
%ADD33FreePoly0,90.000000*%
%ADD34FreePoly1,90.000000*%
%ADD35FreePoly2,90.000000*%
%ADD36FreePoly3,90.000000*%
%ADD37FreePoly4,90.000000*%
%ADD38FreePoly5,90.000000*%
%ADD39FreePoly6,90.000000*%
%ADD40FreePoly7,90.000000*%
%ADD41FreePoly8,90.000000*%
%ADD42FreePoly9,90.000000*%
%ADD43RoundRect,0.050000X0.050000X-0.350000X0.050000X0.350000X-0.050000X0.350000X-0.050000X-0.350000X0*%
%ADD44FreePoly10,90.000000*%
%ADD45FreePoly11,90.000000*%
%ADD46RoundRect,0.050000X0.350000X-0.050000X0.350000X0.050000X-0.350000X0.050000X-0.350000X-0.050000X0*%
%ADD47FreePoly12,90.000000*%
%ADD48FreePoly13,90.000000*%
%ADD49FreePoly14,90.000000*%
%ADD50FreePoly15,90.000000*%
%ADD51FreePoly16,90.000000*%
%ADD52FreePoly2,0.000000*%
%ADD53FreePoly6,0.000000*%
%ADD54FreePoly0,0.000000*%
%ADD55FreePoly3,0.000000*%
%ADD56FreePoly7,0.000000*%
%ADD57FreePoly8,0.000000*%
%ADD58FreePoly4,0.000000*%
%ADD59FreePoly5,0.000000*%
%ADD60FreePoly1,0.000000*%
%ADD61FreePoly9,0.000000*%
%ADD62RoundRect,0.050000X-0.350000X-0.050000X0.350000X-0.050000X0.350000X0.050000X-0.350000X0.050000X0*%
%ADD63FreePoly10,0.000000*%
%ADD64FreePoly11,0.000000*%
%ADD65RoundRect,0.050000X-0.050000X-0.350000X0.050000X-0.350000X0.050000X0.350000X-0.050000X0.350000X0*%
%ADD66FreePoly12,0.000000*%
%ADD67FreePoly13,0.000000*%
%ADD68FreePoly14,0.000000*%
%ADD69FreePoly15,0.000000*%
%ADD70FreePoly16,0.000000*%
%ADD71RoundRect,0.140000X-0.140000X-0.170000X0.140000X-0.170000X0.140000X0.170000X-0.140000X0.170000X0*%
%ADD72RoundRect,0.140000X0.140000X0.170000X-0.140000X0.170000X-0.140000X-0.170000X0.140000X-0.170000X0*%
%ADD73RoundRect,0.140000X-0.170000X0.140000X-0.170000X-0.140000X0.170000X-0.140000X0.170000X0.140000X0*%
%ADD74RoundRect,0.140000X0.170000X-0.140000X0.170000X0.140000X-0.170000X0.140000X-0.170000X-0.140000X0*%
%ADD75FreePoly2,270.000000*%
%ADD76FreePoly6,270.000000*%
%ADD77FreePoly0,270.000000*%
%ADD78FreePoly3,270.000000*%
%ADD79FreePoly1,270.000000*%
%ADD80FreePoly5,270.000000*%
%ADD81FreePoly4,270.000000*%
%ADD82FreePoly8,270.000000*%
%ADD83FreePoly7,270.000000*%
%ADD84FreePoly9,270.000000*%
%ADD85RoundRect,0.050000X-0.050000X0.350000X-0.050000X-0.350000X0.050000X-0.350000X0.050000X0.350000X0*%
%ADD86FreePoly10,270.000000*%
%ADD87FreePoly11,270.000000*%
%ADD88RoundRect,0.050000X-0.350000X0.050000X-0.350000X-0.050000X0.350000X-0.050000X0.350000X0.050000X0*%
%ADD89FreePoly12,270.000000*%
%ADD90FreePoly13,270.000000*%
%ADD91FreePoly14,270.000000*%
%ADD92FreePoly15,270.000000*%
%ADD93FreePoly16,270.000000*%
%ADD94R,2.400000X0.740000*%
%ADD95FreePoly7,180.000000*%
%ADD96FreePoly2,180.000000*%
%ADD97FreePoly4,180.000000*%
%ADD98FreePoly0,180.000000*%
%ADD99FreePoly6,180.000000*%
%ADD100FreePoly3,180.000000*%
%ADD101FreePoly1,180.000000*%
%ADD102FreePoly5,180.000000*%
%ADD103FreePoly8,180.000000*%
%ADD104FreePoly9,180.000000*%
%ADD105RoundRect,0.050000X0.350000X0.050000X-0.350000X0.050000X-0.350000X-0.050000X0.350000X-0.050000X0*%
%ADD106FreePoly10,180.000000*%
%ADD107FreePoly11,180.000000*%
%ADD108RoundRect,0.050000X0.050000X0.350000X-0.050000X0.350000X-0.050000X-0.350000X0.050000X-0.350000X0*%
%ADD109FreePoly12,180.000000*%
%ADD110FreePoly13,180.000000*%
%ADD111FreePoly14,180.000000*%
%ADD112FreePoly15,180.000000*%
%ADD113FreePoly16,180.000000*%
%ADD114RoundRect,0.225000X-0.017678X0.335876X-0.335876X0.017678X0.017678X-0.335876X0.335876X-0.017678X0*%
%ADD115R,0.740000X2.400000*%
%ADD116RoundRect,0.150000X0.468458X-0.256326X-0.256326X0.468458X-0.468458X0.256326X0.256326X-0.468458X0*%
G04 APERTURE END LIST*
D10*
X22577157Y21214910D03*
X21905406Y21886662D03*
X21233654Y22558413D03*
X23142843Y24467602D03*
X23814594Y23795850D03*
X24486346Y23124099D03*
D11*
X-14389053Y-6083253D03*
X-15074947Y-6769147D03*
D12*
X-8587153Y9984153D03*
X-9700847Y11097847D03*
D13*
X14160453Y-10655347D03*
X14846347Y-9969453D03*
X-13042947Y-5981747D03*
X-12357053Y-5295853D03*
D14*
X-9436053Y9055053D03*
X-10121947Y9740947D03*
D15*
X-1378858Y-13753227D03*
X-1732412Y-13399674D03*
X-2085965Y-13046120D03*
X-2439518Y-12692567D03*
X-2793072Y-12339013D03*
X-3146625Y-11985460D03*
X-3500179Y-11631907D03*
X-3853732Y-11278353D03*
X-4207285Y-10924800D03*
X-4560839Y-10571246D03*
X-4914392Y-10217693D03*
X-5267946Y-9864140D03*
X-5621499Y-9510586D03*
X-5975052Y-9157033D03*
X-6328606Y-8803479D03*
X-6682159Y-8449926D03*
X-7035712Y-8096373D03*
X-7389266Y-7742819D03*
X-7742819Y-7389266D03*
X-8096373Y-7035712D03*
X-8449926Y-6682159D03*
X-8803479Y-6328606D03*
X-9157033Y-5975052D03*
X-9510586Y-5621499D03*
X-9864140Y-5267946D03*
X-10217693Y-4914392D03*
X-10571246Y-4560839D03*
X-10924800Y-4207285D03*
X-11278353Y-3853732D03*
X-11631907Y-3500179D03*
X-11985460Y-3146625D03*
X-12339013Y-2793072D03*
X-12692567Y-2439518D03*
X-13046120Y-2085965D03*
X-13399674Y-1732412D03*
X-13753227Y-1378858D03*
D16*
X-13753227Y1378858D03*
X-13399674Y1732412D03*
X-13046120Y2085965D03*
X-12692567Y2439518D03*
X-12339013Y2793072D03*
X-11985460Y3146625D03*
X-11631907Y3500179D03*
X-11278353Y3853732D03*
X-10924800Y4207285D03*
X-10571246Y4560839D03*
X-10217693Y4914392D03*
X-9864140Y5267946D03*
X-9510586Y5621499D03*
X-9157033Y5975052D03*
X-8803479Y6328606D03*
X-8449926Y6682159D03*
X-8096373Y7035712D03*
X-7742819Y7389266D03*
X-7389266Y7742819D03*
X-7035712Y8096373D03*
X-6682159Y8449926D03*
X-6328606Y8803479D03*
X-5975052Y9157033D03*
X-5621499Y9510586D03*
X-5267946Y9864140D03*
X-4914392Y10217693D03*
X-4560839Y10571246D03*
X-4207285Y10924800D03*
X-3853732Y11278353D03*
X-3500179Y11631907D03*
X-3146625Y11985460D03*
X-2793072Y12339013D03*
X-2439518Y12692567D03*
X-2085965Y13046120D03*
X-1732412Y13399674D03*
X-1378858Y13753227D03*
D15*
X1378858Y13753227D03*
X1732412Y13399674D03*
X2085965Y13046120D03*
X2439518Y12692567D03*
X2793072Y12339013D03*
X3146625Y11985460D03*
X3500179Y11631907D03*
X3853732Y11278353D03*
X4207285Y10924800D03*
X4560839Y10571246D03*
X4914392Y10217693D03*
X5267946Y9864140D03*
X5621499Y9510586D03*
X5975052Y9157033D03*
X6328606Y8803479D03*
X6682159Y8449926D03*
X7035712Y8096373D03*
X7389266Y7742819D03*
X7742819Y7389266D03*
X8096373Y7035712D03*
X8449926Y6682159D03*
X8803479Y6328606D03*
X9157033Y5975052D03*
X9510586Y5621499D03*
X9864140Y5267946D03*
X10217693Y4914392D03*
X10571246Y4560839D03*
X10924800Y4207285D03*
X11278353Y3853732D03*
X11631907Y3500179D03*
X11985460Y3146625D03*
X12339013Y2793072D03*
X12692567Y2439518D03*
X13046120Y2085965D03*
X13399674Y1732412D03*
X13753227Y1378858D03*
D16*
X13753227Y-1378858D03*
X13399674Y-1732412D03*
X13046120Y-2085965D03*
X12692567Y-2439518D03*
X12339013Y-2793072D03*
X11985460Y-3146625D03*
X11631907Y-3500179D03*
X11278353Y-3853732D03*
X10924800Y-4207285D03*
X10571246Y-4560839D03*
X10217693Y-4914392D03*
X9864140Y-5267946D03*
X9510586Y-5621499D03*
X9157033Y-5975052D03*
X8803479Y-6328606D03*
X8449926Y-6682159D03*
X8096373Y-7035712D03*
X7742819Y-7389266D03*
X7389266Y-7742819D03*
X7035712Y-8096373D03*
X6682159Y-8449926D03*
X6328606Y-8803479D03*
X5975052Y-9157033D03*
X5621499Y-9510586D03*
X5267946Y-9864140D03*
X4914392Y-10217693D03*
X4560839Y-10571246D03*
X4207285Y-10924800D03*
X3853732Y-11278353D03*
X3500179Y-11631907D03*
X3146625Y-11985460D03*
X2793072Y-12339013D03*
X2439518Y-12692567D03*
X2085965Y-13046120D03*
X1732412Y-13399674D03*
X1378858Y-13753227D03*
D11*
X-13423853Y-9309053D03*
X-14109747Y-9994947D03*
D17*
X-16654957Y-22941136D03*
X-17552983Y-22043111D03*
X-18451008Y-21145085D03*
X-19349034Y-20247059D03*
X-20247059Y-19349034D03*
X-21145085Y-18451008D03*
X-22043111Y-17552983D03*
X-22941136Y-16654957D03*
X-16365043Y-10078864D03*
X-15467017Y-10976889D03*
X-14568992Y-11874915D03*
X-13670966Y-12772941D03*
X-12772941Y-13670966D03*
X-11874915Y-14568992D03*
X-10976889Y-15467017D03*
X-10078864Y-16365043D03*
D11*
X14731917Y5105066D03*
X14046023Y4419172D03*
D18*
X11533274Y10672982D03*
X13866726Y8339530D03*
D14*
X12484147Y7861253D03*
X11798253Y8547147D03*
D19*
X-9232947Y-10452053D03*
X-8547053Y-11137947D03*
D20*
X10716847Y9506257D03*
X9603153Y8392563D03*
D14*
X7327947Y11722053D03*
X6642053Y12407947D03*
D19*
X-10553747Y-12941253D03*
X-9867853Y-13627147D03*
D11*
X-12128453Y-10502853D03*
X-12814347Y-11188747D03*
D12*
X-5793153Y12143153D03*
X-6906847Y13256847D03*
D11*
X-13703253Y-6769053D03*
X-14389147Y-7454947D03*
D21*
X-10078864Y16365043D03*
X-10976889Y15467017D03*
X-11874915Y14568992D03*
X-12772941Y13670966D03*
X-13670966Y12772941D03*
X-14568992Y11874915D03*
X-15467017Y10976889D03*
X-16365043Y10078864D03*
X-22941136Y16654957D03*
X-22043111Y17552983D03*
X-21145085Y18451008D03*
X-20247059Y19349034D03*
X-19349034Y20247059D03*
X-18451008Y21145085D03*
X-17552983Y22043111D03*
X-16654957Y22941136D03*
D11*
X-9182053Y14947947D03*
X-9867947Y14262053D03*
D22*
X-20906618Y-22745095D03*
X-21366237Y-22285476D03*
X-21825856Y-21825856D03*
X-22285476Y-21366237D03*
X-22745095Y-20906618D03*
D23*
X-24442151Y-23027938D03*
X-23027938Y-24442151D03*
D24*
X19107710Y-28444210D03*
D25*
X13238724Y-14302074D03*
D24*
X27699058Y-18438649D03*
D25*
X17269232Y-10271565D03*
D26*
X20005736Y-22752000D03*
X20500710Y-21691340D03*
X21561371Y-21196365D03*
X22480609Y-20559969D03*
X23117006Y-19640730D03*
X24036244Y-19004334D03*
X24672640Y-18085095D03*
X25450458Y-17307278D03*
D27*
X16130791Y-11098880D03*
D19*
X6388053Y-15405053D03*
X7073947Y-16090947D03*
D14*
X-4737053Y12992053D03*
X-5422947Y13677947D03*
D28*
X10691726Y11514530D03*
X8358274Y13847982D03*
D29*
X6627000Y-11099800D03*
X7597000Y-11099800D03*
D13*
X-10756947Y7531053D03*
X-10071053Y8216947D03*
D11*
X9232947Y10488975D03*
X8547053Y9803081D03*
D14*
X11772947Y7150053D03*
X11087053Y7835947D03*
D30*
X-14605000Y6500000D03*
X-14605000Y7470000D03*
D31*
X12942105Y5094272D03*
X14055799Y6207966D03*
D11*
X-12941253Y-7404053D03*
X-13627147Y-8089947D03*
D13*
X-13703347Y-5270547D03*
X-13017453Y-4584653D03*
D19*
X-15963947Y24599947D03*
X-15278053Y23914053D03*
D14*
X-8496253Y-14998747D03*
X-9182147Y-14312853D03*
D13*
X13373053Y-9867947D03*
X14058947Y-9182053D03*
D19*
X-7962947Y11772947D03*
X-7277053Y11087053D03*
D32*
X18532325Y22124428D03*
X20328377Y20328377D03*
X22124428Y18532325D03*
X14487675Y10895572D03*
X12691623Y12691623D03*
X10895572Y14487675D03*
D33*
X-3992500Y-22435000D03*
D34*
X-6167500Y-21772500D03*
D35*
X-5505000Y-22435000D03*
D36*
X-6167500Y-23285000D03*
D37*
X-3992500Y-23947500D03*
D38*
X-3992500Y-21772500D03*
D39*
X-4655000Y-21772500D03*
D35*
X-5505000Y-23285000D03*
D40*
X-5505000Y-23947500D03*
X-4655000Y-23947500D03*
D35*
X-4655000Y-23285000D03*
X-4655000Y-22435000D03*
D41*
X-6167500Y-23947500D03*
D33*
X-3992500Y-23285000D03*
D36*
X-6167500Y-22435000D03*
D39*
X-5505000Y-21772500D03*
D42*
X-3680000Y-24810000D03*
D43*
X-4080000Y-24810000D03*
X-4480000Y-24810000D03*
X-4880000Y-24810000D03*
X-5280000Y-24810000D03*
X-5680000Y-24810000D03*
X-6080000Y-24810000D03*
D44*
X-6480000Y-24810000D03*
D45*
X-7030000Y-24260000D03*
D46*
X-7030000Y-23860000D03*
X-7030000Y-23460000D03*
X-7030000Y-23060000D03*
X-7030000Y-22660000D03*
X-7030000Y-22260000D03*
X-7030000Y-21860000D03*
D47*
X-7030000Y-21460000D03*
D48*
X-6480000Y-20910000D03*
D43*
X-6080000Y-20910000D03*
X-5680000Y-20910000D03*
X-5280000Y-20910000D03*
X-4880000Y-20910000D03*
X-4480000Y-20910000D03*
X-4080000Y-20910000D03*
D49*
X-3680000Y-20910000D03*
D50*
X-3130000Y-21460000D03*
D46*
X-3130000Y-21860000D03*
X-3130000Y-22260000D03*
X-3130000Y-22660000D03*
X-3130000Y-23060000D03*
X-3130000Y-23460000D03*
X-3130000Y-23860000D03*
D51*
X-3130000Y-24260000D03*
D52*
X-22435000Y5505000D03*
D53*
X-21772500Y5505000D03*
D52*
X-22435000Y4655000D03*
D54*
X-23285000Y3992500D03*
D55*
X-22435000Y6167500D03*
D52*
X-23285000Y4655000D03*
D56*
X-23947500Y5505000D03*
D57*
X-23947500Y6167500D03*
D56*
X-23947500Y4655000D03*
D58*
X-23947500Y3992500D03*
D54*
X-22435000Y3992500D03*
D59*
X-21772500Y3992500D03*
D52*
X-23285000Y5505000D03*
D55*
X-23285000Y6167500D03*
D60*
X-21772500Y6167500D03*
D53*
X-21772500Y4655000D03*
D61*
X-24810000Y3680000D03*
D62*
X-24810000Y4080000D03*
X-24810000Y4480000D03*
X-24810000Y4880000D03*
X-24810000Y5280000D03*
X-24810000Y5680000D03*
X-24810000Y6080000D03*
D63*
X-24810000Y6480000D03*
D64*
X-24260000Y7030000D03*
D65*
X-23860000Y7030000D03*
X-23460000Y7030000D03*
X-23060000Y7030000D03*
X-22660000Y7030000D03*
X-22260000Y7030000D03*
X-21860000Y7030000D03*
D66*
X-21460000Y7030000D03*
D67*
X-20910000Y6480000D03*
D62*
X-20910000Y6080000D03*
X-20910000Y5680000D03*
X-20910000Y5280000D03*
X-20910000Y4880000D03*
X-20910000Y4480000D03*
X-20910000Y4080000D03*
D68*
X-20910000Y3680000D03*
D69*
X-21460000Y3130000D03*
D65*
X-21860000Y3130000D03*
X-22260000Y3130000D03*
X-22660000Y3130000D03*
X-23060000Y3130000D03*
X-23460000Y3130000D03*
X-23860000Y3130000D03*
D70*
X-24260000Y3130000D03*
D71*
X-21308000Y8636000D03*
X-20348000Y8636000D03*
D72*
X21308000Y-8636000D03*
X20348000Y-8636000D03*
D73*
X-8636000Y21308000D03*
X-8636000Y20348000D03*
D74*
X19304000Y-3528000D03*
X19304000Y-2568000D03*
D71*
X-3528000Y-19304000D03*
X-2568000Y-19304000D03*
D75*
X-4655000Y22435000D03*
X-5505000Y22435000D03*
D76*
X-5505000Y21772500D03*
D77*
X-6167500Y23285000D03*
D76*
X-4655000Y21772500D03*
D78*
X-3992500Y22435000D03*
D75*
X-5505000Y23285000D03*
D78*
X-3992500Y23285000D03*
D79*
X-3992500Y21772500D03*
D75*
X-4655000Y23285000D03*
D80*
X-6167500Y21772500D03*
D77*
X-6167500Y22435000D03*
D81*
X-6167500Y23947500D03*
D82*
X-3992500Y23947500D03*
D83*
X-5505000Y23947500D03*
X-4655000Y23947500D03*
D84*
X-6480000Y24810000D03*
D85*
X-6080000Y24810000D03*
X-5680000Y24810000D03*
X-5280000Y24810000D03*
X-4880000Y24810000D03*
X-4480000Y24810000D03*
X-4080000Y24810000D03*
D86*
X-3680000Y24810000D03*
D87*
X-3130000Y24260000D03*
D88*
X-3130000Y23860000D03*
X-3130000Y23460000D03*
X-3130000Y23060000D03*
X-3130000Y22660000D03*
X-3130000Y22260000D03*
X-3130000Y21860000D03*
D89*
X-3130000Y21460000D03*
D90*
X-3680000Y20910000D03*
D85*
X-4080000Y20910000D03*
X-4480000Y20910000D03*
X-4880000Y20910000D03*
X-5280000Y20910000D03*
X-5680000Y20910000D03*
X-6080000Y20910000D03*
D91*
X-6480000Y20910000D03*
D92*
X-7030000Y21460000D03*
D88*
X-7030000Y21860000D03*
X-7030000Y22260000D03*
X-7030000Y22660000D03*
X-7030000Y23060000D03*
X-7030000Y23460000D03*
X-7030000Y23860000D03*
D93*
X-7030000Y24260000D03*
D73*
X1524000Y21308000D03*
X1524000Y20348000D03*
D72*
X3528000Y19304000D03*
X2568000Y19304000D03*
D94*
X28530000Y-12065000D03*
X32430000Y-12065000D03*
X28530000Y-10795000D03*
X32430000Y-10795000D03*
X28530000Y-9525000D03*
X32430000Y-9525000D03*
X28530000Y-8255000D03*
X32430000Y-8255000D03*
X28530000Y-6985000D03*
X32430000Y-6985000D03*
X28530000Y-5715000D03*
X32430000Y-5715000D03*
X28530000Y-4445000D03*
X32430000Y-4445000D03*
X28530000Y-3175000D03*
X32430000Y-3175000D03*
X28530000Y-1905000D03*
X32430000Y-1905000D03*
X28530000Y-635000D03*
X32430000Y-635000D03*
X28530000Y635000D03*
X32430000Y635000D03*
X28530000Y1905000D03*
X32430000Y1905000D03*
X28530000Y3175000D03*
X32430000Y3175000D03*
X28530000Y4445000D03*
X32430000Y4445000D03*
X28530000Y5715000D03*
X32430000Y5715000D03*
X28530000Y6985000D03*
X32430000Y6985000D03*
X28530000Y8255000D03*
X32430000Y8255000D03*
X28530000Y9525000D03*
X32430000Y9525000D03*
X28530000Y10795000D03*
X32430000Y10795000D03*
X28530000Y12065000D03*
X32430000Y12065000D03*
D95*
X23947500Y4655000D03*
D96*
X22435000Y4655000D03*
D97*
X23947500Y6167500D03*
D98*
X23285000Y6167500D03*
D96*
X22435000Y5505000D03*
D99*
X21772500Y4655000D03*
D96*
X23285000Y4655000D03*
D100*
X22435000Y3992500D03*
D99*
X21772500Y5505000D03*
D100*
X23285000Y3992500D03*
D101*
X21772500Y3992500D03*
D95*
X23947500Y5505000D03*
D102*
X21772500Y6167500D03*
D103*
X23947500Y3992500D03*
D98*
X22435000Y6167500D03*
D96*
X23285000Y5505000D03*
D104*
X24810000Y6480000D03*
D105*
X24810000Y6080000D03*
X24810000Y5680000D03*
X24810000Y5280000D03*
X24810000Y4880000D03*
X24810000Y4480000D03*
X24810000Y4080000D03*
D106*
X24810000Y3680000D03*
D107*
X24260000Y3130000D03*
D108*
X23860000Y3130000D03*
X23460000Y3130000D03*
X23060000Y3130000D03*
X22660000Y3130000D03*
X22260000Y3130000D03*
X21860000Y3130000D03*
D109*
X21460000Y3130000D03*
D110*
X20910000Y3680000D03*
D105*
X20910000Y4080000D03*
X20910000Y4480000D03*
X20910000Y4880000D03*
X20910000Y5280000D03*
X20910000Y5680000D03*
X20910000Y6080000D03*
D111*
X20910000Y6480000D03*
D112*
X21460000Y7030000D03*
D108*
X21860000Y7030000D03*
X22260000Y7030000D03*
X22660000Y7030000D03*
X23060000Y7030000D03*
X23460000Y7030000D03*
X23860000Y7030000D03*
D113*
X24260000Y7030000D03*
D71*
X-21308000Y1524000D03*
X-20348000Y1524000D03*
D72*
X21308000Y-1524000D03*
X20348000Y-1524000D03*
D73*
X-1524000Y21308000D03*
X-1524000Y20348000D03*
D72*
X21308000Y8636000D03*
X20348000Y8636000D03*
D74*
X1524000Y-21308000D03*
X1524000Y-20348000D03*
X-1524000Y-21308000D03*
X-1524000Y-20348000D03*
D94*
X-28530000Y12065000D03*
X-32430000Y12065000D03*
X-28530000Y10795000D03*
X-32430000Y10795000D03*
X-28530000Y9525000D03*
X-32430000Y9525000D03*
X-28530000Y8255000D03*
X-32430000Y8255000D03*
X-28530000Y6985000D03*
X-32430000Y6985000D03*
X-28530000Y5715000D03*
X-32430000Y5715000D03*
X-28530000Y4445000D03*
X-32430000Y4445000D03*
X-28530000Y3175000D03*
X-32430000Y3175000D03*
X-28530000Y1905000D03*
X-32430000Y1905000D03*
X-28530000Y635000D03*
X-32430000Y635000D03*
X-28530000Y-635000D03*
X-32430000Y-635000D03*
X-28530000Y-1905000D03*
X-32430000Y-1905000D03*
X-28530000Y-3175000D03*
X-32430000Y-3175000D03*
X-28530000Y-4445000D03*
X-32430000Y-4445000D03*
X-28530000Y-5715000D03*
X-32430000Y-5715000D03*
X-28530000Y-6985000D03*
X-32430000Y-6985000D03*
X-28530000Y-8255000D03*
X-32430000Y-8255000D03*
X-28530000Y-9525000D03*
X-32430000Y-9525000D03*
X-28530000Y-10795000D03*
X-32430000Y-10795000D03*
X-28530000Y-12065000D03*
X-32430000Y-12065000D03*
D57*
X-23947500Y-3992500D03*
D52*
X-23285000Y-5505000D03*
X-23285000Y-4655000D03*
D55*
X-23285000Y-3992500D03*
D53*
X-21772500Y-5505000D03*
D59*
X-21772500Y-6167500D03*
D56*
X-23947500Y-5505000D03*
D60*
X-21772500Y-3992500D03*
D55*
X-22435000Y-3992500D03*
D56*
X-23947500Y-4655000D03*
D52*
X-22435000Y-4655000D03*
D54*
X-23285000Y-6167500D03*
X-22435000Y-6167500D03*
D53*
X-21772500Y-4655000D03*
D52*
X-22435000Y-5505000D03*
D58*
X-23947500Y-6167500D03*
D61*
X-24810000Y-6480000D03*
D62*
X-24810000Y-6080000D03*
X-24810000Y-5680000D03*
X-24810000Y-5280000D03*
X-24810000Y-4880000D03*
X-24810000Y-4480000D03*
X-24810000Y-4080000D03*
D63*
X-24810000Y-3680000D03*
D64*
X-24260000Y-3130000D03*
D65*
X-23860000Y-3130000D03*
X-23460000Y-3130000D03*
X-23060000Y-3130000D03*
X-22660000Y-3130000D03*
X-22260000Y-3130000D03*
X-21860000Y-3130000D03*
D66*
X-21460000Y-3130000D03*
D67*
X-20910000Y-3680000D03*
D62*
X-20910000Y-4080000D03*
X-20910000Y-4480000D03*
X-20910000Y-4880000D03*
X-20910000Y-5280000D03*
X-20910000Y-5680000D03*
X-20910000Y-6080000D03*
D68*
X-20910000Y-6480000D03*
D69*
X-21460000Y-7030000D03*
D65*
X-21860000Y-7030000D03*
X-22260000Y-7030000D03*
X-22660000Y-7030000D03*
X-23060000Y-7030000D03*
X-23460000Y-7030000D03*
X-23860000Y-7030000D03*
D70*
X-24260000Y-7030000D03*
D81*
X3992500Y23947500D03*
D75*
X5505000Y23285000D03*
X5505000Y22435000D03*
D78*
X6167500Y22435000D03*
D76*
X4655000Y21772500D03*
X5505000Y21772500D03*
D82*
X6167500Y23947500D03*
D77*
X3992500Y22435000D03*
D75*
X4655000Y22435000D03*
D83*
X4655000Y23947500D03*
D77*
X3992500Y23285000D03*
D80*
X3992500Y21772500D03*
D75*
X4655000Y23285000D03*
D79*
X6167500Y21772500D03*
D78*
X6167500Y23285000D03*
D83*
X5505000Y23947500D03*
D84*
X3680000Y24810000D03*
D85*
X4080000Y24810000D03*
X4480000Y24810000D03*
X4880000Y24810000D03*
X5280000Y24810000D03*
X5680000Y24810000D03*
X6080000Y24810000D03*
D86*
X6480000Y24810000D03*
D87*
X7030000Y24260000D03*
D88*
X7030000Y23860000D03*
X7030000Y23460000D03*
X7030000Y23060000D03*
X7030000Y22660000D03*
X7030000Y22260000D03*
X7030000Y21860000D03*
D89*
X7030000Y21460000D03*
D90*
X6480000Y20910000D03*
D85*
X6080000Y20910000D03*
X5680000Y20910000D03*
X5280000Y20910000D03*
X4880000Y20910000D03*
X4480000Y20910000D03*
X4080000Y20910000D03*
D91*
X3680000Y20910000D03*
D92*
X3130000Y21460000D03*
D88*
X3130000Y21860000D03*
X3130000Y22260000D03*
X3130000Y22660000D03*
X3130000Y23060000D03*
X3130000Y23460000D03*
X3130000Y23860000D03*
D93*
X3130000Y24260000D03*
D74*
X-8636000Y-21308000D03*
X-8636000Y-20348000D03*
D114*
X13197208Y-11059792D03*
X12101192Y-12155808D03*
D115*
X-12065000Y-28530000D03*
X-12065000Y-32430000D03*
X-10795000Y-28530000D03*
X-10795000Y-32430000D03*
X-9525000Y-28530000D03*
X-9525000Y-32430000D03*
X-8255000Y-28530000D03*
X-8255000Y-32430000D03*
X-6985000Y-28530000D03*
X-6985000Y-32430000D03*
X-5715000Y-28530000D03*
X-5715000Y-32430000D03*
X-4445000Y-28530000D03*
X-4445000Y-32430000D03*
X-3175000Y-28530000D03*
X-3175000Y-32430000D03*
X-1905000Y-28530000D03*
X-1905000Y-32430000D03*
X-635000Y-28530000D03*
X-635000Y-32430000D03*
X635000Y-28530000D03*
X635000Y-32430000D03*
X1905000Y-28530000D03*
X1905000Y-32430000D03*
X3175000Y-28530000D03*
X3175000Y-32430000D03*
X4445000Y-28530000D03*
X4445000Y-32430000D03*
X5715000Y-28530000D03*
X5715000Y-32430000D03*
X6985000Y-28530000D03*
X6985000Y-32430000D03*
X8255000Y-28530000D03*
X8255000Y-32430000D03*
X9525000Y-28530000D03*
X9525000Y-32430000D03*
X10795000Y-28530000D03*
X10795000Y-32430000D03*
X12065000Y-28530000D03*
X12065000Y-32430000D03*
D38*
X6167500Y-21772500D03*
D39*
X5505000Y-21772500D03*
D33*
X6167500Y-23285000D03*
D37*
X6167500Y-23947500D03*
D40*
X5505000Y-23947500D03*
D35*
X5505000Y-23285000D03*
D34*
X3992500Y-21772500D03*
D35*
X4655000Y-23285000D03*
D36*
X3992500Y-23285000D03*
D39*
X4655000Y-21772500D03*
D41*
X3992500Y-23947500D03*
D36*
X3992500Y-22435000D03*
D35*
X5505000Y-22435000D03*
X4655000Y-22435000D03*
D33*
X6167500Y-22435000D03*
D40*
X4655000Y-23947500D03*
D42*
X6480000Y-24810000D03*
D43*
X6080000Y-24810000D03*
X5680000Y-24810000D03*
X5280000Y-24810000D03*
X4880000Y-24810000D03*
X4480000Y-24810000D03*
X4080000Y-24810000D03*
D44*
X3680000Y-24810000D03*
D45*
X3130000Y-24260000D03*
D46*
X3130000Y-23860000D03*
X3130000Y-23460000D03*
X3130000Y-23060000D03*
X3130000Y-22660000D03*
X3130000Y-22260000D03*
X3130000Y-21860000D03*
D47*
X3130000Y-21460000D03*
D48*
X3680000Y-20910000D03*
D43*
X4080000Y-20910000D03*
X4480000Y-20910000D03*
X4880000Y-20910000D03*
X5280000Y-20910000D03*
X5680000Y-20910000D03*
X6080000Y-20910000D03*
D49*
X6480000Y-20910000D03*
D50*
X7030000Y-21460000D03*
D46*
X7030000Y-21860000D03*
X7030000Y-22260000D03*
X7030000Y-22660000D03*
X7030000Y-23060000D03*
X7030000Y-23460000D03*
X7030000Y-23860000D03*
D51*
X7030000Y-24260000D03*
D73*
X-19304000Y-6632000D03*
X-19304000Y-7592000D03*
X8636000Y21308000D03*
X8636000Y20348000D03*
D71*
X6632000Y-19304000D03*
X7592000Y-19304000D03*
X-21308000Y-1524000D03*
X-20348000Y-1524000D03*
D74*
X19304000Y6632000D03*
X19304000Y7592000D03*
D100*
X23285000Y-6167500D03*
D96*
X22435000Y-4655000D03*
X23285000Y-5505000D03*
D102*
X21772500Y-3992500D03*
D101*
X21772500Y-6167500D03*
D96*
X22435000Y-5505000D03*
D99*
X21772500Y-4655000D03*
D103*
X23947500Y-6167500D03*
D95*
X23947500Y-4655000D03*
D96*
X23285000Y-4655000D03*
D100*
X22435000Y-6167500D03*
D97*
X23947500Y-3992500D03*
D95*
X23947500Y-5505000D03*
D98*
X22435000Y-3992500D03*
D99*
X21772500Y-5505000D03*
D98*
X23285000Y-3992500D03*
D104*
X24810000Y-3680000D03*
D105*
X24810000Y-4080000D03*
X24810000Y-4480000D03*
X24810000Y-4880000D03*
X24810000Y-5280000D03*
X24810000Y-5680000D03*
X24810000Y-6080000D03*
D106*
X24810000Y-6480000D03*
D107*
X24260000Y-7030000D03*
D108*
X23860000Y-7030000D03*
X23460000Y-7030000D03*
X23060000Y-7030000D03*
X22660000Y-7030000D03*
X22260000Y-7030000D03*
X21860000Y-7030000D03*
D109*
X21460000Y-7030000D03*
D110*
X20910000Y-6480000D03*
D105*
X20910000Y-6080000D03*
X20910000Y-5680000D03*
X20910000Y-5280000D03*
X20910000Y-4880000D03*
X20910000Y-4480000D03*
X20910000Y-4080000D03*
D111*
X20910000Y-3680000D03*
D112*
X21460000Y-3130000D03*
D108*
X21860000Y-3130000D03*
X22260000Y-3130000D03*
X22660000Y-3130000D03*
X23060000Y-3130000D03*
X23460000Y-3130000D03*
X23860000Y-3130000D03*
D113*
X24260000Y-3130000D03*
D116*
X11686885Y-10343383D03*
X11015134Y-11015134D03*
X10343383Y-11686885D03*
X8734715Y-10078217D03*
X10078217Y-8734715D03*
D72*
X-6632000Y19304000D03*
X-7592000Y19304000D03*
D73*
X-19304000Y3528000D03*
X-19304000Y2568000D03*
D72*
X21308000Y1524000D03*
X20348000Y1524000D03*
D71*
X-21308000Y-8636000D03*
X-20348000Y-8636000D03*
D74*
X8636000Y-21308000D03*
X8636000Y-20348000D03*
D115*
X12065000Y28530000D03*
X12065000Y32430000D03*
X10795000Y28530000D03*
X10795000Y32430000D03*
X9525000Y28530000D03*
X9525000Y32430000D03*
X8255000Y28530000D03*
X8255000Y32430000D03*
X6985000Y28530000D03*
X6985000Y32430000D03*
X5715000Y28530000D03*
X5715000Y32430000D03*
X4445000Y28530000D03*
X4445000Y32430000D03*
X3175000Y28530000D03*
X3175000Y32430000D03*
X1905000Y28530000D03*
X1905000Y32430000D03*
X635000Y28530000D03*
X635000Y32430000D03*
X-635000Y28530000D03*
X-635000Y32430000D03*
X-1905000Y28530000D03*
X-1905000Y32430000D03*
X-3175000Y28530000D03*
X-3175000Y32430000D03*
X-4445000Y28530000D03*
X-4445000Y32430000D03*
X-5715000Y28530000D03*
X-5715000Y32430000D03*
X-6985000Y28530000D03*
X-6985000Y32430000D03*
X-8255000Y28530000D03*
X-8255000Y32430000D03*
X-9525000Y28530000D03*
X-9525000Y32430000D03*
X-10795000Y28530000D03*
X-10795000Y32430000D03*
X-12065000Y28530000D03*
X-12065000Y32430000D03*
M02*
