G04 #@! TF.GenerationSoftware,KiCad,Pcbnew,5.99.0-unknown-243631a095~131~ubuntu18.04.1*
G04 #@! TF.CreationDate,2021-09-05T03:56:39+03:00*
G04 #@! TF.ProjectId,FreeEEG128-alpha,46726565-4545-4473-9132-382d616c7068,rev?*
G04 #@! TF.SameCoordinates,Original*
G04 #@! TF.FileFunction,Copper,L1,Top*
G04 #@! TF.FilePolarity,Positive*
%FSLAX46Y46*%
G04 Gerber Fmt 4.6, Leading zero omitted, Abs format (unit mm)*
G04 Created by KiCad (PCBNEW 5.99.0-unknown-243631a095~131~ubuntu18.04.1) date 2021-09-05 03:56:39*
%MOMM*%
%LPD*%
G01*
G04 APERTURE LIST*
G04 Aperture macros list*
%AMRoundRect*
0 Rectangle with rounded corners*
0 $1 Rounding radius*
0 $2 $3 $4 $5 $6 $7 $8 $9 X,Y pos of 4 corners*
0 Add a 4 corners polygon primitive as box body*
4,1,4,$2,$3,$4,$5,$6,$7,$8,$9,$2,$3,0*
0 Add four circle primitives for the rounded corners*
1,1,$1+$1,$2,$3*
1,1,$1+$1,$4,$5*
1,1,$1+$1,$6,$7*
1,1,$1+$1,$8,$9*
0 Add four rect primitives between the rounded corners*
20,1,$1+$1,$2,$3,$4,$5,0*
20,1,$1+$1,$4,$5,$6,$7,0*
20,1,$1+$1,$6,$7,$8,$9,0*
20,1,$1+$1,$8,$9,$2,$3,0*%
%AMHorizOval*
0 Thick line with rounded ends*
0 $1 width*
0 $2 $3 position (X,Y) of the first rounded end (center of the circle)*
0 $4 $5 position (X,Y) of the second rounded end (center of the circle)*
0 Add line between two ends*
20,1,$1,$2,$3,$4,$5,0*
0 Add two circle primitives to create the rounded ends*
1,1,$1,$2,$3*
1,1,$1,$4,$5*%
%AMRotRect*
0 Rectangle, with rotation*
0 The origin of the aperture is its center*
0 $1 length*
0 $2 width*
0 $3 Rotation angle, in degrees counterclockwise*
0 Add horizontal line*
21,1,$1,$2,0,0,$3*%
%AMFreePoly0*
4,1,15,0.314644,0.085355,0.385355,0.014645,0.385355,0.014644,0.400000,-0.020711,0.400000,-0.050000,0.385355,-0.085355,0.350000,-0.100000,-0.350000,-0.100000,-0.385355,-0.085355,-0.400000,-0.050000,-0.400000,0.050000,-0.385355,0.085355,-0.350000,0.100000,0.279289,0.100000,0.314644,0.085355,0.314644,0.085355,$1*%
%AMFreePoly1*
4,1,15,0.385355,0.085355,0.400000,0.050000,0.400000,0.020711,0.397487,0.014645,0.385355,-0.014645,0.314644,-0.085355,0.279289,-0.100000,-0.350000,-0.100000,-0.385355,-0.085355,-0.400000,-0.050000,-0.400000,0.050000,-0.385355,0.085355,-0.350000,0.100000,0.350000,0.100000,0.385355,0.085355,0.385355,0.085355,$1*%
%AMFreePoly2*
4,1,15,0.085355,0.385355,0.100000,0.350000,0.100000,-0.350000,0.085355,-0.385355,0.050000,-0.400000,-0.050000,-0.400000,-0.085355,-0.385355,-0.100000,-0.350000,-0.100000,0.279289,-0.085355,0.314644,-0.014645,0.385355,-0.004289,0.389644,0.020711,0.400000,0.050000,0.400000,0.085355,0.385355,0.085355,0.385355,$1*%
%AMFreePoly3*
4,1,15,0.014644,0.385355,0.085355,0.314645,0.085355,0.314644,0.100000,0.279289,0.100000,-0.350000,0.085355,-0.385355,0.050000,-0.400000,-0.050000,-0.400000,-0.085355,-0.385355,-0.100000,-0.350000,-0.100000,0.350000,-0.085355,0.385355,-0.050000,0.400000,-0.020711,0.400000,0.014644,0.385355,0.014644,0.385355,$1*%
%AMFreePoly4*
4,1,15,0.385355,0.085355,0.400000,0.050000,0.400000,-0.050000,0.385355,-0.085355,0.350000,-0.100000,-0.279289,-0.100000,-0.304289,-0.089644,-0.314645,-0.085355,-0.385355,-0.014644,-0.400000,0.020711,-0.400000,0.050000,-0.385355,0.085355,-0.350000,0.100000,0.350000,0.100000,0.385355,0.085355,0.385355,0.085355,$1*%
%AMFreePoly5*
4,1,15,0.385355,0.085355,0.400000,0.050000,0.400000,-0.050000,0.385355,-0.085355,0.350000,-0.100000,-0.350000,-0.100000,-0.385355,-0.085355,-0.400000,-0.050000,-0.400000,-0.020711,-0.385355,0.014644,-0.314645,0.085355,-0.304289,0.089644,-0.279289,0.100000,0.350000,0.100000,0.385355,0.085355,0.385355,0.085355,$1*%
%AMFreePoly6*
4,1,15,0.085355,0.385355,0.100000,0.350000,0.100000,-0.279289,0.091421,-0.300000,0.085355,-0.314645,0.014644,-0.385355,-0.020711,-0.400000,-0.050000,-0.400000,-0.085355,-0.385355,-0.100000,-0.350000,-0.100000,0.350000,-0.085355,0.385355,-0.050000,0.400000,0.050000,0.400000,0.085355,0.385355,0.085355,0.385355,$1*%
%AMFreePoly7*
4,1,15,0.085355,0.385355,0.100000,0.350000,0.100000,-0.350000,0.085355,-0.385355,0.050000,-0.400000,0.020711,-0.400000,-0.004289,-0.389644,-0.014645,-0.385355,-0.085355,-0.314644,-0.100000,-0.279289,-0.100000,0.350000,-0.085355,0.385355,-0.050000,0.400000,0.050000,0.400000,0.085355,0.385355,0.085355,0.385355,$1*%
G04 Aperture macros list end*
G04 #@! TA.AperFunction,ComponentPad*
%ADD10R,1.000000X1.000000*%
G04 #@! TD*
G04 #@! TA.AperFunction,ComponentPad*
%ADD11O,1.000000X1.000000*%
G04 #@! TD*
G04 #@! TA.AperFunction,SMDPad,CuDef*
%ADD12RotRect,1.075000X0.250000X45.000000*%
G04 #@! TD*
G04 #@! TA.AperFunction,SMDPad,CuDef*
%ADD13RotRect,0.250000X1.075000X45.000000*%
G04 #@! TD*
G04 #@! TA.AperFunction,SMDPad,CuDef*
%ADD14RoundRect,0.147500X-0.226274X-0.017678X-0.017678X-0.226274X0.226274X0.017678X0.017678X0.226274X0*%
G04 #@! TD*
G04 #@! TA.AperFunction,SMDPad,CuDef*
%ADD15RoundRect,0.147500X0.017678X-0.226274X0.226274X-0.017678X-0.017678X0.226274X-0.226274X0.017678X0*%
G04 #@! TD*
G04 #@! TA.AperFunction,SMDPad,CuDef*
%ADD16RoundRect,0.218750X0.026517X-0.335876X0.335876X-0.026517X-0.026517X0.335876X-0.335876X0.026517X0*%
G04 #@! TD*
G04 #@! TA.AperFunction,ComponentPad*
%ADD17RotRect,1.700000X1.700000X45.000000*%
G04 #@! TD*
G04 #@! TA.AperFunction,ComponentPad*
%ADD18HorizOval,1.700000X0.000000X0.000000X0.000000X0.000000X0*%
G04 #@! TD*
G04 #@! TA.AperFunction,SMDPad,CuDef*
%ADD19RoundRect,0.147500X-0.017678X0.226274X-0.226274X0.017678X0.017678X-0.226274X0.226274X-0.017678X0*%
G04 #@! TD*
G04 #@! TA.AperFunction,SMDPad,CuDef*
%ADD20RotRect,1.060000X0.650000X225.000000*%
G04 #@! TD*
G04 #@! TA.AperFunction,SMDPad,CuDef*
%ADD21RotRect,2.280000X1.500000X135.000000*%
G04 #@! TD*
G04 #@! TA.AperFunction,SMDPad,CuDef*
%ADD22RoundRect,0.147500X0.226274X0.017678X0.017678X0.226274X-0.226274X-0.017678X-0.017678X-0.226274X0*%
G04 #@! TD*
G04 #@! TA.AperFunction,SMDPad,CuDef*
%ADD23RoundRect,0.218750X-0.335876X-0.026517X-0.026517X-0.335876X0.335876X0.026517X0.026517X0.335876X0*%
G04 #@! TD*
G04 #@! TA.AperFunction,SMDPad,CuDef*
%ADD24RotRect,0.400000X1.350000X135.000000*%
G04 #@! TD*
G04 #@! TA.AperFunction,SMDPad,CuDef*
%ADD25RotRect,1.200000X1.900000X135.000000*%
G04 #@! TD*
G04 #@! TA.AperFunction,ComponentPad*
%ADD26C,1.450000*%
G04 #@! TD*
G04 #@! TA.AperFunction,ComponentPad*
%ADD27HorizOval,1.200000X-0.247487X-0.247487X0.247487X0.247487X0*%
G04 #@! TD*
G04 #@! TA.AperFunction,SMDPad,CuDef*
%ADD28RotRect,1.500000X1.900000X135.000000*%
G04 #@! TD*
G04 #@! TA.AperFunction,ComponentPad*
%ADD29HorizOval,1.200000X0.247487X0.247487X-0.247487X-0.247487X0*%
G04 #@! TD*
G04 #@! TA.AperFunction,SMDPad,CuDef*
%ADD30RotRect,0.900000X1.700000X225.000000*%
G04 #@! TD*
G04 #@! TA.AperFunction,SMDPad,CuDef*
%ADD31RotRect,1.750000X1.800000X225.000000*%
G04 #@! TD*
G04 #@! TA.AperFunction,ComponentPad*
%ADD32RotRect,1.700000X1.700000X225.000000*%
G04 #@! TD*
G04 #@! TA.AperFunction,ComponentPad*
%ADD33HorizOval,1.700000X0.000000X0.000000X0.000000X0.000000X0*%
G04 #@! TD*
G04 #@! TA.AperFunction,SMDPad,CuDef*
%ADD34R,2.000000X3.500000*%
G04 #@! TD*
G04 #@! TA.AperFunction,SMDPad,CuDef*
%ADD35RotRect,0.900000X1.700000X45.000000*%
G04 #@! TD*
G04 #@! TA.AperFunction,SMDPad,CuDef*
%ADD36RoundRect,0.218750X0.335876X0.026517X0.026517X0.335876X-0.335876X-0.026517X-0.026517X-0.335876X0*%
G04 #@! TD*
G04 #@! TA.AperFunction,ComponentPad*
%ADD37RotRect,1.700000X1.700000X315.000000*%
G04 #@! TD*
G04 #@! TA.AperFunction,ComponentPad*
%ADD38HorizOval,1.700000X0.000000X0.000000X0.000000X0.000000X0*%
G04 #@! TD*
G04 #@! TA.AperFunction,SMDPad,CuDef*
%ADD39RotRect,1.500000X0.600000X135.000000*%
G04 #@! TD*
G04 #@! TA.AperFunction,ComponentPad*
%ADD40RotRect,1.700000X1.700000X135.000000*%
G04 #@! TD*
G04 #@! TA.AperFunction,ComponentPad*
%ADD41HorizOval,1.700000X0.000000X0.000000X0.000000X0.000000X0*%
G04 #@! TD*
G04 #@! TA.AperFunction,SMDPad,CuDef*
%ADD42RoundRect,0.140000X-0.170000X0.140000X-0.170000X-0.140000X0.170000X-0.140000X0.170000X0.140000X0*%
G04 #@! TD*
G04 #@! TA.AperFunction,SMDPad,CuDef*
%ADD43RoundRect,0.140000X0.140000X0.170000X-0.140000X0.170000X-0.140000X-0.170000X0.140000X-0.170000X0*%
G04 #@! TD*
G04 #@! TA.AperFunction,SMDPad,CuDef*
%ADD44RoundRect,0.140000X-0.140000X-0.170000X0.140000X-0.170000X0.140000X0.170000X-0.140000X0.170000X0*%
G04 #@! TD*
G04 #@! TA.AperFunction,SMDPad,CuDef*
%ADD45FreePoly0,180.000000*%
G04 #@! TD*
G04 #@! TA.AperFunction,SMDPad,CuDef*
%ADD46RoundRect,0.050000X0.350000X0.050000X-0.350000X0.050000X-0.350000X-0.050000X0.350000X-0.050000X0*%
G04 #@! TD*
G04 #@! TA.AperFunction,SMDPad,CuDef*
%ADD47FreePoly1,180.000000*%
G04 #@! TD*
G04 #@! TA.AperFunction,SMDPad,CuDef*
%ADD48FreePoly2,180.000000*%
G04 #@! TD*
G04 #@! TA.AperFunction,SMDPad,CuDef*
%ADD49RoundRect,0.050000X0.050000X0.350000X-0.050000X0.350000X-0.050000X-0.350000X0.050000X-0.350000X0*%
G04 #@! TD*
G04 #@! TA.AperFunction,SMDPad,CuDef*
%ADD50FreePoly3,180.000000*%
G04 #@! TD*
G04 #@! TA.AperFunction,SMDPad,CuDef*
%ADD51FreePoly4,180.000000*%
G04 #@! TD*
G04 #@! TA.AperFunction,SMDPad,CuDef*
%ADD52FreePoly5,180.000000*%
G04 #@! TD*
G04 #@! TA.AperFunction,SMDPad,CuDef*
%ADD53FreePoly6,180.000000*%
G04 #@! TD*
G04 #@! TA.AperFunction,SMDPad,CuDef*
%ADD54FreePoly7,180.000000*%
G04 #@! TD*
G04 #@! TA.AperFunction,ComponentPad*
%ADD55C,0.500000*%
G04 #@! TD*
G04 #@! TA.AperFunction,SMDPad,CuDef*
%ADD56R,2.650000X2.650000*%
G04 #@! TD*
G04 #@! TA.AperFunction,SMDPad,CuDef*
%ADD57RoundRect,0.140000X0.170000X-0.140000X0.170000X0.140000X-0.170000X0.140000X-0.170000X-0.140000X0*%
G04 #@! TD*
G04 #@! TA.AperFunction,SMDPad,CuDef*
%ADD58R,2.400000X0.740000*%
G04 #@! TD*
G04 #@! TA.AperFunction,SMDPad,CuDef*
%ADD59FreePoly0,270.000000*%
G04 #@! TD*
G04 #@! TA.AperFunction,SMDPad,CuDef*
%ADD60RoundRect,0.050000X-0.050000X0.350000X-0.050000X-0.350000X0.050000X-0.350000X0.050000X0.350000X0*%
G04 #@! TD*
G04 #@! TA.AperFunction,SMDPad,CuDef*
%ADD61FreePoly1,270.000000*%
G04 #@! TD*
G04 #@! TA.AperFunction,SMDPad,CuDef*
%ADD62FreePoly2,270.000000*%
G04 #@! TD*
G04 #@! TA.AperFunction,SMDPad,CuDef*
%ADD63RoundRect,0.050000X-0.350000X0.050000X-0.350000X-0.050000X0.350000X-0.050000X0.350000X0.050000X0*%
G04 #@! TD*
G04 #@! TA.AperFunction,SMDPad,CuDef*
%ADD64FreePoly3,270.000000*%
G04 #@! TD*
G04 #@! TA.AperFunction,SMDPad,CuDef*
%ADD65FreePoly4,270.000000*%
G04 #@! TD*
G04 #@! TA.AperFunction,SMDPad,CuDef*
%ADD66FreePoly5,270.000000*%
G04 #@! TD*
G04 #@! TA.AperFunction,SMDPad,CuDef*
%ADD67FreePoly6,270.000000*%
G04 #@! TD*
G04 #@! TA.AperFunction,SMDPad,CuDef*
%ADD68FreePoly7,270.000000*%
G04 #@! TD*
G04 #@! TA.AperFunction,SMDPad,CuDef*
%ADD69RoundRect,0.135000X-0.185000X0.135000X-0.185000X-0.135000X0.185000X-0.135000X0.185000X0.135000X0*%
G04 #@! TD*
G04 #@! TA.AperFunction,SMDPad,CuDef*
%ADD70RoundRect,0.225000X0.335876X0.017678X0.017678X0.335876X-0.335876X-0.017678X-0.017678X-0.335876X0*%
G04 #@! TD*
G04 #@! TA.AperFunction,SMDPad,CuDef*
%ADD71FreePoly0,0.000000*%
G04 #@! TD*
G04 #@! TA.AperFunction,SMDPad,CuDef*
%ADD72RoundRect,0.050000X-0.350000X-0.050000X0.350000X-0.050000X0.350000X0.050000X-0.350000X0.050000X0*%
G04 #@! TD*
G04 #@! TA.AperFunction,SMDPad,CuDef*
%ADD73FreePoly1,0.000000*%
G04 #@! TD*
G04 #@! TA.AperFunction,SMDPad,CuDef*
%ADD74FreePoly2,0.000000*%
G04 #@! TD*
G04 #@! TA.AperFunction,SMDPad,CuDef*
%ADD75RoundRect,0.050000X-0.050000X-0.350000X0.050000X-0.350000X0.050000X0.350000X-0.050000X0.350000X0*%
G04 #@! TD*
G04 #@! TA.AperFunction,SMDPad,CuDef*
%ADD76FreePoly3,0.000000*%
G04 #@! TD*
G04 #@! TA.AperFunction,SMDPad,CuDef*
%ADD77FreePoly4,0.000000*%
G04 #@! TD*
G04 #@! TA.AperFunction,SMDPad,CuDef*
%ADD78FreePoly5,0.000000*%
G04 #@! TD*
G04 #@! TA.AperFunction,SMDPad,CuDef*
%ADD79FreePoly6,0.000000*%
G04 #@! TD*
G04 #@! TA.AperFunction,SMDPad,CuDef*
%ADD80FreePoly7,0.000000*%
G04 #@! TD*
G04 #@! TA.AperFunction,SMDPad,CuDef*
%ADD81R,1.560000X0.650000*%
G04 #@! TD*
G04 #@! TA.AperFunction,SMDPad,CuDef*
%ADD82FreePoly0,90.000000*%
G04 #@! TD*
G04 #@! TA.AperFunction,SMDPad,CuDef*
%ADD83RoundRect,0.050000X0.050000X-0.350000X0.050000X0.350000X-0.050000X0.350000X-0.050000X-0.350000X0*%
G04 #@! TD*
G04 #@! TA.AperFunction,SMDPad,CuDef*
%ADD84FreePoly1,90.000000*%
G04 #@! TD*
G04 #@! TA.AperFunction,SMDPad,CuDef*
%ADD85FreePoly2,90.000000*%
G04 #@! TD*
G04 #@! TA.AperFunction,SMDPad,CuDef*
%ADD86RoundRect,0.050000X0.350000X-0.050000X0.350000X0.050000X-0.350000X0.050000X-0.350000X-0.050000X0*%
G04 #@! TD*
G04 #@! TA.AperFunction,SMDPad,CuDef*
%ADD87FreePoly3,90.000000*%
G04 #@! TD*
G04 #@! TA.AperFunction,SMDPad,CuDef*
%ADD88FreePoly4,90.000000*%
G04 #@! TD*
G04 #@! TA.AperFunction,SMDPad,CuDef*
%ADD89FreePoly5,90.000000*%
G04 #@! TD*
G04 #@! TA.AperFunction,SMDPad,CuDef*
%ADD90FreePoly6,90.000000*%
G04 #@! TD*
G04 #@! TA.AperFunction,SMDPad,CuDef*
%ADD91FreePoly7,90.000000*%
G04 #@! TD*
G04 #@! TA.AperFunction,SMDPad,CuDef*
%ADD92RoundRect,0.225000X-0.017678X0.335876X-0.335876X0.017678X0.017678X-0.335876X0.335876X-0.017678X0*%
G04 #@! TD*
G04 #@! TA.AperFunction,SMDPad,CuDef*
%ADD93RoundRect,0.150000X0.468458X-0.256326X-0.256326X0.468458X-0.468458X0.256326X0.256326X-0.468458X0*%
G04 #@! TD*
G04 #@! TA.AperFunction,SMDPad,CuDef*
%ADD94R,0.740000X2.400000*%
G04 #@! TD*
G04 #@! TA.AperFunction,SMDPad,CuDef*
%ADD95RoundRect,0.135000X0.135000X0.185000X-0.135000X0.185000X-0.135000X-0.185000X0.135000X-0.185000X0*%
G04 #@! TD*
G04 #@! TA.AperFunction,SMDPad,CuDef*
%ADD96R,2.200000X2.200000*%
G04 #@! TD*
G04 #@! TA.AperFunction,ViaPad*
%ADD97C,0.800000*%
G04 #@! TD*
G04 #@! TA.AperFunction,Conductor*
%ADD98C,0.200000*%
G04 #@! TD*
G04 #@! TA.AperFunction,Conductor*
%ADD99C,0.250000*%
G04 #@! TD*
G04 #@! TA.AperFunction,Conductor*
%ADD100C,0.500000*%
G04 #@! TD*
G04 #@! TA.AperFunction,Conductor*
%ADD101C,0.750000*%
G04 #@! TD*
G04 APERTURE END LIST*
D10*
X-16119000Y1900000D03*
D11*
X-17389000Y1900000D03*
X-16119000Y630000D03*
X-17389000Y630000D03*
X-16119000Y-640000D03*
X-17389000Y-640000D03*
X-16119000Y-1910000D03*
X-17389000Y-1910000D03*
D10*
X16119000Y-1900000D03*
D11*
X17389000Y-1900000D03*
X16119000Y-630000D03*
X17389000Y-630000D03*
X16119000Y640000D03*
X17389000Y640000D03*
X16119000Y1910000D03*
X17389000Y1910000D03*
D12*
X17431002Y-19506752D03*
X17784556Y-19860305D03*
X18138109Y-20213858D03*
X18491662Y-20567412D03*
D13*
X19499290Y-20213858D03*
X19852843Y-19860305D03*
X20206396Y-19506752D03*
D12*
X20559950Y-18499124D03*
X20206396Y-18145571D03*
X19852843Y-17792018D03*
X19499290Y-17438464D03*
D13*
X18491662Y-17792018D03*
X18138109Y-18145571D03*
X17784556Y-18499124D03*
D14*
X-24599947Y15963947D03*
X-23914053Y15278053D03*
D15*
X-9512347Y-16014747D03*
X-8826453Y-15328853D03*
D16*
X9730153Y13463953D03*
X10843847Y14577647D03*
D15*
X18707053Y-25107947D03*
X19392947Y-24422053D03*
X-23202947Y-25107947D03*
X-22517053Y-24422053D03*
D17*
X17888949Y26143949D03*
D18*
X19685000Y27940000D03*
D19*
X-21882053Y-20612053D03*
X-22567947Y-21297947D03*
X-7505653Y-11493453D03*
X-8191547Y-12179347D03*
D20*
X12244569Y10887094D03*
X11572817Y11558845D03*
X10901066Y12230597D03*
X9345431Y10674962D03*
X10688934Y9331459D03*
D15*
X24422053Y-19392947D03*
X25107947Y-18707053D03*
D21*
X-10126969Y-12813975D03*
X-12813975Y-10126969D03*
X-14511031Y-11824025D03*
X-11824025Y-14511031D03*
D22*
X-16421053Y-10020347D03*
X-17106947Y-9334453D03*
D23*
X19788553Y20953047D03*
X20902247Y19839353D03*
D24*
X22745095Y20887874D03*
X22285476Y21347493D03*
X21825856Y21807112D03*
X21366237Y22266732D03*
X20906618Y22726351D03*
D25*
X21684435Y25766910D03*
D26*
X23593623Y20039345D03*
D27*
X26209918Y21241427D03*
D28*
X23027938Y24423407D03*
D26*
X20058089Y23574879D03*
D28*
X24442151Y23009194D03*
D25*
X25785654Y21665691D03*
D29*
X21260171Y26191174D03*
D17*
X26143949Y17888949D03*
D18*
X27940000Y19685000D03*
D30*
X22157082Y-25467918D03*
X19752918Y-27872082D03*
D31*
X-7340600Y-7391400D03*
X-9638698Y-9689498D03*
D32*
X-17888949Y-26143949D03*
D33*
X-19685000Y-27940000D03*
D34*
X2100000Y-3250000D03*
X2100000Y3250000D03*
X-2100000Y3250000D03*
X-2100000Y-3250000D03*
D19*
X-20612053Y-21882053D03*
X-21297947Y-22567947D03*
D15*
X19922529Y-21885885D03*
X20608423Y-21199991D03*
D19*
X-8267653Y-10756853D03*
X-8953547Y-11442747D03*
D32*
X-26143949Y-17888949D03*
D33*
X-27940000Y-19685000D03*
D35*
X25467918Y-22157082D03*
X27872082Y-19752918D03*
D19*
X21983747Y-19824653D03*
X21297853Y-20510547D03*
D22*
X-11468053Y-8851947D03*
X-12153947Y-8166053D03*
D36*
X9446847Y7684181D03*
X8333153Y8797875D03*
D37*
X15983949Y-28048949D03*
D38*
X17780000Y-29845000D03*
X14187898Y-29845000D03*
X15983949Y-31641051D03*
D15*
X-25107947Y-23202947D03*
X-24422053Y-22517053D03*
D39*
X-16365043Y10078864D03*
X-15467017Y10976889D03*
X-14568992Y11874915D03*
X-13670966Y12772941D03*
X-12772941Y13670966D03*
X-11874915Y14568992D03*
X-10976889Y15467017D03*
X-10078864Y16365043D03*
X-16654957Y22941136D03*
X-17552983Y22043111D03*
X-18451008Y21145085D03*
X-19349034Y20247059D03*
X-20247059Y19349034D03*
X-21145085Y18451008D03*
X-22043111Y17552983D03*
X-22941136Y16654957D03*
D15*
X-15074947Y9182053D03*
X-14389053Y9867947D03*
D40*
X-21063949Y22860000D03*
D41*
X-22860000Y24656051D03*
X-19267898Y24656051D03*
X-21063949Y26452102D03*
X-17471847Y26452102D03*
X-19267898Y28248154D03*
D37*
X29845000Y-14187898D03*
D38*
X31641051Y-15983949D03*
X28048949Y-15983949D03*
X29845000Y-17780000D03*
D40*
X-26452102Y17471846D03*
D41*
X-28248153Y19267897D03*
X-24656051Y19267897D03*
X-26452102Y21063948D03*
X-22860000Y21063948D03*
X-24656051Y22860000D03*
D42*
X19304000Y-6632000D03*
X19304000Y-7592000D03*
D43*
X3528000Y-19304000D03*
X2568000Y-19304000D03*
X21308000Y1524000D03*
X20348000Y1524000D03*
X21308000Y-8636000D03*
X20348000Y-8636000D03*
D44*
X-21308000Y-1524000D03*
X-20348000Y-1524000D03*
D45*
X24810000Y3680000D03*
D46*
X24810000Y4080000D03*
X24810000Y4480000D03*
X24810000Y4880000D03*
X24810000Y5280000D03*
X24810000Y5680000D03*
X24810000Y6080000D03*
D47*
X24810000Y6480000D03*
D48*
X24260000Y7030000D03*
D49*
X23860000Y7030000D03*
X23460000Y7030000D03*
X23060000Y7030000D03*
X22660000Y7030000D03*
X22260000Y7030000D03*
X21860000Y7030000D03*
D50*
X21460000Y7030000D03*
D51*
X20910000Y6480000D03*
D46*
X20910000Y6080000D03*
X20910000Y5680000D03*
X20910000Y5280000D03*
X20910000Y4880000D03*
X20910000Y4480000D03*
X20910000Y4080000D03*
D52*
X20910000Y3680000D03*
D53*
X21460000Y3130000D03*
D49*
X21860000Y3130000D03*
X22260000Y3130000D03*
X22660000Y3130000D03*
X23060000Y3130000D03*
X23460000Y3130000D03*
X23860000Y3130000D03*
D54*
X24260000Y3130000D03*
D55*
X22860000Y5080000D03*
X22010000Y5930000D03*
X22010000Y4230000D03*
X22860000Y5930000D03*
X22010000Y5080000D03*
X23710000Y4230000D03*
X23710000Y5080000D03*
X22860000Y4230000D03*
X23710000Y5930000D03*
D56*
X22860000Y5080000D03*
D57*
X-19304000Y-3528000D03*
X-19304000Y-2568000D03*
D58*
X28530000Y12065000D03*
X32430000Y12065000D03*
X28530000Y10795000D03*
X32430000Y10795000D03*
X28530000Y9525000D03*
X32430000Y9525000D03*
X28530000Y8255000D03*
X32430000Y8255000D03*
X28530000Y6985000D03*
X32430000Y6985000D03*
X28530000Y5715000D03*
X32430000Y5715000D03*
X28530000Y4445000D03*
X32430000Y4445000D03*
X28530000Y3175000D03*
X32430000Y3175000D03*
X28530000Y1905000D03*
X32430000Y1905000D03*
X28530000Y635000D03*
X32430000Y635000D03*
X28530000Y-635000D03*
X32430000Y-635000D03*
X28530000Y-1905000D03*
X32430000Y-1905000D03*
X28530000Y-3175000D03*
X32430000Y-3175000D03*
X28530000Y-4445000D03*
X32430000Y-4445000D03*
X28530000Y-5715000D03*
X32430000Y-5715000D03*
X28530000Y-6985000D03*
X32430000Y-6985000D03*
X28530000Y-8255000D03*
X32430000Y-8255000D03*
X28530000Y-9525000D03*
X32430000Y-9525000D03*
X28530000Y-10795000D03*
X32430000Y-10795000D03*
X28530000Y-12065000D03*
X32430000Y-12065000D03*
D44*
X6632000Y19304000D03*
X7592000Y19304000D03*
X-21308000Y1524000D03*
X-20348000Y1524000D03*
X-21308000Y8636000D03*
X-20348000Y8636000D03*
D59*
X-3680000Y24810000D03*
D60*
X-4080000Y24810000D03*
X-4480000Y24810000D03*
X-4880000Y24810000D03*
X-5280000Y24810000D03*
X-5680000Y24810000D03*
X-6080000Y24810000D03*
D61*
X-6480000Y24810000D03*
D62*
X-7030000Y24260000D03*
D63*
X-7030000Y23860000D03*
X-7030000Y23460000D03*
X-7030000Y23060000D03*
X-7030000Y22660000D03*
X-7030000Y22260000D03*
X-7030000Y21860000D03*
D64*
X-7030000Y21460000D03*
D65*
X-6480000Y20910000D03*
D60*
X-6080000Y20910000D03*
X-5680000Y20910000D03*
X-5280000Y20910000D03*
X-4880000Y20910000D03*
X-4480000Y20910000D03*
X-4080000Y20910000D03*
D66*
X-3680000Y20910000D03*
D67*
X-3130000Y21460000D03*
D63*
X-3130000Y21860000D03*
X-3130000Y22260000D03*
X-3130000Y22660000D03*
X-3130000Y23060000D03*
X-3130000Y23460000D03*
X-3130000Y23860000D03*
D68*
X-3130000Y24260000D03*
D55*
X-5080000Y22010000D03*
X-5930000Y23710000D03*
X-5930000Y22860000D03*
X-5080000Y22860000D03*
D56*
X-5080000Y22860000D03*
D55*
X-4230000Y23710000D03*
X-5930000Y22010000D03*
X-4230000Y22010000D03*
X-5080000Y23710000D03*
X-4230000Y22860000D03*
D44*
X-3528000Y19304000D03*
X-2568000Y19304000D03*
D10*
X-1900000Y-17389000D03*
D11*
X-1900000Y-16119000D03*
X-630000Y-17389000D03*
X-630000Y-16119000D03*
X640000Y-17389000D03*
X640000Y-16119000D03*
X1910000Y-17389000D03*
X1910000Y-16119000D03*
D58*
X-28530000Y-12065000D03*
X-32430000Y-12065000D03*
X-28530000Y-10795000D03*
X-32430000Y-10795000D03*
X-28530000Y-9525000D03*
X-32430000Y-9525000D03*
X-28530000Y-8255000D03*
X-32430000Y-8255000D03*
X-28530000Y-6985000D03*
X-32430000Y-6985000D03*
X-28530000Y-5715000D03*
X-32430000Y-5715000D03*
X-28530000Y-4445000D03*
X-32430000Y-4445000D03*
X-28530000Y-3175000D03*
X-32430000Y-3175000D03*
X-28530000Y-1905000D03*
X-32430000Y-1905000D03*
X-28530000Y-635000D03*
X-32430000Y-635000D03*
X-28530000Y635000D03*
X-32430000Y635000D03*
X-28530000Y1905000D03*
X-32430000Y1905000D03*
X-28530000Y3175000D03*
X-32430000Y3175000D03*
X-28530000Y4445000D03*
X-32430000Y4445000D03*
X-28530000Y5715000D03*
X-32430000Y5715000D03*
X-28530000Y6985000D03*
X-32430000Y6985000D03*
X-28530000Y8255000D03*
X-32430000Y8255000D03*
X-28530000Y9525000D03*
X-32430000Y9525000D03*
X-28530000Y10795000D03*
X-32430000Y10795000D03*
X-28530000Y12065000D03*
X-32430000Y12065000D03*
D42*
X3048000Y18260000D03*
X3048000Y17300000D03*
X-8636000Y21308000D03*
X-8636000Y20348000D03*
D69*
X-4064000Y510000D03*
X-4064000Y-510000D03*
D57*
X-1524000Y-21308000D03*
X-1524000Y-20348000D03*
X1524000Y-21308000D03*
X1524000Y-20348000D03*
D42*
X8636000Y21308000D03*
X8636000Y20348000D03*
X19304000Y3528000D03*
X19304000Y2568000D03*
X-1524000Y21308000D03*
X-1524000Y20348000D03*
D45*
X24810000Y-6480000D03*
D46*
X24810000Y-6080000D03*
X24810000Y-5680000D03*
X24810000Y-5280000D03*
X24810000Y-4880000D03*
X24810000Y-4480000D03*
X24810000Y-4080000D03*
D47*
X24810000Y-3680000D03*
D48*
X24260000Y-3130000D03*
D49*
X23860000Y-3130000D03*
X23460000Y-3130000D03*
X23060000Y-3130000D03*
X22660000Y-3130000D03*
X22260000Y-3130000D03*
X21860000Y-3130000D03*
D50*
X21460000Y-3130000D03*
D51*
X20910000Y-3680000D03*
D46*
X20910000Y-4080000D03*
X20910000Y-4480000D03*
X20910000Y-4880000D03*
X20910000Y-5280000D03*
X20910000Y-5680000D03*
X20910000Y-6080000D03*
D52*
X20910000Y-6480000D03*
D53*
X21460000Y-7030000D03*
D49*
X21860000Y-7030000D03*
X22260000Y-7030000D03*
X22660000Y-7030000D03*
X23060000Y-7030000D03*
X23460000Y-7030000D03*
X23860000Y-7030000D03*
D54*
X24260000Y-7030000D03*
D55*
X23710000Y-5080000D03*
X22010000Y-5930000D03*
X22860000Y-4230000D03*
D56*
X22860000Y-5080000D03*
D55*
X23710000Y-4230000D03*
X22860000Y-5930000D03*
X23710000Y-5930000D03*
X22010000Y-4230000D03*
X22010000Y-5080000D03*
X22860000Y-5080000D03*
D57*
X-19304000Y6632000D03*
X-19304000Y7592000D03*
D70*
X7406008Y-8396608D03*
X6309992Y-7300592D03*
D71*
X-24810000Y-3680000D03*
D72*
X-24810000Y-4080000D03*
X-24810000Y-4480000D03*
X-24810000Y-4880000D03*
X-24810000Y-5280000D03*
X-24810000Y-5680000D03*
X-24810000Y-6080000D03*
D73*
X-24810000Y-6480000D03*
D74*
X-24260000Y-7030000D03*
D75*
X-23860000Y-7030000D03*
X-23460000Y-7030000D03*
X-23060000Y-7030000D03*
X-22660000Y-7030000D03*
X-22260000Y-7030000D03*
X-21860000Y-7030000D03*
D76*
X-21460000Y-7030000D03*
D77*
X-20910000Y-6480000D03*
D72*
X-20910000Y-6080000D03*
X-20910000Y-5680000D03*
X-20910000Y-5280000D03*
X-20910000Y-4880000D03*
X-20910000Y-4480000D03*
X-20910000Y-4080000D03*
D78*
X-20910000Y-3680000D03*
D79*
X-21460000Y-3130000D03*
D75*
X-21860000Y-3130000D03*
X-22260000Y-3130000D03*
X-22660000Y-3130000D03*
X-23060000Y-3130000D03*
X-23460000Y-3130000D03*
X-23860000Y-3130000D03*
D80*
X-24260000Y-3130000D03*
D55*
X-23710000Y-4230000D03*
X-22010000Y-4230000D03*
X-22860000Y-4230000D03*
X-22860000Y-5930000D03*
X-22860000Y-5080000D03*
X-23710000Y-5080000D03*
D56*
X-22860000Y-5080000D03*
D55*
X-23710000Y-5930000D03*
X-22010000Y-5930000D03*
X-22010000Y-5080000D03*
D57*
X3048000Y15268000D03*
X3048000Y16228000D03*
D44*
X-21308000Y-8636000D03*
X-20348000Y-8636000D03*
D81*
X-1350000Y17714000D03*
X-1350000Y16764000D03*
X-1350000Y15814000D03*
X1350000Y15814000D03*
X1350000Y17714000D03*
D57*
X-8636000Y-21308000D03*
X-8636000Y-20348000D03*
D82*
X-6480000Y-24810000D03*
D83*
X-6080000Y-24810000D03*
X-5680000Y-24810000D03*
X-5280000Y-24810000D03*
X-4880000Y-24810000D03*
X-4480000Y-24810000D03*
X-4080000Y-24810000D03*
D84*
X-3680000Y-24810000D03*
D85*
X-3130000Y-24260000D03*
D86*
X-3130000Y-23860000D03*
X-3130000Y-23460000D03*
X-3130000Y-23060000D03*
X-3130000Y-22660000D03*
X-3130000Y-22260000D03*
X-3130000Y-21860000D03*
D87*
X-3130000Y-21460000D03*
D88*
X-3680000Y-20910000D03*
D83*
X-4080000Y-20910000D03*
X-4480000Y-20910000D03*
X-4880000Y-20910000D03*
X-5280000Y-20910000D03*
X-5680000Y-20910000D03*
X-6080000Y-20910000D03*
D89*
X-6480000Y-20910000D03*
D90*
X-7030000Y-21460000D03*
D86*
X-7030000Y-21860000D03*
X-7030000Y-22260000D03*
X-7030000Y-22660000D03*
X-7030000Y-23060000D03*
X-7030000Y-23460000D03*
X-7030000Y-23860000D03*
D91*
X-7030000Y-24260000D03*
D55*
X-5930000Y-22010000D03*
X-5080000Y-22860000D03*
X-4230000Y-23710000D03*
X-4230000Y-22010000D03*
X-5930000Y-22860000D03*
X-4230000Y-22860000D03*
X-5930000Y-23710000D03*
D56*
X-5080000Y-22860000D03*
D55*
X-5080000Y-22010000D03*
X-5080000Y-23710000D03*
D92*
X13197208Y-11059792D03*
X12101192Y-12155808D03*
D69*
X12192000Y-7110000D03*
X12192000Y-8130000D03*
D93*
X10343383Y-11686885D03*
X11015134Y-11015134D03*
X11686885Y-10343383D03*
X10078217Y-8734715D03*
X8734715Y-10078217D03*
D43*
X-6632000Y-19304000D03*
X-7592000Y-19304000D03*
D94*
X12065000Y-28530000D03*
X12065000Y-32430000D03*
X10795000Y-28530000D03*
X10795000Y-32430000D03*
X9525000Y-28530000D03*
X9525000Y-32430000D03*
X8255000Y-28530000D03*
X8255000Y-32430000D03*
X6985000Y-28530000D03*
X6985000Y-32430000D03*
X5715000Y-28530000D03*
X5715000Y-32430000D03*
X4445000Y-28530000D03*
X4445000Y-32430000D03*
X3175000Y-28530000D03*
X3175000Y-32430000D03*
X1905000Y-28530000D03*
X1905000Y-32430000D03*
X635000Y-28530000D03*
X635000Y-32430000D03*
X-635000Y-28530000D03*
X-635000Y-32430000D03*
X-1905000Y-28530000D03*
X-1905000Y-32430000D03*
X-3175000Y-28530000D03*
X-3175000Y-32430000D03*
X-4445000Y-28530000D03*
X-4445000Y-32430000D03*
X-5715000Y-28530000D03*
X-5715000Y-32430000D03*
X-6985000Y-28530000D03*
X-6985000Y-32430000D03*
X-8255000Y-28530000D03*
X-8255000Y-32430000D03*
X-9525000Y-28530000D03*
X-9525000Y-32430000D03*
X-10795000Y-28530000D03*
X-10795000Y-32430000D03*
X-12065000Y-28530000D03*
X-12065000Y-32430000D03*
D57*
X8636000Y-21308000D03*
X8636000Y-20348000D03*
D43*
X21308000Y8636000D03*
X20348000Y8636000D03*
D94*
X-12065000Y28530000D03*
X-12065000Y32430000D03*
X-10795000Y28530000D03*
X-10795000Y32430000D03*
X-9525000Y28530000D03*
X-9525000Y32430000D03*
X-8255000Y28530000D03*
X-8255000Y32430000D03*
X-6985000Y28530000D03*
X-6985000Y32430000D03*
X-5715000Y28530000D03*
X-5715000Y32430000D03*
X-4445000Y28530000D03*
X-4445000Y32430000D03*
X-3175000Y28530000D03*
X-3175000Y32430000D03*
X-1905000Y28530000D03*
X-1905000Y32430000D03*
X-635000Y28530000D03*
X-635000Y32430000D03*
X635000Y28530000D03*
X635000Y32430000D03*
X1905000Y28530000D03*
X1905000Y32430000D03*
X3175000Y28530000D03*
X3175000Y32430000D03*
X4445000Y28530000D03*
X4445000Y32430000D03*
X5715000Y28530000D03*
X5715000Y32430000D03*
X6985000Y28530000D03*
X6985000Y32430000D03*
X8255000Y28530000D03*
X8255000Y32430000D03*
X9525000Y28530000D03*
X9525000Y32430000D03*
X10795000Y28530000D03*
X10795000Y32430000D03*
X12065000Y28530000D03*
X12065000Y32430000D03*
D71*
X-24810000Y6480000D03*
D72*
X-24810000Y6080000D03*
X-24810000Y5680000D03*
X-24810000Y5280000D03*
X-24810000Y4880000D03*
X-24810000Y4480000D03*
X-24810000Y4080000D03*
D73*
X-24810000Y3680000D03*
D74*
X-24260000Y3130000D03*
D75*
X-23860000Y3130000D03*
X-23460000Y3130000D03*
X-23060000Y3130000D03*
X-22660000Y3130000D03*
X-22260000Y3130000D03*
X-21860000Y3130000D03*
D76*
X-21460000Y3130000D03*
D77*
X-20910000Y3680000D03*
D72*
X-20910000Y4080000D03*
X-20910000Y4480000D03*
X-20910000Y4880000D03*
X-20910000Y5280000D03*
X-20910000Y5680000D03*
X-20910000Y6080000D03*
D78*
X-20910000Y6480000D03*
D79*
X-21460000Y7030000D03*
D75*
X-21860000Y7030000D03*
X-22260000Y7030000D03*
X-22660000Y7030000D03*
X-23060000Y7030000D03*
X-23460000Y7030000D03*
X-23860000Y7030000D03*
D80*
X-24260000Y7030000D03*
D55*
X-22860000Y5930000D03*
X-22860000Y5080000D03*
X-22860000Y4230000D03*
X-22010000Y5080000D03*
X-23710000Y5080000D03*
X-22010000Y5930000D03*
D56*
X-22860000Y5080000D03*
D55*
X-23710000Y5930000D03*
X-22010000Y4230000D03*
X-23710000Y4230000D03*
D42*
X1524000Y21308000D03*
X1524000Y20348000D03*
X-3048000Y17752000D03*
X-3048000Y16792000D03*
D59*
X6480000Y24810000D03*
D60*
X6080000Y24810000D03*
X5680000Y24810000D03*
X5280000Y24810000D03*
X4880000Y24810000D03*
X4480000Y24810000D03*
X4080000Y24810000D03*
D61*
X3680000Y24810000D03*
D62*
X3130000Y24260000D03*
D63*
X3130000Y23860000D03*
X3130000Y23460000D03*
X3130000Y23060000D03*
X3130000Y22660000D03*
X3130000Y22260000D03*
X3130000Y21860000D03*
D64*
X3130000Y21460000D03*
D65*
X3680000Y20910000D03*
D60*
X4080000Y20910000D03*
X4480000Y20910000D03*
X4880000Y20910000D03*
X5280000Y20910000D03*
X5680000Y20910000D03*
X6080000Y20910000D03*
D66*
X6480000Y20910000D03*
D67*
X7030000Y21460000D03*
D63*
X7030000Y21860000D03*
X7030000Y22260000D03*
X7030000Y22660000D03*
X7030000Y23060000D03*
X7030000Y23460000D03*
X7030000Y23860000D03*
D68*
X7030000Y24260000D03*
D55*
X5080000Y22860000D03*
X5930000Y22860000D03*
X4230000Y22860000D03*
X5930000Y23710000D03*
D56*
X5080000Y22860000D03*
D55*
X5080000Y23710000D03*
X4230000Y22010000D03*
X4230000Y23710000D03*
X5930000Y22010000D03*
X5080000Y22010000D03*
D70*
X8472808Y-7329808D03*
X7376792Y-6233792D03*
D82*
X3680000Y-24810000D03*
D83*
X4080000Y-24810000D03*
X4480000Y-24810000D03*
X4880000Y-24810000D03*
X5280000Y-24810000D03*
X5680000Y-24810000D03*
X6080000Y-24810000D03*
D84*
X6480000Y-24810000D03*
D85*
X7030000Y-24260000D03*
D86*
X7030000Y-23860000D03*
X7030000Y-23460000D03*
X7030000Y-23060000D03*
X7030000Y-22660000D03*
X7030000Y-22260000D03*
X7030000Y-21860000D03*
D87*
X7030000Y-21460000D03*
D88*
X6480000Y-20910000D03*
D83*
X6080000Y-20910000D03*
X5680000Y-20910000D03*
X5280000Y-20910000D03*
X4880000Y-20910000D03*
X4480000Y-20910000D03*
X4080000Y-20910000D03*
D89*
X3680000Y-20910000D03*
D90*
X3130000Y-21460000D03*
D86*
X3130000Y-21860000D03*
X3130000Y-22260000D03*
X3130000Y-22660000D03*
X3130000Y-23060000D03*
X3130000Y-23460000D03*
X3130000Y-23860000D03*
D91*
X3130000Y-24260000D03*
D55*
X4230000Y-22860000D03*
X5080000Y-23710000D03*
X5930000Y-23710000D03*
X5930000Y-22860000D03*
X5930000Y-22010000D03*
X4230000Y-22010000D03*
X4230000Y-23710000D03*
X5080000Y-22010000D03*
D56*
X5080000Y-22860000D03*
D55*
X5080000Y-22860000D03*
D95*
X510000Y-6096000D03*
X-510000Y-6096000D03*
D43*
X21308000Y-1524000D03*
X20348000Y-1524000D03*
D26*
X-23593623Y-20058089D03*
D27*
X-21260171Y-26209918D03*
D26*
X-20058089Y-23593623D03*
D29*
X-26209918Y-21260171D03*
D55*
X-5080000Y-22010000D03*
X-5930000Y-22010000D03*
X-5930000Y-22860000D03*
D96*
X-5080000Y-22860000D03*
D55*
X-4230000Y-22860000D03*
X-5080000Y-23710000D03*
X-4230000Y-22010000D03*
X-4230000Y-23710000D03*
X-5930000Y-23710000D03*
X-5080000Y-22860000D03*
X-23710000Y4230000D03*
D96*
X-22860000Y5080000D03*
D55*
X-22860000Y5080000D03*
X-22010000Y5930000D03*
X-23710000Y5080000D03*
X-22860000Y5930000D03*
X-23710000Y5930000D03*
X-22010000Y5080000D03*
X-22860000Y4230000D03*
X-22010000Y4230000D03*
X-5080000Y22010000D03*
X-5080000Y23710000D03*
X-4230000Y22860000D03*
X-4230000Y23710000D03*
X-5080000Y22860000D03*
X-5930000Y22860000D03*
D96*
X-5080000Y22860000D03*
D55*
X-5930000Y22010000D03*
X-4230000Y22010000D03*
X-5930000Y23710000D03*
X23710000Y5930000D03*
X23710000Y4230000D03*
X22860000Y4230000D03*
X22860000Y5930000D03*
X23710000Y5080000D03*
X22860000Y5080000D03*
X22010000Y5080000D03*
X22010000Y5930000D03*
D96*
X22860000Y5080000D03*
D55*
X22010000Y4230000D03*
X-23710000Y-5930000D03*
X-22010000Y-4230000D03*
X-22010000Y-5080000D03*
X-22860000Y-4230000D03*
X-22860000Y-5930000D03*
X-23710000Y-4230000D03*
X-22860000Y-5080000D03*
X-22010000Y-5930000D03*
X-23710000Y-5080000D03*
D96*
X-22860000Y-5080000D03*
D55*
X5930000Y22860000D03*
X4230000Y22860000D03*
X5080000Y22010000D03*
D96*
X5080000Y22860000D03*
D55*
X5080000Y23710000D03*
X5930000Y23710000D03*
X5080000Y22860000D03*
X4230000Y22010000D03*
X5930000Y22010000D03*
X4230000Y23710000D03*
X5930000Y-22860000D03*
X4230000Y-22010000D03*
X5930000Y-22010000D03*
X5080000Y-22010000D03*
X4230000Y-23710000D03*
X5930000Y-23710000D03*
D96*
X5080000Y-22860000D03*
D55*
X5080000Y-23710000D03*
X5080000Y-22860000D03*
X4230000Y-22860000D03*
X22010000Y-5930000D03*
X22010000Y-5080000D03*
X23710000Y-5930000D03*
D96*
X22860000Y-5080000D03*
D55*
X23710000Y-5080000D03*
X22010000Y-4230000D03*
X22860000Y-4230000D03*
X23710000Y-4230000D03*
X22860000Y-5930000D03*
X22860000Y-5080000D03*
D97*
X13028525Y10135511D03*
X21844000Y-10668000D03*
X11023600Y-21590000D03*
X-9839506Y-20464762D03*
X-22352000Y-508000D03*
X-9799020Y20135917D03*
X-704129Y21597243D03*
X-21292032Y-9624000D03*
X-21379201Y9781457D03*
X1016000Y-22352000D03*
X-22352374Y495723D03*
X965535Y22484602D03*
X22875035Y-594780D03*
X9461399Y21569456D03*
X21538616Y9620857D03*
X-737022Y-22352000D03*
X22211515Y1049127D03*
X9025500Y-9078127D03*
X9509787Y20177787D03*
X-665425Y-21391836D03*
X626500Y-21336000D03*
X-20417715Y9515513D03*
X-21206543Y-378543D03*
X21343712Y558679D03*
X20235484Y9543967D03*
X21860017Y-723792D03*
X-20304594Y-9543967D03*
X-9035967Y19163139D03*
X776500Y19648153D03*
X-852662Y19549476D03*
X20828000Y-9652000D03*
X-9368980Y-19569924D03*
X10160000Y-19812000D03*
X-6172756Y-11269363D03*
X-5703536Y-12068262D03*
X9708626Y9725368D03*
X10160000Y-12573000D03*
X17831900Y-25810098D03*
X11224768Y-698232D03*
X-7014Y15472203D03*
X14799029Y-26608627D03*
X-20312380Y-20286980D03*
X-22638184Y-22693871D03*
X-21331501Y-23959753D03*
X15875000Y-21601770D03*
X6913016Y10100070D03*
X2394132Y778247D03*
X-14193869Y-8785125D03*
X-5290990Y-488692D03*
X2162303Y-118783D03*
X8696664Y12116845D03*
X-4933318Y-1343373D03*
X-10908613Y-7938372D03*
X26153812Y-19752918D03*
X-3691741Y-3302241D03*
X13288011Y-23978087D03*
X10333488Y-18202574D03*
X13335000Y-19685000D03*
X13335000Y-17145000D03*
X12627892Y-17870000D03*
X9081011Y-11619003D03*
X21618291Y-17116709D03*
X17604054Y-22400946D03*
X-13861135Y8468473D03*
X-10401109Y-10909108D03*
X-8255000Y12374880D03*
X10118501Y41499D03*
X10668000Y-7112000D03*
X-7855001Y9760001D03*
X17734003Y-16911597D03*
X-10744218Y-2150500D03*
X1689881Y-5930119D03*
X-3610513Y-13640265D03*
X4258811Y8850732D03*
X10151640Y6895553D03*
X-15160872Y-7909404D03*
X1016000Y-12192000D03*
X-8588621Y13786410D03*
X14808200Y-20091400D03*
X-4175070Y3597751D03*
X1179751Y6794508D03*
X-699500Y5779500D03*
X19685000Y25020960D03*
X-3819965Y4453500D03*
X-1016000Y-30480000D03*
X-1016000Y30480000D03*
X30480000Y-1016000D03*
X-30492689Y789487D03*
X1016000Y30480000D03*
X-30480000Y-1016000D03*
X30480000Y1016000D03*
X1016000Y-30480000D03*
X16891000Y-13695998D03*
X19705990Y-12637011D03*
X14999627Y-14210373D03*
X21082000Y-12827000D03*
X14732000Y-2540000D03*
X11890965Y1482405D03*
X4713500Y3290713D03*
X21663511Y-13896489D03*
X20515858Y-13774142D03*
X6093543Y3812457D03*
X14478000Y-13335000D03*
X7120105Y4839019D03*
X14664982Y-24795019D03*
X26035000Y-15748000D03*
X-8099831Y4222164D03*
X-13777543Y446458D03*
X-4213964Y-8611977D03*
X-3299928Y-8763453D03*
X-12706402Y585687D03*
X-1016000Y-11176000D03*
X-5588000Y-4064000D03*
X-1524000Y-6096000D03*
X-2086215Y-9241329D03*
X-5914343Y-3196874D03*
X-11176000Y1524000D03*
X-1459715Y-10086500D03*
X8028969Y17879030D03*
X-2473010Y18438434D03*
X901500Y-19411816D03*
X-17855127Y-3818279D03*
X19493003Y-697003D03*
X18534068Y-7156279D03*
X-1531500Y-19001981D03*
X-19085499Y1619032D03*
X-8277967Y16234130D03*
X18884742Y620184D03*
X41069Y18246931D03*
X-18288000Y-8636000D03*
X7832110Y-18474624D03*
X-17780000Y7620000D03*
X18451768Y7740589D03*
X-8128000Y-18288000D03*
X12196839Y-6091008D03*
X5377947Y-7777331D03*
X-34091449Y11486D03*
X34091449Y-11486D03*
X24892000Y508000D03*
X11486Y34091449D03*
X-11486Y-34091449D03*
X30516996Y7342274D03*
X25516087Y7322906D03*
X26799473Y5910767D03*
X30454600Y5994400D03*
X30586851Y2269001D03*
X25527000Y2740534D03*
X30607000Y-4216400D03*
X26297546Y-3040052D03*
X30429200Y-7950200D03*
X26476897Y-6314134D03*
X24690297Y-8101103D03*
X30403800Y-10617200D03*
X25831800Y-8356600D03*
X30326343Y-9657569D03*
X26028847Y-5092444D03*
X30403800Y-6985000D03*
X30480000Y-5257800D03*
X25333644Y-2860626D03*
X30529641Y3193735D03*
X26642775Y3090300D03*
X30403800Y4876800D03*
X26416000Y4996323D03*
X30326538Y8248989D03*
X25488192Y8248989D03*
X7619942Y-25490868D03*
X7518400Y-30480000D03*
X5994400Y-30454600D03*
X5985891Y-26724349D03*
X2463800Y-25527000D03*
X2269001Y-30586851D03*
X-3040052Y-26297546D03*
X-4216400Y-30607000D03*
X-7950200Y-30429200D03*
X-6243537Y-26466610D03*
X-7894063Y-24897337D03*
X-10280989Y-30301419D03*
X-9355187Y-30337428D03*
X-8149560Y-26038840D03*
X-5092444Y-26028847D03*
X-6985000Y-30403800D03*
X-5257800Y-30480000D03*
X-2860626Y-25333644D03*
X3090300Y-26642775D03*
X3193735Y-30529641D03*
X4996323Y-26416000D03*
X4876800Y-30403800D03*
X8546273Y-25473080D03*
X8432800Y-30302200D03*
X-30480000Y-7518400D03*
X-25490868Y-7619942D03*
X-30454600Y-5994400D03*
X-26724349Y-5985891D03*
X-25527000Y-2463800D03*
X-30586851Y-2269001D03*
X-30607000Y4216400D03*
X-26297546Y3040052D03*
X-30429200Y7950200D03*
X-26474381Y6261238D03*
X-30275705Y10280989D03*
X-24690297Y8101103D03*
X-30340708Y9356769D03*
X-25974570Y8167261D03*
X-30403800Y6985000D03*
X-26028847Y5092444D03*
X-25333644Y2860626D03*
X-30480000Y5257800D03*
X-30529641Y-3193735D03*
X-26642775Y-3090300D03*
X-26416000Y-4996323D03*
X-30403800Y-4876800D03*
X-25473080Y-8546273D03*
X-30302200Y-8432800D03*
X-7342990Y30517309D03*
X-7322495Y25492105D03*
X-5922553Y26787687D03*
X-5994400Y30454600D03*
X-2463800Y25527000D03*
X-2269001Y30586851D03*
X-2452984Y-5683986D03*
X5977291Y-16628709D03*
X-7651467Y17129679D03*
X7112000Y17272000D03*
X12689832Y6143640D03*
X-4064000Y16764000D03*
X-16181939Y-3263011D03*
X17608756Y-7109323D03*
X-17801948Y-7630325D03*
X17775251Y7107556D03*
X3048000Y-18288000D03*
X-35916Y17323632D03*
X-18385807Y2574318D03*
X18169500Y3048000D03*
X-7112000Y-18288000D03*
X-2574318Y-18385807D03*
X-17272000Y6604000D03*
X18242190Y-3224763D03*
X6921504Y-18199163D03*
X15540907Y6698114D03*
X-7443526Y-2384712D03*
X-3253266Y8430734D03*
X-2032000Y8128000D03*
X4300868Y16800560D03*
X-6593338Y16137500D03*
X-1579512Y10249247D03*
X5018610Y18534661D03*
X58618Y9921553D03*
X-4757606Y18267638D03*
X9144000Y-2540000D03*
X-1541540Y11262208D03*
X3040052Y26297546D03*
X4216400Y30607000D03*
X6314134Y26476897D03*
X7950200Y30429200D03*
X8101103Y24690297D03*
X10280989Y30403800D03*
X9361556Y30289565D03*
X8356600Y25831800D03*
X5092444Y26028847D03*
X6985000Y30403800D03*
X5257800Y30480000D03*
X2860626Y25333644D03*
X-3090300Y26642775D03*
X-3193735Y30529641D03*
X-4996323Y26416000D03*
X-4876800Y30403800D03*
X-8248989Y30323472D03*
X-8248989Y25488191D03*
X-20134580Y-24960580D03*
X-22506973Y-19136720D03*
X-24056340Y-18811240D03*
X1886528Y22383713D03*
X-22481457Y-1653457D03*
X22860000Y-10041500D03*
X0Y22884989D03*
X-22204509Y8358153D03*
X10160000Y-22352000D03*
X-664989Y-23368000D03*
X-22193532Y-8354045D03*
X23131640Y1157645D03*
X22493928Y9721379D03*
X-9533500Y21336000D03*
X-1524000Y22352000D03*
X9533500Y22860000D03*
X23788121Y-751882D03*
X-9213006Y-22098379D03*
X968643Y-23320643D03*
X-22686287Y1628107D03*
X308957Y8899522D03*
X-1727955Y9318051D03*
X-6080578Y17628022D03*
X4600442Y17677294D03*
X-5619878Y-15518618D03*
X-5017219Y-5980653D03*
X-3639871Y-4765428D03*
X-4510028Y-16974408D03*
X5080436Y-17965622D03*
X-6235655Y-5294413D03*
X4369587Y-17371399D03*
X-4450042Y-4315952D03*
X-5225882Y-17562591D03*
X-7136455Y-5077699D03*
X4155130Y-16470059D03*
X-4800766Y-18385807D03*
X-15252940Y3372967D03*
X-16360818Y4033891D03*
X-17038136Y-6506609D03*
X-6724259Y-1025735D03*
X-9652001Y-122252D03*
X-9820525Y-2222601D03*
X-18162590Y-5724302D03*
X-18385807Y4556706D03*
X-23721882Y-21556174D03*
X9296263Y8763451D03*
X11201400Y-13208000D03*
X8217356Y-16630000D03*
X23495000Y-21590000D03*
X1373633Y18939747D03*
X-8407657Y-19324743D03*
X1845394Y-19930500D03*
X-19011480Y-1541500D03*
X-1525773Y18912823D03*
X-7969795Y-13343814D03*
X19304000Y-8636000D03*
X8929270Y-19361838D03*
X12370971Y12345297D03*
X7257256Y-9921164D03*
X19426428Y8513569D03*
X-13205999Y9123609D03*
X-12061591Y-1061829D03*
X-16958228Y-8013137D03*
X3048000Y8636000D03*
X-20006775Y1520756D03*
X1207500Y2293260D03*
X-19110424Y-8209357D03*
X-8159456Y18400966D03*
X-1531500Y-19961742D03*
X-19304000Y8636000D03*
X19414302Y-1620157D03*
X13908Y16398470D03*
X-9398000Y11811000D03*
X8521478Y19325718D03*
X18415000Y-23495000D03*
X19511242Y1389450D03*
X-17277529Y3770460D03*
X-17137760Y-5585478D03*
X-8852676Y-590741D03*
X-9174059Y-2887947D03*
X16387806Y-4485337D03*
X16256000Y6096000D03*
X7732702Y22353D03*
X7621892Y-897500D03*
X17450401Y5528044D03*
X5712006Y-3175000D03*
X17307205Y-4633011D03*
X6667004Y-1714004D03*
X18169500Y-5198902D03*
X4998035Y-2032000D03*
X18246670Y5054379D03*
D98*
X-9896477Y1325767D02*
X-9896477Y994004D01*
X-19982244Y3680000D02*
X-19503063Y3200819D01*
X-18385807Y4979974D02*
X-16762498Y4979974D01*
X-16092788Y4651868D02*
X-16091197Y4651868D01*
X-8817489Y2404755D02*
X-9896477Y1325767D01*
X-8817489Y2675245D02*
X-8817489Y2404755D01*
X-9911506Y-1071512D02*
X-9392494Y-1071512D01*
X-13971490Y3701022D02*
X-10854741Y3701022D01*
X-15959138Y4979974D02*
X-10752950Y4979974D01*
X-8880477Y2738233D02*
X-8817489Y2675245D01*
X-8553966Y3713241D02*
X-8553966Y2873478D01*
X-9392494Y-1071512D02*
X-8911723Y-590741D01*
X-10854741Y3701022D02*
X-10554751Y4001012D01*
X-14106735Y4027533D02*
X-10989986Y4027533D01*
X-16996018Y4051971D02*
X-16996017Y4147013D01*
X-15966067Y4986903D02*
X-15959138Y4979974D01*
X-10427010Y4654034D02*
X-9494759Y4654034D01*
X-8911723Y-590741D02*
X-8852676Y-590741D01*
X-16101312Y4660392D02*
X-16092788Y4651868D01*
X-18385807Y4556706D02*
X-18385807Y4979974D01*
X-16620324Y4660392D02*
X-16101312Y4660392D01*
X-16996017Y4147013D02*
X-16987319Y4155712D01*
X-9765249Y4001012D02*
X-9206988Y3442751D01*
X-7341025Y-1642501D02*
X-6724259Y-1025735D01*
X-8717128Y-1679873D02*
X-8679756Y-1642501D01*
X-8679756Y-1642501D02*
X-7341025Y-1642501D01*
X-16755569Y4986903D02*
X-15966067Y4986903D01*
X-17011645Y2754111D02*
X-16899245Y2866511D01*
X-10046751Y-1398023D02*
X-9517990Y-1398023D01*
X-10278501Y-704517D02*
X-9911506Y-1071512D01*
X-14309846Y3362666D02*
X-13971490Y3701022D01*
X-19503063Y3200819D02*
X-18126301Y3200819D01*
X-18780558Y3527330D02*
X-17957085Y3527330D01*
X-10605012Y-839762D02*
X-10046751Y-1398023D01*
X-17146890Y3080622D02*
X-17034490Y3193022D01*
X-19733228Y4480000D02*
X-18780558Y3527330D01*
X-16072519Y3999468D02*
X-14993434Y3999468D01*
X-10222988Y1129249D02*
X-10605012Y747225D01*
X-9206988Y2653249D02*
X-10222988Y1637249D01*
X-18126301Y3200819D02*
X-17679593Y2754111D01*
X-14361236Y3362666D02*
X-14309846Y3362666D01*
X-14626439Y3627869D02*
X-14361236Y3362666D01*
X-10222988Y1637249D02*
X-10222988Y1129249D01*
X-17957085Y3527330D02*
X-17510377Y3080622D01*
X-17510377Y3080622D02*
X-17146890Y3080622D01*
X-8490978Y2810490D02*
X-8490978Y1038771D01*
X-10554751Y4001012D02*
X-9765249Y4001012D01*
X-14993434Y3999468D02*
X-14626439Y3632473D01*
X-10605012Y747225D02*
X-10605012Y-839762D01*
X-9517990Y-1398023D02*
X-9236140Y-1679873D01*
X-16641688Y2866511D02*
X-16135232Y3372967D01*
X-16899245Y2866511D02*
X-16641688Y2866511D01*
X-17679593Y2754111D02*
X-17011645Y2754111D01*
X-20910000Y3680000D02*
X-19982244Y3680000D01*
X-10752950Y4979974D02*
X-10427010Y4654034D01*
X-20910000Y4480000D02*
X-19733228Y4480000D01*
X-17277529Y3770460D02*
X-16996018Y4051971D01*
X-9896477Y994004D02*
X-10278501Y611980D01*
X-9206988Y3442751D02*
X-9206988Y2653249D01*
X-16878965Y3193022D02*
X-16072519Y3999468D01*
X-16036872Y4597543D02*
X-14896275Y4597543D01*
X-9494759Y4654034D02*
X-8553966Y3713241D01*
X-8880477Y3577996D02*
X-8880477Y2738233D01*
X-9630004Y4327523D02*
X-8880477Y3577996D01*
X-10689996Y4327523D02*
X-9630004Y4327523D01*
X-16135232Y3372967D02*
X-15252940Y3372967D01*
X-10989986Y4027533D02*
X-10689996Y4327523D01*
X-14216500Y3917768D02*
X-14106735Y4027533D01*
X-14896275Y4597543D02*
X-14216500Y3917768D01*
X-17034490Y3193022D02*
X-16878965Y3193022D01*
X-16091197Y4651868D02*
X-16036872Y4597543D01*
X-16987319Y4293397D02*
X-16620324Y4660392D01*
X-16987319Y4155712D02*
X-16987319Y4293397D01*
X-8553966Y2873478D02*
X-8490978Y2810490D01*
X-14626439Y3632473D02*
X-14626439Y3627869D01*
X-10278501Y611980D02*
X-10278501Y-704517D01*
X-9236140Y-1679873D02*
X-8717128Y-1679873D01*
X-8490978Y1038771D02*
X-9652001Y-122252D01*
X-16762498Y4979974D02*
X-16755569Y4986903D01*
D99*
X10688934Y9331459D02*
X10688934Y8926268D01*
X10688934Y8926268D02*
X9446847Y7684181D01*
D98*
X375494Y-30883003D02*
X-38489Y-30469020D01*
X-21860000Y-7801570D02*
X-21308000Y-8353570D01*
X-1524000Y-21565022D02*
X-737022Y-22352000D01*
X3130000Y21860000D02*
X2246397Y21860000D01*
X8636000Y-21308000D02*
X10741600Y-21308000D01*
X-32430000Y12065000D02*
X-31795000Y12700000D01*
X-26416000Y11684000D02*
X-24892000Y11684000D01*
X21308000Y9390241D02*
X21538616Y9620857D01*
X-12700000Y-31795000D02*
X-12700000Y-26924000D01*
X0Y29918022D02*
X0Y23876000D01*
X10741600Y-21308000D02*
X11023600Y-21590000D01*
X-389499Y30739506D02*
X-389499Y30307521D01*
X-635000Y30985007D02*
X-389499Y30739506D01*
X984511Y22041377D02*
X965535Y22060353D01*
X21844000Y-10668000D02*
X23876000Y-10668000D01*
D100*
X12224473Y9331459D02*
X13028525Y10135511D01*
D98*
X-635000Y32430000D02*
X-635000Y30985007D01*
X-22989457Y9781457D02*
X-21379201Y9781457D01*
X-27141978Y12700000D02*
X-26924000Y12482022D01*
X8084000Y-21860000D02*
X7030000Y-21860000D01*
X-21308000Y-8353570D02*
X-21308000Y-8636000D01*
X25151506Y-118501D02*
X23351314Y-118501D01*
X984511Y21847489D02*
X984511Y22041377D01*
X-7030000Y21860000D02*
X-8084000Y21860000D01*
X21308000Y8636000D02*
X21308000Y9390241D01*
X-3130000Y-21860000D02*
X-2076000Y-21860000D01*
X1973451Y21757451D02*
X1524000Y21308000D01*
X-21308000Y1524000D02*
X-21324097Y1524000D01*
X-26924000Y12192000D02*
X-26416000Y11684000D01*
X-9799020Y20144980D02*
X-9799020Y20135917D01*
X-21860000Y3130000D02*
X-21860000Y2076000D01*
X-24892000Y11684000D02*
X-22989457Y9781457D01*
X-38489Y-30469020D02*
X-38489Y-23050533D01*
X-31795000Y12700000D02*
X-27141978Y12700000D01*
X21860000Y7030000D02*
X21860000Y8084000D01*
X488003Y-30883003D02*
X375494Y-30883003D01*
X10160000Y23876000D02*
X10160000Y21844000D01*
X9885456Y21569456D02*
X9461399Y21569456D01*
X21860000Y-3130000D02*
X21860000Y-2076000D01*
X-8636000Y21308000D02*
X-9799020Y20144980D01*
X12065000Y32430000D02*
X12700000Y31795000D01*
X1524000Y21308000D02*
X984511Y21847489D01*
X23351314Y-118501D02*
X22875035Y-594780D01*
X23876000Y-10668000D02*
X25908000Y-12700000D01*
X8636000Y-21308000D02*
X8084000Y-21860000D01*
X-30395267Y38489D02*
X-22809608Y38489D01*
X-389499Y30307521D02*
X0Y29918022D01*
X2246397Y21860000D02*
X2143848Y21757451D01*
D101*
X-17389000Y630000D02*
X-17399745Y619255D01*
D98*
X-38489Y-23050533D02*
X-737022Y-22352000D01*
X1016000Y22860000D02*
X1016000Y22535067D01*
X965535Y22060353D02*
X965535Y22484602D01*
X-32430000Y-635000D02*
X-31068756Y-635000D01*
X25908000Y-12700000D02*
X31795000Y-12700000D01*
X12700000Y31795000D02*
X12700000Y26416000D01*
X1016000Y22535067D02*
X965535Y22484602D01*
X-31068756Y-635000D02*
X-30395267Y38489D01*
X31795000Y-12700000D02*
X32430000Y-12065000D01*
X31795000Y0D02*
X25270007Y0D01*
X2143848Y21757451D02*
X1973451Y21757451D01*
X12700000Y26416000D02*
X10160000Y23876000D01*
X-21308000Y-8636000D02*
X-21308000Y-9608032D01*
X-21308000Y-9608032D02*
X-21292032Y-9624000D01*
X-9839506Y-24063506D02*
X-9839506Y-20464762D01*
D100*
X10688934Y9331459D02*
X12224473Y9331459D01*
D98*
X-21860000Y-7030000D02*
X-21860000Y-7801570D01*
X-2076000Y-21860000D02*
X-1524000Y-21308000D01*
X10160000Y21844000D02*
X9885456Y21569456D01*
X-1524000Y-21308000D02*
X-1524000Y-21565022D01*
X635000Y-31030000D02*
X488003Y-30883003D01*
X21860000Y-2076000D02*
X21308000Y-1524000D01*
X32430000Y635000D02*
X31795000Y0D01*
X-22809608Y38489D02*
X-22352374Y495723D01*
D101*
X-17399745Y619255D02*
X-22228842Y619255D01*
D98*
X635000Y-32430000D02*
X635000Y-31030000D01*
X21945815Y-1524000D02*
X22875035Y-594780D01*
X21860000Y8084000D02*
X21308000Y8636000D01*
X-12065000Y-32430000D02*
X-12700000Y-31795000D01*
X21308000Y-1524000D02*
X21945815Y-1524000D01*
X25270007Y0D02*
X25151506Y-118501D01*
X-21324097Y1524000D02*
X-22352374Y495723D01*
X-12700000Y-26924000D02*
X-9839506Y-24063506D01*
D101*
X-22228842Y619255D02*
X-22352374Y495723D01*
D98*
X-26924000Y12482022D02*
X-26924000Y12192000D01*
X-21860000Y2076000D02*
X-21308000Y1524000D01*
X0Y23876000D02*
X1016000Y22860000D01*
X-8084000Y21860000D02*
X-8636000Y21308000D01*
D100*
X8430847Y-7414847D02*
X8430847Y-8384049D01*
D98*
X-8636000Y-21308000D02*
X-8084000Y-21860000D01*
X8636000Y21308000D02*
X9509787Y20434213D01*
X-1524000Y21308000D02*
X-984511Y20768511D01*
D101*
X8472808Y-7329808D02*
X8472808Y-8525435D01*
D98*
X-9213005Y-20730995D02*
X-9213005Y-19725899D01*
X7030000Y21860000D02*
X8084000Y21860000D01*
X1524000Y-21308000D02*
X2076000Y-21860000D01*
D101*
X-17389000Y-640000D02*
X-20945086Y-640000D01*
X-20945086Y-640000D02*
X-21206543Y-378543D01*
D98*
X21860000Y-8084000D02*
X21308000Y-8636000D01*
X-3130000Y21860000D02*
X-2076000Y21860000D01*
D100*
X8430847Y-8384049D02*
X9025500Y-8978702D01*
D98*
X21308000Y-9172000D02*
X20828000Y-9652000D01*
X-20428487Y9515513D02*
X-20417715Y9515513D01*
X21308000Y594391D02*
X21343712Y558679D01*
X8084000Y21860000D02*
X8636000Y21308000D01*
X9509787Y20434213D02*
X9509787Y20177787D01*
X2076000Y-21860000D02*
X3130000Y-21860000D01*
X-21860000Y7774001D02*
X-21308000Y8326001D01*
X-21308000Y-1524000D02*
X-21308000Y-480000D01*
X-21860000Y-2076000D02*
X-21308000Y-1524000D01*
X21308000Y1524000D02*
X21308000Y594391D01*
X21308000Y-8636000D02*
X21308000Y-9172000D01*
X-21860000Y-3130000D02*
X-21860000Y-2076000D01*
X-984511Y20768511D02*
X-984511Y19681325D01*
X-8084000Y-21860000D02*
X-7030000Y-21860000D01*
X-21308000Y-480000D02*
X-21206543Y-378543D01*
D101*
X8472808Y-8525435D02*
X9025500Y-9078127D01*
D98*
X-984511Y19681325D02*
X-852662Y19549476D01*
X-9213005Y-19725899D02*
X-9368980Y-19569924D01*
X654500Y-21308000D02*
X626500Y-21336000D01*
X-21308000Y8326001D02*
X-21308000Y8636000D01*
X21860000Y3130000D02*
X21860000Y2076000D01*
X21860000Y2076000D02*
X21308000Y1524000D01*
X-21860000Y7030000D02*
X-21860000Y7774001D01*
X1524000Y-21308000D02*
X654500Y-21308000D01*
X-21308000Y8636000D02*
X-20428487Y9515513D01*
D100*
X9025500Y-8978702D02*
X9025500Y-9078127D01*
D98*
X-2076000Y21860000D02*
X-1524000Y21308000D01*
X21860000Y-7030000D02*
X21860000Y-8084000D01*
X-8636000Y-21308000D02*
X-9213005Y-20730995D01*
X-9638698Y-9689498D02*
X-9335008Y-9689498D01*
X-8267653Y-10756853D02*
X-6685266Y-10756853D01*
X-9335008Y-9689498D02*
X-8267653Y-10756853D01*
X-6685266Y-10756853D02*
X-6172756Y-11269363D01*
X-5531491Y-11554006D02*
X-5898486Y-11921001D01*
X-7340600Y-9045393D02*
X-5531491Y-10854502D01*
X-5531491Y-10854502D02*
X-5531491Y-11554006D01*
X-7340600Y-7391400D02*
X-7340600Y-9045393D01*
X-7078105Y-11921001D02*
X-7505653Y-11493453D01*
X-7505653Y-11493453D02*
X-6930844Y-12068262D01*
X-5898486Y-11921001D02*
X-7078105Y-11921001D01*
X-6930844Y-12068262D02*
X-5703536Y-12068262D01*
D99*
X12901247Y-11152553D02*
X12496056Y-11152553D01*
X12496056Y-11152553D02*
X11609569Y-10266066D01*
X12244569Y10887094D02*
X11841084Y10483609D01*
X10901066Y12230597D02*
X10569504Y11899035D01*
X10569504Y11899035D02*
X10569504Y10483609D01*
X11841084Y10483609D02*
X10569504Y10483609D01*
D100*
X10266066Y-11609569D02*
X10266066Y-12466934D01*
X10266066Y-12466934D02*
X10160000Y-12573000D01*
X10901066Y12230597D02*
X10901066Y12318440D01*
X10901066Y12318440D02*
X10034953Y13184553D01*
X10669098Y-9820590D02*
X11164093Y-9820590D01*
X10266066Y-11609569D02*
X9820590Y-11164093D01*
X9820590Y-11164093D02*
X9820590Y-10669098D01*
X11164093Y-9820590D02*
X11609569Y-10266066D01*
D101*
X9892217Y-10491877D02*
X10491877Y-9892217D01*
X12403294Y-11059792D02*
X11686885Y-10343383D01*
D100*
X11743520Y10386045D02*
X10369303Y10386045D01*
D101*
X9892217Y-11157301D02*
X9892217Y-10491877D01*
D98*
X1896000Y15268000D02*
X1350000Y15814000D01*
D101*
X10343383Y-11686885D02*
X9980504Y-11324006D01*
X9980504Y-11245588D02*
X9892217Y-11157301D01*
X11235719Y-9892217D02*
X11686885Y-10343383D01*
D100*
X10400017Y11729548D02*
X10400017Y10416759D01*
D101*
X9730153Y13401510D02*
X10901066Y12230597D01*
D98*
X334783Y15814000D02*
X-7014Y15472203D01*
D101*
X9980504Y-11324006D02*
X9980504Y-11245588D01*
D98*
X-348811Y15814000D02*
X-7014Y15472203D01*
D101*
X16119000Y-630000D02*
X11293000Y-630000D01*
D100*
X12244569Y10887094D02*
X11743520Y10386045D01*
D98*
X-1350000Y15814000D02*
X-348811Y15814000D01*
D100*
X10400017Y10416759D02*
X9708626Y9725368D01*
X10901066Y12230597D02*
X10400017Y11729548D01*
D101*
X13197208Y-11059792D02*
X12403294Y-11059792D01*
X10343383Y-11686885D02*
X10343383Y-12389617D01*
D100*
X10369303Y10386045D02*
X9708626Y9725368D01*
D101*
X10343383Y-12389617D02*
X10160000Y-12573000D01*
D98*
X3048000Y15268000D02*
X1896000Y15268000D01*
D101*
X11293000Y-630000D02*
X11224768Y-698232D01*
D98*
X1350000Y15814000D02*
X334783Y15814000D01*
D101*
X10491877Y-9892217D02*
X11235719Y-9892217D01*
X9730153Y13463953D02*
X9730153Y13401510D01*
D99*
X-20637453Y-20612053D02*
X-20312380Y-20286980D01*
X-21882053Y-20612053D02*
X-20637453Y-20612053D01*
X-17888949Y-24208761D02*
X-19918673Y-22179037D01*
X-17888949Y-26143949D02*
X-17888949Y-24208761D01*
X-19918673Y-22179037D02*
X-20315069Y-22179037D01*
X-20315069Y-22179037D02*
X-20612053Y-21882053D01*
X-24245235Y-22693871D02*
X-24422053Y-22517053D01*
X-22638184Y-22693871D02*
X-24245235Y-22693871D01*
X-21331501Y-23959753D02*
X-22054753Y-23959753D01*
X-22054753Y-23959753D02*
X-22517053Y-24422053D01*
X19752918Y-26153812D02*
X18707053Y-25107947D01*
X15926900Y-29845000D02*
X15489980Y-29845000D01*
X18707053Y-25107947D02*
X15875000Y-22275894D01*
X19752918Y-27872082D02*
X17899818Y-27872082D01*
X17899818Y-27872082D02*
X15926900Y-29845000D01*
X15489980Y-29845000D02*
X14187898Y-29845000D01*
X19752918Y-27872082D02*
X19752918Y-26153812D01*
X15875000Y-22275894D02*
X15875000Y-21601770D01*
D98*
X-23579540Y19713804D02*
X-24929684Y21063948D01*
X-24929684Y21063948D02*
X-26452102Y21063948D01*
X-20611829Y19713804D02*
X-23579540Y19713804D01*
X-20247059Y19349034D02*
X-20611829Y19713804D01*
X-18451008Y21145085D02*
X-18737321Y21431398D01*
X-18737321Y21431398D02*
X-21157777Y21431398D01*
X-22586379Y22860000D02*
X-24656051Y22860000D01*
X-21157777Y21431398D02*
X-22586379Y22860000D01*
X-21145085Y18451008D02*
X-21961974Y19267897D01*
X-21961974Y19267897D02*
X-24656051Y19267897D01*
X-19349034Y20247059D02*
X-20165923Y21063948D01*
X-20165923Y21063948D02*
X-22860000Y21063948D01*
X3399511Y1200489D02*
X2977269Y778247D01*
X-10922000Y-7239000D02*
X-6867355Y-3184355D01*
X-6867355Y-2802123D02*
X-6413500Y-2348268D01*
X2977269Y778247D02*
X2394132Y778247D01*
X-6413500Y-2348268D02*
X-6413500Y-1611202D01*
X3399511Y6200035D02*
X3399511Y1200489D01*
X-6867355Y-3184355D02*
X-6867355Y-2802123D01*
X-14193869Y-8785125D02*
X-12647744Y-7239000D01*
X-6413500Y-1611202D02*
X-5290990Y-488692D01*
D99*
X6892432Y10079486D02*
X6913016Y10100070D01*
X3356489Y6243057D02*
X6892432Y9779000D01*
X6892432Y9779000D02*
X6892432Y10079486D01*
D98*
X3356489Y6243057D02*
X3399511Y6200035D01*
X-12647744Y-7239000D02*
X-10922000Y-7239000D01*
D99*
X3484999Y664029D02*
X3560450Y739480D01*
X2162303Y-118783D02*
X2859219Y-118783D01*
D98*
X-6173849Y-2570373D02*
X-5749598Y-2570373D01*
X-6483732Y-3513491D02*
X-6540844Y-3456380D01*
X-5749598Y-2570373D02*
X-4933318Y-1754093D01*
D99*
X3692102Y892730D02*
X3823755Y1024395D01*
X3823767Y1024395D02*
X3837922Y1038550D01*
X3824022Y3739412D02*
X4151111Y4066501D01*
X8382000Y10033000D02*
X8382000Y11802181D01*
X4151111Y4066501D02*
X4151111Y5802111D01*
X8382000Y11802181D02*
X8696664Y12116845D01*
D98*
X-6540844Y-2937368D02*
X-6173849Y-2570373D01*
D99*
X3824022Y3044588D02*
X3824022Y3739412D01*
X3837922Y3030688D02*
X3824022Y3044588D01*
X4151111Y5802111D02*
X8382000Y10033000D01*
X3837922Y1038550D02*
X3837922Y3030688D01*
X3823755Y1024395D02*
X3823767Y1024395D01*
D98*
X-6540844Y-3456380D02*
X-6540844Y-2937368D01*
D99*
X2859219Y-118783D02*
X3484999Y506997D01*
X3484999Y506997D02*
X3484999Y664029D01*
X3560458Y761074D02*
X3560458Y761086D01*
X3560450Y739480D02*
X3560449Y761065D01*
X3560458Y761086D02*
X3692102Y892730D01*
D98*
X-10908613Y-7938372D02*
X-6483732Y-3513491D01*
X-4933318Y-1754093D02*
X-4933318Y-1343373D01*
D99*
X3560449Y761065D02*
X3560458Y761074D01*
X27872082Y-19752918D02*
X26153812Y-19752918D01*
X26153812Y-19752918D02*
X25107947Y-18707053D01*
X31641051Y-15983949D02*
X29902049Y-15983949D01*
X29902049Y-15983949D02*
X27872082Y-18013916D01*
X27872082Y-18013916D02*
X27872082Y-19016522D01*
X27872082Y-19016522D02*
X27872082Y-19752918D01*
X11171425Y-18202574D02*
X10333488Y-18202574D01*
X19645393Y-15835393D02*
X13552407Y-15835393D01*
X20828000Y-17523967D02*
X20828000Y-17018000D01*
X12764601Y-16623199D02*
X12750800Y-16623199D01*
X20206396Y-18145571D02*
X20828000Y-17523967D01*
X13552407Y-15835393D02*
X12764601Y-16623199D01*
X12750800Y-16623199D02*
X11171425Y-18202574D01*
X20828000Y-17018000D02*
X19645393Y-15835393D01*
X14526770Y-20876770D02*
X16223001Y-20876769D01*
X18097500Y-21018500D02*
X18182304Y-20933696D01*
X16223001Y-20876769D02*
X16353558Y-21007326D01*
X13335000Y-19685000D02*
X14526770Y-20876770D01*
X18182304Y-20933696D02*
X18182304Y-20876770D01*
X18086326Y-21007326D02*
X18097500Y-21018500D01*
X18182304Y-20876770D02*
X18562373Y-20496701D01*
X16353558Y-21007326D02*
X18086326Y-21007326D01*
X14383285Y-17627600D02*
X17620138Y-17627600D01*
X13900685Y-17145000D02*
X14383285Y-17627600D01*
X13335000Y-17145000D02*
X13900685Y-17145000D01*
X17620138Y-17627600D02*
X18208820Y-18216282D01*
X17855266Y-18569835D02*
X17421031Y-18135600D01*
X17421031Y-18135600D02*
X13778400Y-18135600D01*
X13512800Y-17870000D02*
X12627892Y-17870000D01*
X13778400Y-18135600D02*
X13512800Y-17870000D01*
X21618291Y-17440783D02*
X21618291Y-17116709D01*
D98*
X-1900000Y-16119000D02*
X-1900000Y-15350778D01*
D99*
X-15971758Y10078864D02*
X-15074947Y9182053D01*
X19428579Y-20143148D02*
X19808648Y-20523217D01*
X17734003Y-17034358D02*
X18562373Y-17862728D01*
D101*
X7406008Y-8396608D02*
X7406008Y-8749510D01*
D99*
X19808648Y-20523217D02*
X19808648Y-20929600D01*
X20489239Y-18569835D02*
X20878800Y-18180274D01*
D101*
X510000Y-6096000D02*
X1524000Y-6096000D01*
D99*
X20878800Y-18180274D02*
X21132800Y-17926274D01*
X21132800Y-17926274D02*
X21618291Y-17440783D01*
X17604054Y-22400946D02*
X18337302Y-22400946D01*
D101*
X11176000Y508000D02*
X12192000Y508000D01*
D99*
X-14574715Y9182053D02*
X-13861135Y8468473D01*
D101*
X7406008Y-8749510D02*
X8734715Y-10078217D01*
D99*
X22157082Y-25467918D02*
X19090110Y-22400946D01*
X21983747Y-19824653D02*
X21983747Y-18777221D01*
D101*
X10709499Y41499D02*
X11176000Y508000D01*
X1524000Y-6096000D02*
X1689881Y-5930119D01*
X8710431Y-10053934D02*
X8710431Y-11248423D01*
X12568000Y640000D02*
X12324000Y640000D01*
D99*
X17734003Y-16911597D02*
X17734003Y-17034358D01*
X-16365043Y10078864D02*
X-15971758Y10078864D01*
X21983747Y-18777221D02*
X21443726Y-18237200D01*
X18337302Y-22400946D02*
X19808648Y-20929600D01*
X-15074947Y9182053D02*
X-14574715Y9182053D01*
X21443726Y-18237200D02*
X20935726Y-18237200D01*
D101*
X16119000Y640000D02*
X12568000Y640000D01*
D98*
X-1900000Y-15350778D02*
X-3610513Y-13640265D01*
D99*
X19808648Y-20929600D02*
X19808648Y-21299972D01*
X19090110Y-22400946D02*
X17604054Y-22400946D01*
X19922529Y-21413853D02*
X19922529Y-21885885D01*
D101*
X8710431Y-11248423D02*
X9081011Y-11619003D01*
X10118501Y41499D02*
X10709499Y41499D01*
D99*
X20935726Y-18237200D02*
X20878800Y-18180274D01*
X19808648Y-21299972D02*
X19922529Y-21413853D01*
X14808200Y-20091400D02*
X16846354Y-20091400D01*
X16846354Y-20091400D02*
X17501713Y-19436041D01*
X-8783320Y7001395D02*
X-7900454Y7001395D01*
X-13656840Y11874915D02*
X-8783320Y7001395D01*
X-7900454Y7001395D02*
X-4496810Y3597751D01*
X-14568992Y11874915D02*
X-13656840Y11874915D01*
X-4496810Y3597751D02*
X-4175070Y3597751D01*
D98*
X1042756Y7059798D02*
X1042756Y6931503D01*
D99*
X-10807443Y12147441D02*
X-10807443Y14385420D01*
X-14272006Y13373981D02*
X-13670966Y12772941D01*
X-12327739Y15636464D02*
X-14272006Y13692197D01*
D98*
X1042756Y6931503D02*
X1179751Y6794508D01*
D99*
X-8107997Y11085999D02*
X-9746001Y11085999D01*
X-9746001Y11085999D02*
X-10807443Y12147441D01*
D98*
X-4133998Y7112000D02*
X862259Y7112000D01*
D99*
X-14272006Y13692197D02*
X-14272006Y13373981D01*
D98*
X862259Y7112000D02*
X1179751Y6794508D01*
X-7654999Y10633001D02*
X-4133998Y7112000D01*
D99*
X-7654999Y10633001D02*
X-8107997Y11085999D01*
X-12058487Y15636464D02*
X-12327739Y15636464D01*
X-10807443Y14385420D02*
X-12058487Y15636464D01*
X-11874915Y14568992D02*
X-11273875Y13967952D01*
X-11273875Y11647636D02*
X-5457219Y5830980D01*
X-4091940Y5830980D02*
X-3910409Y6012511D01*
D98*
X-5457219Y5830980D02*
X-4091940Y5830980D01*
D99*
X-3910409Y6012511D02*
X-932511Y6012511D01*
X-11273875Y13967952D02*
X-11273875Y11647636D01*
X-932511Y6012511D02*
X-699500Y5779500D01*
X20906618Y22726351D02*
X21454625Y23274358D01*
X21454625Y23274358D02*
X21454625Y23732345D01*
X21454625Y23732345D02*
X20166010Y25020960D01*
X20166010Y25020960D02*
X19685000Y25020960D01*
D101*
X18758088Y22950878D02*
X19569233Y22139733D01*
D99*
X20172509Y22139733D02*
X19788553Y21608286D01*
D100*
X21233090Y24138880D02*
X21233090Y23052839D01*
X19788553Y20953047D02*
X19788553Y21608286D01*
X20351010Y25020960D02*
X21233090Y24138880D01*
D101*
X19569233Y22139733D02*
X20172509Y22139733D01*
X19685000Y25020960D02*
X19119315Y25020960D01*
X19788553Y20953047D02*
X19788553Y21755777D01*
X19119315Y25020960D02*
X18758088Y24659733D01*
D100*
X19788553Y21608286D02*
X20297509Y22117242D01*
X19685000Y25020960D02*
X20351010Y25020960D01*
D101*
X19788553Y21755777D02*
X20172509Y22139733D01*
D100*
X25686970Y19685000D02*
X22036510Y23335460D01*
X27940000Y19685000D02*
X25686970Y19685000D01*
D101*
X18758088Y24659733D02*
X18758088Y22950878D01*
D99*
X20906618Y22726351D02*
X20172509Y22139733D01*
D100*
X22036510Y23335460D02*
X21515711Y23335460D01*
X21515711Y23335460D02*
X21233090Y23052839D01*
D101*
X17217198Y25472198D02*
X17217198Y22039460D01*
X19823891Y19432767D02*
X20495661Y19432767D01*
D100*
X21696590Y19839353D02*
X22136002Y20278765D01*
D101*
X17888949Y26143949D02*
X17217198Y25472198D01*
X22852651Y17888949D02*
X20902247Y19839353D01*
D100*
X20902247Y19839353D02*
X21696590Y19839353D01*
D101*
X26143949Y17888949D02*
X22852651Y17888949D01*
X17217198Y22039460D02*
X19823891Y19432767D01*
X22187780Y20153765D02*
X22293622Y20259607D01*
X20495661Y19432767D02*
X20902247Y19839353D01*
D100*
X22136002Y20278765D02*
X22745103Y20887866D01*
D101*
X20902247Y19839353D02*
X21873368Y19839353D01*
D99*
X22745095Y20887874D02*
X21696574Y19839353D01*
X21696574Y19839353D02*
X20902247Y19839353D01*
D101*
X21873368Y19839353D02*
X22187780Y20153765D01*
D99*
X24442151Y23009194D02*
X25785654Y21665691D01*
X23027938Y24423407D02*
X24442151Y23009194D01*
X21260171Y26191174D02*
X23027938Y24423407D01*
X21260171Y26191174D02*
X21684435Y25766910D01*
X-12171901Y11909252D02*
X-4716149Y4453500D01*
X-12171901Y13069926D02*
X-12171901Y11909252D01*
X-4716149Y4453500D02*
X-3819965Y4453500D01*
X-12772941Y13670966D02*
X-12171901Y13069926D01*
D98*
X-33856511Y-11391511D02*
X-33856511Y-1344511D01*
X-33743511Y-1231511D02*
X-31003489Y-1231511D01*
X-28530000Y-12065000D02*
X-30406978Y-12065000D01*
X-11391511Y31080467D02*
X-11391511Y33856511D01*
X-11391511Y33856511D02*
X-1308489Y33856511D01*
X-12065000Y30406978D02*
X-11391511Y31080467D01*
X-31003489Y-1231511D02*
X-30787978Y-1016000D01*
X-1231511Y33779533D02*
X-1231511Y30695511D01*
X-31080467Y-11391511D02*
X-33856511Y-11391511D01*
X11355489Y-33856511D02*
X11468489Y-33743511D01*
X33856511Y1308489D02*
X30772489Y1308489D01*
X-33856511Y-1344511D02*
X-33743511Y-1231511D01*
X12065000Y-30483956D02*
X12065000Y-28530000D01*
X-635000Y-28530000D02*
X-635000Y-30099000D01*
X32218272Y11468498D02*
X32295259Y11391511D01*
X635000Y28530000D02*
X635000Y30099000D01*
X30099000Y-635000D02*
X30480000Y-1016000D01*
X11468489Y-31080467D02*
X12065000Y-30483956D01*
X1344511Y-33856511D02*
X11355489Y-33856511D01*
X11468489Y-33743511D02*
X11468489Y-31080467D01*
X-28530000Y635000D02*
X-30338202Y635000D01*
X-30787978Y-1016000D02*
X-30480000Y-1016000D01*
X-1231511Y30695511D02*
X-1016000Y30480000D01*
X1016000Y-30480000D02*
X1231511Y-30695511D01*
X30772489Y1308489D02*
X30480000Y1016000D01*
X1231511Y-30695511D02*
X1231511Y-33743511D01*
X635000Y30099000D02*
X1016000Y30480000D01*
X30406978Y12065000D02*
X31003480Y11468498D01*
X-30338202Y635000D02*
X-30492689Y789487D01*
X28530000Y12065000D02*
X30406978Y12065000D01*
X33764938Y2578489D02*
X33856511Y2486916D01*
X-30406978Y-12065000D02*
X-31080467Y-11391511D01*
X-1308489Y33856511D02*
X-1231511Y33779533D01*
X1231511Y-33743511D02*
X1344511Y-33856511D01*
X33856511Y11391511D02*
X33856511Y2670062D01*
X33856511Y2670062D02*
X33764938Y2578489D01*
X32295259Y11391511D02*
X33856511Y11391511D01*
X28530000Y-635000D02*
X30099000Y-635000D01*
X-12065000Y28530000D02*
X-12065000Y30406978D01*
X31003480Y11468498D02*
X32218272Y11468498D01*
X-635000Y-30099000D02*
X-1016000Y-30480000D01*
X33856511Y2486916D02*
X33856511Y1308489D01*
X-30260512Y635000D02*
X-28530000Y635000D01*
D99*
X16891000Y-13695998D02*
X18647003Y-13695998D01*
X18647003Y-13695998D02*
X19705990Y-12637011D01*
X18843366Y-14420998D02*
X15831625Y-14420998D01*
X15831625Y-14420998D02*
X15621000Y-14210373D01*
X15621000Y-14210373D02*
X14999627Y-14210373D01*
X21082000Y-12827000D02*
X20437364Y-12827000D01*
X20437364Y-12827000D02*
X18843366Y-14420998D01*
X4287932Y2286000D02*
X4287932Y1270000D01*
X4572000Y3302000D02*
X4287932Y3017932D01*
X4287932Y3017932D02*
X4287932Y2286000D01*
X3175000Y-6348590D02*
X3175000Y-5969000D01*
X20174617Y-15385383D02*
X10176973Y-15385383D01*
X3749999Y-8958409D02*
X3749999Y-6923589D01*
X4287931Y852855D02*
X4009968Y574892D01*
D98*
X3399511Y-5744489D02*
X3175000Y-5969000D01*
X3399511Y-1197835D02*
X3396857Y-1200489D01*
D99*
X3749999Y-6923589D02*
X3175000Y-6348590D01*
X10176973Y-15385383D02*
X3749999Y-8958409D01*
X3387912Y-226500D02*
X3935008Y320596D01*
X21663511Y-13896489D02*
X20174617Y-15385383D01*
D98*
X3399511Y-1200489D02*
X3399511Y-5744489D01*
D99*
X4287932Y1270000D02*
X4287931Y852855D01*
D98*
X3387912Y-226500D02*
X3399511Y-238099D01*
D99*
X4287932Y1270000D02*
X4287932Y852856D01*
D98*
X3396857Y-1200489D02*
X3399511Y-1200489D01*
D99*
X4009968Y574892D02*
X4009969Y552589D01*
D98*
X3399511Y-238099D02*
X3399511Y-1197835D01*
D99*
X3935008Y320596D02*
X3935009Y477629D01*
X4009969Y552589D02*
X3935009Y477629D01*
X4287932Y852856D02*
X4009968Y574892D01*
X4459479Y365689D02*
X4385019Y291229D01*
X4200009Y-8772009D02*
X10363374Y-14935374D01*
X19354626Y-14935374D02*
X20515858Y-13774142D01*
X4385019Y-812677D02*
X3824022Y-1373674D01*
X4459479Y388699D02*
X4459479Y365689D01*
X3824022Y-2690326D02*
X3824978Y-2691282D01*
X4385019Y291229D02*
X4385019Y-812677D01*
X4737942Y667162D02*
X4459479Y388699D01*
X4737942Y977058D02*
X4737942Y667163D01*
X4737942Y667163D02*
X4708152Y637372D01*
X4708152Y637372D02*
X4459479Y388699D01*
D98*
X4737942Y977058D02*
X6093543Y2332659D01*
X6093543Y2332659D02*
X6093543Y3812457D01*
D99*
X3824978Y-2691282D02*
X3824978Y-6362158D01*
X10363374Y-14935374D02*
X19354626Y-14935374D01*
X3824022Y-1373674D02*
X3824022Y-2690326D01*
X4200009Y-6737189D02*
X4200009Y-8772009D01*
X3824978Y-6362158D02*
X4200009Y-6737189D01*
X4883990Y-949410D02*
X4273533Y-1559867D01*
D98*
X4883990Y153790D02*
X7120105Y2389905D01*
D99*
X4273533Y-1559867D02*
X4273533Y-2504133D01*
X10864998Y-14478000D02*
X13335000Y-14478000D01*
X4650019Y-3599369D02*
X4650019Y-8331609D01*
X7493988Y-11106990D02*
X10864998Y-14478000D01*
X4650019Y-8331609D02*
X7425400Y-11106990D01*
X4273533Y-2504133D02*
X4274489Y-2505089D01*
D98*
X7120105Y2389905D02*
X7120105Y4839019D01*
D99*
X4883990Y153790D02*
X4883990Y-949410D01*
X13335000Y-14478000D02*
X14478000Y-13335000D01*
X7425400Y-11106990D02*
X7493988Y-11106990D01*
X4274489Y-3223839D02*
X4650019Y-3599369D01*
X4274489Y-2505089D02*
X4274489Y-3223839D01*
X29845000Y-14187898D02*
X27595102Y-14187898D01*
X27595102Y-14187898D02*
X26035000Y-15748000D01*
D98*
X-13961085Y630000D02*
X-13777543Y446458D01*
X-16119000Y630000D02*
X-13961085Y630000D01*
X-16119000Y-640000D02*
X-13932089Y-640000D01*
X-13932089Y-640000D02*
X-12706402Y585687D01*
X-1016000Y-14463000D02*
X-1016000Y-11176000D01*
X640000Y-16119000D02*
X-1016000Y-14463000D01*
X-3326511Y-1802511D02*
X-3326511Y-227489D01*
X-4064000Y1286000D02*
X-2100000Y3250000D01*
X-4064000Y510000D02*
X-4064000Y1286000D01*
X-5588000Y-4064000D02*
X-3326511Y-1802511D01*
X-3326511Y-227489D02*
X-4064000Y510000D01*
D101*
X-510000Y-6096000D02*
X-510000Y-4840000D01*
D98*
X-1900000Y-17389000D02*
X-2600000Y-17389000D01*
X-5080000Y-14909000D02*
X-5080000Y-13716000D01*
X-5080000Y-13716000D02*
X-2086216Y-10722216D01*
X-1524000Y-6096000D02*
X-510000Y-6096000D01*
X-2600000Y-17389000D02*
X-5080000Y-14909000D01*
X-2086216Y-10722216D02*
X-2086215Y-9241329D01*
D101*
X-510000Y-4840000D02*
X-2100000Y-3250000D01*
D98*
X-22114067Y17623939D02*
X-25081765Y17623939D01*
X-22043111Y17552983D02*
X-22114067Y17623939D01*
X-23914053Y15278053D02*
X-22937032Y15278053D01*
X-21972154Y16242931D02*
X-21972154Y17482026D01*
X-25081765Y17623939D02*
X-26725723Y19267897D01*
X-26725723Y19267897D02*
X-28248153Y19267897D01*
X-22937032Y15278053D02*
X-21972154Y16242931D01*
X-21972154Y17482026D02*
X-22043111Y17552983D01*
X-22941136Y16654957D02*
X-23908937Y16654957D01*
X-23908937Y16654957D02*
X-24599947Y15963947D01*
X-22941136Y16654957D02*
X-25635213Y16654957D01*
X-25635213Y16654957D02*
X-26452102Y17471846D01*
X3680000Y-19456000D02*
X3528000Y-19304000D01*
X3680000Y-20910000D02*
X3680000Y-19456000D01*
X6480000Y20910000D02*
X6480000Y19456000D01*
X6480000Y19456000D02*
X6632000Y19304000D01*
X-4687343Y-1969874D02*
X-5914343Y-3196874D01*
X640000Y-17389000D02*
X1366511Y-18115511D01*
X-11176000Y1524000D02*
X-11552000Y1900000D01*
X-4673812Y-1969874D02*
X-4687343Y-1969874D01*
X-4064000Y-1360062D02*
X-4673812Y-1969874D01*
X2636511Y-17689932D02*
X2636511Y-15072511D01*
X-4064000Y-510000D02*
X-4064000Y-1360062D01*
X-389499Y-10916494D02*
X-1219493Y-10086500D01*
X2210932Y-18115511D02*
X2636511Y-17689932D01*
X-389499Y-12046501D02*
X-389499Y-10916494D01*
X2636511Y-15072511D02*
X-389499Y-12046501D01*
X-11552000Y1900000D02*
X-16119000Y1900000D01*
X1366511Y-18115511D02*
X2210932Y-18115511D01*
X-1219493Y-10086500D02*
X-1459715Y-10086500D01*
X19196350Y-993656D02*
X19493003Y-697003D01*
X-7532955Y20957045D02*
X-7532955Y18141460D01*
X3130000Y19810107D02*
X1633139Y18313246D01*
X1549246Y18313246D02*
X1524000Y18288000D01*
X7030000Y-21460000D02*
X7832110Y-20657890D01*
X-19386000Y-7030000D02*
X-18288000Y-8128000D01*
X18286000Y-8130000D02*
X18534068Y-7881932D01*
X-21460000Y-7030000D02*
X-19386000Y-7030000D01*
X21460000Y-3130000D02*
X20038138Y-3130000D01*
X-3130000Y-21460000D02*
X-3130000Y-20600481D01*
X82138Y18288000D02*
X41069Y18246931D01*
X-7532955Y18141460D02*
X-7899950Y17774465D01*
X-20596467Y3130000D02*
X-19085499Y1619032D01*
X20038138Y-3130000D02*
X18787801Y-1879663D01*
X3130000Y21460000D02*
X3130000Y19810107D01*
X20749411Y7740589D02*
X18451768Y7740589D01*
X-7030000Y21460000D02*
X-7532955Y20957045D01*
X7832110Y-20657890D02*
X7832110Y-18474624D01*
X-3130000Y-20600481D02*
X-1531500Y-19001981D01*
X-18288000Y-8128000D02*
X-18288000Y-8636000D01*
X18787801Y-1360651D02*
X19154796Y-993656D01*
X1524000Y18288000D02*
X82138Y18288000D01*
X-21460000Y3130000D02*
X-20596467Y3130000D01*
X-8277967Y17758470D02*
X-8277967Y16234130D01*
X1633139Y18313246D02*
X1549246Y18313246D01*
X18534068Y-7881932D02*
X18534068Y-7156279D01*
X18787801Y-1879663D02*
X18787801Y-1360651D01*
X12192000Y-8130000D02*
X18286000Y-8130000D01*
X-630000Y-18100481D02*
X-1531500Y-19001981D01*
X-7899950Y17774465D02*
X-8261972Y17774465D01*
X21460000Y7030000D02*
X20749411Y7740589D01*
X-8261972Y17774465D02*
X-8277967Y17758470D01*
X-630000Y-17389000D02*
X-630000Y-18100481D01*
X19154796Y-993656D02*
X19196350Y-993656D01*
X12192000Y-6095847D02*
X12196839Y-6091008D01*
X12192000Y-7110000D02*
X12192000Y-6095847D01*
X22615529Y31721D02*
X22891721Y31721D01*
X12065000Y-33830000D02*
X11711978Y-34183022D01*
D100*
X635000Y33467935D02*
X635000Y32430000D01*
X0Y-34036000D02*
X-11486Y-34047486D01*
D98*
X17389000Y-1900000D02*
X19289000Y0D01*
X-80087Y34183022D02*
X-11711978Y34183022D01*
X34091449Y1081671D02*
X34183022Y1173244D01*
X22583808Y0D02*
X22615529Y31721D01*
X-34091449Y11486D02*
X-34183022Y-80087D01*
D100*
X33467935Y-635000D02*
X32430000Y-635000D01*
D98*
X11486Y34091449D02*
X-80087Y34183022D01*
X34091449Y-11486D02*
X34091449Y1081671D01*
D100*
X34091449Y-11486D02*
X33467935Y-635000D01*
D98*
X-34183022Y-11711978D02*
X-33830000Y-12065000D01*
X33830000Y12065000D02*
X32430000Y12065000D01*
X-33830000Y-12065000D02*
X-32430000Y-12065000D01*
D100*
X-11486Y-34047486D02*
X-11486Y-34091449D01*
D98*
X-11711978Y34183022D02*
X-12065000Y33830000D01*
X19289000Y0D02*
X21016384Y0D01*
X11711978Y-34183022D02*
X80087Y-34183022D01*
X34183022Y11711978D02*
X33830000Y12065000D01*
D100*
X-33467935Y635000D02*
X-32430000Y635000D01*
D98*
X22891721Y31721D02*
X23876000Y1016000D01*
D100*
X-635000Y-32430000D02*
X-635000Y-33401000D01*
D98*
X12065000Y-32430000D02*
X12065000Y-33830000D01*
X21603218Y-67822D02*
X21671040Y0D01*
X-12065000Y33830000D02*
X-12065000Y32430000D01*
X21671040Y0D02*
X22583808Y0D01*
X-34183022Y-80087D02*
X-34183022Y-11711978D01*
D100*
X-635000Y-33401000D02*
X0Y-34036000D01*
D98*
X21016384Y0D02*
X21084206Y-67822D01*
X34183022Y1173244D02*
X34183022Y11711978D01*
X21084206Y-67822D02*
X21603218Y-67822D01*
D100*
X11486Y34091449D02*
X635000Y33467935D01*
X-34091449Y11486D02*
X-33467935Y635000D01*
D98*
X80087Y-34183022D02*
X-11486Y-34091449D01*
X23876000Y1016000D02*
X24384000Y508000D01*
X24384000Y508000D02*
X24892000Y508000D01*
X26298723Y10795000D02*
X28530000Y10795000D01*
X23460000Y7030000D02*
X23460000Y7956277D01*
X25329519Y9825796D02*
X26298723Y10795000D01*
X24193557Y8689834D02*
X24193557Y9076269D01*
X23460000Y7956277D02*
X24193557Y8689834D01*
X24193557Y9076269D02*
X24943084Y9825796D01*
X24943084Y9825796D02*
X25329519Y9825796D01*
X25529247Y9525000D02*
X28530000Y9525000D01*
X24520068Y8941024D02*
X25078329Y9499285D01*
X24520068Y8554589D02*
X24520068Y8941024D01*
X25078329Y9499285D02*
X25503532Y9499285D01*
X23860000Y7030000D02*
X23860000Y7894521D01*
X23860000Y7894521D02*
X24520068Y8554589D01*
X25503532Y9499285D02*
X25529247Y9525000D01*
X25440649Y6488733D02*
X25440649Y6511710D01*
X27100186Y7685000D02*
X27130000Y7685000D01*
X26142588Y7213649D02*
X26194353Y7265414D01*
X25264885Y6149360D02*
X25276246Y6149360D01*
X25276246Y6149360D02*
X25440640Y6313754D01*
X26142588Y7063400D02*
X26142588Y7213649D01*
X25195525Y6080000D02*
X25264885Y6149360D01*
X25440640Y6488724D02*
X25440649Y6488733D01*
X26194353Y7265414D02*
X26680600Y7265414D01*
X24810000Y6080000D02*
X25195525Y6080000D01*
X25775593Y6696405D02*
X26142588Y7063400D01*
X26680600Y7265414D02*
X27100186Y7685000D01*
X27130000Y7685000D02*
X27700000Y8255000D01*
X25625344Y6696405D02*
X25775593Y6696405D01*
X27700000Y8255000D02*
X28530000Y8255000D01*
X25440649Y6511710D02*
X25625344Y6696405D01*
X25440640Y6313754D02*
X25440640Y6488724D01*
X25910838Y6369894D02*
X26469099Y6928155D01*
X27083903Y6938903D02*
X27130000Y6985000D01*
X25400130Y5822849D02*
X25411491Y5822849D01*
X26469099Y6938903D02*
X27083903Y6938903D01*
X24810000Y5680000D02*
X25210000Y5680000D01*
X25767151Y6189870D02*
X25767160Y6189879D01*
X25767160Y6189879D02*
X25767160Y6369894D01*
X25767151Y6178509D02*
X25767151Y6189870D01*
X25274543Y5744543D02*
X25274543Y5753471D01*
X25330761Y5753480D02*
X25400130Y5822849D01*
X27130000Y6985000D02*
X28530000Y6985000D01*
X26469099Y6928155D02*
X26469099Y6938903D01*
X25274552Y5753480D02*
X25330761Y5753480D01*
X25767160Y6369894D02*
X25910838Y6369894D01*
X25411491Y5822849D02*
X25767151Y6178509D01*
X25274543Y5753471D02*
X25274552Y5753480D01*
X25210000Y5680000D02*
X25274543Y5744543D01*
X27042501Y4668094D02*
X27042501Y5057501D01*
X26004094Y4301099D02*
X26044055Y4301099D01*
X24810000Y4480000D02*
X25825193Y4480000D01*
X27700000Y5715000D02*
X28530000Y5715000D01*
X26744230Y4369823D02*
X27042501Y4668094D01*
X26044055Y4301099D02*
X26112779Y4369823D01*
X26112779Y4369823D02*
X26744230Y4369823D01*
X27042501Y5057501D02*
X27700000Y5715000D01*
X25825193Y4480000D02*
X26004094Y4301099D01*
X28530000Y4445000D02*
X27281163Y4445000D01*
X25763437Y4080000D02*
X24810000Y4080000D01*
X27281163Y4445000D02*
X26879475Y4043312D01*
X26248024Y4043312D02*
X26146656Y3941944D01*
X25901493Y3941944D02*
X25763437Y4080000D01*
X26146656Y3941944D02*
X25901493Y3941944D01*
X26879475Y4043312D02*
X26248024Y4043312D01*
X24624991Y2114033D02*
X26063240Y2114033D01*
X24416980Y2322044D02*
X24624991Y2114033D01*
X26269106Y2319899D02*
X26844899Y2319899D01*
X26063240Y2114033D02*
X26269106Y2319899D01*
X24267956Y2322044D02*
X24416980Y2322044D01*
X27700000Y3175000D02*
X28530000Y3175000D01*
X23860000Y2730000D02*
X24267956Y2322044D01*
X23860000Y3130000D02*
X23860000Y2730000D01*
X26844899Y2319899D02*
X27700000Y3175000D01*
X25698731Y1510788D02*
X25921751Y1510788D01*
X23460000Y3130000D02*
X23460000Y2638816D01*
X25421996Y1787523D02*
X25698731Y1510788D01*
X24281735Y1995533D02*
X24489745Y1787523D01*
X24103283Y1995533D02*
X24281735Y1995533D01*
X23460000Y2638816D02*
X24103283Y1995533D01*
X25921751Y1510788D02*
X26315963Y1905000D01*
X24489745Y1787523D02*
X25421996Y1787523D01*
X26315963Y1905000D02*
X28530000Y1905000D01*
X26539596Y-1387477D02*
X27057119Y-1905000D01*
X24139523Y-1768477D02*
X24616274Y-1768477D01*
X25479604Y-1387477D02*
X26539596Y-1387477D01*
X23460000Y-3130000D02*
X23460000Y-2448000D01*
X23460000Y-2448000D02*
X24139523Y-1768477D01*
X24616274Y-1768477D02*
X24803648Y-1581103D01*
X25285978Y-1581103D02*
X25479604Y-1387477D01*
X24803648Y-1581103D02*
X25285978Y-1581103D01*
X27057119Y-1905000D02*
X28530000Y-1905000D01*
X27865363Y-3175000D02*
X28530000Y-3175000D01*
X25421223Y-1907614D02*
X25614849Y-1713988D01*
X23860000Y-2733114D02*
X24093754Y-2499360D01*
X25614849Y-1713988D02*
X26404351Y-1713988D01*
X24380632Y-2499360D02*
X24380632Y-2465875D01*
X23860000Y-3130000D02*
X23860000Y-2733114D01*
X24093754Y-2499360D02*
X24380632Y-2499360D01*
X24093754Y-2499360D02*
X24383492Y-2499360D01*
X24380632Y-2465875D02*
X24938893Y-1907614D01*
X24938893Y-1907614D02*
X25421223Y-1907614D01*
X26404351Y-1713988D02*
X27865363Y-3175000D01*
X26558843Y-3812921D02*
X25498851Y-3812921D01*
X28530000Y-4445000D02*
X27190922Y-4445000D01*
X25498851Y-3812921D02*
X25231772Y-4080000D01*
X25231772Y-4080000D02*
X24810000Y-4080000D01*
X27190922Y-4445000D02*
X26558843Y-3812921D01*
X27043689Y-4835635D02*
X27043689Y-4867940D01*
X25293528Y-4480000D02*
X25634096Y-4139432D01*
X26981859Y-4715703D02*
X26988214Y-4722058D01*
X27006381Y-4763060D02*
X27006381Y-4798327D01*
X26988214Y-4744893D02*
X27006381Y-4763060D01*
X27006381Y-4798327D02*
X27043689Y-4835635D01*
X27043689Y-4867940D02*
X27890749Y-5715000D01*
X27890749Y-5715000D02*
X28530000Y-5715000D01*
X25634096Y-4139432D02*
X26423598Y-4139432D01*
X26981859Y-4697693D02*
X26981859Y-4715703D01*
X26423598Y-4139432D02*
X26981859Y-4697693D01*
X26988214Y-4722058D02*
X26988214Y-4744893D01*
X24810000Y-4480000D02*
X25293528Y-4480000D01*
X26336396Y-6924677D02*
X26031596Y-6924677D01*
X26031596Y-6924677D02*
X25767151Y-6660232D01*
X26396719Y-6985000D02*
X26336396Y-6924677D01*
X25268642Y-5680000D02*
X24810000Y-5680000D01*
X28530000Y-6985000D02*
X26396719Y-6985000D01*
X25767151Y-6660232D02*
X25767151Y-6178509D01*
X25767151Y-6178509D02*
X25268642Y-5680000D01*
X26201151Y-7251188D02*
X27204963Y-8255000D01*
X25440640Y-6795477D02*
X25896351Y-7251188D01*
X27204963Y-8255000D02*
X28530000Y-8255000D01*
X24810000Y-6080000D02*
X25206886Y-6080000D01*
X25440640Y-6313754D02*
X25440640Y-6795477D01*
X25206886Y-6080000D02*
X25440640Y-6313754D01*
X25896351Y-7251188D02*
X26201151Y-7251188D01*
X28530000Y-9525000D02*
X25228187Y-9525000D01*
X23860000Y-7651807D02*
X23860000Y-7030000D01*
X24063796Y-8360609D02*
X24063796Y-7855603D01*
X25228187Y-9525000D02*
X24063796Y-8360609D01*
X24063796Y-7855603D02*
X23860000Y-7651807D01*
X23737285Y-8495854D02*
X26036431Y-10795000D01*
X23737285Y-7990848D02*
X23737285Y-8495854D01*
X23460000Y-7030000D02*
X23460000Y-7713563D01*
X23460000Y-7713563D02*
X23737285Y-7990848D01*
X26036431Y-10795000D02*
X28530000Y-10795000D01*
X23060000Y8035628D02*
X23867046Y8842674D01*
X23060000Y7030000D02*
X23060000Y8035628D01*
X30618711Y11391511D02*
X30868244Y11141978D01*
X26047043Y11391511D02*
X30618711Y11391511D01*
X23867046Y9211514D02*
X26047043Y11391511D01*
X23867046Y8842674D02*
X23867046Y9211514D01*
X32083022Y11141978D02*
X32430000Y10795000D01*
X30868244Y11141978D02*
X32083022Y11141978D01*
X29911882Y8928489D02*
X30508393Y9525000D01*
X25732586Y9172774D02*
X25976871Y8928489D01*
X25213574Y9172774D02*
X25732586Y9172774D01*
X24846579Y7616579D02*
X24846579Y8805779D01*
X25976871Y8928489D02*
X29911882Y8928489D01*
X24260000Y7030000D02*
X24846579Y7616579D01*
X24846579Y8805779D02*
X25213574Y9172774D01*
X30508393Y9525000D02*
X32430000Y9525000D01*
X25516087Y7186087D02*
X25516087Y7322906D01*
X32430000Y8255000D02*
X31429722Y8255000D01*
X31429722Y8255000D02*
X30516996Y7342274D01*
X24810000Y6480000D02*
X25516087Y7186087D01*
X26093671Y6090971D02*
X26093671Y6040145D01*
X26615092Y6612392D02*
X26093671Y6090971D01*
X29921705Y6347512D02*
X27248735Y6347512D01*
X26983855Y6612392D02*
X26615092Y6612392D01*
X26035052Y5957705D02*
X25983359Y5906012D01*
X26035052Y5981526D02*
X26035052Y5957705D01*
X26093671Y6040145D02*
X26035052Y5981526D01*
X25330398Y5280000D02*
X24810000Y5280000D01*
X25983359Y5906012D02*
X25956410Y5906012D01*
X25956410Y5906012D02*
X25330398Y5280000D01*
X32065901Y6620901D02*
X30195094Y6620901D01*
X30195094Y6620901D02*
X29921705Y6347512D01*
X32430000Y6985000D02*
X32065901Y6620901D01*
X27248735Y6347512D02*
X26983855Y6612392D01*
X25413670Y4880000D02*
X26156494Y5622824D01*
X30454600Y5994400D02*
X30734000Y5715000D01*
X30734000Y5715000D02*
X32430000Y5715000D01*
X26156494Y5622824D02*
X26511530Y5622824D01*
X26511530Y5622824D02*
X26799473Y5910767D01*
X24810000Y4880000D02*
X25413670Y4880000D01*
X26246468Y3580000D02*
X26383269Y3716801D01*
X27020781Y3598301D02*
X27021790Y3598301D01*
X31811978Y3826978D02*
X32430000Y4445000D01*
X27021790Y3598301D02*
X27250467Y3826978D01*
X26902281Y3716801D02*
X27020781Y3598301D01*
X27250467Y3826978D02*
X31811978Y3826978D01*
X26383269Y3716801D02*
X26902281Y3716801D01*
X24910000Y3580000D02*
X26246468Y3580000D01*
X24810000Y3680000D02*
X24910000Y3580000D01*
X24649466Y2740534D02*
X25527000Y2740534D01*
X31492850Y3175000D02*
X30586851Y2269001D01*
X24260000Y3130000D02*
X24649466Y2740534D01*
X32430000Y3175000D02*
X31492850Y3175000D01*
X26177230Y1304511D02*
X29882504Y1304511D01*
X26056996Y1184277D02*
X26177230Y1304511D01*
X24146490Y1669022D02*
X24425874Y1389638D01*
X32167501Y1642501D02*
X32430000Y1905000D01*
X29882504Y1304511D02*
X30220494Y1642501D01*
X23060000Y2577060D02*
X23968038Y1669022D01*
X23968038Y1669022D02*
X24146490Y1669022D01*
X24425874Y1389638D02*
X24497249Y1461012D01*
X25563486Y1184277D02*
X26056996Y1184277D01*
X23060000Y3130000D02*
X23060000Y2577060D01*
X25286751Y1461012D02*
X25563486Y1184277D01*
X24497249Y1461012D02*
X25286751Y1461012D01*
X30220494Y1642501D02*
X32167501Y1642501D01*
X29886482Y-1308489D02*
X30482993Y-1905000D01*
X30482993Y-1905000D02*
X32430000Y-1905000D01*
X26811000Y-1016000D02*
X27103489Y-1308489D01*
X27103489Y-1308489D02*
X29886482Y-1308489D01*
X23060000Y-3130000D02*
X23060000Y-2375453D01*
X24419453Y-1016000D02*
X26811000Y-1016000D01*
X23060000Y-2375453D02*
X24419453Y-1016000D01*
X24707143Y-2601120D02*
X24707143Y-3083450D01*
X24660593Y-3130000D02*
X24260000Y-3130000D01*
X25750094Y-2040499D02*
X25556468Y-2234125D01*
X27017101Y-2864694D02*
X26192906Y-2040499D01*
X30165882Y-3771511D02*
X27017101Y-3771511D01*
X25556468Y-2234125D02*
X25074138Y-2234125D01*
X27017101Y-3771511D02*
X27017101Y-2864694D01*
X30762393Y-3175000D02*
X30165882Y-3771511D01*
X24707143Y-3083450D02*
X24660593Y-3130000D01*
X25074138Y-2234125D02*
X24707143Y-2601120D01*
X26192906Y-2040499D02*
X25750094Y-2040499D01*
X32430000Y-3175000D02*
X30762393Y-3175000D01*
X24810000Y-3680000D02*
X25170016Y-3680000D01*
X32201400Y-4216400D02*
X32430000Y-4445000D01*
X25363606Y-3486410D02*
X25851188Y-3486410D01*
X25851188Y-3486410D02*
X26297546Y-3040052D01*
X30607000Y-4216400D02*
X32201400Y-4216400D01*
X25170016Y-3680000D02*
X25363606Y-3486410D01*
X25398970Y-4836314D02*
X25769341Y-4465943D01*
X27093301Y-5402832D02*
X27093301Y-6044531D01*
X24810000Y-4880000D02*
X25398970Y-4880000D01*
X26655348Y-4850948D02*
X26661703Y-4857303D01*
X27093301Y-6044531D02*
X27103398Y-6054628D01*
X26655348Y-4832938D02*
X26655348Y-4850948D01*
X26661703Y-4880138D02*
X26679870Y-4898305D01*
X27103398Y-6358499D02*
X31786501Y-6358499D01*
X31786501Y-6358499D02*
X32430000Y-5715000D01*
X26288353Y-4465943D02*
X26655348Y-4832938D01*
X25398970Y-4880000D02*
X25398970Y-4836314D01*
X25769341Y-4465943D02*
X26288353Y-4465943D01*
X27103398Y-6054628D02*
X27103398Y-6358499D01*
X26717178Y-5026709D02*
X27093301Y-5402832D01*
X26679870Y-4933572D02*
X26717178Y-4970880D01*
X26717178Y-4970880D02*
X26717178Y-5026709D01*
X26661703Y-4857303D02*
X26661703Y-4880138D01*
X26679870Y-4898305D02*
X26679870Y-4933572D01*
X26364532Y-6314134D02*
X26476897Y-6314134D01*
X32430000Y-6985000D02*
X31394400Y-6985000D01*
X24810000Y-5280000D02*
X25330398Y-5280000D01*
X25330398Y-5280000D02*
X26364532Y-6314134D01*
X31394400Y-6985000D02*
X30429200Y-7950200D01*
X31756511Y-8928489D02*
X32430000Y-8255000D01*
X26509101Y-8405020D02*
X27032570Y-8928489D01*
X24810000Y-6480000D02*
X24810000Y-6705919D01*
X27032570Y-8928489D02*
X31756511Y-8928489D01*
X26065906Y-7577699D02*
X26509101Y-8020894D01*
X24810000Y-6705919D02*
X25681780Y-7577699D01*
X25681780Y-7577699D02*
X26065906Y-7577699D01*
X26509101Y-8020894D02*
X26509101Y-8405020D01*
X31496000Y-9525000D02*
X30403800Y-10617200D01*
X32430000Y-9525000D02*
X31496000Y-9525000D01*
X24690297Y-7460297D02*
X24690297Y-8101103D01*
X24260000Y-7030000D02*
X24690297Y-7460297D01*
X23060000Y-7030000D02*
X23060000Y-7775319D01*
X31833489Y-11391511D02*
X32430000Y-10795000D01*
X23410774Y-8126093D02*
X23410774Y-8631099D01*
X23060000Y-7775319D02*
X23410774Y-8126093D01*
X23410774Y-8631099D02*
X26171186Y-11391511D01*
X26171186Y-11391511D02*
X31833489Y-11391511D01*
X7956277Y-23460000D02*
X8689834Y-24193557D01*
X10795000Y-26298723D02*
X10795000Y-28530000D01*
X7030000Y-23460000D02*
X7956277Y-23460000D01*
X9825796Y-25329519D02*
X10795000Y-26298723D01*
X9825796Y-24943084D02*
X9825796Y-25329519D01*
X9076269Y-24193557D02*
X9825796Y-24943084D01*
X8689834Y-24193557D02*
X9076269Y-24193557D01*
X9499285Y-25503532D02*
X9525000Y-25529247D01*
X8941024Y-24520068D02*
X9499285Y-25078329D01*
X9525000Y-25529247D02*
X9525000Y-28530000D01*
X7894521Y-23860000D02*
X8554589Y-24520068D01*
X8554589Y-24520068D02*
X8941024Y-24520068D01*
X7030000Y-23860000D02*
X7894521Y-23860000D01*
X9499285Y-25078329D02*
X9499285Y-25503532D01*
X6313754Y-25440640D02*
X6488724Y-25440640D01*
X6488724Y-25440640D02*
X6488733Y-25440649D01*
X6149360Y-25264885D02*
X6149360Y-25276246D01*
X7265414Y-26194353D02*
X7265414Y-26680600D01*
X6511710Y-25440649D02*
X7265414Y-26194353D01*
X6488733Y-25440649D02*
X6511710Y-25440649D01*
X6149360Y-25276246D02*
X6313754Y-25440640D01*
X7685000Y-27130000D02*
X8255000Y-27700000D01*
X8255000Y-27700000D02*
X8255000Y-28530000D01*
X6080000Y-25195525D02*
X6149360Y-25264885D01*
X7685000Y-27100186D02*
X7685000Y-27130000D01*
X6080000Y-24810000D02*
X6080000Y-25195525D01*
X7265414Y-26680600D02*
X7685000Y-27100186D01*
X5744543Y-25274543D02*
X5753471Y-25274543D01*
X6189870Y-25767151D02*
X6189879Y-25767160D01*
X5753480Y-25330761D02*
X5822849Y-25400130D01*
X5680000Y-25210000D02*
X5744543Y-25274543D01*
X6178509Y-25767151D02*
X6189870Y-25767151D01*
X5822849Y-25400130D02*
X5822849Y-25411491D01*
X5753471Y-25274543D02*
X5753480Y-25274552D01*
X5822849Y-25411491D02*
X6178509Y-25767151D01*
X6376465Y-25767160D02*
X6938903Y-26329598D01*
X6938903Y-27083903D02*
X6985000Y-27130000D01*
X6938903Y-26329598D02*
X6938903Y-27083903D01*
X5753480Y-25274552D02*
X5753480Y-25330761D01*
X6189879Y-25767160D02*
X6376465Y-25767160D01*
X6985000Y-27130000D02*
X6985000Y-28530000D01*
X5680000Y-24810000D02*
X5680000Y-25210000D01*
X4668094Y-27042501D02*
X5057501Y-27042501D01*
X5715000Y-27700000D02*
X5715000Y-28530000D01*
X4480000Y-24810000D02*
X4480000Y-25825193D01*
X4301099Y-26004094D02*
X4301099Y-26044055D01*
X4369823Y-26112779D02*
X4369823Y-26744230D01*
X5057501Y-27042501D02*
X5715000Y-27700000D01*
X4480000Y-25825193D02*
X4301099Y-26004094D01*
X4369823Y-26744230D02*
X4668094Y-27042501D01*
X4301099Y-26044055D02*
X4369823Y-26112779D01*
X3941944Y-25901493D02*
X4080000Y-25763437D01*
X3941944Y-26146656D02*
X3941944Y-25901493D01*
X4043312Y-26248024D02*
X3941944Y-26146656D01*
X4445000Y-28530000D02*
X4445000Y-27281163D01*
X4445000Y-27281163D02*
X4043312Y-26879475D01*
X4043312Y-26879475D02*
X4043312Y-26248024D01*
X4080000Y-25763437D02*
X4080000Y-24810000D01*
X3175000Y-27733807D02*
X3175000Y-28530000D01*
X1837299Y-24752701D02*
X1837299Y-25786506D01*
X3130000Y-23860000D02*
X2730000Y-23860000D01*
X2319899Y-26269106D02*
X2319899Y-26878706D01*
X2730000Y-23860000D02*
X1837299Y-24752701D01*
X2319899Y-26878706D02*
X3175000Y-27733807D01*
X1837299Y-25786506D02*
X2319899Y-26269106D01*
X3130000Y-23460000D02*
X2638816Y-23460000D01*
X1510788Y-25921751D02*
X1905000Y-26315963D01*
X1510788Y-24588028D02*
X1510788Y-25921751D01*
X2638816Y-23460000D02*
X1510788Y-24588028D01*
X1905000Y-26315963D02*
X1905000Y-28530000D01*
X-1581103Y-24803648D02*
X-1581103Y-25285978D01*
X-1905000Y-27057119D02*
X-1905000Y-28530000D01*
X-1387477Y-26539596D02*
X-1905000Y-27057119D01*
X-3130000Y-23460000D02*
X-2448000Y-23460000D01*
X-1768477Y-24616274D02*
X-1581103Y-24803648D01*
X-2448000Y-23460000D02*
X-1768477Y-24139523D01*
X-1581103Y-25285978D02*
X-1387477Y-25479604D01*
X-1387477Y-25479604D02*
X-1387477Y-26539596D01*
X-1768477Y-24139523D02*
X-1768477Y-24616274D01*
X-3130000Y-23860000D02*
X-2733114Y-23860000D01*
X-1713988Y-25614849D02*
X-1713988Y-26404351D01*
X-2499360Y-24093754D02*
X-2499360Y-24380632D01*
X-3175000Y-27865363D02*
X-3175000Y-28530000D01*
X-1907614Y-25421223D02*
X-1713988Y-25614849D01*
X-2733114Y-23860000D02*
X-2499360Y-24093754D01*
X-2465875Y-24380632D02*
X-1907614Y-24938893D01*
X-2499360Y-24093754D02*
X-2499360Y-24383492D01*
X-1907614Y-24938893D02*
X-1907614Y-25421223D01*
X-2499360Y-24380632D02*
X-2465875Y-24380632D01*
X-1713988Y-26404351D02*
X-3175000Y-27865363D01*
X-3812921Y-25498851D02*
X-4080000Y-25231772D01*
X-4445000Y-28530000D02*
X-4445000Y-27190922D01*
X-4080000Y-25231772D02*
X-4080000Y-24810000D01*
X-4445000Y-27190922D02*
X-3812921Y-26558843D01*
X-3812921Y-26558843D02*
X-3812921Y-25498851D01*
X-4697693Y-26981859D02*
X-4715703Y-26981859D01*
X-4763060Y-27006381D02*
X-4798327Y-27006381D01*
X-4835635Y-27043689D02*
X-4867940Y-27043689D01*
X-4867940Y-27043689D02*
X-5715000Y-27890749D01*
X-4139432Y-25634096D02*
X-4139432Y-26423598D01*
X-4798327Y-27006381D02*
X-4835635Y-27043689D01*
X-4480000Y-24810000D02*
X-4480000Y-25293528D01*
X-4722058Y-26988214D02*
X-4744893Y-26988214D01*
X-4715703Y-26981859D02*
X-4722058Y-26988214D01*
X-5715000Y-27890749D02*
X-5715000Y-28530000D01*
X-4139432Y-26423598D02*
X-4697693Y-26981859D01*
X-4480000Y-25293528D02*
X-4139432Y-25634096D01*
X-4744893Y-26988214D02*
X-4763060Y-27006381D01*
X-6870037Y-25976956D02*
X-6660232Y-25767151D01*
X-6985000Y-28530000D02*
X-6985000Y-26683799D01*
X-6870037Y-26568836D02*
X-6870037Y-25976956D01*
X-5680000Y-25268642D02*
X-5680000Y-24810000D01*
X-6985000Y-26683799D02*
X-6870037Y-26568836D01*
X-6178509Y-25767151D02*
X-5680000Y-25268642D01*
X-6660232Y-25767151D02*
X-6178509Y-25767151D01*
X-7196548Y-25841711D02*
X-7196548Y-26433591D01*
X-6080000Y-24810000D02*
X-6080000Y-25206886D01*
X-6313754Y-25440640D02*
X-6795477Y-25440640D01*
X-8255000Y-27492043D02*
X-8255000Y-28530000D01*
X-6080000Y-25206886D02*
X-6313754Y-25440640D01*
X-7196548Y-26433591D02*
X-8255000Y-27492043D01*
X-6795477Y-25440640D02*
X-7196548Y-25841711D01*
X-7742732Y-23860000D02*
X-7030000Y-23860000D01*
X-9525000Y-25642268D02*
X-7742732Y-23860000D01*
X-9525000Y-28530000D02*
X-9525000Y-25642268D01*
X-7804488Y-23460000D02*
X-10795000Y-26450512D01*
X-7030000Y-23460000D02*
X-7804488Y-23460000D01*
X-10795000Y-26450512D02*
X-10795000Y-28530000D01*
X11391511Y-26415883D02*
X11391511Y-30310733D01*
X7030000Y-23060000D02*
X8404468Y-23060000D01*
X8404468Y-23060000D02*
X10152307Y-24807839D01*
X10152307Y-25176679D02*
X11391511Y-26415883D01*
X10152307Y-24807839D02*
X10152307Y-25176679D01*
X10795000Y-30907244D02*
X10795000Y-32430000D01*
X11391511Y-30310733D02*
X10795000Y-30907244D01*
X9525000Y-30508393D02*
X9525000Y-32430000D01*
X7030000Y-24260000D02*
X7616579Y-24846579D01*
X8928489Y-25976871D02*
X8928489Y-29911882D01*
X8805779Y-24846579D02*
X9172774Y-25213574D01*
X7616579Y-24846579D02*
X8805779Y-24846579D01*
X9172774Y-25213574D02*
X9172774Y-25732586D01*
X8928489Y-29911882D02*
X9525000Y-30508393D01*
X9172774Y-25732586D02*
X8928489Y-25976871D01*
X7160868Y-25490868D02*
X7619942Y-25490868D01*
X6480000Y-24810000D02*
X7160868Y-25490868D01*
X7518400Y-30480000D02*
X8255000Y-31216600D01*
X8255000Y-31216600D02*
X8255000Y-32430000D01*
X5981526Y-26035052D02*
X5957705Y-26035052D01*
X6241220Y-26093671D02*
X6040145Y-26093671D01*
X5906012Y-25956410D02*
X5280000Y-25330398D01*
X6347512Y-29921705D02*
X6347512Y-27248735D01*
X5906012Y-25983359D02*
X5906012Y-25956410D01*
X5957705Y-26035052D02*
X5906012Y-25983359D01*
X6985000Y-32430000D02*
X6620901Y-32065901D01*
X6612392Y-26464843D02*
X6241220Y-26093671D01*
X6612392Y-26983855D02*
X6612392Y-26464843D01*
X6620901Y-32065901D02*
X6620901Y-30195094D01*
X5280000Y-25330398D02*
X5280000Y-24810000D01*
X6347512Y-27248735D02*
X6612392Y-26983855D01*
X6620901Y-30195094D02*
X6347512Y-29921705D01*
X6040145Y-26093671D02*
X5981526Y-26035052D01*
X4880000Y-24810000D02*
X4880000Y-25413670D01*
X5715000Y-30734000D02*
X5715000Y-32430000D01*
X4880000Y-25413670D02*
X5622824Y-26156494D01*
X5994400Y-30454600D02*
X5715000Y-30734000D01*
X5622824Y-26156494D02*
X5622824Y-26361282D01*
X5622824Y-26361282D02*
X5985891Y-26724349D01*
X3826978Y-31811978D02*
X4445000Y-32430000D01*
X3580000Y-26246468D02*
X3716801Y-26383269D01*
X3580000Y-24910000D02*
X3580000Y-26246468D01*
X3716801Y-26902281D02*
X3598301Y-27020781D01*
X3716801Y-26383269D02*
X3716801Y-26902281D01*
X3680000Y-24810000D02*
X3580000Y-24910000D01*
X3598301Y-27021790D02*
X3826978Y-27250467D01*
X3598301Y-27020781D02*
X3598301Y-27021790D01*
X3826978Y-27250467D02*
X3826978Y-31811978D01*
X3130000Y-24260000D02*
X3130000Y-24860800D01*
X3175000Y-32430000D02*
X3175000Y-31492850D01*
X3175000Y-31492850D02*
X2269001Y-30586851D01*
X3130000Y-24860800D02*
X2463800Y-25527000D01*
X1304511Y-29882504D02*
X1642501Y-30220494D01*
X1184277Y-26056996D02*
X1304511Y-26177230D01*
X3130000Y-23060000D02*
X2577060Y-23060000D01*
X1642501Y-32167501D02*
X1905000Y-32430000D01*
X1304511Y-26177230D02*
X1304511Y-29882504D01*
X1642501Y-30220494D02*
X1642501Y-32167501D01*
X1184277Y-24452783D02*
X1184277Y-26056996D01*
X2577060Y-23060000D02*
X1184277Y-24452783D01*
X-1016000Y-26811000D02*
X-1308489Y-27103489D01*
X-1016000Y-24168372D02*
X-1016000Y-26811000D01*
X-2124372Y-23060000D02*
X-1016000Y-24168372D01*
X-1308489Y-29886482D02*
X-1905000Y-30482993D01*
X-3130000Y-23060000D02*
X-2124372Y-23060000D01*
X-1905000Y-30482993D02*
X-1905000Y-32430000D01*
X-1308489Y-27103489D02*
X-1308489Y-29886482D01*
X-2040499Y-25750094D02*
X-2234125Y-25556468D01*
X-3083450Y-24707143D02*
X-3130000Y-24660593D01*
X-3175000Y-30762393D02*
X-3771511Y-30165882D01*
X-2234125Y-25556468D02*
X-2234125Y-25074138D01*
X-2601120Y-24707143D02*
X-3083450Y-24707143D01*
X-3130000Y-24660593D02*
X-3130000Y-24260000D01*
X-2864694Y-27017101D02*
X-2040499Y-26192906D01*
X-3771511Y-27017101D02*
X-2864694Y-27017101D01*
X-3771511Y-30165882D02*
X-3771511Y-27017101D01*
X-2234125Y-25074138D02*
X-2601120Y-24707143D01*
X-2040499Y-26192906D02*
X-2040499Y-25750094D01*
X-3175000Y-32430000D02*
X-3175000Y-30762393D01*
X-3680000Y-25170016D02*
X-3486410Y-25363606D01*
X-3486410Y-25363606D02*
X-3486410Y-25851188D01*
X-3680000Y-24810000D02*
X-3680000Y-25170016D01*
X-3486410Y-25851188D02*
X-3040052Y-26297546D01*
X-4216400Y-32201400D02*
X-4445000Y-32430000D01*
X-4216400Y-30607000D02*
X-4216400Y-32201400D01*
X-5026709Y-26717178D02*
X-5402832Y-27093301D01*
X-4832938Y-26655348D02*
X-4850948Y-26655348D01*
X-4880000Y-25398970D02*
X-4836314Y-25398970D01*
X-4836314Y-25398970D02*
X-4465943Y-25769341D01*
X-4970880Y-26717178D02*
X-5026709Y-26717178D01*
X-6358499Y-27103398D02*
X-6358499Y-31786501D01*
X-6054628Y-27103398D02*
X-6358499Y-27103398D01*
X-6044531Y-27093301D02*
X-6054628Y-27103398D01*
X-4880000Y-24810000D02*
X-4880000Y-25398970D01*
X-4880138Y-26661703D02*
X-4898305Y-26679870D01*
X-5402832Y-27093301D02*
X-6044531Y-27093301D01*
X-4850948Y-26655348D02*
X-4857303Y-26661703D01*
X-4898305Y-26679870D02*
X-4933572Y-26679870D01*
X-4465943Y-26288353D02*
X-4832938Y-26655348D01*
X-4465943Y-25769341D02*
X-4465943Y-26288353D01*
X-4933572Y-26679870D02*
X-4970880Y-26717178D01*
X-6358499Y-31786501D02*
X-5715000Y-32430000D01*
X-4857303Y-26661703D02*
X-4880138Y-26661703D01*
X-5280000Y-25330398D02*
X-6243537Y-26293935D01*
X-6985000Y-32430000D02*
X-6985000Y-31394400D01*
X-6243537Y-26293935D02*
X-6243537Y-26466610D01*
X-5280000Y-24810000D02*
X-5280000Y-25330398D01*
X-6985000Y-31394400D02*
X-7950200Y-30429200D01*
X-7577699Y-25681780D02*
X-7577699Y-25724694D01*
X-6480000Y-24810000D02*
X-6705919Y-24810000D01*
X-7890054Y-26665341D02*
X-8409066Y-26665341D01*
X-8485163Y-26589244D02*
X-8928489Y-27032570D01*
X-7577699Y-25724694D02*
X-7523059Y-25779334D01*
X-8928489Y-27032570D02*
X-8928489Y-29878119D01*
X-7523059Y-25779334D02*
X-7523059Y-26298346D01*
X-8928489Y-29878119D02*
X-8728686Y-30077922D01*
X-6705919Y-24810000D02*
X-7577699Y-25681780D01*
X-8409066Y-26665341D02*
X-8485163Y-26589244D01*
X-8728686Y-31956314D02*
X-8255000Y-32430000D01*
X-7523059Y-26298346D02*
X-7890054Y-26665341D01*
X-8728686Y-30077922D02*
X-8728686Y-31956314D01*
X-9525000Y-31057408D02*
X-10280989Y-30301419D01*
X-7667337Y-24897337D02*
X-7894063Y-24897337D01*
X-7030000Y-24260000D02*
X-7667337Y-24897337D01*
X-9525000Y-32430000D02*
X-9525000Y-31057408D01*
X-7030000Y-23060000D02*
X-7866244Y-23060000D01*
X-11391511Y-26585267D02*
X-11391511Y-31833489D01*
X-11391511Y-31833489D02*
X-10795000Y-32430000D01*
X-7866244Y-23060000D02*
X-11391511Y-26585267D01*
X-26298723Y-10795000D02*
X-28530000Y-10795000D01*
X-23460000Y-7030000D02*
X-23460000Y-7956277D01*
X-24193557Y-9076269D02*
X-24943084Y-9825796D01*
X-24193557Y-8689834D02*
X-24193557Y-9076269D01*
X-25329519Y-9825796D02*
X-26298723Y-10795000D01*
X-23460000Y-7956277D02*
X-24193557Y-8689834D01*
X-24943084Y-9825796D02*
X-25329519Y-9825796D01*
X-24520068Y-8554589D02*
X-24520068Y-8941024D01*
X-24520068Y-8941024D02*
X-25078329Y-9499285D01*
X-25503532Y-9499285D02*
X-25529247Y-9525000D01*
X-23860000Y-7030000D02*
X-23860000Y-7894521D01*
X-25078329Y-9499285D02*
X-25503532Y-9499285D01*
X-25529247Y-9525000D02*
X-28530000Y-9525000D01*
X-23860000Y-7894521D02*
X-24520068Y-8554589D01*
X-25440640Y-6313754D02*
X-25440640Y-6488724D01*
X-25264885Y-6149360D02*
X-25276246Y-6149360D01*
X-25440649Y-6488733D02*
X-25440649Y-6511710D01*
X-25276246Y-6149360D02*
X-25440640Y-6313754D01*
X-26194353Y-7265414D02*
X-26680600Y-7265414D01*
X-25195525Y-6080000D02*
X-25264885Y-6149360D01*
X-26680600Y-7265414D02*
X-27100186Y-7685000D01*
X-27700000Y-8255000D02*
X-28530000Y-8255000D01*
X-27130000Y-7685000D02*
X-27700000Y-8255000D01*
X-25440640Y-6488724D02*
X-25440649Y-6488733D01*
X-27100186Y-7685000D02*
X-27130000Y-7685000D01*
X-24810000Y-6080000D02*
X-25195525Y-6080000D01*
X-25440649Y-6511710D02*
X-26194353Y-7265414D01*
X-25210000Y-5680000D02*
X-25274543Y-5744543D01*
X-25330761Y-5753480D02*
X-25400130Y-5822849D01*
X-24810000Y-5680000D02*
X-25210000Y-5680000D01*
X-25767160Y-6189879D02*
X-25767160Y-6376465D01*
X-27083903Y-6938903D02*
X-27130000Y-6985000D01*
X-25767151Y-6189870D02*
X-25767160Y-6189879D01*
X-27130000Y-6985000D02*
X-28530000Y-6985000D01*
X-25767160Y-6376465D02*
X-26329598Y-6938903D01*
X-25411491Y-5822849D02*
X-25767151Y-6178509D01*
X-25400130Y-5822849D02*
X-25411491Y-5822849D01*
X-25274543Y-5744543D02*
X-25274543Y-5753471D01*
X-25274543Y-5753471D02*
X-25274552Y-5753480D01*
X-25274552Y-5753480D02*
X-25330761Y-5753480D01*
X-25767151Y-6178509D02*
X-25767151Y-6189870D01*
X-26329598Y-6938903D02*
X-27083903Y-6938903D01*
X-25825193Y-4480000D02*
X-26004094Y-4301099D01*
X-26004094Y-4301099D02*
X-26044055Y-4301099D01*
X-27042501Y-5057501D02*
X-27700000Y-5715000D01*
X-27042501Y-4668094D02*
X-27042501Y-5057501D01*
X-26044055Y-4301099D02*
X-26112779Y-4369823D01*
X-26744230Y-4369823D02*
X-27042501Y-4668094D01*
X-26112779Y-4369823D02*
X-26744230Y-4369823D01*
X-27700000Y-5715000D02*
X-28530000Y-5715000D01*
X-24810000Y-4480000D02*
X-25825193Y-4480000D01*
X-26879475Y-4043312D02*
X-26248024Y-4043312D01*
X-26146656Y-3941944D02*
X-25901493Y-3941944D01*
X-25763437Y-4080000D02*
X-24810000Y-4080000D01*
X-27281163Y-4445000D02*
X-26879475Y-4043312D01*
X-26248024Y-4043312D02*
X-26146656Y-3941944D01*
X-28530000Y-4445000D02*
X-27281163Y-4445000D01*
X-25901493Y-3941944D02*
X-25763437Y-4080000D01*
X-25786506Y-1837299D02*
X-26269106Y-2319899D01*
X-23860000Y-2730000D02*
X-24752701Y-1837299D01*
X-27733807Y-3175000D02*
X-28530000Y-3175000D01*
X-23860000Y-3130000D02*
X-23860000Y-2730000D01*
X-26269106Y-2319899D02*
X-26878706Y-2319899D01*
X-26878706Y-2319899D02*
X-27733807Y-3175000D01*
X-24752701Y-1837299D02*
X-25786506Y-1837299D01*
X-24588028Y-1510788D02*
X-25921751Y-1510788D01*
X-23460000Y-2638816D02*
X-24588028Y-1510788D01*
X-26315963Y-1905000D02*
X-28530000Y-1905000D01*
X-25921751Y-1510788D02*
X-26315963Y-1905000D01*
X-23460000Y-3130000D02*
X-23460000Y-2638816D01*
X-24803648Y1581103D02*
X-25285978Y1581103D01*
X-25479604Y1387477D02*
X-26539596Y1387477D01*
X-24616274Y1768477D02*
X-24803648Y1581103D01*
X-26539596Y1387477D02*
X-27057119Y1905000D01*
X-23460000Y2448000D02*
X-24139523Y1768477D01*
X-25285978Y1581103D02*
X-25479604Y1387477D01*
X-24139523Y1768477D02*
X-24616274Y1768477D01*
X-23460000Y3130000D02*
X-23460000Y2448000D01*
X-27057119Y1905000D02*
X-28530000Y1905000D01*
X-23860000Y3130000D02*
X-23860000Y2733114D01*
X-24380632Y2499360D02*
X-24380632Y2465875D01*
X-24093754Y2499360D02*
X-24380632Y2499360D01*
X-25421223Y1907614D02*
X-25614849Y1713988D01*
X-24938893Y1907614D02*
X-25421223Y1907614D01*
X-25614849Y1713988D02*
X-26404351Y1713988D01*
X-23860000Y2733114D02*
X-24093754Y2499360D01*
X-26404351Y1713988D02*
X-27865363Y3175000D01*
X-24380632Y2465875D02*
X-24938893Y1907614D01*
X-24093754Y2499360D02*
X-24383492Y2499360D01*
X-27865363Y3175000D02*
X-28530000Y3175000D01*
X-28530000Y4445000D02*
X-27190922Y4445000D01*
X-26558843Y3812921D02*
X-25498851Y3812921D01*
X-25498851Y3812921D02*
X-25231772Y4080000D01*
X-25231772Y4080000D02*
X-24810000Y4080000D01*
X-27190922Y4445000D02*
X-26558843Y3812921D01*
X-27890749Y5715000D02*
X-28530000Y5715000D01*
X-26981859Y4715703D02*
X-26988214Y4722058D01*
X-26423598Y4139432D02*
X-26981859Y4697693D01*
X-26988214Y4722058D02*
X-26988214Y4744893D01*
X-27006381Y4798327D02*
X-27043689Y4835635D01*
X-27006381Y4763060D02*
X-27006381Y4798327D01*
X-27043689Y4867940D02*
X-27890749Y5715000D01*
X-26981859Y4697693D02*
X-26981859Y4715703D01*
X-24810000Y4480000D02*
X-25293528Y4480000D01*
X-25293528Y4480000D02*
X-25634096Y4139432D01*
X-25634096Y4139432D02*
X-26423598Y4139432D01*
X-27043689Y4835635D02*
X-27043689Y4867940D01*
X-26988214Y4744893D02*
X-27006381Y4763060D01*
X-26504566Y6887738D02*
X-25994657Y6887738D01*
X-25767151Y6660232D02*
X-25767151Y6178509D01*
X-28530000Y6985000D02*
X-26601828Y6985000D01*
X-26601828Y6985000D02*
X-26504566Y6887738D01*
X-25767151Y6178509D02*
X-25268642Y5680000D01*
X-25268642Y5680000D02*
X-24810000Y5680000D01*
X-25994657Y6887738D02*
X-25767151Y6660232D01*
X-24810000Y6080000D02*
X-25206886Y6080000D01*
X-26369321Y7214249D02*
X-27410072Y8255000D01*
X-27410072Y8255000D02*
X-28530000Y8255000D01*
X-25440640Y6795477D02*
X-25859412Y7214249D01*
X-25440640Y6313754D02*
X-25440640Y6795477D01*
X-25859412Y7214249D02*
X-26369321Y7214249D01*
X-25206886Y6080000D02*
X-25440640Y6313754D01*
X-25228187Y9525000D02*
X-24063796Y8360609D01*
X-23860000Y7651807D02*
X-23860000Y7030000D01*
X-24063796Y8360609D02*
X-24063796Y7855603D01*
X-24063796Y7855603D02*
X-23860000Y7651807D01*
X-28530000Y9525000D02*
X-25228187Y9525000D01*
X-25945898Y10704467D02*
X-28439467Y10704467D01*
X-23460000Y7030000D02*
X-23460000Y7713563D01*
X-23737285Y8495854D02*
X-25945898Y10704467D01*
X-28439467Y10704467D02*
X-28530000Y10795000D01*
X-23737285Y7990848D02*
X-23737285Y8495854D01*
X-23460000Y7713563D02*
X-23737285Y7990848D01*
X-24807839Y-10152307D02*
X-25176679Y-10152307D01*
X-30907244Y-10795000D02*
X-32430000Y-10795000D01*
X-23060000Y-7030000D02*
X-23060000Y-8404468D01*
X-23060000Y-8404468D02*
X-24807839Y-10152307D01*
X-30310733Y-11391511D02*
X-30907244Y-10795000D01*
X-25176679Y-10152307D02*
X-26415883Y-11391511D01*
X-26415883Y-11391511D02*
X-30310733Y-11391511D01*
X-24260000Y-7030000D02*
X-24846579Y-7616579D01*
X-25732586Y-9172774D02*
X-25976871Y-8928489D01*
X-30508393Y-9525000D02*
X-32430000Y-9525000D01*
X-24846579Y-8805779D02*
X-25213574Y-9172774D01*
X-25213574Y-9172774D02*
X-25732586Y-9172774D01*
X-24846579Y-7616579D02*
X-24846579Y-8805779D01*
X-29911882Y-8928489D02*
X-30508393Y-9525000D01*
X-25976871Y-8928489D02*
X-29911882Y-8928489D01*
X-25490868Y-7160868D02*
X-25490868Y-7619942D01*
X-31216600Y-8255000D02*
X-32430000Y-8255000D01*
X-30480000Y-7518400D02*
X-31216600Y-8255000D01*
X-24810000Y-6480000D02*
X-25490868Y-7160868D01*
X-26035052Y-5957705D02*
X-25983359Y-5906012D01*
X-25983359Y-5906012D02*
X-25956410Y-5906012D01*
X-26093671Y-6040145D02*
X-26035052Y-5981526D01*
X-26093671Y-6241220D02*
X-26093671Y-6040145D01*
X-26983855Y-6612392D02*
X-26464843Y-6612392D01*
X-29921705Y-6347512D02*
X-27248735Y-6347512D01*
X-32430000Y-6985000D02*
X-32065901Y-6620901D01*
X-25330398Y-5280000D02*
X-24810000Y-5280000D01*
X-27248735Y-6347512D02*
X-26983855Y-6612392D01*
X-30195094Y-6620901D02*
X-29921705Y-6347512D01*
X-26464843Y-6612392D02*
X-26093671Y-6241220D01*
X-32065901Y-6620901D02*
X-30195094Y-6620901D01*
X-26035052Y-5981526D02*
X-26035052Y-5957705D01*
X-25956410Y-5906012D02*
X-25330398Y-5280000D01*
X-26156494Y-5622824D02*
X-26361282Y-5622824D01*
X-30734000Y-5715000D02*
X-32430000Y-5715000D01*
X-24810000Y-4880000D02*
X-25413670Y-4880000D01*
X-25413670Y-4880000D02*
X-26156494Y-5622824D01*
X-30454600Y-5994400D02*
X-30734000Y-5715000D01*
X-26361282Y-5622824D02*
X-26724349Y-5985891D01*
X-26902281Y-3716801D02*
X-27020781Y-3598301D01*
X-24810000Y-3680000D02*
X-24910000Y-3580000D01*
X-27250467Y-3826978D02*
X-31811978Y-3826978D01*
X-31811978Y-3826978D02*
X-32430000Y-4445000D01*
X-26383269Y-3716801D02*
X-26902281Y-3716801D01*
X-27020781Y-3598301D02*
X-27021790Y-3598301D01*
X-26246468Y-3580000D02*
X-26383269Y-3716801D01*
X-27021790Y-3598301D02*
X-27250467Y-3826978D01*
X-24910000Y-3580000D02*
X-26246468Y-3580000D01*
X-24260000Y-3130000D02*
X-24860800Y-3130000D01*
X-32430000Y-3175000D02*
X-31492850Y-3175000D01*
X-24860800Y-3130000D02*
X-25527000Y-2463800D01*
X-31492850Y-3175000D02*
X-30586851Y-2269001D01*
X-30220494Y-1642501D02*
X-32167501Y-1642501D01*
X-26056996Y-1184277D02*
X-26177230Y-1304511D01*
X-24452783Y-1184277D02*
X-26056996Y-1184277D01*
X-23060000Y-2577060D02*
X-24452783Y-1184277D01*
X-29882504Y-1304511D02*
X-30220494Y-1642501D01*
X-32167501Y-1642501D02*
X-32430000Y-1905000D01*
X-26177230Y-1304511D02*
X-29882504Y-1304511D01*
X-23060000Y-3130000D02*
X-23060000Y-2577060D01*
X-26811000Y1016000D02*
X-27103489Y1308489D01*
X-23060000Y2140401D02*
X-23312788Y1887613D01*
X-24168372Y1016000D02*
X-26811000Y1016000D01*
X-23312788Y1887613D02*
X-23312788Y1871584D01*
X-27103489Y1308489D02*
X-30125690Y1308489D01*
X-30125690Y1308489D02*
X-30722201Y1905000D01*
X-23312788Y1871584D02*
X-24168372Y1016000D01*
X-30722201Y1905000D02*
X-32430000Y1905000D01*
X-23060000Y3130000D02*
X-23060000Y2140401D01*
X-25074138Y2234125D02*
X-24707143Y2601120D01*
X-25750094Y2040499D02*
X-25556468Y2234125D01*
X-24707143Y3083450D02*
X-24660593Y3130000D01*
X-26192906Y2040499D02*
X-25750094Y2040499D01*
X-24707143Y2601120D02*
X-24707143Y3083450D01*
X-30165882Y3771511D02*
X-27017101Y3771511D01*
X-25556468Y2234125D02*
X-25074138Y2234125D01*
X-24660593Y3130000D02*
X-24260000Y3130000D01*
X-27017101Y3771511D02*
X-27017101Y2864694D01*
X-30762393Y3175000D02*
X-30165882Y3771511D01*
X-27017101Y2864694D02*
X-26192906Y2040499D01*
X-32430000Y3175000D02*
X-30762393Y3175000D01*
X-25363606Y3486410D02*
X-25851188Y3486410D01*
X-32201400Y4216400D02*
X-32430000Y4445000D01*
X-25170016Y3680000D02*
X-25363606Y3486410D01*
X-25851188Y3486410D02*
X-26297546Y3040052D01*
X-30607000Y4216400D02*
X-32201400Y4216400D01*
X-24810000Y3680000D02*
X-25170016Y3680000D01*
X-27103398Y6054628D02*
X-27103398Y6358499D01*
X-26655348Y4832938D02*
X-26655348Y4850948D01*
X-27103398Y6358499D02*
X-31786501Y6358499D01*
X-26288353Y4465943D02*
X-26655348Y4832938D01*
X-27093301Y5402832D02*
X-27093301Y6044531D01*
X-26717178Y4970880D02*
X-26717178Y5026709D01*
X-31786501Y6358499D02*
X-32430000Y5715000D01*
X-26679870Y4898305D02*
X-26679870Y4933572D01*
X-26679870Y4933572D02*
X-26717178Y4970880D01*
X-24810000Y4880000D02*
X-25398970Y4880000D01*
X-27093301Y6044531D02*
X-27103398Y6054628D01*
X-26661703Y4857303D02*
X-26661703Y4880138D01*
X-25398970Y4880000D02*
X-25398970Y4836314D01*
X-26655348Y4850948D02*
X-26661703Y4857303D01*
X-25398970Y4836314D02*
X-25769341Y4465943D01*
X-26717178Y5026709D02*
X-27093301Y5402832D01*
X-26661703Y4880138D02*
X-26679870Y4898305D01*
X-25769341Y4465943D02*
X-26288353Y4465943D01*
X-32430000Y6985000D02*
X-31394400Y6985000D01*
X-24810000Y5280000D02*
X-25330398Y5280000D01*
X-26311636Y6261238D02*
X-26474381Y6261238D01*
X-25330398Y5280000D02*
X-26311636Y6261238D01*
X-31394400Y6985000D02*
X-30429200Y7950200D01*
X-24810000Y6635696D02*
X-25715064Y7540760D01*
X-26601071Y7907755D02*
X-26601071Y8496990D01*
X-27032570Y8928489D02*
X-29882981Y8928489D01*
X-31954732Y8730268D02*
X-32430000Y8255000D01*
X-30081202Y8730268D02*
X-31954732Y8730268D01*
X-24810000Y6480000D02*
X-24810000Y6635696D01*
X-29882981Y8928489D02*
X-30081202Y8730268D01*
X-25715064Y7540760D02*
X-26234076Y7540760D01*
X-26601071Y8496990D02*
X-27032570Y8928489D01*
X-26234076Y7540760D02*
X-26601071Y7907755D01*
X-32430000Y9525000D02*
X-31600000Y9525000D01*
X-31600000Y9525000D02*
X-30844011Y10280989D01*
X-24690297Y7460297D02*
X-24690297Y8101103D01*
X-30844011Y10280989D02*
X-30275705Y10280989D01*
X-24260000Y7030000D02*
X-24690297Y7460297D01*
X-23060000Y7775319D02*
X-23410774Y8126093D01*
X-26686490Y11030978D02*
X-27047023Y11391511D01*
X-23410774Y8631099D02*
X-25810653Y11030978D01*
X-23410774Y8126093D02*
X-23410774Y8631099D01*
X-23060000Y7030000D02*
X-23060000Y7775319D01*
X-27047023Y11391511D02*
X-31833489Y11391511D01*
X-25810653Y11030978D02*
X-26686490Y11030978D01*
X-31833489Y11391511D02*
X-32430000Y10795000D01*
X-8689834Y24193557D02*
X-9076269Y24193557D01*
X-9076269Y24193557D02*
X-9825796Y24943084D01*
X-9825796Y25329519D02*
X-10795000Y26298723D01*
X-10795000Y26298723D02*
X-10795000Y28530000D01*
X-7030000Y23460000D02*
X-7956277Y23460000D01*
X-7956277Y23460000D02*
X-8689834Y24193557D01*
X-9825796Y24943084D02*
X-9825796Y25329519D01*
X-8554589Y24520068D02*
X-8941024Y24520068D01*
X-7030000Y23860000D02*
X-7894521Y23860000D01*
X-9499285Y25503532D02*
X-9525000Y25529247D01*
X-7894521Y23860000D02*
X-8554589Y24520068D01*
X-9525000Y25529247D02*
X-9525000Y28530000D01*
X-9499285Y25078329D02*
X-9499285Y25503532D01*
X-8941024Y24520068D02*
X-9499285Y25078329D01*
X-6488724Y25440640D02*
X-6488733Y25440649D01*
X-7062989Y26118606D02*
X-7189667Y26118606D01*
X-8255000Y27700000D02*
X-8255000Y28530000D01*
X-7189667Y26118606D02*
X-7265414Y26194353D01*
X-6149360Y25264885D02*
X-6149360Y25276246D01*
X-6695994Y25751611D02*
X-7062989Y26118606D01*
X-7265414Y26194353D02*
X-7265414Y26680600D01*
X-6080000Y24810000D02*
X-6080000Y25195525D01*
X-6488733Y25440649D02*
X-6511710Y25440649D01*
X-6695994Y25624933D02*
X-6695994Y25751611D01*
X-7265414Y26680600D02*
X-7685000Y27100186D01*
X-7685000Y27100186D02*
X-7685000Y27130000D01*
X-6149360Y25276246D02*
X-6313754Y25440640D01*
X-6080000Y25195525D02*
X-6149360Y25264885D01*
X-6511710Y25440649D02*
X-6695994Y25624933D01*
X-6313754Y25440640D02*
X-6488724Y25440640D01*
X-7685000Y27130000D02*
X-8255000Y27700000D01*
X-5753480Y25274552D02*
X-5753480Y25330761D01*
X-6985000Y27130000D02*
X-6985000Y28530000D01*
X-5822849Y25400130D02*
X-5822849Y25411491D01*
X-5822849Y25411491D02*
X-6178509Y25767151D01*
X-6938903Y27083903D02*
X-6985000Y27130000D01*
X-6938903Y26445117D02*
X-6938903Y27083903D01*
X-6189879Y25767160D02*
X-6369483Y25767160D01*
X-6178509Y25767151D02*
X-6189870Y25767151D01*
X-5680000Y24810000D02*
X-5680000Y25210000D01*
X-6369483Y25767160D02*
X-6369483Y25886856D01*
X-5744543Y25274543D02*
X-5753471Y25274543D01*
X-6189870Y25767151D02*
X-6189879Y25767160D01*
X-5753480Y25330761D02*
X-5822849Y25400130D01*
X-6927744Y26445117D02*
X-6938903Y26445117D01*
X-5680000Y25210000D02*
X-5744543Y25274543D01*
X-6369483Y25886856D02*
X-6927744Y26445117D01*
X-5753471Y25274543D02*
X-5753480Y25274552D01*
X-4301099Y26004094D02*
X-4301099Y26044055D01*
X-4369823Y26112779D02*
X-4369823Y26744230D01*
X-4668094Y27042501D02*
X-5057501Y27042501D01*
X-4369823Y26744230D02*
X-4668094Y27042501D01*
X-4301099Y26044055D02*
X-4369823Y26112779D01*
X-5057501Y27042501D02*
X-5715000Y27700000D01*
X-4480000Y25825193D02*
X-4301099Y26004094D01*
X-5715000Y27700000D02*
X-5715000Y28530000D01*
X-4480000Y24810000D02*
X-4480000Y25825193D01*
X-3941944Y26146656D02*
X-3941944Y25901493D01*
X-4043312Y26248024D02*
X-3941944Y26146656D01*
X-4080000Y25763437D02*
X-4080000Y24810000D01*
X-4043312Y26879475D02*
X-4043312Y26248024D01*
X-4445000Y27281163D02*
X-4043312Y26879475D01*
X-4445000Y28530000D02*
X-4445000Y27281163D01*
X-3941944Y25901493D02*
X-4080000Y25763437D01*
X-1837299Y24752701D02*
X-1837299Y25786506D01*
X-2730000Y23860000D02*
X-1837299Y24752701D01*
X-1837299Y25786506D02*
X-2319899Y26269106D01*
X-2319899Y26269106D02*
X-2319899Y26878706D01*
X-3175000Y27733807D02*
X-3175000Y28530000D01*
X-3130000Y23860000D02*
X-2730000Y23860000D01*
X-2319899Y26878706D02*
X-3175000Y27733807D01*
X-1510788Y25921751D02*
X-1905000Y26315963D01*
X-1905000Y26315963D02*
X-1905000Y28530000D01*
X-1510788Y24588028D02*
X-1510788Y25921751D01*
X-2638816Y23460000D02*
X-1510788Y24588028D01*
X-3130000Y23460000D02*
X-2638816Y23460000D01*
X-10795000Y32430000D02*
X-10795000Y30553022D01*
X-8404468Y23060000D02*
X-7030000Y23060000D01*
X-11391511Y29956511D02*
X-11391511Y26047043D01*
X-11391511Y26047043D02*
X-8404468Y23060000D01*
X-10795000Y30553022D02*
X-11391511Y29956511D01*
X-8928489Y25976871D02*
X-8928489Y29911882D01*
X-7030000Y24260000D02*
X-7616579Y24846579D01*
X-7616579Y24846579D02*
X-8805779Y24846579D01*
X-9172774Y25732586D02*
X-8928489Y25976871D01*
X-9172774Y25213574D02*
X-9172774Y25732586D01*
X-8928489Y29911882D02*
X-9525000Y30508393D01*
X-8805779Y24846579D02*
X-9172774Y25213574D01*
X-9525000Y30508393D02*
X-9525000Y32430000D01*
X-8255000Y32430000D02*
X-8255000Y31429319D01*
X-6480000Y24810000D02*
X-7162105Y25492105D01*
X-8255000Y31429319D02*
X-7342990Y30517309D01*
X-7162105Y25492105D02*
X-7322495Y25492105D01*
X-5906012Y25956410D02*
X-5280000Y25330398D01*
X-6040145Y26093671D02*
X-5981526Y26035052D01*
X-6347512Y27248735D02*
X-6612392Y26983855D01*
X-6985000Y32430000D02*
X-6620901Y32065901D01*
X-6620901Y30195094D02*
X-6347512Y29921705D01*
X-6347512Y29921705D02*
X-6347512Y27248735D01*
X-5906012Y25983359D02*
X-5906012Y25956410D01*
X-6114542Y26093671D02*
X-6040145Y26093671D01*
X-5981526Y26035052D02*
X-5957705Y26035052D01*
X-6620901Y32065901D02*
X-6620901Y30195094D01*
X-6612392Y26591521D02*
X-6114542Y26093671D01*
X-5957705Y26035052D02*
X-5906012Y25983359D01*
X-5280000Y25330398D02*
X-5280000Y24810000D01*
X-6612392Y26983855D02*
X-6612392Y26591521D01*
X-5622824Y26156494D02*
X-5622824Y26487958D01*
X-5622824Y26487958D02*
X-5922553Y26787687D01*
X-4880000Y24810000D02*
X-4880000Y25413670D01*
X-5715000Y30734000D02*
X-5715000Y32430000D01*
X-5994400Y30454600D02*
X-5715000Y30734000D01*
X-4880000Y25413670D02*
X-5622824Y26156494D01*
X-3580000Y26246468D02*
X-3716801Y26383269D01*
X-3716801Y26383269D02*
X-3716801Y26902281D01*
X-3680000Y24810000D02*
X-3580000Y24910000D01*
X-3580000Y24910000D02*
X-3580000Y26246468D01*
X-3716801Y26902281D02*
X-3598301Y27020781D01*
X-3598301Y27021790D02*
X-3826978Y27250467D01*
X-3826978Y27250467D02*
X-3826978Y31811978D01*
X-3826978Y31811978D02*
X-4445000Y32430000D01*
X-3598301Y27020781D02*
X-3598301Y27021790D01*
X-3130000Y24860800D02*
X-2463800Y25527000D01*
X-3175000Y31492850D02*
X-2269001Y30586851D01*
X-3130000Y24260000D02*
X-3130000Y24860800D01*
X-3175000Y32430000D02*
X-3175000Y31492850D01*
X-1642501Y30220494D02*
X-1642501Y32167501D01*
X-1642501Y32167501D02*
X-1905000Y32430000D01*
X-1184277Y24452783D02*
X-1184277Y26056996D01*
X-1184277Y26056996D02*
X-1304511Y26177230D01*
X-1304511Y26177230D02*
X-1304511Y29882504D01*
X-1304511Y29882504D02*
X-1642501Y30220494D01*
X-3130000Y23060000D02*
X-2577060Y23060000D01*
X-2577060Y23060000D02*
X-1184277Y24452783D01*
X6603792Y-15109799D02*
X-2150501Y-6355506D01*
X6603792Y-16888215D02*
X6603792Y-15109799D01*
X-2150501Y-6355506D02*
X-2150501Y-5986469D01*
X6595501Y-16896506D02*
X6603792Y-16888215D01*
X6480000Y-20910000D02*
X6480000Y-18643666D01*
X6295003Y-18458669D02*
X6295003Y-17939657D01*
X6295003Y-17939657D02*
X6595501Y-17639159D01*
X6595501Y-17639159D02*
X6595501Y-16896506D01*
X6480000Y-18643666D02*
X6295003Y-18458669D01*
X-2150501Y-5986469D02*
X-2452984Y-5683986D01*
X6080000Y-18734716D02*
X5968492Y-18623208D01*
X6080000Y-20910000D02*
X6080000Y-18734716D01*
X5968492Y-16637508D02*
X5977291Y-16628709D01*
X5968492Y-18623208D02*
X5968492Y-16637508D01*
X-6080000Y-19023782D02*
X-6815782Y-18288000D01*
X-18114633Y-4444780D02*
X-17363708Y-4444780D01*
X4034520Y-18978302D02*
X3344218Y-18288000D01*
X6080000Y18304000D02*
X7112000Y17272000D01*
X3344218Y-18288000D02*
X3048000Y-18288000D01*
X6080000Y20910000D02*
X6080000Y18304000D01*
X20910000Y-6080000D02*
X18638079Y-6080000D01*
X20910000Y4080000D02*
X19023782Y4080000D01*
X18638079Y-6080000D02*
X17608756Y-7109323D01*
X-6815782Y-18288000D02*
X-7112000Y-18288000D01*
X-18479413Y-4080000D02*
X-18114633Y-4444780D01*
X-20910000Y6080000D02*
X-17796000Y6080000D01*
X-4080000Y20910000D02*
X-4080000Y16780000D01*
X-4080000Y16780000D02*
X-4064000Y16764000D01*
X4080000Y-20910000D02*
X4080000Y-19320000D01*
X-6080000Y-20910000D02*
X-6080000Y-19023782D01*
X-20910000Y-4080000D02*
X-18479413Y-4080000D01*
X-17363708Y-4444780D02*
X-16181939Y-3263011D01*
X4034520Y-19274520D02*
X4034520Y-18978302D01*
X-17796000Y6080000D02*
X-17272000Y6604000D01*
X19023782Y4080000D02*
X18169500Y3225718D01*
X18169500Y3225718D02*
X18169500Y3048000D01*
X4064000Y-19304000D02*
X4034520Y-19274520D01*
X18138451Y6370977D02*
X18028373Y6481055D01*
X15996494Y6722501D02*
X15972107Y6698114D01*
X18989975Y6703489D02*
X18657463Y6370977D01*
X20686511Y6703489D02*
X18989975Y6703489D01*
X16656992Y6722501D02*
X15996494Y6722501D01*
X17515745Y6481055D02*
X17511301Y6485499D01*
X16893994Y6485499D02*
X16656992Y6722501D01*
X15972107Y6698114D02*
X15540907Y6698114D01*
X18028373Y6481055D02*
X17515745Y6481055D01*
X18657463Y6370977D02*
X18138451Y6370977D01*
X20910000Y6480000D02*
X20686511Y6703489D01*
X17511301Y6485499D02*
X16893994Y6485499D01*
X-16778630Y-7133110D02*
X-16742053Y-7096533D01*
X-20910000Y-6480000D02*
X-19216411Y-6480000D01*
X-17632592Y-7003825D02*
X-17611761Y-6982994D01*
X-11087483Y-6839489D02*
X-7443526Y-3195532D01*
X-7443526Y-3195532D02*
X-7443526Y-2384712D01*
X-17611761Y-6982994D02*
X-17447758Y-6982994D01*
X-17447758Y-6982994D02*
X-17297642Y-7133110D01*
X-16742053Y-7096533D02*
X-13122526Y-7096533D01*
X-13122526Y-7096533D02*
X-12865482Y-6839489D01*
X-12865482Y-6839489D02*
X-11087483Y-6839489D01*
X-17297642Y-7133110D02*
X-16778630Y-7133110D01*
X-19216411Y-6480000D02*
X-18692586Y-7003825D01*
X-18692586Y-7003825D02*
X-17632592Y-7003825D01*
X-7024966Y16870173D02*
X-7024966Y17389185D01*
X-7324038Y12161770D02*
X-7324038Y16571101D01*
X-3593002Y8430734D02*
X-7324038Y12161770D01*
X-7206444Y17570663D02*
X-7206444Y20183556D01*
X-7024966Y17389185D02*
X-7206444Y17570663D01*
X-7324038Y16571101D02*
X-7024966Y16870173D01*
X-7206444Y20183556D02*
X-6480000Y20910000D01*
X-3253266Y8430734D02*
X-3593002Y8430734D01*
X-6879933Y17705908D02*
X-6698455Y17524430D01*
X-6698455Y17524430D02*
X-6698455Y16242617D01*
X-2032000Y8128000D02*
X-3385578Y9481578D01*
X-6376978Y19115510D02*
X-6376978Y18546276D01*
X4480000Y20910000D02*
X4480000Y19546745D01*
X3970412Y17407461D02*
X4300868Y17077005D01*
X-953012Y9206988D02*
X-953012Y10554751D01*
X3970412Y17926473D02*
X3970412Y17407461D01*
X-5680000Y20910000D02*
X-5680000Y19812488D01*
X-5680000Y19812488D02*
X-6376978Y19115510D01*
X-595066Y10912697D02*
X3278981Y10912697D01*
X-6146840Y15691002D02*
X-6593338Y16137500D01*
X-4182090Y9481578D02*
X-6146840Y11446328D01*
X4921511Y16179917D02*
X4300868Y16800560D01*
X4480000Y19546745D02*
X4006511Y19073256D01*
X-6376978Y18546276D02*
X-6879933Y18043321D01*
X-3385578Y9481578D02*
X-4182090Y9481578D01*
X4300868Y17077005D02*
X4300868Y16800560D01*
X-6698455Y16242617D02*
X-6593338Y16137500D01*
X4921511Y12555227D02*
X4921511Y16179917D01*
X4006511Y17962572D02*
X3970412Y17926473D01*
X-2032000Y8128000D02*
X-953012Y9206988D01*
X3278981Y10912697D02*
X4921511Y12555227D01*
X-6146840Y11446328D02*
X-6146840Y15691002D01*
X-6879933Y18043321D02*
X-6879933Y17705908D01*
X4006511Y19073256D02*
X4006511Y17962572D01*
X-953012Y10554751D02*
X-595066Y10912697D01*
X5620533Y12265682D02*
X3276404Y9921553D01*
X-3911600Y10134600D02*
X-5493818Y11716818D01*
X-5493818Y17328775D02*
X-5454077Y17368516D01*
X3276404Y9921553D02*
X58618Y9921553D01*
X-1694159Y10134600D02*
X-3911600Y10134600D01*
X-4880000Y18390032D02*
X-4757606Y18267638D01*
X-4880000Y20910000D02*
X-4880000Y18390032D01*
X5280000Y20910000D02*
X5280000Y17618732D01*
X-5454077Y17368516D02*
X-5454077Y17571167D01*
X5280000Y17618732D02*
X5583123Y17315609D01*
X-1579512Y10249247D02*
X-1694159Y10134600D01*
X5583123Y17315609D02*
X5583123Y14770439D01*
X-5493818Y11716818D02*
X-5493818Y17328775D01*
X5583123Y14770439D02*
X5620533Y14733029D01*
X5620533Y14733029D02*
X5620533Y12265682D01*
X-5454077Y17571167D02*
X-4757606Y18267638D01*
X18672960Y-3680000D02*
X18501696Y-3851264D01*
X17982684Y-3851264D02*
X17811420Y-3680000D01*
X17811420Y-3680000D02*
X10284000Y-3680000D01*
X18501696Y-3851264D02*
X17982684Y-3851264D01*
X20910000Y-3680000D02*
X18672960Y-3680000D01*
X10284000Y-3680000D02*
X9144000Y-2540000D01*
X1584808Y11262208D02*
X-1541540Y11262208D01*
X3680000Y17150696D02*
X3674368Y17145064D01*
X3674368Y16626052D02*
X3680000Y16620420D01*
X3674368Y17145064D02*
X3674368Y16626052D01*
X3680000Y17236117D02*
X3680000Y17150696D01*
X3643901Y18061718D02*
X3643901Y17272216D01*
X3680000Y18097817D02*
X3643901Y18061718D01*
X3643901Y17272216D02*
X3680000Y17236117D01*
X3680000Y16620420D02*
X3680000Y13357400D01*
X3680000Y20910000D02*
X3680000Y18097817D01*
X3680000Y13357400D02*
X1584808Y11262208D01*
X1581103Y24803648D02*
X1581103Y25285978D01*
X1387477Y26539596D02*
X1905000Y27057119D01*
X1905000Y27057119D02*
X1905000Y28530000D01*
X1387477Y25479604D02*
X1387477Y26539596D01*
X3130000Y23460000D02*
X2448000Y23460000D01*
X1581103Y25285978D02*
X1387477Y25479604D01*
X2448000Y23460000D02*
X1768477Y24139523D01*
X1768477Y24616274D02*
X1581103Y24803648D01*
X1768477Y24139523D02*
X1768477Y24616274D01*
X3130000Y23860000D02*
X2733114Y23860000D01*
X1713988Y26404351D02*
X3175000Y27865363D01*
X1907614Y25421223D02*
X1713988Y25614849D01*
X1713988Y25614849D02*
X1713988Y26404351D01*
X3175000Y27865363D02*
X3175000Y28530000D01*
X2499360Y24093754D02*
X2499360Y24383492D01*
X2733114Y23860000D02*
X2499360Y24093754D01*
X2465875Y24380632D02*
X1907614Y24938893D01*
X1907614Y24938893D02*
X1907614Y25421223D01*
X2499360Y24380632D02*
X2465875Y24380632D01*
X2499360Y24093754D02*
X2499360Y24380632D01*
X4445000Y27190922D02*
X3812921Y26558843D01*
X4445000Y28530000D02*
X4445000Y27190922D01*
X3812921Y26558843D02*
X3812921Y25498851D01*
X4080000Y25231772D02*
X4080000Y24810000D01*
X3812921Y25498851D02*
X4080000Y25231772D01*
X4480000Y24810000D02*
X4480000Y25293528D01*
X4697693Y26981859D02*
X4715703Y26981859D01*
X4763060Y27006381D02*
X4798327Y27006381D01*
X4744893Y26988214D02*
X4763060Y27006381D01*
X4139432Y26423598D02*
X4697693Y26981859D01*
X4480000Y25293528D02*
X4139432Y25634096D01*
X5715000Y27890749D02*
X5715000Y28530000D01*
X4835635Y27043689D02*
X4867940Y27043689D01*
X4139432Y25634096D02*
X4139432Y26423598D01*
X4798327Y27006381D02*
X4835635Y27043689D01*
X4715703Y26981859D02*
X4722058Y26988214D01*
X4867940Y27043689D02*
X5715000Y27890749D01*
X4722058Y26988214D02*
X4744893Y26988214D01*
X5680000Y25268642D02*
X5680000Y24810000D01*
X6660232Y25767151D02*
X6178509Y25767151D01*
X6924677Y26336396D02*
X6924677Y26031596D01*
X6985000Y26396719D02*
X6924677Y26336396D01*
X6985000Y28530000D02*
X6985000Y26396719D01*
X6924677Y26031596D02*
X6660232Y25767151D01*
X6178509Y25767151D02*
X5680000Y25268642D01*
X7251188Y26201151D02*
X8255000Y27204963D01*
X7251188Y25896351D02*
X7251188Y26201151D01*
X6795477Y25440640D02*
X7251188Y25896351D01*
X8255000Y27204963D02*
X8255000Y28530000D01*
X6080000Y25206886D02*
X6313754Y25440640D01*
X6313754Y25440640D02*
X6795477Y25440640D01*
X6080000Y24810000D02*
X6080000Y25206886D01*
X7651807Y23860000D02*
X7030000Y23860000D01*
X9525000Y25228187D02*
X8360609Y24063796D01*
X8360609Y24063796D02*
X7855603Y24063796D01*
X7855603Y24063796D02*
X7651807Y23860000D01*
X9525000Y28530000D02*
X9525000Y25228187D01*
X7030000Y23460000D02*
X7713563Y23460000D01*
X8495854Y23737285D02*
X10795000Y26036431D01*
X10795000Y26036431D02*
X10795000Y28530000D01*
X7990848Y23737285D02*
X8495854Y23737285D01*
X7713563Y23460000D02*
X7990848Y23737285D01*
X1016000Y24168372D02*
X1016000Y26811000D01*
X2124372Y23060000D02*
X1016000Y24168372D01*
X1016000Y26811000D02*
X1308489Y27103489D01*
X1308489Y27103489D02*
X1308489Y29886482D01*
X1905000Y30482993D02*
X1905000Y32430000D01*
X3130000Y23060000D02*
X2124372Y23060000D01*
X1308489Y29886482D02*
X1905000Y30482993D01*
X2234125Y25074138D02*
X2601120Y24707143D01*
X3175000Y32430000D02*
X3175000Y30762393D01*
X3083450Y24707143D02*
X3130000Y24660593D01*
X2864694Y27017101D02*
X2040499Y26192906D01*
X2601120Y24707143D02*
X3083450Y24707143D01*
X2040499Y25750094D02*
X2234125Y25556468D01*
X3771511Y27017101D02*
X2864694Y27017101D01*
X3130000Y24660593D02*
X3130000Y24260000D01*
X3175000Y30762393D02*
X3771511Y30165882D01*
X2040499Y26192906D02*
X2040499Y25750094D01*
X2234125Y25556468D02*
X2234125Y25074138D01*
X3771511Y30165882D02*
X3771511Y27017101D01*
X3680000Y24810000D02*
X3680000Y25170016D01*
X3486410Y25363606D02*
X3486410Y25851188D01*
X4216400Y30607000D02*
X4216400Y32201400D01*
X3486410Y25851188D02*
X3040052Y26297546D01*
X3680000Y25170016D02*
X3486410Y25363606D01*
X4216400Y32201400D02*
X4445000Y32430000D01*
X6054628Y27103398D02*
X6358499Y27103398D01*
X6358499Y31786501D02*
X5715000Y32430000D01*
X4933572Y26679870D02*
X4970880Y26717178D01*
X4850948Y26655348D02*
X4857303Y26661703D01*
X4857303Y26661703D02*
X4880138Y26661703D01*
X4465943Y25769341D02*
X4465943Y26288353D01*
X4898305Y26679870D02*
X4933572Y26679870D01*
X4880138Y26661703D02*
X4898305Y26679870D01*
X4880000Y25398970D02*
X4836314Y25398970D01*
X6358499Y27103398D02*
X6358499Y31786501D01*
X4836314Y25398970D02*
X4465943Y25769341D01*
X6044531Y27093301D02*
X6054628Y27103398D01*
X4970880Y26717178D02*
X5026709Y26717178D01*
X5402832Y27093301D02*
X6044531Y27093301D01*
X4880000Y24810000D02*
X4880000Y25398970D01*
X5026709Y26717178D02*
X5402832Y27093301D01*
X4832938Y26655348D02*
X4850948Y26655348D01*
X4465943Y26288353D02*
X4832938Y26655348D01*
X5280000Y24810000D02*
X5280000Y25330398D01*
X5280000Y25330398D02*
X6314134Y26364532D01*
X6985000Y31394400D02*
X7950200Y30429200D01*
X6985000Y32430000D02*
X6985000Y31394400D01*
X6314134Y26364532D02*
X6314134Y26476897D01*
X8928489Y27032570D02*
X8928489Y29836625D01*
X8735055Y30030059D02*
X8735055Y31949945D01*
X6705919Y24810000D02*
X7577699Y25681780D01*
X6480000Y24810000D02*
X6705919Y24810000D01*
X8405020Y26509101D02*
X8928489Y27032570D01*
X7577699Y26065906D02*
X8020894Y26509101D01*
X7577699Y25681780D02*
X7577699Y26065906D01*
X8020894Y26509101D02*
X8405020Y26509101D01*
X8928489Y29836625D02*
X8735055Y30030059D01*
X8735055Y31949945D02*
X8255000Y32430000D01*
X9525000Y32430000D02*
X9525000Y31159789D01*
X7030000Y24260000D02*
X7460297Y24690297D01*
X7460297Y24690297D02*
X8101103Y24690297D01*
X9525000Y31159789D02*
X10280989Y30403800D01*
X11391511Y26171186D02*
X11391511Y31833489D01*
X7775319Y23060000D02*
X8126093Y23410774D01*
X11391511Y31833489D02*
X10795000Y32430000D01*
X8631099Y23410774D02*
X11391511Y26171186D01*
X7030000Y23060000D02*
X7775319Y23060000D01*
X8126093Y23410774D02*
X8631099Y23410774D01*
D99*
X-20700265Y-24960580D02*
X-20134580Y-24960580D01*
X-23202947Y-25107947D02*
X-22905963Y-25404931D01*
X-22905963Y-25404931D02*
X-22587749Y-25404931D01*
X-22143398Y-24960580D02*
X-20700265Y-24960580D01*
X-22587749Y-25404931D02*
X-22143398Y-24960580D01*
X-25404931Y-22905963D02*
X-25107947Y-23202947D01*
X-24056340Y-18811240D02*
X-24765000Y-19519900D01*
X-24765000Y-21947818D02*
X-25404931Y-22587749D01*
X-24765000Y-19519900D02*
X-24765000Y-21947818D01*
X-25404931Y-22587749D02*
X-25404931Y-22905963D01*
D98*
X-22260000Y2054394D02*
X-22686287Y1628107D01*
X3130000Y22260000D02*
X2010241Y22260000D01*
X10068000Y-22260000D02*
X10160000Y-22352000D01*
X-3010000Y17714000D02*
X-3048000Y17752000D01*
X22260000Y-2280003D02*
X23788121Y-751882D01*
X22260000Y-3130000D02*
X22260000Y-2280003D01*
X-22260000Y-7030000D02*
X-22260000Y-8287577D01*
X-22260000Y-8287577D02*
X-22193532Y-8354045D01*
D100*
X-1350000Y17954000D02*
X0Y19304000D01*
D98*
X2010241Y22260000D02*
X1886528Y22383713D01*
D100*
X0Y20828000D02*
X508000Y21336000D01*
X0Y19304000D02*
X0Y20828000D01*
X0Y22352000D02*
X0Y22884989D01*
X-1350000Y17714000D02*
X-1350000Y17954000D01*
X508000Y21336000D02*
X508000Y21844000D01*
D98*
X-1350000Y17714000D02*
X-3010000Y17714000D01*
X22260000Y9487451D02*
X22493928Y9721379D01*
X-22260000Y3130000D02*
X-22260000Y2054394D01*
X-7030000Y22260000D02*
X-8609500Y22260000D01*
X22260000Y7030000D02*
X22260000Y9487451D01*
X-8609500Y22260000D02*
X-9533500Y21336000D01*
X7030000Y-22260000D02*
X10068000Y-22260000D01*
X-3130000Y-22260000D02*
X-1772989Y-22260000D01*
D100*
X508000Y21844000D02*
X0Y22352000D01*
D98*
X-1772989Y-22260000D02*
X-664989Y-23368000D01*
X4880000Y20910000D02*
X4880000Y19484989D01*
X-6050467Y18174399D02*
X-5893069Y18017001D01*
X-450293Y10563186D02*
X-567883Y10445596D01*
X4880000Y19484989D02*
X4333022Y18938011D01*
X-5820329Y18012329D02*
X-5820329Y11581573D01*
X4333022Y18938011D02*
X4333022Y18325209D01*
X194642Y8899522D02*
X308957Y8899522D01*
X-6080578Y17761424D02*
X-6080578Y17628022D01*
X-5280000Y20910000D02*
X-5280000Y19750732D01*
X-5820329Y11581573D02*
X-4046845Y9808089D01*
X-5280000Y19750732D02*
X-6050467Y18980265D01*
X-5825001Y18017001D02*
X-5820329Y18012329D01*
X5256612Y17021124D02*
X5256612Y12396044D01*
X4600442Y18057789D02*
X4600442Y17677294D01*
X-6050467Y18980265D02*
X-6050467Y18174399D01*
X3423754Y10563186D02*
X-450293Y10563186D01*
X-567883Y9662047D02*
X194642Y8899522D01*
X4600442Y17677294D02*
X5256612Y17021124D01*
X-5825001Y18017001D02*
X-6080578Y17761424D01*
X4333022Y18325209D02*
X4600442Y18057789D01*
X-2217993Y9808089D02*
X-1727955Y9318051D01*
X-567883Y10445596D02*
X-567883Y9662047D01*
X-4046845Y9808089D02*
X-2217993Y9808089D01*
X-5893069Y18017001D02*
X-5825001Y18017001D01*
X5256612Y12396044D02*
X3423754Y10563186D01*
X-3680000Y-20910000D02*
X-3456511Y-20686511D01*
X-3456511Y-20686511D02*
X-3456511Y-19758755D01*
X-3273776Y-19576020D02*
X-3273776Y-17303217D01*
X-3456511Y-19758755D02*
X-3273776Y-19576020D01*
X-5058375Y-15518618D02*
X-5619878Y-15518618D01*
X-3273776Y-17303217D02*
X-5058375Y-15518618D01*
X-6246379Y-15778124D02*
X-6246379Y-15259112D01*
X-4510028Y-16974408D02*
X-4519815Y-16964621D01*
X-3600287Y-19440775D02*
X-3600287Y-17884149D01*
X5641981Y-20871981D02*
X5641981Y-18527167D01*
X-5745126Y-16145119D02*
X-5879384Y-16145119D01*
X-4489966Y-11480515D02*
X-4489966Y-10510759D01*
X5231085Y-17767178D02*
X5231085Y-16805712D01*
X-6246379Y-15259112D02*
X-5879384Y-14892117D01*
X4835522Y-15088010D02*
X4835522Y-13858497D01*
X5680000Y-20910000D02*
X5641981Y-20871981D01*
X-4480000Y-20910000D02*
X-4480000Y-20518928D01*
X-5879384Y-14892117D02*
X-5822886Y-14892117D01*
X-4308477Y-11662004D02*
X-4489966Y-11480515D01*
X5080436Y-17917827D02*
X5231085Y-17767178D01*
X-4489966Y-10510759D02*
X-4789956Y-10210769D01*
X-5822886Y-14892117D02*
X-5406511Y-14475742D01*
X-4840465Y-8871483D02*
X-4840465Y-8352471D01*
X-4789956Y-6207916D02*
X-5017219Y-5980653D01*
X-4925623Y-16964621D02*
X-5745126Y-16145119D01*
X5080436Y-17965622D02*
X5080436Y-17917827D01*
X4835522Y-13858497D02*
X-3592467Y-5430508D01*
X-3783022Y-19623510D02*
X-3600287Y-19440775D01*
X-4789956Y-8921992D02*
X-4840465Y-8871483D01*
X5241395Y-15493883D02*
X4835522Y-15088010D01*
X-4519815Y-16964621D02*
X-4925623Y-16964621D01*
X-4789956Y-8301962D02*
X-4789956Y-6207916D01*
X5641981Y-18527167D02*
X5080436Y-17965622D01*
X-3600287Y-17884149D02*
X-4510028Y-16974408D01*
X-4406520Y-20444076D02*
X-3783022Y-19820578D01*
X-4480000Y-20518928D02*
X-4406520Y-20445448D01*
X-4840465Y-8352471D02*
X-4789956Y-8301962D01*
X5241395Y-16795402D02*
X5241395Y-15493883D01*
X-5879384Y-16145119D02*
X-6246379Y-15778124D01*
X-4406520Y-20445448D02*
X-4406520Y-20444076D01*
X-3592467Y-4812832D02*
X-3639871Y-4765428D01*
X5231085Y-16805712D02*
X5241395Y-16795402D01*
X-5406511Y-13580755D02*
X-4308477Y-12482721D01*
X-4308477Y-12482721D02*
X-4308477Y-11662004D01*
X-3592467Y-5430508D02*
X-3592467Y-4812832D01*
X-3783022Y-19820578D02*
X-3783022Y-19623510D01*
X-5406511Y-14475742D02*
X-5406511Y-13580755D01*
X-4789956Y-10210769D02*
X-4789956Y-8921992D01*
X4361031Y-17379955D02*
X4369587Y-17371399D01*
X-6572890Y-15913369D02*
X-6014629Y-16471630D01*
X-5880371Y-16471630D02*
X-5225882Y-17126119D01*
X4090358Y-17957853D02*
X4361031Y-17687180D01*
X-4200667Y-18121736D02*
X-4200667Y-18095631D01*
X-3918978Y-5444510D02*
X-4555510Y-4807978D01*
X-6125500Y-13145012D02*
X-6572890Y-13592402D01*
X-3918978Y-5565753D02*
X-3918978Y-5444510D01*
X4090358Y-18110614D02*
X4090358Y-17957853D01*
X-4555510Y-4421420D02*
X-4450042Y-4315952D01*
X-5059837Y-17728636D02*
X-5225882Y-17562591D01*
X-6235655Y-5294413D02*
X-5969000Y-5561068D01*
X4369587Y-17371399D02*
X4809001Y-16931985D01*
X4509011Y-13993742D02*
X-3918978Y-5565753D01*
X-4174265Y-19750065D02*
X-4174265Y-18148138D01*
X-5261489Y-6976755D02*
X-5261489Y-10200992D01*
X5280000Y-19300254D02*
X4090358Y-18110614D01*
X-4634988Y-11797249D02*
X-4634988Y-12347476D01*
X-4880000Y-20910000D02*
X-4880000Y-20455800D01*
X-4200667Y-18095631D02*
X-4567662Y-17728636D01*
X-4555510Y-4807978D02*
X-4555510Y-4421420D01*
X-5432524Y-13145012D02*
X-6125500Y-13145012D01*
X4509011Y-15731255D02*
X4509011Y-13993742D01*
X-5225882Y-17126119D02*
X-5225882Y-17562591D01*
X4809001Y-16931985D02*
X4809001Y-16031245D01*
X5280000Y-20910000D02*
X5280000Y-19300254D01*
X-4816477Y-11615760D02*
X-4634988Y-11797249D01*
X-5969000Y-5561068D02*
X-5969000Y-6269244D01*
X-6572890Y-13592402D02*
X-6572890Y-15913369D01*
X-5969000Y-6269244D02*
X-5261489Y-6976755D01*
X4361031Y-17687180D02*
X4361031Y-17379955D01*
X-4634988Y-12347476D02*
X-5432524Y-13145012D01*
X-5261489Y-10200992D02*
X-4816477Y-10646004D01*
X4809001Y-16031245D02*
X4509011Y-15731255D01*
X-6014629Y-16471630D02*
X-5880371Y-16471630D01*
X-4174265Y-18148138D02*
X-4200667Y-18121736D01*
X-4567662Y-17728636D02*
X-5059837Y-17728636D01*
X-4816477Y-10646004D02*
X-4816477Y-11615760D01*
X-4880000Y-20455800D02*
X-4174265Y-19750065D01*
X-5186682Y-19317464D02*
X-5186682Y-18771723D01*
X3743086Y-17111893D02*
X3763847Y-17091132D01*
X-5588000Y-7112000D02*
X-5588000Y-10336237D01*
X-7136455Y-5563545D02*
X-5588000Y-7112000D01*
X-6827156Y-4880489D02*
X-6568336Y-4621669D01*
X3763847Y-17651666D02*
X3743086Y-17630905D01*
X-5847506Y-12818501D02*
X-6054126Y-12611882D01*
X4880000Y-19362012D02*
X3763847Y-18245859D01*
X-5567769Y-12818501D02*
X-5847506Y-12818501D01*
X-5295118Y-4657126D02*
X-5208322Y-4743922D01*
X-4961499Y-12212231D02*
X-5567769Y-12818501D01*
X3763847Y-17091132D02*
X3763847Y-16861342D01*
X-5847506Y-4690501D02*
X-5328494Y-4690501D01*
X-6899401Y-13457157D02*
X-6899401Y-17081352D01*
X-5880881Y-4657125D02*
X-5847506Y-4690501D01*
X-4961499Y-11932494D02*
X-4961499Y-12212231D01*
X-5415010Y-19545792D02*
X-5186682Y-19317464D01*
X3743086Y-17630905D02*
X3743086Y-17111893D01*
X-5280000Y-20910000D02*
X-5280000Y-20415677D01*
X-5588000Y-10336237D02*
X-5142988Y-10781249D01*
X4155130Y-14101617D02*
X4155130Y-16470059D01*
X-7136455Y-5077699D02*
X-7136455Y-5563545D01*
X-5186682Y-18771723D02*
X-4800766Y-18385807D01*
X-5208322Y-4743922D02*
X-5208322Y-4949930D01*
X4880000Y-20910000D02*
X4880000Y-19362012D01*
X-5208322Y-4949930D02*
X-4841327Y-5316925D01*
X-5914511Y-4690755D02*
X-5880881Y-4657125D01*
X-5533247Y-18447506D02*
X-5386446Y-18447506D01*
X-5324747Y-18385807D02*
X-4800766Y-18385807D01*
X3763847Y-18245859D02*
X3763847Y-17651666D01*
X-5328494Y-4690501D02*
X-5295118Y-4657126D01*
X-6939245Y-4880489D02*
X-6827156Y-4880489D01*
X-6568336Y-4621669D02*
X-6049324Y-4621669D01*
X-5386446Y-18447506D02*
X-5324747Y-18385807D01*
X-5280000Y-20415677D02*
X-5415010Y-20280667D01*
X-7136455Y-5077699D02*
X-6939245Y-4880489D01*
X3763847Y-16861342D02*
X4155130Y-16470059D01*
X-5142988Y-10781249D02*
X-5142988Y-11751005D01*
X-4841327Y-5316925D02*
X-4629562Y-5316925D01*
X-5142988Y-11751005D02*
X-4961499Y-11932494D01*
X-5415010Y-20280667D02*
X-5415010Y-19545792D01*
X-6049324Y-4621669D02*
X-5980238Y-4690755D01*
X-4629562Y-5316925D02*
X4155130Y-14101617D01*
X-6054126Y-12611882D02*
X-6899401Y-13457157D01*
X-6899401Y-17081352D02*
X-5533247Y-18447506D01*
X-5980238Y-4690755D02*
X-5914511Y-4690755D01*
X-17597134Y-6506609D02*
X-17038136Y-6506609D01*
X-6900127Y-1025735D02*
X-6724259Y-1025735D01*
X-16999334Y-6467807D02*
X-11441706Y-6467807D01*
X-11441706Y-6467807D02*
X-8070027Y-3096128D01*
X-20910000Y-5680000D02*
X-19554655Y-5680000D01*
X-17767839Y-6677314D02*
X-17597134Y-6506609D01*
X-19554655Y-5680000D02*
X-18557341Y-6677314D01*
X-8070027Y-3096128D02*
X-8070027Y-2125206D01*
X-7703032Y-1758211D02*
X-7632603Y-1758211D01*
X-18557341Y-6677314D02*
X-17767839Y-6677314D01*
X-8070027Y-2125206D02*
X-7703032Y-1758211D01*
X-17038136Y-6506609D02*
X-16999334Y-6467807D01*
X-7632603Y-1758211D02*
X-6900127Y-1025735D01*
X-17084684Y-4646396D02*
X-17084684Y-4627512D01*
X-19006892Y-4880000D02*
X-18162590Y-5724302D01*
X-19109101Y5280000D02*
X-18385807Y4556706D01*
X-16617065Y-4159893D02*
X-11757817Y-4159893D01*
X-17084684Y-4627512D02*
X-16617065Y-4159893D01*
X-20910000Y5280000D02*
X-19109101Y5280000D01*
X-20910000Y-4880000D02*
X-19006892Y-4880000D01*
X-11757817Y-4159893D02*
X-9820525Y-2222601D01*
X-18162590Y-5724302D02*
X-17084684Y-4646396D01*
D99*
X-23463655Y-21297947D02*
X-23721882Y-21556174D01*
X-22567947Y-21297947D02*
X-23463655Y-21297947D01*
X-22567947Y-21297947D02*
X-21297947Y-22567947D01*
D98*
X-12153947Y-8166053D02*
X-12153947Y-9466941D01*
X-16314431Y-10126969D02*
X-16421053Y-10020347D01*
X-12153947Y-9466941D02*
X-12813975Y-10126969D01*
X-12813975Y-10126969D02*
X-16314431Y-10126969D01*
D99*
X25467918Y-20438812D02*
X24422053Y-19392947D01*
X6301153Y-7317153D02*
X7317153Y-6301153D01*
X10937817Y-10937817D02*
X11094123Y-10937817D01*
X11094123Y-10937817D02*
X12143153Y-11986847D01*
X6428153Y-8903026D02*
X6428153Y-7219459D01*
X20608423Y-21199992D02*
X20608423Y-20615885D01*
X20608423Y-20615885D02*
X19782132Y-19789594D01*
X21192529Y-20615885D02*
X21192529Y-20492884D01*
X21192529Y-20492884D02*
X20135686Y-19436041D01*
D100*
X11383293Y-11383293D02*
X10937817Y-10937817D01*
X11201400Y-13208000D02*
X11201400Y-12928600D01*
X11201400Y-12928600D02*
X12143153Y-11986847D01*
D99*
X25467918Y-22157082D02*
X24062082Y-22157082D01*
X24062082Y-22157082D02*
X23495000Y-21590000D01*
X25467918Y-22157082D02*
X25467918Y-20438812D01*
X23495000Y-21590000D02*
X20998432Y-21590000D01*
X20998432Y-21590000D02*
X20608423Y-21199991D01*
X23495000Y-21590000D02*
X22166643Y-21590000D01*
X22166643Y-21590000D02*
X21192529Y-20615886D01*
D101*
X10843847Y14577647D02*
X10843847Y13872421D01*
D98*
X-3130000Y22660000D02*
X-2232000Y22660000D01*
X-27258756Y12065000D02*
X-26551245Y11357489D01*
X-22860000Y8636000D02*
X-22860000Y8128000D01*
X19304000Y2198527D02*
X19306808Y2195719D01*
X21460000Y3130000D02*
X21460000Y2636000D01*
X-20348000Y-8636000D02*
X-19537067Y-8636000D01*
X20348000Y8636000D02*
X19548859Y8636000D01*
D101*
X12359269Y12345297D02*
X12370971Y12345297D01*
D98*
X-3020000Y16764000D02*
X-3048000Y16792000D01*
X-21460000Y7524000D02*
X-20348000Y8636000D01*
X-28530000Y12065000D02*
X-27258756Y12065000D01*
D101*
X10843847Y13872421D02*
X12370971Y12345297D01*
D98*
X-7928000Y-22660000D02*
X-7030000Y-22660000D01*
X-12065000Y-26797000D02*
X-7928000Y-22660000D01*
X5280000Y22660000D02*
X5080000Y22860000D01*
X-21460000Y-3130000D02*
X-21460000Y-2636000D01*
X22660000Y-3130000D02*
X22660000Y-4880000D01*
X26289000Y-12065000D02*
X22660000Y-8436000D01*
X-20348000Y1524000D02*
X-20010019Y1524000D01*
X28530000Y-12065000D02*
X26289000Y-12065000D01*
X-25581489Y11357489D02*
X-22860000Y8636000D01*
X-2568000Y19304000D02*
X-1916950Y19304000D01*
X12065000Y28530000D02*
X12065000Y26289000D01*
X22660000Y-4880000D02*
X22860000Y-5080000D01*
X21460000Y2636000D02*
X20348000Y1524000D01*
X-19304000Y-2568000D02*
X-19304000Y-1834020D01*
X7592000Y19304000D02*
X8499760Y19304000D01*
X-8953547Y-11442747D02*
X-8928147Y-11442747D01*
X-22660000Y-3130000D02*
X-22660000Y-4880000D01*
X-19304000Y8636000D02*
X-19304000Y7592000D01*
X-8636000Y-20348000D02*
X-8636000Y-19553086D01*
X-8191547Y-12179347D02*
X-8191547Y-13122062D01*
X7030000Y21460000D02*
X7524000Y21460000D01*
X-635000Y24257000D02*
X-635000Y28530000D01*
X-19028980Y-1524000D02*
X-19011480Y-1541500D01*
D101*
X11201400Y-13055600D02*
X12101192Y-12155808D01*
D98*
X4880000Y22660000D02*
X5080000Y22860000D01*
X2568000Y-19304000D02*
X1941500Y-19930500D01*
X19304000Y-7592000D02*
X19304000Y-8636000D01*
X25518501Y635000D02*
X28530000Y635000D01*
X2512000Y16764000D02*
X379438Y16764000D01*
X22660000Y7030000D02*
X22660000Y5280000D01*
X2636000Y-21460000D02*
X1524000Y-20348000D01*
X22660000Y3130000D02*
X22660000Y2515290D01*
X-1524000Y18914596D02*
X-1525773Y18912823D01*
D101*
X11572817Y11558845D02*
X12359269Y12345297D01*
D98*
X-7030000Y-21460000D02*
X-7524000Y-21460000D01*
X-7030000Y22660000D02*
X-5280000Y22660000D01*
X-8191547Y-13122062D02*
X-7969795Y-13343814D01*
X-12065000Y-28530000D02*
X-12065000Y-26797000D01*
D101*
X11015134Y-11015134D02*
X11015134Y-11069750D01*
D98*
X-22660000Y-5280000D02*
X-22860000Y-5080000D01*
X-10078864Y16365043D02*
X-9398000Y15684179D01*
X8636000Y-19655108D02*
X8929270Y-19361838D01*
X7030000Y-22660000D02*
X5280000Y-22660000D01*
D99*
X1207500Y2357942D02*
X1207500Y2293260D01*
D98*
X19304000Y2568000D02*
X19304000Y2198527D01*
X-22660000Y3130000D02*
X-22660000Y4880000D01*
X3130000Y-21460000D02*
X2636000Y-21460000D01*
X-351622Y16764000D02*
X13908Y16398470D01*
X-1524000Y-19969242D02*
X-1531500Y-19961742D01*
D101*
X11201400Y-13208000D02*
X11201400Y-13055600D01*
X11015134Y-11069750D02*
X12101192Y-12155808D01*
D98*
X7030000Y22660000D02*
X5280000Y22660000D01*
X19510459Y-1524000D02*
X19414302Y-1620157D01*
X-20348000Y8636000D02*
X-19304000Y8636000D01*
X-2636000Y21460000D02*
X-1524000Y20348000D01*
X-3130000Y21460000D02*
X-2636000Y21460000D01*
X-4880000Y22660000D02*
X-5080000Y22860000D01*
X-8826453Y-15328853D02*
X-8826453Y-14200472D01*
X-2232000Y22660000D02*
X-635000Y24257000D01*
X-3130000Y22660000D02*
X-4880000Y22660000D01*
D100*
X11040534Y-11040534D02*
X11436787Y-11436787D01*
D98*
X-1350000Y16764000D02*
X-351622Y16764000D01*
D100*
X11436787Y-11436787D02*
X11436787Y-12972613D01*
D98*
X-22660000Y-4880000D02*
X-22860000Y-5080000D01*
X24425875Y927881D02*
X24632494Y1134501D01*
X25518501Y767506D02*
X25518501Y635000D01*
X24011245Y1342511D02*
X24425875Y927881D01*
X19304000Y1673899D02*
X19304000Y1596692D01*
X-3130000Y-22660000D02*
X-4880000Y-22660000D01*
X-8386914Y-19304000D02*
X-8407657Y-19324743D01*
X-8636000Y20348000D02*
X-8159456Y19871456D01*
X22660000Y-5280000D02*
X22860000Y-5080000D01*
X-26551245Y11357489D02*
X-25581489Y11357489D01*
X21460000Y-7030000D02*
X21460000Y-7524000D01*
X-20010019Y1524000D02*
X-20006775Y1520756D01*
X-21460000Y7030000D02*
X-21460000Y7524000D01*
X4880000Y-22660000D02*
X5080000Y-22860000D01*
X-19304000Y-1834020D02*
X-19011480Y-1541500D01*
X2515291Y-22660000D02*
X635000Y-24540291D01*
X-17106947Y-8161856D02*
X-16958228Y-8013137D01*
X1524000Y-20348000D02*
X1524000Y-20251894D01*
X19306808Y1676707D02*
X19304000Y1673899D01*
X-22660000Y-3130000D02*
X-22660000Y-2515290D01*
X7524000Y21460000D02*
X8636000Y20348000D01*
X-1916950Y19304000D02*
X-1525773Y18912823D01*
X-24540290Y-635000D02*
X-28530000Y-635000D01*
X19306808Y2195719D02*
X19306808Y1676707D01*
X22660000Y-7030000D02*
X22660000Y-5280000D01*
D99*
X19392947Y-24422053D02*
X19342053Y-24422053D01*
D98*
X1524000Y20348000D02*
X1524000Y19090114D01*
X22660000Y-8436000D02*
X22660000Y-7030000D01*
D100*
X11436787Y-12972613D02*
X11201400Y-13208000D01*
D98*
X-22660000Y-2515290D02*
X-24540290Y-635000D01*
X635000Y-24540291D02*
X635000Y-28530000D01*
D99*
X8333153Y8797875D02*
X9261839Y8797875D01*
D98*
X19304000Y1596692D02*
X19511242Y1389450D01*
X24632494Y1134501D02*
X25151506Y1134501D01*
X23832779Y1342511D02*
X24011245Y1342511D01*
X-22660000Y7928000D02*
X-22660000Y7030000D01*
X-17106947Y-9334453D02*
X-17106947Y-8161856D01*
D99*
X-14389053Y9867947D02*
X-14389053Y9898925D01*
D98*
X1524000Y-20251894D02*
X1845394Y-19930500D01*
X-7592000Y-19304000D02*
X-8386914Y-19304000D01*
X19645792Y1524000D02*
X19511242Y1389450D01*
D99*
X9261839Y8797875D02*
X9296263Y8763451D01*
D98*
X-22660000Y-7030000D02*
X-22660000Y-5280000D01*
X22660000Y5280000D02*
X22860000Y5080000D01*
X-5280000Y-22660000D02*
X-5080000Y-22860000D01*
X3130000Y-22660000D02*
X4880000Y-22660000D01*
X12065000Y26289000D02*
X8436000Y22660000D01*
X8436000Y22660000D02*
X7030000Y22660000D01*
X-21460000Y-2636000D02*
X-20348000Y-1524000D01*
X-20348000Y-1524000D02*
X-19028980Y-1524000D01*
X-1350000Y16764000D02*
X-3020000Y16764000D01*
X1941500Y-19930500D02*
X1845394Y-19930500D01*
X20348000Y1524000D02*
X19645792Y1524000D01*
X3130000Y-22660000D02*
X2515291Y-22660000D01*
X8636000Y20348000D02*
X8636000Y19440240D01*
X21460000Y-7524000D02*
X20348000Y-8636000D01*
X-8826453Y-14200472D02*
X-7969795Y-13343814D01*
D99*
X-14389053Y9867947D02*
X-13950337Y9867947D01*
X7431127Y-9906000D02*
X6428153Y-8903026D01*
D98*
X-1524000Y-20348000D02*
X-1524000Y-19969242D01*
X-22660000Y5280000D02*
X-22860000Y5080000D01*
X20348000Y-1524000D02*
X19510459Y-1524000D01*
X-8928147Y-11442747D02*
X-8191547Y-12179347D01*
X8636000Y-20348000D02*
X8636000Y-19655108D01*
X-22660000Y4880000D02*
X-22860000Y5080000D01*
X-22660000Y7030000D02*
X-22660000Y5280000D01*
X5280000Y-22660000D02*
X5080000Y-22860000D01*
X-19537067Y-8636000D02*
X-19110424Y-8209357D01*
X8499760Y19304000D02*
X8521478Y19325718D01*
X8636000Y19440240D02*
X8521478Y19325718D01*
X-7030000Y-22660000D02*
X-5280000Y-22660000D01*
X-9398000Y15684179D02*
X-9398000Y11811000D01*
X-7524000Y-21460000D02*
X-8636000Y-20348000D01*
X-8636000Y-19553086D02*
X-8407657Y-19324743D01*
D99*
X-13950337Y9867947D02*
X-13205999Y9123609D01*
D98*
X379438Y16764000D02*
X13908Y16398470D01*
X22660000Y4880000D02*
X22860000Y5080000D01*
X-4880000Y-22660000D02*
X-5080000Y-22860000D01*
X2512000Y16764000D02*
X3048000Y17300000D01*
X20348000Y-8636000D02*
X19304000Y-8636000D01*
D99*
X-14389053Y9898925D02*
X-15467017Y10976889D01*
D98*
X-1524000Y20348000D02*
X-1524000Y18914596D01*
X-8159456Y19871456D02*
X-8159456Y18400966D01*
X3130000Y22660000D02*
X4880000Y22660000D01*
X19548859Y8636000D02*
X19426428Y8513569D01*
X-5280000Y22660000D02*
X-5080000Y22860000D01*
X22660000Y3130000D02*
X22660000Y4880000D01*
X-22860000Y8128000D02*
X-22660000Y7928000D01*
X3048000Y16228000D02*
X2512000Y16764000D01*
X25151506Y1134501D02*
X25518501Y767506D01*
D99*
X19342053Y-24422053D02*
X18415000Y-23495000D01*
X2062911Y3213353D02*
X1207500Y2357942D01*
D98*
X1524000Y19090114D02*
X1373633Y18939747D01*
X22660000Y2515290D02*
X23832779Y1342511D01*
X-6480000Y-19456000D02*
X-6632000Y-19304000D01*
X-6480000Y-20910000D02*
X-6480000Y-19456000D01*
X19456000Y3680000D02*
X19304000Y3528000D01*
X20910000Y3680000D02*
X19456000Y3680000D01*
X19456000Y-6480000D02*
X19304000Y-6632000D01*
X20910000Y-6480000D02*
X19456000Y-6480000D01*
X-19456000Y-3680000D02*
X-19304000Y-3528000D01*
X-20910000Y-3680000D02*
X-19456000Y-3680000D01*
X-19456000Y6480000D02*
X-19304000Y6632000D01*
X-20910000Y6480000D02*
X-19456000Y6480000D01*
X-3680000Y19456000D02*
X-3528000Y19304000D01*
X-3680000Y20910000D02*
X-3680000Y19456000D01*
X2502000Y17714000D02*
X1350000Y17714000D01*
X3048000Y18260000D02*
X2502000Y17714000D01*
X-10126969Y-15400125D02*
X-9512347Y-16014747D01*
X-10126969Y-12813975D02*
X-10126969Y-15400125D01*
X-18144545Y3932468D02*
X-18054147Y3932468D01*
X-17913972Y4008488D02*
X-17898078Y4024382D01*
X-17978127Y4008488D02*
X-17913972Y4008488D01*
X-18146808Y3930205D02*
X-18144545Y3932468D01*
X-17531451Y4024382D02*
X-17277529Y3770460D01*
X-18665820Y3930205D02*
X-18146808Y3930205D01*
X-9174059Y-3078059D02*
X-9174059Y-2887947D01*
X-17080754Y-5528472D02*
X-11624472Y-5528472D01*
X-17903084Y-6350803D02*
X-17844046Y-6291764D01*
X-17137760Y-5585478D02*
X-17080754Y-5528472D01*
X-19492899Y-5280000D02*
X-18422096Y-6350803D01*
X-17844046Y-6291764D02*
X-17137760Y-5585478D01*
X-18422096Y-6350803D02*
X-17903084Y-6350803D01*
X-17898078Y4024382D02*
X-17531451Y4024382D01*
X-20910000Y4880000D02*
X-19615615Y4880000D01*
X-18054147Y3932468D02*
X-17978127Y4008488D01*
X-19615615Y4880000D02*
X-18665820Y3930205D01*
X-20910000Y-5280000D02*
X-19492899Y-5280000D01*
X-11624472Y-5528472D02*
X-9174059Y-3078059D01*
X18808205Y-4006511D02*
X18636941Y-4177775D01*
X19834209Y6355791D02*
X19104033Y6355791D01*
X16256000Y6096000D02*
X15714002Y6096000D01*
X7732702Y22353D02*
X8002318Y22353D01*
X18003206Y6044466D02*
X17959535Y6088137D01*
X16318988Y6158988D02*
X16256000Y6096000D01*
X17959535Y6088137D02*
X17952469Y6088137D01*
X18636941Y-4177775D02*
X17847439Y-4177775D01*
X17952469Y6088137D02*
X17886062Y6154544D01*
X15714002Y6096000D02*
X15477001Y5858999D01*
X8002318Y22353D02*
X13838964Y5858999D01*
X5779501Y-1715501D02*
X7517355Y22353D01*
X20510000Y5680000D02*
X19834209Y6355791D01*
X19766244Y-4480000D02*
X19292755Y-4006511D01*
X13838964Y5858999D02*
X15477001Y5858999D01*
X19292755Y-4006511D02*
X18808205Y-4006511D01*
X17376056Y6158988D02*
X16318988Y6158988D01*
X17380500Y6154544D02*
X17376056Y6158988D01*
X10148755Y-4006511D02*
X9953315Y-3811071D01*
X17676175Y-4006511D02*
X10148755Y-4006511D01*
X5779501Y-2223501D02*
X5779501Y-1715501D01*
X19104033Y6355791D02*
X18792708Y6044466D01*
X20910000Y5680000D02*
X20510000Y5680000D01*
X7517355Y22353D02*
X7732702Y22353D01*
X9953315Y-3811071D02*
X7367071Y-3811071D01*
X7367071Y-3811071D02*
X5779501Y-2223501D01*
X20910000Y-4480000D02*
X19766244Y-4480000D01*
X17886062Y6154544D02*
X17380500Y6154544D01*
X18792708Y6044466D02*
X18003206Y6044466D01*
X17847439Y-4177775D02*
X17676175Y-4006511D01*
X17333521Y-4633011D02*
X17307205Y-4633011D01*
X8376494Y-5198501D02*
X8895506Y-5198501D01*
X16781080Y-5159136D02*
X17307205Y-4633011D01*
X20910000Y5280000D02*
X19718067Y5280000D01*
X18772186Y-4504286D02*
X17712194Y-4504286D01*
X17127482Y5197678D02*
X16973785Y5043981D01*
X8895506Y-5198501D02*
X8986272Y-5107735D01*
X18927953Y5717955D02*
X17867961Y5717955D01*
X14280469Y5043981D02*
X11671905Y2435417D01*
X5712006Y-3175000D02*
X7644741Y-5107735D01*
X8285728Y-5107735D02*
X8376494Y-5198501D01*
X19104033Y5894034D02*
X18927953Y5717955D01*
X16316220Y-5107735D02*
X16367621Y-5159136D01*
X17712194Y-4504286D02*
X17587220Y-4379312D01*
X7644741Y-5107735D02*
X8285728Y-5107735D01*
X20910000Y-4880000D02*
X19704488Y-4880000D01*
X17147354Y5197678D02*
X17127482Y5197678D01*
X16367621Y-5159136D02*
X16781080Y-5159136D01*
X11164656Y2435417D02*
X9165489Y436250D01*
X9165489Y-70999D02*
X8338988Y-897500D01*
X16973785Y5043981D02*
X14280469Y5043981D01*
X9165489Y436250D02*
X9165489Y-70999D01*
X18943450Y-4333022D02*
X18772186Y-4504286D01*
X19718067Y5280000D02*
X19104033Y5894034D01*
X8986272Y-5107735D02*
X16316220Y-5107735D01*
X17867961Y5717955D02*
X17767796Y5818120D01*
X17587220Y-4379312D02*
X17333521Y-4633011D01*
X11671905Y2435417D02*
X11164656Y2435417D01*
X19157510Y-4333022D02*
X18943450Y-4333022D01*
X17767796Y5818120D02*
X17147354Y5197678D01*
X19704488Y-4880000D02*
X19157510Y-4333022D01*
X8338988Y-897500D02*
X7621892Y-897500D01*
X20910000Y-5280000D02*
X18250598Y-5280000D01*
X10581757Y966511D02*
X10664755Y966511D01*
X18145578Y-4963508D02*
X18150308Y-4963508D01*
X17741169Y4548878D02*
X18246670Y5054379D01*
X11264464Y1566220D02*
X11264464Y1741911D01*
X9121517Y-5434246D02*
X16180975Y-5434246D01*
X8241249Y-5525012D02*
X9030751Y-5525012D01*
X6667004Y-1714004D02*
X7984240Y-1714004D01*
X11807150Y2108906D02*
X14247122Y4548878D01*
X4998035Y-2032000D02*
X4699000Y-2331035D01*
X9492000Y301005D02*
X9858995Y668000D01*
X18250598Y-5280000D02*
X18169500Y-5198902D01*
X10664755Y966511D02*
X11264464Y1566220D01*
X16180975Y-5434246D02*
X16232376Y-5485647D01*
X20910000Y4880000D02*
X18421049Y4880000D01*
X9030751Y-5525012D02*
X9121517Y-5434246D01*
X9492000Y-206244D02*
X9492000Y301005D01*
X9858995Y668000D02*
X10283246Y668000D01*
X4699000Y-2331035D02*
X4699000Y-3048000D01*
X11264464Y1741911D02*
X11631459Y2108906D01*
X18169500Y-4982700D02*
X18169500Y-5198902D01*
X16232376Y-5485647D02*
X17623439Y-5485647D01*
X8150483Y-5434246D02*
X8241249Y-5525012D01*
X17623439Y-5485647D02*
X18145578Y-4963508D01*
X7984240Y-1714004D02*
X9492000Y-206244D01*
X18421049Y4880000D02*
X18246670Y5054379D01*
X14247122Y4548878D02*
X17741169Y4548878D01*
X10283246Y668000D02*
X10581757Y966511D01*
X18150308Y-4963508D02*
X18169500Y-4982700D01*
X4699000Y-3048000D02*
X7085246Y-5434246D01*
X7085246Y-5434246D02*
X8150483Y-5434246D01*
X11631459Y2108906D02*
X11807150Y2108906D01*
M02*
