G04 #@! TF.GenerationSoftware,KiCad,Pcbnew,5.99.0-unknown-243631a095~131~ubuntu18.04.1*
G04 #@! TF.CreationDate,2021-09-05T03:56:41+03:00*
G04 #@! TF.ProjectId,FreeEEG128-alpha,46726565-4545-4473-9132-382d616c7068,rev?*
G04 #@! TF.SameCoordinates,Original*
G04 #@! TF.FileFunction,Legend,Bot*
G04 #@! TF.FilePolarity,Positive*
%FSLAX46Y46*%
G04 Gerber Fmt 4.6, Leading zero omitted, Abs format (unit mm)*
G04 Created by KiCad (PCBNEW 5.99.0-unknown-243631a095~131~ubuntu18.04.1) date 2021-09-05 03:56:41*
%MOMM*%
%LPD*%
G01*
G04 APERTURE LIST*
%ADD10C,0.075000*%
%ADD11C,0.120000*%
G04 APERTURE END LIST*
D10*
X25154730Y21421991D02*
X25440940Y21135781D01*
X25457775Y21085273D01*
X25457775Y21051602D01*
X25440940Y21001094D01*
X25373596Y20933750D01*
X25323088Y20916915D01*
X25289417Y20916915D01*
X25238909Y20933750D01*
X24952699Y21219960D01*
X24952699Y20512854D02*
X25154730Y20714884D01*
X25053714Y20613869D02*
X24700161Y20967422D01*
X24784340Y20950586D01*
X24851684Y20950586D01*
X24902192Y20967422D01*
X24784340Y20344495D02*
X24716997Y20277151D01*
X24666489Y20260315D01*
X24632818Y20260315D01*
X24548638Y20277151D01*
X24464459Y20327659D01*
X24329772Y20462346D01*
X24312936Y20512854D01*
X24312936Y20546525D01*
X24329772Y20597033D01*
X24397115Y20664376D01*
X24447623Y20681212D01*
X24481295Y20681212D01*
X24531802Y20664376D01*
X24615982Y20580197D01*
X24632818Y20529689D01*
X24632818Y20496018D01*
X24615982Y20445510D01*
X24548638Y20378167D01*
X24498131Y20361331D01*
X24464459Y20361331D01*
X24413951Y20378167D01*
X-12397247Y-8331784D02*
X-12363575Y-8331784D01*
X-12296232Y-8298112D01*
X-12262560Y-8264441D01*
X-12228888Y-8197097D01*
X-12228888Y-8129754D01*
X-12245724Y-8079246D01*
X-12296232Y-7995067D01*
X-12346739Y-7944559D01*
X-12430919Y-7894051D01*
X-12481426Y-7877216D01*
X-12548770Y-7877216D01*
X-12616113Y-7910887D01*
X-12649785Y-7944559D01*
X-12683457Y-8011903D01*
X-12683457Y-8045574D01*
X-12902323Y-8432800D02*
X-12666621Y-8668502D01*
X-12952831Y-8213933D02*
X-12616113Y-8382292D01*
X-12834980Y-8601158D01*
X-13171697Y-8466471D02*
X-13407400Y-8702174D01*
X-12902323Y-8904204D01*
X-7848015Y10767553D02*
X-7848015Y10801225D01*
X-7881687Y10868568D01*
X-7915358Y10902240D01*
X-7982702Y10935912D01*
X-8050045Y10935912D01*
X-8100553Y10919076D01*
X-8184732Y10868568D01*
X-8235240Y10818061D01*
X-8285748Y10733881D01*
X-8302583Y10683374D01*
X-8302583Y10616030D01*
X-8268912Y10548687D01*
X-8235240Y10515015D01*
X-8167896Y10481343D01*
X-8134225Y10481343D01*
X-7848015Y10127790D02*
X-8016374Y10296148D01*
X-7864851Y10481343D01*
X-7864851Y10447671D01*
X-7848015Y10397164D01*
X-7763835Y10312984D01*
X-7713328Y10296148D01*
X-7679656Y10296148D01*
X-7629148Y10312984D01*
X-7544969Y10397164D01*
X-7528133Y10447671D01*
X-7528133Y10481343D01*
X-7544969Y10531851D01*
X-7629148Y10616030D01*
X-7679656Y10632866D01*
X-7713328Y10632866D01*
X-7140908Y10127790D02*
X-7342938Y10329820D01*
X-7241923Y10228805D02*
X-7595477Y9875251D01*
X-7578641Y9959431D01*
X-7578641Y10026774D01*
X-7595477Y10077282D01*
X16355553Y-8763584D02*
X16389225Y-8763584D01*
X16456568Y-8729912D01*
X16490240Y-8696241D01*
X16523912Y-8628897D01*
X16523912Y-8561554D01*
X16507076Y-8511046D01*
X16456568Y-8426867D01*
X16406061Y-8376359D01*
X16321881Y-8325851D01*
X16271374Y-8309016D01*
X16204030Y-8309016D01*
X16136687Y-8342687D01*
X16103015Y-8376359D01*
X16069343Y-8443703D01*
X16069343Y-8477374D01*
X15732625Y-8746748D02*
X15799969Y-8679405D01*
X15850477Y-8662569D01*
X15884148Y-8662569D01*
X15968328Y-8679405D01*
X16052507Y-8729912D01*
X16187194Y-8864600D01*
X16204030Y-8915107D01*
X16204030Y-8948779D01*
X16187194Y-8999287D01*
X16119851Y-9066630D01*
X16069343Y-9083466D01*
X16035671Y-9083466D01*
X15985164Y-9066630D01*
X15900984Y-8982451D01*
X15884148Y-8931943D01*
X15884148Y-8898271D01*
X15900984Y-8847764D01*
X15968328Y-8780420D01*
X16018835Y-8763584D01*
X16052507Y-8763584D01*
X16103015Y-8780420D01*
X15715790Y-9470691D02*
X15917820Y-9268661D01*
X15816805Y-9369676D02*
X15463251Y-9016122D01*
X15547431Y-9032958D01*
X15614774Y-9032958D01*
X15665282Y-9016122D01*
X-11178046Y-6858584D02*
X-11144374Y-6858584D01*
X-11077031Y-6824912D01*
X-11043359Y-6791241D01*
X-11009687Y-6723897D01*
X-11009687Y-6656554D01*
X-11026523Y-6606046D01*
X-11077031Y-6521867D01*
X-11127538Y-6471359D01*
X-11211718Y-6420851D01*
X-11262225Y-6404016D01*
X-11329569Y-6404016D01*
X-11396912Y-6437687D01*
X-11430584Y-6471359D01*
X-11464256Y-6538703D01*
X-11464256Y-6572374D01*
X-11683122Y-6959599D02*
X-11447420Y-7195302D01*
X-11733630Y-6740733D02*
X-11396912Y-6909092D01*
X-11615779Y-7127958D01*
X-12137691Y-7178466D02*
X-12070348Y-7111122D01*
X-12019840Y-7094287D01*
X-11986168Y-7094287D01*
X-11901989Y-7111122D01*
X-11817809Y-7161630D01*
X-11683122Y-7296317D01*
X-11666287Y-7346825D01*
X-11666287Y-7380496D01*
X-11683122Y-7431004D01*
X-11750466Y-7498348D01*
X-11800974Y-7515183D01*
X-11834645Y-7515183D01*
X-11885153Y-7498348D01*
X-11969332Y-7414168D01*
X-11986168Y-7363661D01*
X-11986168Y-7329989D01*
X-11969332Y-7279481D01*
X-11901989Y-7212138D01*
X-11851481Y-7195302D01*
X-11817809Y-7195302D01*
X-11767302Y-7212138D01*
X-11023015Y10996153D02*
X-11023015Y11029825D01*
X-11056687Y11097168D01*
X-11090358Y11130840D01*
X-11157702Y11164512D01*
X-11225045Y11164512D01*
X-11275553Y11147676D01*
X-11359732Y11097168D01*
X-11410240Y11046661D01*
X-11460748Y10962481D01*
X-11477583Y10911974D01*
X-11477583Y10844630D01*
X-11443912Y10777287D01*
X-11410240Y10743615D01*
X-11342896Y10709943D01*
X-11309225Y10709943D01*
X-11023015Y10356390D02*
X-11191374Y10524748D01*
X-11039851Y10709943D01*
X-11039851Y10676271D01*
X-11023015Y10625764D01*
X-10938835Y10541584D01*
X-10888328Y10524748D01*
X-10854656Y10524748D01*
X-10804148Y10541584D01*
X-10719969Y10625764D01*
X-10703133Y10676271D01*
X-10703133Y10709943D01*
X-10719969Y10760451D01*
X-10804148Y10844630D01*
X-10854656Y10861466D01*
X-10888328Y10861466D01*
X-10787312Y10120687D02*
X-10753641Y10087016D01*
X-10703133Y10070180D01*
X-10669461Y10070180D01*
X-10618954Y10087016D01*
X-10534774Y10137523D01*
X-10450595Y10221703D01*
X-10400087Y10305882D01*
X-10383251Y10356390D01*
X-10383251Y10390061D01*
X-10400087Y10440569D01*
X-10433759Y10474241D01*
X-10484267Y10491077D01*
X-10517938Y10491077D01*
X-10568446Y10474241D01*
X-10652625Y10423733D01*
X-10736805Y10339554D01*
X-10787312Y10255374D01*
X-10804148Y10204867D01*
X-10804148Y10171195D01*
X-10787312Y10120687D01*
X8854720Y-7953854D02*
X9140930Y-8240064D01*
X9157765Y-8290572D01*
X9157765Y-8324243D01*
X9140930Y-8374751D01*
X9073586Y-8442095D01*
X9023078Y-8458930D01*
X8989407Y-8458930D01*
X8938899Y-8442095D01*
X8652689Y-8155885D01*
X8652689Y-8862991D02*
X8854720Y-8660961D01*
X8753704Y-8761976D02*
X8400151Y-8408423D01*
X8484330Y-8425259D01*
X8551674Y-8425259D01*
X8602182Y-8408423D01*
X8248628Y-8862991D02*
X8265464Y-8812484D01*
X8265464Y-8778812D01*
X8248628Y-8728304D01*
X8231792Y-8711469D01*
X8181285Y-8694633D01*
X8147613Y-8694633D01*
X8097105Y-8711469D01*
X8029762Y-8778812D01*
X8012926Y-8829320D01*
X8012926Y-8862991D01*
X8029762Y-8913499D01*
X8046598Y-8930335D01*
X8097105Y-8947171D01*
X8130777Y-8947171D01*
X8181285Y-8930335D01*
X8248628Y-8862991D01*
X8299136Y-8846156D01*
X8332808Y-8846156D01*
X8383315Y-8862991D01*
X8450659Y-8930335D01*
X8467495Y-8980843D01*
X8467495Y-9014514D01*
X8450659Y-9065022D01*
X8383315Y-9132365D01*
X8332808Y-9149201D01*
X8299136Y-9149201D01*
X8248628Y-9132365D01*
X8181285Y-9065022D01*
X8164449Y-9014514D01*
X8164449Y-8980843D01*
X8181285Y-8930335D01*
X-12601616Y-10051297D02*
X-12652123Y-9765087D01*
X-12399585Y-9849267D02*
X-12753138Y-9495713D01*
X-12887825Y-9630400D01*
X-12904661Y-9680908D01*
X-12904661Y-9714580D01*
X-12887825Y-9765087D01*
X-12837318Y-9815595D01*
X-12786810Y-9832431D01*
X-12753138Y-9832431D01*
X-12702631Y-9815595D01*
X-12567944Y-9680908D01*
X-12938333Y-10388015D02*
X-12736303Y-10185984D01*
X-12837318Y-10287000D02*
X-13190871Y-9933446D01*
X-13106692Y-9950282D01*
X-13039348Y-9950282D01*
X-12988841Y-9933446D01*
X-13275051Y-10724732D02*
X-13073020Y-10522702D01*
X-13174035Y-10623717D02*
X-13527589Y-10270164D01*
X-13443409Y-10287000D01*
X-13376066Y-10287000D01*
X-13325558Y-10270164D01*
X-13931650Y-10674225D02*
X-13864306Y-10606881D01*
X-13813799Y-10590045D01*
X-13780127Y-10590045D01*
X-13695948Y-10606881D01*
X-13611768Y-10657389D01*
X-13477081Y-10792076D01*
X-13460245Y-10842583D01*
X-13460245Y-10876255D01*
X-13477081Y-10926763D01*
X-13544425Y-10994106D01*
X-13594932Y-11010942D01*
X-13628604Y-11010942D01*
X-13679112Y-10994106D01*
X-13763291Y-10909927D01*
X-13780127Y-10859419D01*
X-13780127Y-10825748D01*
X-13763291Y-10775240D01*
X-13695948Y-10707896D01*
X-13645440Y-10691061D01*
X-13611768Y-10691061D01*
X-13561261Y-10707896D01*
X-11312879Y-20628454D02*
X-11026669Y-20914664D01*
X-11009834Y-20965172D01*
X-11009834Y-20998843D01*
X-11026669Y-21049351D01*
X-11094013Y-21116695D01*
X-11144521Y-21133530D01*
X-11178192Y-21133530D01*
X-11228700Y-21116695D01*
X-11514910Y-20830485D01*
X-11514910Y-21537591D02*
X-11312879Y-21335561D01*
X-11413895Y-21436576D02*
X-11767448Y-21083023D01*
X-11683269Y-21099859D01*
X-11615925Y-21099859D01*
X-11565417Y-21083023D01*
X-11986314Y-21301889D02*
X-12222017Y-21537591D01*
X-11716940Y-21739622D01*
X16380953Y6806616D02*
X16414625Y6806616D01*
X16481968Y6840288D01*
X16515640Y6873959D01*
X16549312Y6941303D01*
X16549312Y7008646D01*
X16532476Y7059154D01*
X16481968Y7143333D01*
X16431461Y7193841D01*
X16347281Y7244349D01*
X16296774Y7261184D01*
X16229430Y7261184D01*
X16162087Y7227513D01*
X16128415Y7193841D01*
X16094743Y7126497D01*
X16094743Y7092826D01*
X15741190Y6806616D02*
X15909548Y6974975D01*
X16094743Y6823452D01*
X16061071Y6823452D01*
X16010564Y6806616D01*
X15926384Y6722436D01*
X15909548Y6671929D01*
X15909548Y6638257D01*
X15926384Y6587749D01*
X16010564Y6503570D01*
X16061071Y6486734D01*
X16094743Y6486734D01*
X16145251Y6503570D01*
X16229430Y6587749D01*
X16246266Y6638257D01*
X16246266Y6671929D01*
X15909548Y6267868D02*
X15842205Y6200524D01*
X15791697Y6183688D01*
X15758025Y6183688D01*
X15673846Y6200524D01*
X15589667Y6251032D01*
X15454980Y6385719D01*
X15438144Y6436226D01*
X15438144Y6469898D01*
X15454980Y6520406D01*
X15522323Y6587749D01*
X15572831Y6604585D01*
X15606503Y6604585D01*
X15657010Y6587749D01*
X15741190Y6503570D01*
X15758025Y6453062D01*
X15758025Y6419391D01*
X15741190Y6368883D01*
X15673846Y6301539D01*
X15623338Y6284704D01*
X15589667Y6284704D01*
X15539159Y6301539D01*
X14554784Y8117097D02*
X14201231Y7763544D01*
X14285410Y7679365D01*
X14352754Y7645693D01*
X14420097Y7645693D01*
X14470605Y7662529D01*
X14554784Y7713036D01*
X14605292Y7763544D01*
X14655800Y7847723D01*
X14672635Y7898231D01*
X14672635Y7965575D01*
X14638964Y8032918D01*
X14554784Y8117097D01*
X14571620Y7460498D02*
X14571620Y7426826D01*
X14588456Y7376319D01*
X14672635Y7292139D01*
X14723143Y7275304D01*
X14756815Y7275304D01*
X14807322Y7292139D01*
X14840994Y7325811D01*
X14874666Y7393155D01*
X14874666Y7797216D01*
X15093532Y7578349D01*
X11557584Y6500353D02*
X11557584Y6534025D01*
X11523912Y6601368D01*
X11490241Y6635040D01*
X11422897Y6668712D01*
X11355554Y6668712D01*
X11305046Y6651876D01*
X11220867Y6601368D01*
X11170359Y6550861D01*
X11119851Y6466681D01*
X11103016Y6416174D01*
X11103016Y6348830D01*
X11136687Y6281487D01*
X11170359Y6247815D01*
X11237703Y6214143D01*
X11271374Y6214143D01*
X11557584Y5860590D02*
X11389225Y6028948D01*
X11540748Y6214143D01*
X11540748Y6180471D01*
X11557584Y6129964D01*
X11641764Y6045784D01*
X11692271Y6028948D01*
X11725943Y6028948D01*
X11776451Y6045784D01*
X11860630Y6129964D01*
X11877466Y6180471D01*
X11877466Y6214143D01*
X11860630Y6264651D01*
X11776451Y6348830D01*
X11725943Y6365666D01*
X11692271Y6365666D01*
X11692271Y5725903D02*
X11927974Y5490200D01*
X12130004Y5995277D01*
X-7670214Y-11686046D02*
X-7670214Y-11652374D01*
X-7703886Y-11585031D01*
X-7737557Y-11551359D01*
X-7804901Y-11517687D01*
X-7872244Y-11517687D01*
X-7922752Y-11534523D01*
X-8006931Y-11585031D01*
X-8057439Y-11635538D01*
X-8107947Y-11719718D01*
X-8124782Y-11770225D01*
X-8124782Y-11837569D01*
X-8091111Y-11904912D01*
X-8057439Y-11938584D01*
X-7990095Y-11972256D01*
X-7956424Y-11972256D01*
X-7569199Y-12191122D02*
X-7333496Y-11955420D01*
X-7788065Y-12241630D02*
X-7619706Y-11904912D01*
X-7400840Y-12123779D01*
X-7535527Y-12460496D02*
X-7316660Y-12679363D01*
X-7299824Y-12426825D01*
X-7249317Y-12477332D01*
X-7198809Y-12494168D01*
X-7165137Y-12494168D01*
X-7114630Y-12477332D01*
X-7030450Y-12393153D01*
X-7013615Y-12342645D01*
X-7013615Y-12308974D01*
X-7030450Y-12258466D01*
X-7131466Y-12157451D01*
X-7181973Y-12140615D01*
X-7215645Y-12140615D01*
X10355773Y7655175D02*
X10389445Y7655175D01*
X10456788Y7688847D01*
X10490460Y7722518D01*
X10524132Y7789862D01*
X10524132Y7857205D01*
X10507296Y7907713D01*
X10456788Y7991892D01*
X10406281Y8042400D01*
X10322101Y8092908D01*
X10271594Y8109743D01*
X10204250Y8109743D01*
X10136907Y8076072D01*
X10103235Y8042400D01*
X10069563Y7975056D01*
X10069563Y7941385D01*
X9918040Y7857205D02*
X9682338Y7621503D01*
X10187414Y7419472D01*
X9480307Y7419472D02*
X9446636Y7385801D01*
X9429800Y7335293D01*
X9429800Y7301621D01*
X9446636Y7251114D01*
X9497143Y7166934D01*
X9581323Y7082755D01*
X9665502Y7032247D01*
X9716010Y7015411D01*
X9749681Y7015411D01*
X9800189Y7032247D01*
X9833861Y7065919D01*
X9850697Y7116427D01*
X9850697Y7150098D01*
X9833861Y7200606D01*
X9783353Y7284785D01*
X9699174Y7368965D01*
X9614994Y7419472D01*
X9564487Y7436308D01*
X9530815Y7436308D01*
X9480307Y7419472D01*
X7450104Y13035973D02*
X7450104Y13069645D01*
X7416432Y13136988D01*
X7382761Y13170660D01*
X7315417Y13204332D01*
X7248074Y13204332D01*
X7197566Y13187496D01*
X7113387Y13136988D01*
X7062879Y13086481D01*
X7012371Y13002301D01*
X6995536Y12951794D01*
X6995536Y12884450D01*
X7029207Y12817107D01*
X7062879Y12783435D01*
X7130223Y12749763D01*
X7163894Y12749763D01*
X7450104Y12396210D02*
X7281745Y12564568D01*
X7433268Y12749763D01*
X7433268Y12716091D01*
X7450104Y12665584D01*
X7534284Y12581404D01*
X7584791Y12564568D01*
X7618463Y12564568D01*
X7668971Y12581404D01*
X7753150Y12665584D01*
X7769986Y12716091D01*
X7769986Y12749763D01*
X7753150Y12800271D01*
X7668971Y12884450D01*
X7618463Y12901286D01*
X7584791Y12901286D01*
X7786822Y12059492D02*
X7618463Y12227851D01*
X7769986Y12413045D01*
X7769986Y12379374D01*
X7786822Y12328866D01*
X7871001Y12244687D01*
X7921509Y12227851D01*
X7955181Y12227851D01*
X8005688Y12244687D01*
X8089868Y12328866D01*
X8106703Y12379374D01*
X8106703Y12413045D01*
X8089868Y12463553D01*
X8005688Y12547732D01*
X7955181Y12564568D01*
X7921509Y12564568D01*
X-10921415Y-13489446D02*
X-10921415Y-13455774D01*
X-10955087Y-13388431D01*
X-10988758Y-13354759D01*
X-11056102Y-13321087D01*
X-11123445Y-13321087D01*
X-11173953Y-13337923D01*
X-11258132Y-13388431D01*
X-11308640Y-13438938D01*
X-11359148Y-13523118D01*
X-11375983Y-13573625D01*
X-11375983Y-13640969D01*
X-11342312Y-13708312D01*
X-11308640Y-13741984D01*
X-11241296Y-13775656D01*
X-11207625Y-13775656D01*
X-10820400Y-13994522D02*
X-10584697Y-13758820D01*
X-11039266Y-14045030D02*
X-10870907Y-13708312D01*
X-10652041Y-13927179D01*
X-10736220Y-14247061D02*
X-10736220Y-14280732D01*
X-10719384Y-14331240D01*
X-10635205Y-14415419D01*
X-10584697Y-14432255D01*
X-10551025Y-14432255D01*
X-10500518Y-14415419D01*
X-10466846Y-14381748D01*
X-10433174Y-14314404D01*
X-10433174Y-13910343D01*
X-10214308Y-14129209D01*
X-10772816Y-11803897D02*
X-10823323Y-11517687D01*
X-10570785Y-11601867D02*
X-10924338Y-11248313D01*
X-11059025Y-11383000D01*
X-11075861Y-11433508D01*
X-11075861Y-11467180D01*
X-11059025Y-11517687D01*
X-11008518Y-11568195D01*
X-10958010Y-11585031D01*
X-10924338Y-11585031D01*
X-10873831Y-11568195D01*
X-10739144Y-11433508D01*
X-11109533Y-12140615D02*
X-10907503Y-11938584D01*
X-11008518Y-12039600D02*
X-11362071Y-11686046D01*
X-11277892Y-11702882D01*
X-11210548Y-11702882D01*
X-11160041Y-11686046D01*
X-11446251Y-12477332D02*
X-11244220Y-12275302D01*
X-11345235Y-12376317D02*
X-11698789Y-12022764D01*
X-11614609Y-12039600D01*
X-11547266Y-12039600D01*
X-11496758Y-12022764D01*
X-12119686Y-12443661D02*
X-11951327Y-12275302D01*
X-11766132Y-12426825D01*
X-11799804Y-12426825D01*
X-11850312Y-12443661D01*
X-11934491Y-12527840D01*
X-11951327Y-12578348D01*
X-11951327Y-12612019D01*
X-11934491Y-12662527D01*
X-11850312Y-12746706D01*
X-11799804Y-12763542D01*
X-11766132Y-12763542D01*
X-11715625Y-12746706D01*
X-11631445Y-12662527D01*
X-11614609Y-12612019D01*
X-11614609Y-12578348D01*
X-8203615Y14628353D02*
X-8203615Y14662025D01*
X-8237287Y14729368D01*
X-8270958Y14763040D01*
X-8338302Y14796712D01*
X-8405645Y14796712D01*
X-8456153Y14779876D01*
X-8540332Y14729368D01*
X-8590840Y14678861D01*
X-8641348Y14594681D01*
X-8658183Y14544174D01*
X-8658183Y14476830D01*
X-8624512Y14409487D01*
X-8590840Y14375815D01*
X-8523496Y14342143D01*
X-8489825Y14342143D01*
X-8203615Y13988590D02*
X-8371974Y14156948D01*
X-8220451Y14342143D01*
X-8220451Y14308471D01*
X-8203615Y14257964D01*
X-8119435Y14173784D01*
X-8068928Y14156948D01*
X-8035256Y14156948D01*
X-7984748Y14173784D01*
X-7900569Y14257964D01*
X-7883733Y14308471D01*
X-7883733Y14342143D01*
X-7900569Y14392651D01*
X-7984748Y14476830D01*
X-8035256Y14493666D01*
X-8068928Y14493666D01*
X-8068928Y13853903D02*
X-7850061Y13635036D01*
X-7833225Y13887574D01*
X-7782718Y13837067D01*
X-7732210Y13820231D01*
X-7698538Y13820231D01*
X-7648031Y13837067D01*
X-7563851Y13921246D01*
X-7547016Y13971754D01*
X-7547016Y14005425D01*
X-7563851Y14055933D01*
X-7664867Y14156948D01*
X-7715374Y14173784D01*
X-7749046Y14173784D01*
X-11711446Y-8534984D02*
X-11677774Y-8534984D01*
X-11610431Y-8501312D01*
X-11576759Y-8467641D01*
X-11543087Y-8400297D01*
X-11543087Y-8332954D01*
X-11559923Y-8282446D01*
X-11610431Y-8198267D01*
X-11660938Y-8147759D01*
X-11745118Y-8097251D01*
X-11795625Y-8080416D01*
X-11862969Y-8080416D01*
X-11930312Y-8114087D01*
X-11963984Y-8147759D01*
X-11997656Y-8215103D01*
X-11997656Y-8248774D01*
X-12216522Y-8636000D02*
X-11980820Y-8871702D01*
X-12267030Y-8417133D02*
X-11930312Y-8585492D01*
X-12149179Y-8804358D01*
X-12418553Y-8905374D02*
X-12401717Y-8854866D01*
X-12401717Y-8821194D01*
X-12418553Y-8770687D01*
X-12435389Y-8753851D01*
X-12485896Y-8737015D01*
X-12519568Y-8737015D01*
X-12570076Y-8753851D01*
X-12637419Y-8821194D01*
X-12654255Y-8871702D01*
X-12654255Y-8905374D01*
X-12637419Y-8955881D01*
X-12620583Y-8972717D01*
X-12570076Y-8989553D01*
X-12536404Y-8989553D01*
X-12485896Y-8972717D01*
X-12418553Y-8905374D01*
X-12368045Y-8888538D01*
X-12334374Y-8888538D01*
X-12283866Y-8905374D01*
X-12216522Y-8972717D01*
X-12199687Y-9023225D01*
X-12199687Y-9056896D01*
X-12216522Y-9107404D01*
X-12283866Y-9174748D01*
X-12334374Y-9191583D01*
X-12368045Y-9191583D01*
X-12418553Y-9174748D01*
X-12485896Y-9107404D01*
X-12502732Y-9056896D01*
X-12502732Y-9023225D01*
X-12485896Y-8972717D01*
X-12721928Y21173537D02*
X-12435718Y21459747D01*
X-12385210Y21476582D01*
X-12351539Y21476582D01*
X-12301031Y21459747D01*
X-12233687Y21392403D01*
X-12216852Y21341895D01*
X-12216852Y21308224D01*
X-12233687Y21257716D01*
X-12519897Y20971506D01*
X-11812791Y20971506D02*
X-12014821Y21173537D01*
X-11913806Y21072521D02*
X-12267359Y20718968D01*
X-12250523Y20803147D01*
X-12250523Y20870491D01*
X-12267359Y20920999D01*
X-11846462Y20298071D02*
X-12014821Y20466430D01*
X-11863298Y20651625D01*
X-11863298Y20617953D01*
X-11846462Y20567445D01*
X-11762283Y20483266D01*
X-11711775Y20466430D01*
X-11678104Y20466430D01*
X-11627596Y20483266D01*
X-11543417Y20567445D01*
X-11526581Y20617953D01*
X-11526581Y20651625D01*
X-11543417Y20702132D01*
X-11627596Y20786312D01*
X-11678104Y20803147D01*
X-11711775Y20803147D01*
X-8790446Y13690015D02*
X-8756774Y13690015D01*
X-8689431Y13723687D01*
X-8655759Y13757358D01*
X-8622087Y13824702D01*
X-8622087Y13892045D01*
X-8638923Y13942553D01*
X-8689431Y14026732D01*
X-8739938Y14077240D01*
X-8824118Y14127748D01*
X-8874625Y14144583D01*
X-8941969Y14144583D01*
X-9009312Y14110912D01*
X-9042984Y14077240D01*
X-9076656Y14009896D01*
X-9076656Y13976225D01*
X-9228179Y13892045D02*
X-9447045Y13673179D01*
X-9194507Y13656343D01*
X-9245015Y13605835D01*
X-9261851Y13555328D01*
X-9261851Y13521656D01*
X-9245015Y13471148D01*
X-9160835Y13386969D01*
X-9110328Y13370133D01*
X-9076656Y13370133D01*
X-9026148Y13386969D01*
X-8925133Y13487984D01*
X-8908297Y13538492D01*
X-8908297Y13572164D01*
X-9766927Y13353297D02*
X-9598568Y13521656D01*
X-9413374Y13370133D01*
X-9447045Y13370133D01*
X-9497553Y13353297D01*
X-9581732Y13269118D01*
X-9598568Y13218610D01*
X-9598568Y13184938D01*
X-9581732Y13134431D01*
X-9497553Y13050251D01*
X-9447045Y13033416D01*
X-9413374Y13033416D01*
X-9362866Y13050251D01*
X-9278687Y13134431D01*
X-9261851Y13184938D01*
X-9261851Y13218610D01*
X-21138952Y-20566532D02*
X-20886414Y-20313994D01*
X-20852742Y-20246651D01*
X-20852742Y-20179307D01*
X-20886414Y-20111964D01*
X-20920086Y-20078292D01*
X-20600204Y-20398173D02*
X-20532860Y-20465517D01*
X-20516025Y-20516025D01*
X-20516025Y-20549696D01*
X-20532860Y-20633876D01*
X-20583368Y-20718055D01*
X-20718055Y-20852742D01*
X-20768563Y-20869578D01*
X-20802234Y-20869578D01*
X-20852742Y-20852742D01*
X-20920086Y-20785399D01*
X-20936921Y-20734891D01*
X-20936921Y-20701219D01*
X-20920086Y-20650712D01*
X-20835906Y-20566532D01*
X-20785399Y-20549696D01*
X-20751727Y-20549696D01*
X-20701219Y-20566532D01*
X-20633876Y-20633876D01*
X-20617040Y-20684383D01*
X-20617040Y-20718055D01*
X-20633876Y-20768563D01*
X-20263486Y-20734891D02*
X-20196143Y-20802234D01*
X-20179307Y-20852742D01*
X-20179307Y-20886414D01*
X-20196143Y-20970593D01*
X-20246651Y-21054773D01*
X-20381338Y-21189460D01*
X-20431845Y-21206295D01*
X-20465517Y-21206295D01*
X-20516025Y-21189460D01*
X-20583368Y-21122116D01*
X-20600204Y-21071608D01*
X-20600204Y-21037937D01*
X-20583368Y-20987429D01*
X-20499189Y-20903250D01*
X-20448681Y-20886414D01*
X-20415009Y-20886414D01*
X-20364502Y-20903250D01*
X-20297158Y-20970593D01*
X-20280322Y-21021101D01*
X-20280322Y-21054773D01*
X-20297158Y-21105280D01*
X19316475Y-18443699D02*
X19602685Y-18729909D01*
X19619520Y-18780417D01*
X19619520Y-18814088D01*
X19602685Y-18864596D01*
X19535341Y-18931940D01*
X19484833Y-18948775D01*
X19451162Y-18948775D01*
X19400654Y-18931940D01*
X19114444Y-18645730D01*
X18996593Y-18830924D02*
X18962921Y-18830924D01*
X18912414Y-18847760D01*
X18828234Y-18931940D01*
X18811398Y-18982447D01*
X18811398Y-19016119D01*
X18828234Y-19066627D01*
X18861906Y-19100298D01*
X18929250Y-19133970D01*
X19333311Y-19133970D01*
X19114444Y-19352836D01*
X18777727Y-19689554D02*
X18979757Y-19487523D01*
X18878742Y-19588539D02*
X18525189Y-19234985D01*
X18609368Y-19251821D01*
X18676711Y-19251821D01*
X18727219Y-19234985D01*
X8407984Y-16054846D02*
X8407984Y-16021174D01*
X8374312Y-15953831D01*
X8340641Y-15920159D01*
X8273297Y-15886487D01*
X8205954Y-15886487D01*
X8155446Y-15903323D01*
X8071267Y-15953831D01*
X8020759Y-16004338D01*
X7970251Y-16088518D01*
X7953416Y-16139025D01*
X7953416Y-16206369D01*
X7987087Y-16273712D01*
X8020759Y-16307384D01*
X8088103Y-16341056D01*
X8121774Y-16341056D01*
X8391148Y-16677774D02*
X8323805Y-16610430D01*
X8306969Y-16559922D01*
X8306969Y-16526251D01*
X8323805Y-16442071D01*
X8374312Y-16357892D01*
X8509000Y-16223205D01*
X8559507Y-16206369D01*
X8593179Y-16206369D01*
X8643687Y-16223205D01*
X8711030Y-16290548D01*
X8727866Y-16341056D01*
X8727866Y-16374728D01*
X8711030Y-16425235D01*
X8626851Y-16509415D01*
X8576343Y-16526251D01*
X8542671Y-16526251D01*
X8492164Y-16509415D01*
X8424820Y-16442071D01*
X8407984Y-16391564D01*
X8407984Y-16357892D01*
X8424820Y-16307384D01*
X8542671Y-16829296D02*
X8761538Y-17048163D01*
X8778374Y-16795625D01*
X8828881Y-16846132D01*
X8879389Y-16862968D01*
X8913061Y-16862968D01*
X8963568Y-16846132D01*
X9047748Y-16761953D01*
X9064583Y-16711445D01*
X9064583Y-16677774D01*
X9047748Y-16627266D01*
X8946732Y-16526251D01*
X8896225Y-16509415D01*
X8862553Y-16509415D01*
X-6806615Y15060153D02*
X-6806615Y15093825D01*
X-6840287Y15161168D01*
X-6873958Y15194840D01*
X-6941302Y15228512D01*
X-7008645Y15228512D01*
X-7059153Y15211676D01*
X-7143332Y15161168D01*
X-7193840Y15110661D01*
X-7244348Y15026481D01*
X-7261183Y14975974D01*
X-7261183Y14908630D01*
X-7227512Y14841287D01*
X-7193840Y14807615D01*
X-7126496Y14773943D01*
X-7092825Y14773943D01*
X-6806615Y14420390D02*
X-6974974Y14588748D01*
X-6823451Y14773943D01*
X-6823451Y14740271D01*
X-6806615Y14689764D01*
X-6722435Y14605584D01*
X-6671928Y14588748D01*
X-6638256Y14588748D01*
X-6587748Y14605584D01*
X-6503569Y14689764D01*
X-6486733Y14740271D01*
X-6486733Y14773943D01*
X-6503569Y14824451D01*
X-6587748Y14908630D01*
X-6638256Y14925466D01*
X-6671928Y14925466D01*
X-6368882Y14218359D02*
X-6133180Y14454061D01*
X-6587748Y14167851D02*
X-6419390Y14504569D01*
X-6200523Y14285703D01*
X7493584Y15051296D02*
X7140031Y14697743D01*
X7224210Y14613564D01*
X7291554Y14579892D01*
X7358897Y14579892D01*
X7409405Y14596728D01*
X7493584Y14647235D01*
X7544092Y14697743D01*
X7594599Y14781922D01*
X7611435Y14832430D01*
X7611435Y14899774D01*
X7577764Y14967117D01*
X7493584Y15051296D01*
X8032332Y14512548D02*
X7830302Y14714579D01*
X7931317Y14613564D02*
X7577764Y14260010D01*
X7594600Y14344190D01*
X7594600Y14411533D01*
X7577764Y14462041D01*
X6948494Y-10506069D02*
X6972304Y-10529878D01*
X7043732Y-10553688D01*
X7091351Y-10553688D01*
X7162780Y-10529878D01*
X7210399Y-10482259D01*
X7234208Y-10434640D01*
X7258018Y-10339402D01*
X7258018Y-10267974D01*
X7234208Y-10172736D01*
X7210399Y-10125117D01*
X7162780Y-10077498D01*
X7091351Y-10053688D01*
X7043732Y-10053688D01*
X6972304Y-10077498D01*
X6948494Y-10101307D01*
X6519923Y-10053688D02*
X6615161Y-10053688D01*
X6662780Y-10077498D01*
X6686589Y-10101307D01*
X6734208Y-10172736D01*
X6758018Y-10267974D01*
X6758018Y-10458450D01*
X6734208Y-10506069D01*
X6710399Y-10529878D01*
X6662780Y-10553688D01*
X6567542Y-10553688D01*
X6519923Y-10529878D01*
X6496113Y-10506069D01*
X6472304Y-10458450D01*
X6472304Y-10339402D01*
X6496113Y-10291783D01*
X6519923Y-10267974D01*
X6567542Y-10244164D01*
X6662780Y-10244164D01*
X6710399Y-10267974D01*
X6734208Y-10291783D01*
X6758018Y-10339402D01*
X6281827Y-10101307D02*
X6258018Y-10077498D01*
X6210399Y-10053688D01*
X6091351Y-10053688D01*
X6043732Y-10077498D01*
X6019923Y-10101307D01*
X5996113Y-10148926D01*
X5996113Y-10196545D01*
X6019923Y-10267974D01*
X6305637Y-10553688D01*
X5996113Y-10553688D01*
X-10737974Y8500143D02*
X-10788482Y8786353D01*
X-10535944Y8702174D02*
X-10889497Y9055727D01*
X-11024184Y8921040D01*
X-11041020Y8870532D01*
X-11041020Y8836861D01*
X-11024184Y8786353D01*
X-10973677Y8735845D01*
X-10923169Y8719009D01*
X-10889497Y8719009D01*
X-10838990Y8735845D01*
X-10704303Y8870532D01*
X-11142035Y8500143D02*
X-11125200Y8550651D01*
X-11125199Y8584322D01*
X-11142035Y8634830D01*
X-11158871Y8651666D01*
X-11209379Y8668502D01*
X-11243051Y8668502D01*
X-11293558Y8651666D01*
X-11360902Y8584322D01*
X-11377738Y8533815D01*
X-11377738Y8500143D01*
X-11360902Y8449635D01*
X-11344066Y8432800D01*
X-11293558Y8415964D01*
X-11259887Y8415964D01*
X-11209379Y8432800D01*
X-11142035Y8500143D01*
X-11091528Y8516979D01*
X-11057856Y8516979D01*
X-11007348Y8500143D01*
X-10940005Y8432800D01*
X-10923169Y8382292D01*
X-10923169Y8348620D01*
X-10940005Y8298112D01*
X-11007348Y8230769D01*
X-11057856Y8213933D01*
X-11091528Y8213933D01*
X-11142035Y8230769D01*
X-11209379Y8298112D01*
X-11226215Y8348620D01*
X-11226215Y8382292D01*
X-11209379Y8432800D01*
X-11748127Y8197097D02*
X-11579768Y8365456D01*
X-11394574Y8213933D01*
X-11428245Y8213933D01*
X-11478753Y8197097D01*
X-11562932Y8112918D01*
X-11579768Y8062410D01*
X-11579768Y8028738D01*
X-11562932Y7978231D01*
X-11478753Y7894051D01*
X-11428245Y7877216D01*
X-11394574Y7877216D01*
X-11344066Y7894051D01*
X-11259887Y7978231D01*
X-11243051Y8028738D01*
X-11243051Y8062410D01*
X8506954Y10591215D02*
X8540626Y10591215D01*
X8607969Y10624887D01*
X8641641Y10658558D01*
X8675313Y10725902D01*
X8675313Y10793245D01*
X8658477Y10843753D01*
X8607969Y10927932D01*
X8557462Y10978440D01*
X8473282Y11028948D01*
X8422775Y11045783D01*
X8355431Y11045783D01*
X8288088Y11012112D01*
X8254416Y10978440D01*
X8220744Y10911096D01*
X8220744Y10877425D01*
X7884026Y10608051D02*
X7951370Y10675394D01*
X8001878Y10692230D01*
X8035549Y10692230D01*
X8119729Y10675394D01*
X8203908Y10624887D01*
X8338595Y10490200D01*
X8355431Y10439692D01*
X8355431Y10406020D01*
X8338595Y10355512D01*
X8271252Y10288169D01*
X8220744Y10271333D01*
X8187072Y10271333D01*
X8136565Y10288169D01*
X8052385Y10372348D01*
X8035549Y10422856D01*
X8035549Y10456528D01*
X8052385Y10507035D01*
X8119729Y10574379D01*
X8170236Y10591215D01*
X8203908Y10591215D01*
X8254416Y10574379D01*
X8035549Y10052467D02*
X7968206Y9985123D01*
X7917698Y9968287D01*
X7884026Y9968287D01*
X7799847Y9985123D01*
X7715668Y10035631D01*
X7580981Y10170318D01*
X7564145Y10220825D01*
X7564145Y10254497D01*
X7580981Y10305005D01*
X7648324Y10372348D01*
X7698832Y10389184D01*
X7732504Y10389184D01*
X7783011Y10372348D01*
X7867191Y10288169D01*
X7884026Y10237661D01*
X7884026Y10203990D01*
X7867191Y10153482D01*
X7799847Y10086138D01*
X7749339Y10069303D01*
X7715668Y10069303D01*
X7665160Y10086138D01*
X11151184Y5992353D02*
X11151184Y6026025D01*
X11117512Y6093368D01*
X11083841Y6127040D01*
X11016497Y6160712D01*
X10949154Y6160712D01*
X10898646Y6143876D01*
X10814467Y6093368D01*
X10763959Y6042861D01*
X10713451Y5958681D01*
X10696616Y5908174D01*
X10696616Y5840830D01*
X10730287Y5773487D01*
X10763959Y5739815D01*
X10831303Y5706143D01*
X10864974Y5706143D01*
X11151184Y5352590D02*
X10982825Y5520948D01*
X11134348Y5706143D01*
X11134348Y5672471D01*
X11151184Y5621964D01*
X11235364Y5537784D01*
X11285871Y5520948D01*
X11319543Y5520948D01*
X11370051Y5537784D01*
X11454230Y5621964D01*
X11471066Y5672471D01*
X11471066Y5706143D01*
X11454230Y5756651D01*
X11370051Y5840830D01*
X11319543Y5857666D01*
X11285871Y5857666D01*
X11471066Y5032708D02*
X11403722Y5100051D01*
X11386887Y5150559D01*
X11386887Y5184231D01*
X11403722Y5268410D01*
X11454230Y5352590D01*
X11588917Y5487277D01*
X11639425Y5504112D01*
X11673096Y5504112D01*
X11723604Y5487277D01*
X11790948Y5419933D01*
X11807783Y5369425D01*
X11807783Y5335754D01*
X11790948Y5285246D01*
X11706768Y5201067D01*
X11656261Y5184231D01*
X11622589Y5184231D01*
X11572081Y5201067D01*
X11504738Y5268410D01*
X11487902Y5318918D01*
X11487902Y5352590D01*
X11504738Y5403097D01*
X-13334228Y7281028D02*
X-13310419Y7304838D01*
X-13286609Y7376266D01*
X-13286609Y7423885D01*
X-13310419Y7495314D01*
X-13358038Y7542933D01*
X-13405657Y7566742D01*
X-13500895Y7590552D01*
X-13572323Y7590552D01*
X-13667561Y7566742D01*
X-13715180Y7542933D01*
X-13762800Y7495314D01*
X-13786609Y7423885D01*
X-13786609Y7376266D01*
X-13762800Y7304838D01*
X-13738990Y7281028D01*
X-13619942Y6852457D02*
X-13286609Y6852457D01*
X-13810419Y6971504D02*
X-13453276Y7090552D01*
X-13453276Y6781028D01*
X-13286609Y6566742D02*
X-13286609Y6471504D01*
X-13310419Y6423885D01*
X-13334228Y6400076D01*
X-13405657Y6352457D01*
X-13500895Y6328647D01*
X-13691371Y6328647D01*
X-13738990Y6352457D01*
X-13762800Y6376266D01*
X-13786609Y6423885D01*
X-13786609Y6519123D01*
X-13762800Y6566742D01*
X-13738990Y6590552D01*
X-13691371Y6614361D01*
X-13572323Y6614361D01*
X-13524704Y6590552D01*
X-13500895Y6566742D01*
X-13477085Y6519123D01*
X-13477085Y6423885D01*
X-13500895Y6376266D01*
X-13524704Y6352457D01*
X-13572323Y6328647D01*
X15822153Y7289215D02*
X15855825Y7289215D01*
X15923168Y7322887D01*
X15956840Y7356558D01*
X15990512Y7423902D01*
X15990512Y7491245D01*
X15973676Y7541753D01*
X15923168Y7625932D01*
X15872661Y7676440D01*
X15788481Y7726948D01*
X15737974Y7743783D01*
X15670630Y7743783D01*
X15603287Y7710112D01*
X15569615Y7676440D01*
X15535943Y7609096D01*
X15535943Y7575425D01*
X15182390Y7289215D02*
X15350748Y7457574D01*
X15535943Y7306051D01*
X15502271Y7306051D01*
X15451764Y7289215D01*
X15367584Y7205035D01*
X15350748Y7154528D01*
X15350748Y7120856D01*
X15367584Y7070348D01*
X15451764Y6986169D01*
X15502271Y6969333D01*
X15535943Y6969333D01*
X15586451Y6986169D01*
X15670630Y7070348D01*
X15687466Y7120856D01*
X15687466Y7154528D01*
X15115046Y6918825D02*
X15131882Y6969333D01*
X15131882Y7003005D01*
X15115046Y7053512D01*
X15098210Y7070348D01*
X15047703Y7087184D01*
X15014031Y7087184D01*
X14963523Y7070348D01*
X14896180Y7003005D01*
X14879344Y6952497D01*
X14879344Y6918825D01*
X14896180Y6868318D01*
X14913016Y6851482D01*
X14963523Y6834646D01*
X14997195Y6834646D01*
X15047703Y6851482D01*
X15115046Y6918825D01*
X15165554Y6935661D01*
X15199225Y6935661D01*
X15249733Y6918825D01*
X15317077Y6851482D01*
X15333912Y6800974D01*
X15333912Y6767303D01*
X15317077Y6716795D01*
X15249733Y6649451D01*
X15199225Y6632616D01*
X15165554Y6632616D01*
X15115046Y6649451D01*
X15047703Y6716795D01*
X15030867Y6767303D01*
X15030867Y6800974D01*
X15047703Y6851482D01*
X-11406646Y-9119184D02*
X-11372974Y-9119184D01*
X-11305631Y-9085512D01*
X-11271959Y-9051841D01*
X-11238287Y-8984497D01*
X-11238287Y-8917154D01*
X-11255123Y-8866646D01*
X-11305631Y-8782467D01*
X-11356138Y-8731959D01*
X-11440318Y-8681451D01*
X-11490825Y-8664616D01*
X-11558169Y-8664616D01*
X-11625512Y-8698287D01*
X-11659184Y-8731959D01*
X-11692856Y-8799303D01*
X-11692856Y-8832974D01*
X-11911722Y-9220200D02*
X-11676020Y-9455902D01*
X-11962230Y-9001333D02*
X-11625512Y-9169692D01*
X-11844379Y-9388558D01*
X-12248440Y-9556917D02*
X-12012738Y-9792619D01*
X-12298948Y-9338051D02*
X-11962230Y-9506409D01*
X-12181096Y-9725276D01*
X-11762246Y-6579184D02*
X-11728574Y-6579184D01*
X-11661231Y-6545512D01*
X-11627559Y-6511841D01*
X-11593887Y-6444497D01*
X-11593887Y-6377154D01*
X-11610723Y-6326646D01*
X-11661231Y-6242467D01*
X-11711738Y-6191959D01*
X-11795918Y-6141451D01*
X-11846425Y-6124616D01*
X-11913769Y-6124616D01*
X-11981112Y-6158287D01*
X-12014784Y-6191959D01*
X-12048456Y-6259303D01*
X-12048456Y-6292974D01*
X-12267322Y-6680199D02*
X-12031620Y-6915902D01*
X-12317830Y-6461333D02*
X-11981112Y-6629692D01*
X-12199979Y-6848558D01*
X-12738727Y-6915902D02*
X-12570368Y-6747543D01*
X-12385174Y-6899066D01*
X-12418845Y-6899066D01*
X-12469353Y-6915902D01*
X-12553532Y-7000081D01*
X-12570368Y-7050589D01*
X-12570368Y-7084261D01*
X-12553532Y-7134768D01*
X-12469353Y-7218948D01*
X-12418845Y-7235783D01*
X-12385174Y-7235783D01*
X-12334666Y-7218948D01*
X-12250487Y-7134768D01*
X-12233651Y-7084261D01*
X-12233651Y-7050589D01*
X-15087015Y25118553D02*
X-15087015Y25152225D01*
X-15120687Y25219568D01*
X-15154358Y25253240D01*
X-15221702Y25286912D01*
X-15289045Y25286912D01*
X-15339553Y25270076D01*
X-15423732Y25219568D01*
X-15474240Y25169061D01*
X-15524748Y25084881D01*
X-15541583Y25034374D01*
X-15541583Y24967030D01*
X-15507912Y24899687D01*
X-15474240Y24866015D01*
X-15406896Y24832343D01*
X-15373225Y24832343D01*
X-15289045Y24680820D02*
X-15070179Y24461954D01*
X-15053343Y24714492D01*
X-15002835Y24663984D01*
X-14952328Y24647148D01*
X-14918656Y24647148D01*
X-14868148Y24663984D01*
X-14783969Y24748164D01*
X-14767133Y24798671D01*
X-14767133Y24832343D01*
X-14783969Y24882851D01*
X-14884984Y24983866D01*
X-14935492Y25000702D01*
X-14969164Y25000702D01*
X-14767133Y24158908D02*
X-14834477Y24226251D01*
X-14851312Y24276759D01*
X-14851312Y24310431D01*
X-14834477Y24394610D01*
X-14783969Y24478790D01*
X-14649282Y24613477D01*
X-14598774Y24630312D01*
X-14565103Y24630312D01*
X-14514595Y24613477D01*
X-14447251Y24546133D01*
X-14430416Y24495625D01*
X-14430416Y24461954D01*
X-14447251Y24411446D01*
X-14531431Y24327267D01*
X-14581938Y24310431D01*
X-14615610Y24310431D01*
X-14666118Y24327267D01*
X-14733461Y24394610D01*
X-14750297Y24445118D01*
X-14750297Y24478790D01*
X-14733461Y24529297D01*
X-9473615Y-15013446D02*
X-9473615Y-14979774D01*
X-9507287Y-14912431D01*
X-9540958Y-14878759D01*
X-9608302Y-14845087D01*
X-9675645Y-14845087D01*
X-9726153Y-14861923D01*
X-9810332Y-14912431D01*
X-9860840Y-14962938D01*
X-9911348Y-15047118D01*
X-9928183Y-15097625D01*
X-9928183Y-15164969D01*
X-9894512Y-15232312D01*
X-9860840Y-15265984D01*
X-9793496Y-15299656D01*
X-9759825Y-15299656D01*
X-9372600Y-15518522D02*
X-9136897Y-15282820D01*
X-9591466Y-15569030D02*
X-9423107Y-15232312D01*
X-9204241Y-15451179D01*
X-8766508Y-15653209D02*
X-8968538Y-15451179D01*
X-8867523Y-15552194D02*
X-9221077Y-15905748D01*
X-9204241Y-15821568D01*
X-9204241Y-15754225D01*
X-9221077Y-15703717D01*
X15491953Y-8128584D02*
X15525625Y-8128584D01*
X15592968Y-8094912D01*
X15626640Y-8061241D01*
X15660312Y-7993897D01*
X15660312Y-7926554D01*
X15643476Y-7876046D01*
X15592968Y-7791867D01*
X15542461Y-7741359D01*
X15458281Y-7690851D01*
X15407774Y-7674016D01*
X15340430Y-7674016D01*
X15273087Y-7707687D01*
X15239415Y-7741359D01*
X15205743Y-7808703D01*
X15205743Y-7842374D01*
X14869025Y-8111748D02*
X14936369Y-8044405D01*
X14986877Y-8027569D01*
X15020548Y-8027569D01*
X15104728Y-8044405D01*
X15188907Y-8094912D01*
X15323594Y-8229600D01*
X15340430Y-8280107D01*
X15340430Y-8313779D01*
X15323594Y-8364287D01*
X15256251Y-8431630D01*
X15205743Y-8448466D01*
X15172071Y-8448466D01*
X15121564Y-8431630D01*
X15037384Y-8347451D01*
X15020548Y-8296943D01*
X15020548Y-8263271D01*
X15037384Y-8212764D01*
X15104728Y-8145420D01*
X15155235Y-8128584D01*
X15188907Y-8128584D01*
X15239415Y-8145420D01*
X14616487Y-8364287D02*
X14582816Y-8397958D01*
X14565980Y-8448466D01*
X14565980Y-8482138D01*
X14582816Y-8532645D01*
X14633323Y-8616825D01*
X14717503Y-8701004D01*
X14801682Y-8751512D01*
X14852190Y-8768348D01*
X14885861Y-8768348D01*
X14936369Y-8751512D01*
X14970041Y-8717840D01*
X14986877Y-8667332D01*
X14986877Y-8633661D01*
X14970041Y-8583153D01*
X14919533Y-8498974D01*
X14835354Y-8414794D01*
X14751174Y-8364287D01*
X14700667Y-8347451D01*
X14666995Y-8347451D01*
X14616487Y-8364287D01*
X-6451015Y11656553D02*
X-6451015Y11690225D01*
X-6484687Y11757568D01*
X-6518358Y11791240D01*
X-6585702Y11824912D01*
X-6653045Y11824912D01*
X-6703553Y11808076D01*
X-6787732Y11757568D01*
X-6838240Y11707061D01*
X-6888748Y11622881D01*
X-6905583Y11572374D01*
X-6905583Y11505030D01*
X-6871912Y11437687D01*
X-6838240Y11404015D01*
X-6770896Y11370343D01*
X-6737225Y11370343D01*
X-6451015Y11016790D02*
X-6619374Y11185148D01*
X-6467851Y11370343D01*
X-6467851Y11336671D01*
X-6451015Y11286164D01*
X-6366835Y11201984D01*
X-6316328Y11185148D01*
X-6282656Y11185148D01*
X-6232148Y11201984D01*
X-6147969Y11286164D01*
X-6131133Y11336671D01*
X-6131133Y11370343D01*
X-6147969Y11420851D01*
X-6232148Y11505030D01*
X-6282656Y11521866D01*
X-6316328Y11521866D01*
X-6265820Y10898938D02*
X-6265820Y10865267D01*
X-6248984Y10814759D01*
X-6164805Y10730580D01*
X-6114297Y10713744D01*
X-6080625Y10713744D01*
X-6030118Y10730580D01*
X-5996446Y10764251D01*
X-5962774Y10831595D01*
X-5962774Y11235656D01*
X-5743908Y11016790D01*
X16939314Y16619433D02*
X16737283Y16417403D01*
X17191852Y16164864D02*
X16838299Y16518418D01*
X16787791Y15760803D02*
X16989822Y15962834D01*
X16888806Y15861819D02*
X16535253Y16215372D01*
X16619432Y16198536D01*
X16686776Y16198536D01*
X16737283Y16215372D01*
X-2053809Y-22002857D02*
X-1649047Y-22002857D01*
X-1601428Y-22026666D01*
X-1577619Y-22050476D01*
X-1553809Y-22098095D01*
X-1553809Y-22193333D01*
X-1577619Y-22240952D01*
X-1601428Y-22264761D01*
X-1649047Y-22288571D01*
X-2053809Y-22288571D01*
X-1553809Y-22788571D02*
X-1553809Y-22502857D01*
X-1553809Y-22645714D02*
X-2053809Y-22645714D01*
X-1982380Y-22598095D01*
X-1934761Y-22550476D01*
X-1910952Y-22502857D01*
X-2053809Y-23098095D02*
X-2053809Y-23145714D01*
X-2030000Y-23193333D01*
X-2006190Y-23217142D01*
X-1958571Y-23240952D01*
X-1863333Y-23264761D01*
X-1744285Y-23264761D01*
X-1649047Y-23240952D01*
X-1601428Y-23217142D01*
X-1577619Y-23193333D01*
X-1553809Y-23145714D01*
X-1553809Y-23098095D01*
X-1577619Y-23050476D01*
X-1601428Y-23026666D01*
X-1649047Y-23002857D01*
X-1744285Y-22979047D01*
X-1863333Y-22979047D01*
X-1958571Y-23002857D01*
X-2006190Y-23026666D01*
X-2030000Y-23050476D01*
X-2053809Y-23098095D01*
X-2053809Y-23431428D02*
X-2053809Y-23740952D01*
X-1863333Y-23574285D01*
X-1863333Y-23645714D01*
X-1839523Y-23693333D01*
X-1815714Y-23717142D01*
X-1768095Y-23740952D01*
X-1649047Y-23740952D01*
X-1601428Y-23717142D01*
X-1577619Y-23693333D01*
X-1553809Y-23645714D01*
X-1553809Y-23502857D01*
X-1577619Y-23455238D01*
X-1601428Y-23431428D01*
X-22002857Y2053809D02*
X-22002857Y1649047D01*
X-22026666Y1601428D01*
X-22050476Y1577619D01*
X-22098095Y1553809D01*
X-22193333Y1553809D01*
X-22240952Y1577619D01*
X-22264761Y1601428D01*
X-22288571Y1649047D01*
X-22288571Y2053809D01*
X-22788571Y1553809D02*
X-22502857Y1553809D01*
X-22645714Y1553809D02*
X-22645714Y2053809D01*
X-22598095Y1982380D01*
X-22550476Y1934761D01*
X-22502857Y1910952D01*
X-23098095Y2053809D02*
X-23145714Y2053809D01*
X-23193333Y2030000D01*
X-23217142Y2006190D01*
X-23240952Y1958571D01*
X-23264761Y1863333D01*
X-23264761Y1744285D01*
X-23240952Y1649047D01*
X-23217142Y1601428D01*
X-23193333Y1577619D01*
X-23145714Y1553809D01*
X-23098095Y1553809D01*
X-23050476Y1577619D01*
X-23026666Y1601428D01*
X-23002857Y1649047D01*
X-22979047Y1744285D01*
X-22979047Y1863333D01*
X-23002857Y1958571D01*
X-23026666Y2006190D01*
X-23050476Y2030000D01*
X-23098095Y2053809D01*
X-23431428Y2053809D02*
X-23764761Y2053809D01*
X-23550476Y1553809D01*
X-20506571Y7297428D02*
X-20482761Y7273619D01*
X-20411333Y7249809D01*
X-20363714Y7249809D01*
X-20292285Y7273619D01*
X-20244666Y7321238D01*
X-20220857Y7368857D01*
X-20197047Y7464095D01*
X-20197047Y7535523D01*
X-20220857Y7630761D01*
X-20244666Y7678380D01*
X-20292285Y7726000D01*
X-20363714Y7749809D01*
X-20411333Y7749809D01*
X-20482761Y7726000D01*
X-20506571Y7702190D01*
X-20744666Y7249809D02*
X-20839904Y7249809D01*
X-20887523Y7273619D01*
X-20911333Y7297428D01*
X-20958952Y7368857D01*
X-20982761Y7464095D01*
X-20982761Y7654571D01*
X-20958952Y7702190D01*
X-20935142Y7726000D01*
X-20887523Y7749809D01*
X-20792285Y7749809D01*
X-20744666Y7726000D01*
X-20720857Y7702190D01*
X-20697047Y7654571D01*
X-20697047Y7535523D01*
X-20720857Y7487904D01*
X-20744666Y7464095D01*
X-20792285Y7440285D01*
X-20887523Y7440285D01*
X-20935142Y7464095D01*
X-20958952Y7487904D01*
X-20982761Y7535523D01*
X-21435142Y7749809D02*
X-21197047Y7749809D01*
X-21173238Y7511714D01*
X-21197047Y7535523D01*
X-21244666Y7559333D01*
X-21363714Y7559333D01*
X-21411333Y7535523D01*
X-21435142Y7511714D01*
X-21458952Y7464095D01*
X-21458952Y7345047D01*
X-21435142Y7297428D01*
X-21411333Y7273619D01*
X-21363714Y7249809D01*
X-21244666Y7249809D01*
X-21197047Y7273619D01*
X-21173238Y7297428D01*
X21149428Y-7654571D02*
X21173238Y-7678380D01*
X21244666Y-7702190D01*
X21292285Y-7702190D01*
X21363714Y-7678380D01*
X21411333Y-7630761D01*
X21435142Y-7583142D01*
X21458952Y-7487904D01*
X21458952Y-7416476D01*
X21435142Y-7321238D01*
X21411333Y-7273619D01*
X21363714Y-7226000D01*
X21292285Y-7202190D01*
X21244666Y-7202190D01*
X21173238Y-7226000D01*
X21149428Y-7249809D01*
X20863714Y-7416476D02*
X20911333Y-7392666D01*
X20935142Y-7368857D01*
X20958952Y-7321238D01*
X20958952Y-7297428D01*
X20935142Y-7249809D01*
X20911333Y-7226000D01*
X20863714Y-7202190D01*
X20768476Y-7202190D01*
X20720857Y-7226000D01*
X20697047Y-7249809D01*
X20673238Y-7297428D01*
X20673238Y-7321238D01*
X20697047Y-7368857D01*
X20720857Y-7392666D01*
X20768476Y-7416476D01*
X20863714Y-7416476D01*
X20911333Y-7440285D01*
X20935142Y-7464095D01*
X20958952Y-7511714D01*
X20958952Y-7606952D01*
X20935142Y-7654571D01*
X20911333Y-7678380D01*
X20863714Y-7702190D01*
X20768476Y-7702190D01*
X20720857Y-7678380D01*
X20697047Y-7654571D01*
X20673238Y-7606952D01*
X20673238Y-7511714D01*
X20697047Y-7464095D01*
X20720857Y-7440285D01*
X20768476Y-7416476D01*
X20506571Y-7202190D02*
X20197047Y-7202190D01*
X20363714Y-7392666D01*
X20292285Y-7392666D01*
X20244666Y-7416476D01*
X20220857Y-7440285D01*
X20197047Y-7487904D01*
X20197047Y-7606952D01*
X20220857Y-7654571D01*
X20244666Y-7678380D01*
X20292285Y-7702190D01*
X20435142Y-7702190D01*
X20482761Y-7678380D01*
X20506571Y-7654571D01*
X-9617428Y21149428D02*
X-9593619Y21173238D01*
X-9569809Y21244666D01*
X-9569809Y21292285D01*
X-9593619Y21363714D01*
X-9641238Y21411333D01*
X-9688857Y21435142D01*
X-9784095Y21458952D01*
X-9855523Y21458952D01*
X-9950761Y21435142D01*
X-9998380Y21411333D01*
X-10046000Y21363714D01*
X-10069809Y21292285D01*
X-10069809Y21244666D01*
X-10046000Y21173238D01*
X-10022190Y21149428D01*
X-9569809Y20673238D02*
X-9569809Y20958952D01*
X-9569809Y20816095D02*
X-10069809Y20816095D01*
X-9998380Y20863714D01*
X-9950761Y20911333D01*
X-9926952Y20958952D01*
X-10069809Y20220857D02*
X-10069809Y20458952D01*
X-9831714Y20482761D01*
X-9855523Y20458952D01*
X-9879333Y20411333D01*
X-9879333Y20292285D01*
X-9855523Y20244666D01*
X-9831714Y20220857D01*
X-9784095Y20197047D01*
X-9665047Y20197047D01*
X-9617428Y20220857D01*
X-9593619Y20244666D01*
X-9569809Y20292285D01*
X-9569809Y20411333D01*
X-9593619Y20458952D01*
X-9617428Y20482761D01*
X20642571Y-2726571D02*
X20666380Y-2702761D01*
X20690190Y-2631333D01*
X20690190Y-2583714D01*
X20666380Y-2512285D01*
X20618761Y-2464666D01*
X20571142Y-2440857D01*
X20475904Y-2417047D01*
X20404476Y-2417047D01*
X20309238Y-2440857D01*
X20261619Y-2464666D01*
X20214000Y-2512285D01*
X20190190Y-2583714D01*
X20190190Y-2631333D01*
X20214000Y-2702761D01*
X20237809Y-2726571D01*
X20404476Y-3012285D02*
X20380666Y-2964666D01*
X20356857Y-2940857D01*
X20309238Y-2917047D01*
X20285428Y-2917047D01*
X20237809Y-2940857D01*
X20214000Y-2964666D01*
X20190190Y-3012285D01*
X20190190Y-3107523D01*
X20214000Y-3155142D01*
X20237809Y-3178952D01*
X20285428Y-3202761D01*
X20309238Y-3202761D01*
X20356857Y-3178952D01*
X20380666Y-3155142D01*
X20404476Y-3107523D01*
X20404476Y-3012285D01*
X20428285Y-2964666D01*
X20452095Y-2940857D01*
X20499714Y-2917047D01*
X20594952Y-2917047D01*
X20642571Y-2940857D01*
X20666380Y-2964666D01*
X20690190Y-3012285D01*
X20690190Y-3107523D01*
X20666380Y-3155142D01*
X20642571Y-3178952D01*
X20594952Y-3202761D01*
X20499714Y-3202761D01*
X20452095Y-3178952D01*
X20428285Y-3155142D01*
X20404476Y-3107523D01*
X20356857Y-3631333D02*
X20690190Y-3631333D01*
X20166380Y-3512285D02*
X20523523Y-3393238D01*
X20523523Y-3702761D01*
X-2726571Y-20642571D02*
X-2702761Y-20666380D01*
X-2631333Y-20690190D01*
X-2583714Y-20690190D01*
X-2512285Y-20666380D01*
X-2464666Y-20618761D01*
X-2440857Y-20571142D01*
X-2417047Y-20475904D01*
X-2417047Y-20404476D01*
X-2440857Y-20309238D01*
X-2464666Y-20261619D01*
X-2512285Y-20214000D01*
X-2583714Y-20190190D01*
X-2631333Y-20190190D01*
X-2702761Y-20214000D01*
X-2726571Y-20237809D01*
X-2917047Y-20237809D02*
X-2940857Y-20214000D01*
X-2988476Y-20190190D01*
X-3107523Y-20190190D01*
X-3155142Y-20214000D01*
X-3178952Y-20237809D01*
X-3202761Y-20285428D01*
X-3202761Y-20333047D01*
X-3178952Y-20404476D01*
X-2893238Y-20690190D01*
X-3202761Y-20690190D01*
X-3488476Y-20404476D02*
X-3440857Y-20380666D01*
X-3417047Y-20356857D01*
X-3393238Y-20309238D01*
X-3393238Y-20285428D01*
X-3417047Y-20237809D01*
X-3440857Y-20214000D01*
X-3488476Y-20190190D01*
X-3583714Y-20190190D01*
X-3631333Y-20214000D01*
X-3655142Y-20237809D01*
X-3678952Y-20285428D01*
X-3678952Y-20309238D01*
X-3655142Y-20356857D01*
X-3631333Y-20380666D01*
X-3583714Y-20404476D01*
X-3488476Y-20404476D01*
X-3440857Y-20428285D01*
X-3417047Y-20452095D01*
X-3393238Y-20499714D01*
X-3393238Y-20594952D01*
X-3417047Y-20642571D01*
X-3440857Y-20666380D01*
X-3488476Y-20690190D01*
X-3583714Y-20690190D01*
X-3631333Y-20666380D01*
X-3655142Y-20642571D01*
X-3678952Y-20594952D01*
X-3678952Y-20499714D01*
X-3655142Y-20452095D01*
X-3631333Y-20428285D01*
X-3583714Y-20404476D01*
X-8653809Y23717142D02*
X-8249047Y23717142D01*
X-8201428Y23693333D01*
X-8177619Y23669523D01*
X-8153809Y23621904D01*
X-8153809Y23526666D01*
X-8177619Y23479047D01*
X-8201428Y23455238D01*
X-8249047Y23431428D01*
X-8653809Y23431428D01*
X-8153809Y22931428D02*
X-8153809Y23217142D01*
X-8153809Y23074285D02*
X-8653809Y23074285D01*
X-8582380Y23121904D01*
X-8534761Y23169523D01*
X-8510952Y23217142D01*
X-8153809Y22455238D02*
X-8153809Y22740952D01*
X-8153809Y22598095D02*
X-8653809Y22598095D01*
X-8582380Y22645714D01*
X-8534761Y22693333D01*
X-8510952Y22740952D01*
X-8606190Y22264761D02*
X-8630000Y22240952D01*
X-8653809Y22193333D01*
X-8653809Y22074285D01*
X-8630000Y22026666D01*
X-8606190Y22002857D01*
X-8558571Y21979047D01*
X-8510952Y21979047D01*
X-8439523Y22002857D01*
X-8153809Y22288571D01*
X-8153809Y21979047D01*
X542571Y21149428D02*
X566380Y21173238D01*
X590190Y21244666D01*
X590190Y21292285D01*
X566380Y21363714D01*
X518761Y21411333D01*
X471142Y21435142D01*
X375904Y21458952D01*
X304476Y21458952D01*
X209238Y21435142D01*
X161619Y21411333D01*
X114000Y21363714D01*
X90190Y21292285D01*
X90190Y21244666D01*
X114000Y21173238D01*
X137809Y21149428D01*
X590190Y20673238D02*
X590190Y20958952D01*
X590190Y20816095D02*
X90190Y20816095D01*
X161619Y20863714D01*
X209238Y20911333D01*
X233047Y20958952D01*
X137809Y20482761D02*
X113999Y20458952D01*
X90190Y20411333D01*
X90190Y20292285D01*
X113999Y20244666D01*
X137809Y20220857D01*
X185428Y20197047D01*
X233047Y20197047D01*
X304476Y20220857D01*
X590190Y20506571D01*
X590190Y20197047D01*
X3369428Y20285428D02*
X3393238Y20261619D01*
X3464666Y20237809D01*
X3512285Y20237809D01*
X3583714Y20261619D01*
X3631333Y20309238D01*
X3655142Y20356857D01*
X3678952Y20452095D01*
X3678952Y20523523D01*
X3655142Y20618761D01*
X3631333Y20666380D01*
X3583714Y20714000D01*
X3512285Y20737809D01*
X3464666Y20737809D01*
X3393238Y20714000D01*
X3369428Y20690190D01*
X2893238Y20237809D02*
X3178952Y20237809D01*
X3036095Y20237809D02*
X3036095Y20737809D01*
X3083714Y20666380D01*
X3131333Y20618761D01*
X3178952Y20594952D01*
X2417047Y20237809D02*
X2702761Y20237809D01*
X2559904Y20237809D02*
X2559904Y20737809D01*
X2607523Y20666380D01*
X2655142Y20618761D01*
X2702761Y20594952D01*
X31122857Y-13486190D02*
X31122857Y-13843333D01*
X31146666Y-13914761D01*
X31194285Y-13962380D01*
X31265714Y-13986190D01*
X31313333Y-13986190D01*
X30908571Y-13533809D02*
X30884761Y-13510000D01*
X30837142Y-13486190D01*
X30718095Y-13486190D01*
X30670476Y-13510000D01*
X30646666Y-13533809D01*
X30622857Y-13581428D01*
X30622857Y-13629047D01*
X30646666Y-13700476D01*
X30932380Y-13986190D01*
X30622857Y-13986190D01*
X30313333Y-13486190D02*
X30265714Y-13486190D01*
X30218095Y-13510000D01*
X30194285Y-13533809D01*
X30170476Y-13581428D01*
X30146666Y-13676666D01*
X30146666Y-13795714D01*
X30170476Y-13890952D01*
X30194285Y-13938571D01*
X30218095Y-13962380D01*
X30265714Y-13986190D01*
X30313333Y-13986190D01*
X30360952Y-13962380D01*
X30384761Y-13938571D01*
X30408571Y-13890952D01*
X30432380Y-13795714D01*
X30432380Y-13676666D01*
X30408571Y-13581428D01*
X30384761Y-13533809D01*
X30360952Y-13510000D01*
X30313333Y-13486190D01*
X29860952Y-13700476D02*
X29908571Y-13676666D01*
X29932380Y-13652857D01*
X29956190Y-13605238D01*
X29956190Y-13581428D01*
X29932380Y-13533809D01*
X29908571Y-13510000D01*
X29860952Y-13486190D01*
X29765714Y-13486190D01*
X29718095Y-13510000D01*
X29694285Y-13533809D01*
X29670476Y-13581428D01*
X29670476Y-13605238D01*
X29694285Y-13652857D01*
X29718095Y-13676666D01*
X29765714Y-13700476D01*
X29860952Y-13700476D01*
X29908571Y-13724285D01*
X29932380Y-13748095D01*
X29956190Y-13795714D01*
X29956190Y-13890952D01*
X29932380Y-13938571D01*
X29908571Y-13962380D01*
X29860952Y-13986190D01*
X29765714Y-13986190D01*
X29718095Y-13962380D01*
X29694285Y-13938571D01*
X29670476Y-13890952D01*
X29670476Y-13795714D01*
X29694285Y-13748095D01*
X29718095Y-13724285D01*
X29765714Y-13700476D01*
X23717142Y8653809D02*
X23717142Y8249047D01*
X23693333Y8201428D01*
X23669523Y8177619D01*
X23621904Y8153809D01*
X23526666Y8153809D01*
X23479047Y8177619D01*
X23455238Y8201428D01*
X23431428Y8249047D01*
X23431428Y8653809D01*
X22931428Y8153809D02*
X23217142Y8153809D01*
X23074285Y8153809D02*
X23074285Y8653809D01*
X23121904Y8582380D01*
X23169523Y8534761D01*
X23217142Y8510952D01*
X22455238Y8153809D02*
X22740952Y8153809D01*
X22598095Y8153809D02*
X22598095Y8653809D01*
X22645714Y8582380D01*
X22693333Y8534761D01*
X22740952Y8510952D01*
X22026666Y8653809D02*
X22121904Y8653809D01*
X22169523Y8630000D01*
X22193333Y8606190D01*
X22240952Y8534761D01*
X22264761Y8439523D01*
X22264761Y8249047D01*
X22240952Y8201428D01*
X22217142Y8177619D01*
X22169523Y8153809D01*
X22074285Y8153809D01*
X22026666Y8177619D01*
X22002857Y8201428D01*
X21979047Y8249047D01*
X21979047Y8368095D01*
X22002857Y8415714D01*
X22026666Y8439523D01*
X22074285Y8463333D01*
X22169523Y8463333D01*
X22217142Y8439523D01*
X22240952Y8415714D01*
X22264761Y8368095D01*
X-20506571Y185428D02*
X-20482761Y161619D01*
X-20411333Y137809D01*
X-20363714Y137809D01*
X-20292285Y161619D01*
X-20244666Y209238D01*
X-20220857Y256857D01*
X-20197047Y352095D01*
X-20197047Y423523D01*
X-20220857Y518761D01*
X-20244666Y566380D01*
X-20292285Y614000D01*
X-20363714Y637809D01*
X-20411333Y637809D01*
X-20482761Y614000D01*
X-20506571Y590190D01*
X-20744666Y137809D02*
X-20839904Y137809D01*
X-20887523Y161619D01*
X-20911333Y185428D01*
X-20958952Y256857D01*
X-20982761Y352095D01*
X-20982761Y542571D01*
X-20958952Y590190D01*
X-20935142Y614000D01*
X-20887523Y637809D01*
X-20792285Y637809D01*
X-20744666Y614000D01*
X-20720857Y590190D01*
X-20697047Y542571D01*
X-20697047Y423523D01*
X-20720857Y375904D01*
X-20744666Y352095D01*
X-20792285Y328285D01*
X-20887523Y328285D01*
X-20935142Y352095D01*
X-20958952Y375904D01*
X-20982761Y423523D01*
X-21149428Y637809D02*
X-21482761Y637809D01*
X-21268476Y137809D01*
X21149428Y-542571D02*
X21173238Y-566380D01*
X21244666Y-590190D01*
X21292285Y-590190D01*
X21363714Y-566380D01*
X21411333Y-518761D01*
X21435142Y-471142D01*
X21458952Y-375904D01*
X21458952Y-304476D01*
X21435142Y-209238D01*
X21411333Y-161619D01*
X21363714Y-114000D01*
X21292285Y-90190D01*
X21244666Y-90190D01*
X21173238Y-114000D01*
X21149428Y-137809D01*
X20863714Y-304476D02*
X20911333Y-280666D01*
X20935142Y-256857D01*
X20958952Y-209238D01*
X20958952Y-185428D01*
X20935142Y-137809D01*
X20911333Y-114000D01*
X20863714Y-90190D01*
X20768476Y-90190D01*
X20720857Y-114000D01*
X20697047Y-137809D01*
X20673238Y-185428D01*
X20673238Y-209238D01*
X20697047Y-256857D01*
X20720857Y-280666D01*
X20768476Y-304476D01*
X20863714Y-304476D01*
X20911333Y-328285D01*
X20935142Y-352095D01*
X20958952Y-399714D01*
X20958952Y-494952D01*
X20935142Y-542571D01*
X20911333Y-566380D01*
X20863714Y-590190D01*
X20768476Y-590190D01*
X20720857Y-566380D01*
X20697047Y-542571D01*
X20673238Y-494952D01*
X20673238Y-399714D01*
X20697047Y-352095D01*
X20720857Y-328285D01*
X20768476Y-304476D01*
X20220857Y-90190D02*
X20458952Y-90190D01*
X20482761Y-328285D01*
X20458952Y-304476D01*
X20411333Y-280666D01*
X20292285Y-280666D01*
X20244666Y-304476D01*
X20220857Y-328285D01*
X20197047Y-375904D01*
X20197047Y-494952D01*
X20220857Y-542571D01*
X20244666Y-566380D01*
X20292285Y-590190D01*
X20411333Y-590190D01*
X20458952Y-566380D01*
X20482761Y-542571D01*
X-2505428Y21149428D02*
X-2481619Y21173238D01*
X-2457809Y21244666D01*
X-2457809Y21292285D01*
X-2481619Y21363714D01*
X-2529238Y21411333D01*
X-2576857Y21435142D01*
X-2672095Y21458952D01*
X-2743523Y21458952D01*
X-2838761Y21435142D01*
X-2886380Y21411333D01*
X-2934000Y21363714D01*
X-2957809Y21292285D01*
X-2957809Y21244666D01*
X-2934000Y21173238D01*
X-2910190Y21149428D01*
X-2457809Y20673238D02*
X-2457809Y20958952D01*
X-2457809Y20816095D02*
X-2957809Y20816095D01*
X-2886380Y20863714D01*
X-2838761Y20911333D01*
X-2814952Y20958952D01*
X-2957809Y20506571D02*
X-2957809Y20197047D01*
X-2767333Y20363714D01*
X-2767333Y20292285D01*
X-2743523Y20244666D01*
X-2719714Y20220857D01*
X-2672095Y20197047D01*
X-2553047Y20197047D01*
X-2505428Y20220857D01*
X-2481619Y20244666D01*
X-2457809Y20292285D01*
X-2457809Y20435142D01*
X-2481619Y20482761D01*
X-2505428Y20506571D01*
X21149428Y9617428D02*
X21173238Y9593619D01*
X21244666Y9569809D01*
X21292285Y9569809D01*
X21363714Y9593619D01*
X21411333Y9641238D01*
X21435142Y9688857D01*
X21458952Y9784095D01*
X21458952Y9855523D01*
X21435142Y9950761D01*
X21411333Y9998380D01*
X21363714Y10046000D01*
X21292285Y10069809D01*
X21244666Y10069809D01*
X21173238Y10046000D01*
X21149428Y10022190D01*
X20863714Y9855523D02*
X20911333Y9879333D01*
X20935142Y9903142D01*
X20958952Y9950761D01*
X20958952Y9974571D01*
X20935142Y10022190D01*
X20911333Y10046000D01*
X20863714Y10069809D01*
X20768476Y10069809D01*
X20720857Y10046000D01*
X20697047Y10022190D01*
X20673238Y9974571D01*
X20673238Y9950761D01*
X20697047Y9903142D01*
X20720857Y9879333D01*
X20768476Y9855523D01*
X20863714Y9855523D01*
X20911333Y9831714D01*
X20935142Y9807904D01*
X20958952Y9760285D01*
X20958952Y9665047D01*
X20935142Y9617428D01*
X20911333Y9593619D01*
X20863714Y9569809D01*
X20768476Y9569809D01*
X20720857Y9593619D01*
X20697047Y9617428D01*
X20673238Y9665047D01*
X20673238Y9760285D01*
X20697047Y9807904D01*
X20720857Y9831714D01*
X20768476Y9855523D01*
X20387523Y9855523D02*
X20435142Y9879333D01*
X20458952Y9903142D01*
X20482761Y9950761D01*
X20482761Y9974571D01*
X20458952Y10022190D01*
X20435142Y10046000D01*
X20387523Y10069809D01*
X20292285Y10069809D01*
X20244666Y10046000D01*
X20220857Y10022190D01*
X20197047Y9974571D01*
X20197047Y9950761D01*
X20220857Y9903142D01*
X20244666Y9879333D01*
X20292285Y9855523D01*
X20387523Y9855523D01*
X20435142Y9831714D01*
X20458952Y9807904D01*
X20482761Y9760285D01*
X20482761Y9665047D01*
X20458952Y9617428D01*
X20435142Y9593619D01*
X20387523Y9569809D01*
X20292285Y9569809D01*
X20244666Y9593619D01*
X20220857Y9617428D01*
X20197047Y9665047D01*
X20197047Y9760285D01*
X20220857Y9807904D01*
X20244666Y9831714D01*
X20292285Y9855523D01*
X2862571Y-20506571D02*
X2886380Y-20482761D01*
X2910190Y-20411333D01*
X2910190Y-20363714D01*
X2886380Y-20292285D01*
X2838761Y-20244666D01*
X2791142Y-20220857D01*
X2695904Y-20197047D01*
X2624476Y-20197047D01*
X2529238Y-20220857D01*
X2481619Y-20244666D01*
X2434000Y-20292285D01*
X2410190Y-20363714D01*
X2410190Y-20411333D01*
X2434000Y-20482761D01*
X2457809Y-20506571D01*
X2410190Y-20673238D02*
X2410190Y-20982761D01*
X2600666Y-20816095D01*
X2600666Y-20887523D01*
X2624476Y-20935142D01*
X2648285Y-20958952D01*
X2695904Y-20982761D01*
X2814952Y-20982761D01*
X2862571Y-20958952D01*
X2886380Y-20935142D01*
X2910190Y-20887523D01*
X2910190Y-20744666D01*
X2886380Y-20697047D01*
X2862571Y-20673238D01*
X2457809Y-21173238D02*
X2434000Y-21197047D01*
X2410190Y-21244666D01*
X2410190Y-21363714D01*
X2434000Y-21411333D01*
X2457809Y-21435142D01*
X2505428Y-21458952D01*
X2553047Y-21458952D01*
X2624476Y-21435142D01*
X2910190Y-21149428D01*
X2910190Y-21458952D01*
X-185428Y-20506571D02*
X-161619Y-20482761D01*
X-137809Y-20411333D01*
X-137809Y-20363714D01*
X-161619Y-20292285D01*
X-209238Y-20244666D01*
X-256857Y-20220857D01*
X-352095Y-20197047D01*
X-423523Y-20197047D01*
X-518761Y-20220857D01*
X-566380Y-20244666D01*
X-614000Y-20292285D01*
X-637809Y-20363714D01*
X-637809Y-20411333D01*
X-614000Y-20482761D01*
X-590190Y-20506571D01*
X-590190Y-20697047D02*
X-614000Y-20720857D01*
X-637809Y-20768476D01*
X-637809Y-20887523D01*
X-614000Y-20935142D01*
X-590190Y-20958952D01*
X-542571Y-20982761D01*
X-494952Y-20982761D01*
X-423523Y-20958952D01*
X-137809Y-20673238D01*
X-137809Y-20982761D01*
X-137809Y-21220857D02*
X-137809Y-21316095D01*
X-161619Y-21363714D01*
X-185428Y-21387523D01*
X-256857Y-21435142D01*
X-352095Y-21458952D01*
X-542571Y-21458952D01*
X-590190Y-21435142D01*
X-614000Y-21411333D01*
X-637809Y-21363714D01*
X-637809Y-21268476D01*
X-614000Y-21220857D01*
X-590190Y-21197047D01*
X-542571Y-21173238D01*
X-423523Y-21173238D01*
X-375904Y-21197047D01*
X-352095Y-21220857D01*
X-328285Y-21268476D01*
X-328285Y-21363714D01*
X-352095Y-21411333D01*
X-375904Y-21435142D01*
X-423523Y-21458952D01*
X-29837142Y14033809D02*
X-29837142Y13676666D01*
X-29813333Y13605238D01*
X-29765714Y13557619D01*
X-29694285Y13533809D01*
X-29646666Y13533809D01*
X-30051428Y13986190D02*
X-30075238Y14010000D01*
X-30122857Y14033809D01*
X-30241904Y14033809D01*
X-30289523Y14010000D01*
X-30313333Y13986190D01*
X-30337142Y13938571D01*
X-30337142Y13890952D01*
X-30313333Y13819523D01*
X-30027619Y13533809D01*
X-30337142Y13533809D01*
X-30646666Y14033809D02*
X-30694285Y14033809D01*
X-30741904Y14010000D01*
X-30765714Y13986190D01*
X-30789523Y13938571D01*
X-30813333Y13843333D01*
X-30813333Y13724285D01*
X-30789523Y13629047D01*
X-30765714Y13581428D01*
X-30741904Y13557619D01*
X-30694285Y13533809D01*
X-30646666Y13533809D01*
X-30599047Y13557619D01*
X-30575238Y13581428D01*
X-30551428Y13629047D01*
X-30527619Y13724285D01*
X-30527619Y13843333D01*
X-30551428Y13938571D01*
X-30575238Y13986190D01*
X-30599047Y14010000D01*
X-30646666Y14033809D01*
X-31241904Y13867142D02*
X-31241904Y13533809D01*
X-31122857Y14057619D02*
X-31003809Y13700476D01*
X-31313333Y13700476D01*
X-22002857Y-8106190D02*
X-22002857Y-8510952D01*
X-22026666Y-8558571D01*
X-22050476Y-8582380D01*
X-22098095Y-8606190D01*
X-22193333Y-8606190D01*
X-22240952Y-8582380D01*
X-22264761Y-8558571D01*
X-22288571Y-8510952D01*
X-22288571Y-8106190D01*
X-22788571Y-8606190D02*
X-22502857Y-8606190D01*
X-22645714Y-8606190D02*
X-22645714Y-8106190D01*
X-22598095Y-8177619D01*
X-22550476Y-8225238D01*
X-22502857Y-8249047D01*
X-23098095Y-8106190D02*
X-23145714Y-8106190D01*
X-23193333Y-8130000D01*
X-23217142Y-8153809D01*
X-23240952Y-8201428D01*
X-23264761Y-8296666D01*
X-23264761Y-8415714D01*
X-23240952Y-8510952D01*
X-23217142Y-8558571D01*
X-23193333Y-8582380D01*
X-23145714Y-8606190D01*
X-23098095Y-8606190D01*
X-23050476Y-8582380D01*
X-23026666Y-8558571D01*
X-23002857Y-8510952D01*
X-22979047Y-8415714D01*
X-22979047Y-8296666D01*
X-23002857Y-8201428D01*
X-23026666Y-8153809D01*
X-23050476Y-8130000D01*
X-23098095Y-8106190D01*
X-23550476Y-8320476D02*
X-23502857Y-8296666D01*
X-23479047Y-8272857D01*
X-23455238Y-8225238D01*
X-23455238Y-8201428D01*
X-23479047Y-8153809D01*
X-23502857Y-8130000D01*
X-23550476Y-8106190D01*
X-23645714Y-8106190D01*
X-23693333Y-8130000D01*
X-23717142Y-8153809D01*
X-23740952Y-8201428D01*
X-23740952Y-8225238D01*
X-23717142Y-8272857D01*
X-23693333Y-8296666D01*
X-23645714Y-8320476D01*
X-23550476Y-8320476D01*
X-23502857Y-8344285D01*
X-23479047Y-8368095D01*
X-23455238Y-8415714D01*
X-23455238Y-8510952D01*
X-23479047Y-8558571D01*
X-23502857Y-8582380D01*
X-23550476Y-8606190D01*
X-23645714Y-8606190D01*
X-23693333Y-8582380D01*
X-23717142Y-8558571D01*
X-23740952Y-8510952D01*
X-23740952Y-8415714D01*
X-23717142Y-8368095D01*
X-23693333Y-8344285D01*
X-23645714Y-8320476D01*
X1506190Y23717142D02*
X1910952Y23717142D01*
X1958571Y23693333D01*
X1982380Y23669523D01*
X2006190Y23621904D01*
X2006190Y23526666D01*
X1982380Y23479047D01*
X1958571Y23455238D01*
X1910952Y23431428D01*
X1506190Y23431428D01*
X2006190Y22931428D02*
X2006190Y23217142D01*
X2006190Y23074285D02*
X1506190Y23074285D01*
X1577619Y23121904D01*
X1625238Y23169523D01*
X1649047Y23217142D01*
X2006190Y22455238D02*
X2006190Y22740952D01*
X2006190Y22598095D02*
X1506190Y22598095D01*
X1577619Y22645714D01*
X1625238Y22693333D01*
X1649047Y22740952D01*
X2006190Y21979047D02*
X2006190Y22264761D01*
X2006190Y22121904D02*
X1506190Y22121904D01*
X1577619Y22169523D01*
X1625238Y22217142D01*
X1649047Y22264761D01*
X-7297428Y-20506571D02*
X-7273619Y-20482761D01*
X-7249809Y-20411333D01*
X-7249809Y-20363714D01*
X-7273619Y-20292285D01*
X-7321238Y-20244666D01*
X-7368857Y-20220857D01*
X-7464095Y-20197047D01*
X-7535523Y-20197047D01*
X-7630761Y-20220857D01*
X-7678380Y-20244666D01*
X-7726000Y-20292285D01*
X-7749809Y-20363714D01*
X-7749809Y-20411333D01*
X-7726000Y-20482761D01*
X-7702190Y-20506571D01*
X-7702190Y-20697047D02*
X-7726000Y-20720857D01*
X-7749809Y-20768476D01*
X-7749809Y-20887523D01*
X-7726000Y-20935142D01*
X-7702190Y-20958952D01*
X-7654571Y-20982761D01*
X-7606952Y-20982761D01*
X-7535523Y-20958952D01*
X-7249809Y-20673238D01*
X-7249809Y-20982761D01*
X-7749809Y-21149428D02*
X-7749809Y-21482761D01*
X-7249809Y-21268476D01*
X11991590Y-10495621D02*
X12025262Y-10495621D01*
X12092605Y-10461949D01*
X12126277Y-10428278D01*
X12159949Y-10360934D01*
X12159949Y-10293591D01*
X12143113Y-10243083D01*
X12092605Y-10158904D01*
X12042098Y-10108396D01*
X11957918Y-10057888D01*
X11907411Y-10041053D01*
X11840067Y-10041053D01*
X11772724Y-10074724D01*
X11739052Y-10108396D01*
X11705380Y-10175740D01*
X11705380Y-10209411D01*
X11553857Y-10293591D02*
X11318155Y-10529293D01*
X11823231Y-10731324D01*
X11015109Y-10832339D02*
X11183468Y-10663980D01*
X11368662Y-10815503D01*
X11334991Y-10815503D01*
X11284483Y-10832339D01*
X11200304Y-10916518D01*
X11183468Y-10967026D01*
X11183468Y-11000698D01*
X11200304Y-11051205D01*
X11284483Y-11135385D01*
X11334991Y-11152220D01*
X11368662Y-11152220D01*
X11419170Y-11135385D01*
X11503349Y-11051205D01*
X11520185Y-11000698D01*
X11520185Y-10967026D01*
X-14033809Y-29837142D02*
X-13676666Y-29837142D01*
X-13605238Y-29813333D01*
X-13557619Y-29765714D01*
X-13533809Y-29694285D01*
X-13533809Y-29646666D01*
X-13986190Y-30051428D02*
X-14010000Y-30075238D01*
X-14033809Y-30122857D01*
X-14033809Y-30241904D01*
X-14010000Y-30289523D01*
X-13986190Y-30313333D01*
X-13938571Y-30337142D01*
X-13890952Y-30337142D01*
X-13819523Y-30313333D01*
X-13533809Y-30027619D01*
X-13533809Y-30337142D01*
X-14033809Y-30646666D02*
X-14033809Y-30694285D01*
X-14010000Y-30741904D01*
X-13986190Y-30765714D01*
X-13938571Y-30789523D01*
X-13843333Y-30813333D01*
X-13724285Y-30813333D01*
X-13629047Y-30789523D01*
X-13581428Y-30765714D01*
X-13557619Y-30741904D01*
X-13533809Y-30694285D01*
X-13533809Y-30646666D01*
X-13557619Y-30599047D01*
X-13581428Y-30575238D01*
X-13629047Y-30551428D01*
X-13724285Y-30527619D01*
X-13843333Y-30527619D01*
X-13938571Y-30551428D01*
X-13986190Y-30575238D01*
X-14010000Y-30599047D01*
X-14033809Y-30646666D01*
X-13986190Y-31003809D02*
X-14010000Y-31027619D01*
X-14033809Y-31075238D01*
X-14033809Y-31194285D01*
X-14010000Y-31241904D01*
X-13986190Y-31265714D01*
X-13938571Y-31289523D01*
X-13890952Y-31289523D01*
X-13819523Y-31265714D01*
X-13533809Y-30980000D01*
X-13533809Y-31289523D01*
X8106190Y-22002857D02*
X8510952Y-22002857D01*
X8558571Y-22026666D01*
X8582380Y-22050476D01*
X8606190Y-22098095D01*
X8606190Y-22193333D01*
X8582380Y-22240952D01*
X8558571Y-22264761D01*
X8510952Y-22288571D01*
X8106190Y-22288571D01*
X8606190Y-22788571D02*
X8606190Y-22502857D01*
X8606190Y-22645714D02*
X8106190Y-22645714D01*
X8177619Y-22598095D01*
X8225238Y-22550476D01*
X8249047Y-22502857D01*
X8106190Y-23098095D02*
X8106190Y-23145714D01*
X8130000Y-23193333D01*
X8153809Y-23217142D01*
X8201428Y-23240952D01*
X8296666Y-23264761D01*
X8415714Y-23264761D01*
X8510952Y-23240952D01*
X8558571Y-23217142D01*
X8582380Y-23193333D01*
X8606190Y-23145714D01*
X8606190Y-23098095D01*
X8582380Y-23050476D01*
X8558571Y-23026666D01*
X8510952Y-23002857D01*
X8415714Y-22979047D01*
X8296666Y-22979047D01*
X8201428Y-23002857D01*
X8153809Y-23026666D01*
X8130000Y-23050476D01*
X8106190Y-23098095D01*
X8272857Y-23693333D02*
X8606190Y-23693333D01*
X8082380Y-23574285D02*
X8439523Y-23455238D01*
X8439523Y-23764761D01*
X-20285428Y-6790571D02*
X-20261619Y-6766761D01*
X-20237809Y-6695333D01*
X-20237809Y-6647714D01*
X-20261619Y-6576285D01*
X-20309238Y-6528666D01*
X-20356857Y-6504857D01*
X-20452095Y-6481047D01*
X-20523523Y-6481047D01*
X-20618761Y-6504857D01*
X-20666380Y-6528666D01*
X-20714000Y-6576285D01*
X-20737809Y-6647714D01*
X-20737809Y-6695333D01*
X-20714000Y-6766761D01*
X-20690190Y-6790571D01*
X-20237809Y-7028666D02*
X-20237809Y-7123904D01*
X-20261619Y-7171523D01*
X-20285428Y-7195333D01*
X-20356857Y-7242952D01*
X-20452095Y-7266761D01*
X-20642571Y-7266761D01*
X-20690190Y-7242952D01*
X-20714000Y-7219142D01*
X-20737809Y-7171523D01*
X-20737809Y-7076285D01*
X-20714000Y-7028666D01*
X-20690190Y-7004857D01*
X-20642571Y-6981047D01*
X-20523523Y-6981047D01*
X-20475904Y-7004857D01*
X-20452095Y-7028666D01*
X-20428285Y-7076285D01*
X-20428285Y-7171523D01*
X-20452095Y-7219142D01*
X-20475904Y-7242952D01*
X-20523523Y-7266761D01*
X-20237809Y-7504857D02*
X-20237809Y-7600095D01*
X-20261619Y-7647714D01*
X-20285428Y-7671523D01*
X-20356857Y-7719142D01*
X-20452095Y-7742952D01*
X-20642571Y-7742952D01*
X-20690190Y-7719142D01*
X-20714000Y-7695333D01*
X-20737809Y-7647714D01*
X-20737809Y-7552476D01*
X-20714000Y-7504857D01*
X-20690190Y-7481047D01*
X-20642571Y-7457238D01*
X-20523523Y-7457238D01*
X-20475904Y-7481047D01*
X-20452095Y-7504857D01*
X-20428285Y-7552476D01*
X-20428285Y-7647714D01*
X-20452095Y-7695333D01*
X-20475904Y-7719142D01*
X-20523523Y-7742952D01*
X7654571Y21149428D02*
X7678380Y21173238D01*
X7702190Y21244666D01*
X7702190Y21292285D01*
X7678380Y21363714D01*
X7630761Y21411333D01*
X7583142Y21435142D01*
X7487904Y21458952D01*
X7416476Y21458952D01*
X7321238Y21435142D01*
X7273619Y21411333D01*
X7226000Y21363714D01*
X7202190Y21292285D01*
X7202190Y21244666D01*
X7226000Y21173238D01*
X7249809Y21149428D01*
X7702190Y20673238D02*
X7702190Y20958952D01*
X7702190Y20816095D02*
X7202190Y20816095D01*
X7273619Y20863714D01*
X7321238Y20911333D01*
X7345047Y20958952D01*
X7202190Y20363714D02*
X7202190Y20316095D01*
X7226000Y20268476D01*
X7249809Y20244666D01*
X7297428Y20220857D01*
X7392666Y20197047D01*
X7511714Y20197047D01*
X7606952Y20220857D01*
X7654571Y20244666D01*
X7678380Y20268476D01*
X7702190Y20316095D01*
X7702190Y20363714D01*
X7678380Y20411333D01*
X7654571Y20435142D01*
X7606952Y20458952D01*
X7511714Y20482761D01*
X7392666Y20482761D01*
X7297428Y20458952D01*
X7249809Y20435142D01*
X7226000Y20411333D01*
X7202190Y20363714D01*
X7433428Y-20642571D02*
X7457238Y-20666380D01*
X7528666Y-20690190D01*
X7576285Y-20690190D01*
X7647714Y-20666380D01*
X7695333Y-20618761D01*
X7719142Y-20571142D01*
X7742952Y-20475904D01*
X7742952Y-20404476D01*
X7719142Y-20309238D01*
X7695333Y-20261619D01*
X7647714Y-20214000D01*
X7576285Y-20190190D01*
X7528666Y-20190190D01*
X7457238Y-20214000D01*
X7433428Y-20237809D01*
X7266761Y-20190190D02*
X6957238Y-20190190D01*
X7123904Y-20380666D01*
X7052476Y-20380666D01*
X7004857Y-20404476D01*
X6981047Y-20428285D01*
X6957238Y-20475904D01*
X6957238Y-20594952D01*
X6981047Y-20642571D01*
X7004857Y-20666380D01*
X7052476Y-20690190D01*
X7195333Y-20690190D01*
X7242952Y-20666380D01*
X7266761Y-20642571D01*
X6790571Y-20190190D02*
X6481047Y-20190190D01*
X6647714Y-20380666D01*
X6576285Y-20380666D01*
X6528666Y-20404476D01*
X6504857Y-20428285D01*
X6481047Y-20475904D01*
X6481047Y-20594952D01*
X6504857Y-20642571D01*
X6528666Y-20666380D01*
X6576285Y-20690190D01*
X6719142Y-20690190D01*
X6766761Y-20666380D01*
X6790571Y-20642571D01*
X-20506571Y-2862571D02*
X-20482761Y-2886380D01*
X-20411333Y-2910190D01*
X-20363714Y-2910190D01*
X-20292285Y-2886380D01*
X-20244666Y-2838761D01*
X-20220857Y-2791142D01*
X-20197047Y-2695904D01*
X-20197047Y-2624476D01*
X-20220857Y-2529238D01*
X-20244666Y-2481619D01*
X-20292285Y-2434000D01*
X-20363714Y-2410190D01*
X-20411333Y-2410190D01*
X-20482761Y-2434000D01*
X-20506571Y-2457809D01*
X-20744666Y-2910190D02*
X-20839904Y-2910190D01*
X-20887523Y-2886380D01*
X-20911333Y-2862571D01*
X-20958952Y-2791142D01*
X-20982761Y-2695904D01*
X-20982761Y-2505428D01*
X-20958952Y-2457809D01*
X-20935142Y-2434000D01*
X-20887523Y-2410190D01*
X-20792285Y-2410190D01*
X-20744666Y-2434000D01*
X-20720857Y-2457809D01*
X-20697047Y-2505428D01*
X-20697047Y-2624476D01*
X-20720857Y-2672095D01*
X-20744666Y-2695904D01*
X-20792285Y-2719714D01*
X-20887523Y-2719714D01*
X-20935142Y-2695904D01*
X-20958952Y-2672095D01*
X-20982761Y-2624476D01*
X-21268476Y-2624476D02*
X-21220857Y-2600666D01*
X-21197047Y-2576857D01*
X-21173238Y-2529238D01*
X-21173238Y-2505428D01*
X-21197047Y-2457809D01*
X-21220857Y-2434000D01*
X-21268476Y-2410190D01*
X-21363714Y-2410190D01*
X-21411333Y-2434000D01*
X-21435142Y-2457809D01*
X-21458952Y-2505428D01*
X-21458952Y-2529238D01*
X-21435142Y-2576857D01*
X-21411333Y-2600666D01*
X-21363714Y-2624476D01*
X-21268476Y-2624476D01*
X-21220857Y-2648285D01*
X-21197047Y-2672095D01*
X-21173238Y-2719714D01*
X-21173238Y-2814952D01*
X-21197047Y-2862571D01*
X-21220857Y-2886380D01*
X-21268476Y-2910190D01*
X-21363714Y-2910190D01*
X-21411333Y-2886380D01*
X-21435142Y-2862571D01*
X-21458952Y-2814952D01*
X-21458952Y-2719714D01*
X-21435142Y-2672095D01*
X-21411333Y-2648285D01*
X-21363714Y-2624476D01*
X20642571Y7433428D02*
X20666380Y7457238D01*
X20690190Y7528666D01*
X20690190Y7576285D01*
X20666380Y7647714D01*
X20618761Y7695333D01*
X20571142Y7719142D01*
X20475904Y7742952D01*
X20404476Y7742952D01*
X20309238Y7719142D01*
X20261619Y7695333D01*
X20214000Y7647714D01*
X20190190Y7576285D01*
X20190190Y7528666D01*
X20214000Y7457238D01*
X20237809Y7433428D01*
X20404476Y7147714D02*
X20380666Y7195333D01*
X20356857Y7219142D01*
X20309238Y7242952D01*
X20285428Y7242952D01*
X20237809Y7219142D01*
X20214000Y7195333D01*
X20190190Y7147714D01*
X20190190Y7052476D01*
X20214000Y7004857D01*
X20237809Y6981047D01*
X20285428Y6957238D01*
X20309238Y6957238D01*
X20356857Y6981047D01*
X20380666Y7004857D01*
X20404476Y7052476D01*
X20404476Y7147714D01*
X20428285Y7195333D01*
X20452095Y7219142D01*
X20499714Y7242952D01*
X20594952Y7242952D01*
X20642571Y7219142D01*
X20666380Y7195333D01*
X20690190Y7147714D01*
X20690190Y7052476D01*
X20666380Y7004857D01*
X20642571Y6981047D01*
X20594952Y6957238D01*
X20499714Y6957238D01*
X20452095Y6981047D01*
X20428285Y7004857D01*
X20404476Y7052476D01*
X20190190Y6790571D02*
X20190190Y6457238D01*
X20690190Y6671523D01*
X23717142Y-1506190D02*
X23717142Y-1910952D01*
X23693333Y-1958571D01*
X23669523Y-1982380D01*
X23621904Y-2006190D01*
X23526666Y-2006190D01*
X23479047Y-1982380D01*
X23455238Y-1958571D01*
X23431428Y-1910952D01*
X23431428Y-1506190D01*
X22931428Y-2006190D02*
X23217142Y-2006190D01*
X23074285Y-2006190D02*
X23074285Y-1506190D01*
X23121904Y-1577619D01*
X23169523Y-1625238D01*
X23217142Y-1649047D01*
X22455238Y-2006190D02*
X22740952Y-2006190D01*
X22598095Y-2006190D02*
X22598095Y-1506190D01*
X22645714Y-1577619D01*
X22693333Y-1625238D01*
X22740952Y-1649047D01*
X22002857Y-1506190D02*
X22240952Y-1506190D01*
X22264761Y-1744285D01*
X22240952Y-1720476D01*
X22193333Y-1696666D01*
X22074285Y-1696666D01*
X22026666Y-1720476D01*
X22002857Y-1744285D01*
X21979047Y-1791904D01*
X21979047Y-1910952D01*
X22002857Y-1958571D01*
X22026666Y-1982380D01*
X22074285Y-2006190D01*
X22193333Y-2006190D01*
X22240952Y-1982380D01*
X22264761Y-1958571D01*
X11444869Y-8437982D02*
X11731079Y-8151772D01*
X11781586Y-8134936D01*
X11815258Y-8134936D01*
X11865766Y-8151772D01*
X11933109Y-8219116D01*
X11949945Y-8269623D01*
X11949945Y-8303295D01*
X11933109Y-8353803D01*
X11646899Y-8640013D01*
X12017289Y-8707356D02*
X11966781Y-8690520D01*
X11933109Y-8690520D01*
X11882602Y-8707356D01*
X11865766Y-8724192D01*
X11848930Y-8774700D01*
X11848930Y-8808371D01*
X11865766Y-8858879D01*
X11933109Y-8926222D01*
X11983617Y-8943058D01*
X12017289Y-8943058D01*
X12067796Y-8926222D01*
X12084632Y-8909387D01*
X12101468Y-8858879D01*
X12101468Y-8825207D01*
X12084632Y-8774700D01*
X12017289Y-8707356D01*
X12000453Y-8656848D01*
X12000453Y-8623177D01*
X12017289Y-8572669D01*
X12084632Y-8505326D01*
X12135140Y-8488490D01*
X12168812Y-8488490D01*
X12219319Y-8505326D01*
X12286663Y-8572669D01*
X12303499Y-8623177D01*
X12303499Y-8656848D01*
X12286663Y-8707356D01*
X12219319Y-8774700D01*
X12168812Y-8791535D01*
X12135140Y-8791535D01*
X12084632Y-8774700D01*
X-6790571Y20285428D02*
X-6766761Y20261619D01*
X-6695333Y20237809D01*
X-6647714Y20237809D01*
X-6576285Y20261619D01*
X-6528666Y20309238D01*
X-6504857Y20356857D01*
X-6481047Y20452095D01*
X-6481047Y20523523D01*
X-6504857Y20618761D01*
X-6528666Y20666380D01*
X-6576285Y20714000D01*
X-6647714Y20737809D01*
X-6695333Y20737809D01*
X-6766761Y20714000D01*
X-6790571Y20690190D01*
X-7266761Y20237809D02*
X-6981047Y20237809D01*
X-7123904Y20237809D02*
X-7123904Y20737809D01*
X-7076285Y20666380D01*
X-7028666Y20618761D01*
X-6981047Y20594952D01*
X-7695333Y20571142D02*
X-7695333Y20237809D01*
X-7576285Y20761619D02*
X-7457238Y20404476D01*
X-7766761Y20404476D01*
X-20285428Y3369428D02*
X-20261619Y3393238D01*
X-20237809Y3464666D01*
X-20237809Y3512285D01*
X-20261619Y3583714D01*
X-20309238Y3631333D01*
X-20356857Y3655142D01*
X-20452095Y3678952D01*
X-20523523Y3678952D01*
X-20618761Y3655142D01*
X-20666380Y3631333D01*
X-20714000Y3583714D01*
X-20737809Y3512285D01*
X-20737809Y3464666D01*
X-20714000Y3393238D01*
X-20690190Y3369428D01*
X-20237809Y3131333D02*
X-20237809Y3036095D01*
X-20261619Y2988476D01*
X-20285428Y2964666D01*
X-20356857Y2917047D01*
X-20452095Y2893238D01*
X-20642571Y2893238D01*
X-20690190Y2917047D01*
X-20714000Y2940857D01*
X-20737809Y2988476D01*
X-20737809Y3083714D01*
X-20714000Y3131333D01*
X-20690190Y3155142D01*
X-20642571Y3178952D01*
X-20523523Y3178952D01*
X-20475904Y3155142D01*
X-20452095Y3131333D01*
X-20428285Y3083714D01*
X-20428285Y2988476D01*
X-20452095Y2940857D01*
X-20475904Y2917047D01*
X-20523523Y2893238D01*
X-20737809Y2464666D02*
X-20737809Y2559904D01*
X-20714000Y2607523D01*
X-20690190Y2631333D01*
X-20618761Y2678952D01*
X-20523523Y2702761D01*
X-20333047Y2702761D01*
X-20285428Y2678952D01*
X-20261619Y2655142D01*
X-20237809Y2607523D01*
X-20237809Y2512285D01*
X-20261619Y2464666D01*
X-20285428Y2440857D01*
X-20333047Y2417047D01*
X-20452095Y2417047D01*
X-20499714Y2440857D01*
X-20523523Y2464666D01*
X-20547333Y2512285D01*
X-20547333Y2607523D01*
X-20523523Y2655142D01*
X-20499714Y2678952D01*
X-20452095Y2702761D01*
X21149428Y2505428D02*
X21173238Y2481619D01*
X21244666Y2457809D01*
X21292285Y2457809D01*
X21363714Y2481619D01*
X21411333Y2529238D01*
X21435142Y2576857D01*
X21458952Y2672095D01*
X21458952Y2743523D01*
X21435142Y2838761D01*
X21411333Y2886380D01*
X21363714Y2934000D01*
X21292285Y2957809D01*
X21244666Y2957809D01*
X21173238Y2934000D01*
X21149428Y2910190D01*
X20863714Y2743523D02*
X20911333Y2767333D01*
X20935142Y2791142D01*
X20958952Y2838761D01*
X20958952Y2862571D01*
X20935142Y2910190D01*
X20911333Y2934000D01*
X20863714Y2957809D01*
X20768476Y2957809D01*
X20720857Y2934000D01*
X20697047Y2910190D01*
X20673238Y2862571D01*
X20673238Y2838761D01*
X20697047Y2791142D01*
X20720857Y2767333D01*
X20768476Y2743523D01*
X20863714Y2743523D01*
X20911333Y2719714D01*
X20935142Y2695904D01*
X20958952Y2648285D01*
X20958952Y2553047D01*
X20935142Y2505428D01*
X20911333Y2481619D01*
X20863714Y2457809D01*
X20768476Y2457809D01*
X20720857Y2481619D01*
X20697047Y2505428D01*
X20673238Y2553047D01*
X20673238Y2648285D01*
X20697047Y2695904D01*
X20720857Y2719714D01*
X20768476Y2743523D01*
X20244666Y2957809D02*
X20339904Y2957809D01*
X20387523Y2934000D01*
X20411333Y2910190D01*
X20458952Y2838761D01*
X20482761Y2743523D01*
X20482761Y2553047D01*
X20458952Y2505428D01*
X20435142Y2481619D01*
X20387523Y2457809D01*
X20292285Y2457809D01*
X20244666Y2481619D01*
X20220857Y2505428D01*
X20197047Y2553047D01*
X20197047Y2672095D01*
X20220857Y2719714D01*
X20244666Y2743523D01*
X20292285Y2767333D01*
X20387523Y2767333D01*
X20435142Y2743523D01*
X20458952Y2719714D01*
X20482761Y2672095D01*
X-20268476Y-9974571D02*
X-20244666Y-9998380D01*
X-20173238Y-10022190D01*
X-20125619Y-10022190D01*
X-20054190Y-9998380D01*
X-20006571Y-9950761D01*
X-19982761Y-9903142D01*
X-19958952Y-9807904D01*
X-19958952Y-9736476D01*
X-19982761Y-9641238D01*
X-20006571Y-9593619D01*
X-20054190Y-9546000D01*
X-20125619Y-9522190D01*
X-20173238Y-9522190D01*
X-20244666Y-9546000D01*
X-20268476Y-9569809D01*
X-20744666Y-10022190D02*
X-20458952Y-10022190D01*
X-20601809Y-10022190D02*
X-20601809Y-9522190D01*
X-20554190Y-9593619D01*
X-20506571Y-9641238D01*
X-20458952Y-9665047D01*
X-21054190Y-9522190D02*
X-21101809Y-9522190D01*
X-21149428Y-9546000D01*
X-21173238Y-9569809D01*
X-21197047Y-9617428D01*
X-21220857Y-9712666D01*
X-21220857Y-9831714D01*
X-21197047Y-9926952D01*
X-21173238Y-9974571D01*
X-21149428Y-9998380D01*
X-21101809Y-10022190D01*
X-21054190Y-10022190D01*
X-21006571Y-9998380D01*
X-20982761Y-9974571D01*
X-20958952Y-9926952D01*
X-20935142Y-9831714D01*
X-20935142Y-9712666D01*
X-20958952Y-9617428D01*
X-20982761Y-9569809D01*
X-21006571Y-9546000D01*
X-21054190Y-9522190D01*
X-21530380Y-9522190D02*
X-21578000Y-9522190D01*
X-21625619Y-9546000D01*
X-21649428Y-9569809D01*
X-21673238Y-9617428D01*
X-21697047Y-9712666D01*
X-21697047Y-9831714D01*
X-21673238Y-9926952D01*
X-21649428Y-9974571D01*
X-21625619Y-9998380D01*
X-21578000Y-10022190D01*
X-21530380Y-10022190D01*
X-21482761Y-9998380D01*
X-21458952Y-9974571D01*
X-21435142Y-9926952D01*
X-21411333Y-9831714D01*
X-21411333Y-9712666D01*
X-21435142Y-9617428D01*
X-21458952Y-9569809D01*
X-21482761Y-9546000D01*
X-21530380Y-9522190D01*
X9974571Y-20506571D02*
X9998380Y-20482761D01*
X10022190Y-20411333D01*
X10022190Y-20363714D01*
X9998380Y-20292285D01*
X9950761Y-20244666D01*
X9903142Y-20220857D01*
X9807904Y-20197047D01*
X9736476Y-20197047D01*
X9641238Y-20220857D01*
X9593619Y-20244666D01*
X9546000Y-20292285D01*
X9522190Y-20363714D01*
X9522190Y-20411333D01*
X9546000Y-20482761D01*
X9569809Y-20506571D01*
X9522190Y-20673238D02*
X9522190Y-20982761D01*
X9712666Y-20816095D01*
X9712666Y-20887523D01*
X9736476Y-20935142D01*
X9760285Y-20958952D01*
X9807904Y-20982761D01*
X9926952Y-20982761D01*
X9974571Y-20958952D01*
X9998380Y-20935142D01*
X10022190Y-20887523D01*
X10022190Y-20744666D01*
X9998380Y-20697047D01*
X9974571Y-20673238D01*
X9688857Y-21411333D02*
X10022190Y-21411333D01*
X9498380Y-21292285D02*
X9855523Y-21173238D01*
X9855523Y-21482761D01*
X13486190Y31122857D02*
X13843333Y31122857D01*
X13914761Y31146666D01*
X13962380Y31194285D01*
X13986190Y31265714D01*
X13986190Y31313333D01*
X13533809Y30908571D02*
X13510000Y30884761D01*
X13486190Y30837142D01*
X13486190Y30718095D01*
X13510000Y30670476D01*
X13533809Y30646666D01*
X13581428Y30622857D01*
X13629047Y30622857D01*
X13700476Y30646666D01*
X13986190Y30932380D01*
X13986190Y30622857D01*
X13486190Y30313333D02*
X13486190Y30265714D01*
X13510000Y30218095D01*
X13533809Y30194285D01*
X13581428Y30170476D01*
X13676666Y30146666D01*
X13795714Y30146666D01*
X13890952Y30170476D01*
X13938571Y30194285D01*
X13962380Y30218095D01*
X13986190Y30265714D01*
X13986190Y30313333D01*
X13962380Y30360952D01*
X13938571Y30384761D01*
X13890952Y30408571D01*
X13795714Y30432380D01*
X13676666Y30432380D01*
X13581428Y30408571D01*
X13533809Y30384761D01*
X13510000Y30360952D01*
X13486190Y30313333D01*
X13486190Y29718095D02*
X13486190Y29813333D01*
X13510000Y29860952D01*
X13533809Y29884761D01*
X13605238Y29932380D01*
X13700476Y29956190D01*
X13890952Y29956190D01*
X13938571Y29932380D01*
X13962380Y29908571D01*
X13986190Y29860952D01*
X13986190Y29765714D01*
X13962380Y29718095D01*
X13938571Y29694285D01*
X13890952Y29670476D01*
X13771904Y29670476D01*
X13724285Y29694285D01*
X13700476Y29718095D01*
X13676666Y29765714D01*
X13676666Y29860952D01*
X13700476Y29908571D01*
X13724285Y29932380D01*
X13771904Y29956190D01*
X24634838Y22339210D02*
X22548873Y20253245D01*
X21085162Y23343302D02*
X22357954Y24616094D01*
X-8668273Y10786522D02*
X-8898478Y11016727D01*
X-9389522Y10065273D02*
X-9619727Y10295478D01*
X-14389623Y0D02*
X-13647161Y742462D01*
X0Y14389623D02*
X742462Y13647161D01*
X0Y14389623D02*
X-742462Y13647161D01*
X14389623Y0D02*
X13647161Y742462D01*
X0Y-14389623D02*
X742462Y-13647161D01*
X0Y-14389623D02*
X-689429Y-13700194D01*
X14389623Y0D02*
X13647161Y-742462D01*
X-14389623Y0D02*
X-13647161Y-742462D01*
X-689429Y-13700194D02*
X-1608668Y-14619433D01*
X-17535305Y-10004618D02*
X-17284282Y-10255641D01*
X-23015382Y-15484695D02*
X-22764359Y-15735718D01*
X-15484695Y-23015382D02*
X-10004618Y-17535305D01*
X-23015382Y-15484695D02*
X-17535305Y-10004618D01*
X-15679150Y-22820928D02*
X-16757487Y-23899266D01*
X-15484695Y-23015382D02*
X-15679150Y-22820928D01*
X-10004618Y-17535305D02*
X-10255641Y-17284282D01*
X10401903Y10390139D02*
X13159619Y7632423D01*
X10401903Y10390139D02*
X11816117Y11804353D01*
X11816117Y11804353D02*
X14573833Y9046637D01*
X10635727Y8703888D02*
X10405522Y8473683D01*
X9914478Y9425137D02*
X9684273Y9194932D01*
X-6595522Y12224273D02*
X-6825727Y12454478D01*
X-5874273Y12945522D02*
X-6104478Y13175727D01*
X-15484695Y23015382D02*
X-15735718Y22764359D01*
X-10004618Y17535305D02*
X-10199072Y17340850D01*
X-10004618Y17535305D02*
X-15484695Y23015382D01*
X-17535305Y10004618D02*
X-23015382Y15484695D01*
X-17535305Y10004618D02*
X-17284282Y10255641D01*
X-23015382Y15484695D02*
X-22764359Y15735718D01*
X-10199072Y17340850D02*
X-9120734Y16262513D01*
X-20164155Y-25679588D02*
X-18856008Y-24371441D01*
X-18856008Y-24371441D02*
X-19174206Y-24053243D01*
X-20022734Y-22426897D02*
X-20340932Y-22745095D01*
X-20022734Y-22426897D02*
X-20340932Y-22108699D01*
X-21967278Y-27482711D02*
X-21790501Y-27305934D01*
X-25679588Y-20164155D02*
X-24371441Y-18856008D01*
X-27482711Y-21967278D02*
X-27305934Y-21790501D01*
X-24371441Y-18856008D02*
X-24053243Y-19174206D01*
X19213776Y-29115961D02*
X8465753Y-18367938D01*
X20981543Y-27348194D02*
X19213776Y-29115961D01*
X8465753Y-18367938D02*
X18365248Y-8468443D01*
X20274436Y-26641087D02*
X20981543Y-27348194D01*
X18365248Y-8468443D02*
X28406164Y-18509359D01*
X28406164Y-18509359D02*
X20274436Y-26641087D01*
X10408883Y10383159D02*
X7651167Y13140875D01*
X11823097Y11797373D02*
X9065381Y14555089D01*
X11823097Y11797373D02*
X10408883Y10383159D01*
X13744474Y5175392D02*
X13974679Y5405597D01*
X13023225Y5896641D02*
X13253430Y6126846D01*
X15802893Y22873961D02*
X22873961Y15802893D01*
X10146039Y17217107D02*
X15802893Y22873961D01*
X22873961Y15802893D02*
X17217107Y10146039D01*
X17217107Y10146039D02*
X10146039Y17217107D01*
D11*
X-7190000Y-21100000D02*
X-7190000Y-20750000D01*
X-7190000Y-20750000D02*
X-6840000Y-20750000D01*
X-2970000Y-24620000D02*
X-2970000Y-24970000D01*
X-2970000Y-21100000D02*
X-2970000Y-20750000D01*
X-7190000Y-24970000D02*
X-6840000Y-24970000D01*
X-2970000Y-20750000D02*
X-3320000Y-20750000D01*
X-7190000Y-24620000D02*
X-7190000Y-24970000D01*
X-24970000Y7190000D02*
X-24970000Y6840000D01*
X-21100000Y7190000D02*
X-20750000Y7190000D01*
X-24620000Y2970000D02*
X-24970000Y2970000D01*
X-20750000Y2970000D02*
X-20750000Y3320000D01*
X-24620000Y7190000D02*
X-24970000Y7190000D01*
X-20750000Y7190000D02*
X-20750000Y6840000D01*
X-21100000Y2970000D02*
X-20750000Y2970000D01*
X-20935836Y8276000D02*
X-20720164Y8276000D01*
X-20935836Y8996000D02*
X-20720164Y8996000D01*
X20935836Y-8276000D02*
X20720164Y-8276000D01*
X20935836Y-8996000D02*
X20720164Y-8996000D01*
X-8996000Y20935836D02*
X-8996000Y20720164D01*
X-8276000Y20935836D02*
X-8276000Y20720164D01*
X18944000Y-3155836D02*
X18944000Y-2940164D01*
X19664000Y-3155836D02*
X19664000Y-2940164D01*
X-3155836Y-18944000D02*
X-2940164Y-18944000D01*
X-3155836Y-19664000D02*
X-2940164Y-19664000D01*
X-7190000Y21100000D02*
X-7190000Y20750000D01*
X-2970000Y24620000D02*
X-2970000Y24970000D01*
X-2970000Y20750000D02*
X-3320000Y20750000D01*
X-2970000Y24970000D02*
X-3320000Y24970000D01*
X-7190000Y20750000D02*
X-6840000Y20750000D01*
X-2970000Y21100000D02*
X-2970000Y20750000D01*
X-7190000Y24620000D02*
X-7190000Y24970000D01*
X1884000Y20935836D02*
X1884000Y20720164D01*
X1164000Y20935836D02*
X1164000Y20720164D01*
X3155836Y18944000D02*
X2940164Y18944000D01*
X3155836Y19664000D02*
X2940164Y19664000D01*
X28715000Y-12760000D02*
X28715000Y-12695000D01*
X32245000Y-12760000D02*
X32245000Y-12695000D01*
X28715000Y12760000D02*
X32245000Y12760000D01*
X28715000Y12695000D02*
X28715000Y12760000D01*
X32245000Y12695000D02*
X32245000Y12760000D01*
X27390000Y-12695000D02*
X28715000Y-12695000D01*
X28715000Y-12760000D02*
X32245000Y-12760000D01*
X24620000Y2970000D02*
X24970000Y2970000D01*
X24620000Y7190000D02*
X24970000Y7190000D01*
X21100000Y2970000D02*
X20750000Y2970000D01*
X21100000Y7190000D02*
X20750000Y7190000D01*
X24970000Y2970000D02*
X24970000Y3320000D01*
X20750000Y7190000D02*
X20750000Y6840000D01*
X20750000Y2970000D02*
X20750000Y3320000D01*
X-20935836Y1164000D02*
X-20720164Y1164000D01*
X-20935836Y1884000D02*
X-20720164Y1884000D01*
X20935836Y-1164000D02*
X20720164Y-1164000D01*
X20935836Y-1884000D02*
X20720164Y-1884000D01*
X-1164000Y20935836D02*
X-1164000Y20720164D01*
X-1884000Y20935836D02*
X-1884000Y20720164D01*
X20935836Y8276000D02*
X20720164Y8276000D01*
X20935836Y8996000D02*
X20720164Y8996000D01*
X1884000Y-20935836D02*
X1884000Y-20720164D01*
X1164000Y-20935836D02*
X1164000Y-20720164D01*
X-1164000Y-20935836D02*
X-1164000Y-20720164D01*
X-1884000Y-20935836D02*
X-1884000Y-20720164D01*
X-28715000Y12760000D02*
X-28715000Y12695000D01*
X-32245000Y12760000D02*
X-32245000Y12695000D01*
X-28715000Y-12760000D02*
X-32245000Y-12760000D01*
X-28715000Y-12695000D02*
X-28715000Y-12760000D01*
X-32245000Y-12695000D02*
X-32245000Y-12760000D01*
X-27390000Y12695000D02*
X-28715000Y12695000D01*
X-28715000Y12760000D02*
X-32245000Y12760000D01*
X-20750000Y-7190000D02*
X-20750000Y-6840000D01*
X-24620000Y-7190000D02*
X-24970000Y-7190000D01*
X-21100000Y-7190000D02*
X-20750000Y-7190000D01*
X-21100000Y-2970000D02*
X-20750000Y-2970000D01*
X-24970000Y-2970000D02*
X-24970000Y-3320000D01*
X-20750000Y-2970000D02*
X-20750000Y-3320000D01*
X-24620000Y-2970000D02*
X-24970000Y-2970000D01*
X7190000Y20750000D02*
X6840000Y20750000D01*
X2970000Y20750000D02*
X3320000Y20750000D01*
X7190000Y24970000D02*
X6840000Y24970000D01*
X7190000Y24620000D02*
X7190000Y24970000D01*
X7190000Y21100000D02*
X7190000Y20750000D01*
X2970000Y21100000D02*
X2970000Y20750000D01*
X2970000Y24620000D02*
X2970000Y24970000D01*
X-8996000Y-20935836D02*
X-8996000Y-20720164D01*
X-8276000Y-20935836D02*
X-8276000Y-20720164D01*
X12387981Y-11147770D02*
X12189170Y-11346581D01*
X13109230Y-11869019D02*
X12910419Y-12067830D01*
X-12760000Y-28715000D02*
X-12695000Y-28715000D01*
X-12760000Y-32245000D02*
X-12695000Y-32245000D01*
X12760000Y-28715000D02*
X12760000Y-32245000D01*
X12695000Y-28715000D02*
X12760000Y-28715000D01*
X12695000Y-32245000D02*
X12760000Y-32245000D01*
X-12695000Y-27390000D02*
X-12695000Y-28715000D01*
X-12760000Y-28715000D02*
X-12760000Y-32245000D01*
X2970000Y-21100000D02*
X2970000Y-20750000D01*
X2970000Y-24970000D02*
X3320000Y-24970000D01*
X7190000Y-21100000D02*
X7190000Y-20750000D01*
X2970000Y-20750000D02*
X3320000Y-20750000D01*
X2970000Y-24620000D02*
X2970000Y-24970000D01*
X7190000Y-24620000D02*
X7190000Y-24970000D01*
X7190000Y-20750000D02*
X6840000Y-20750000D01*
X-18944000Y-7004164D02*
X-18944000Y-7219836D01*
X-19664000Y-7004164D02*
X-19664000Y-7219836D01*
X8996000Y20935836D02*
X8996000Y20720164D01*
X8276000Y20935836D02*
X8276000Y20720164D01*
X7004164Y-19664000D02*
X7219836Y-19664000D01*
X7004164Y-18944000D02*
X7219836Y-18944000D01*
X-20935836Y-1164000D02*
X-20720164Y-1164000D01*
X-20935836Y-1884000D02*
X-20720164Y-1884000D01*
X18944000Y7004164D02*
X18944000Y7219836D01*
X19664000Y7004164D02*
X19664000Y7219836D01*
X21100000Y-2970000D02*
X20750000Y-2970000D01*
X20750000Y-7190000D02*
X20750000Y-6840000D01*
X21100000Y-7190000D02*
X20750000Y-7190000D01*
X24970000Y-7190000D02*
X24970000Y-6840000D01*
X20750000Y-2970000D02*
X20750000Y-3320000D01*
X24620000Y-2970000D02*
X24970000Y-2970000D01*
X24620000Y-7190000D02*
X24970000Y-7190000D01*
X11313887Y-9107713D02*
X10748201Y-8542028D01*
X9107713Y-11313887D02*
X8542028Y-10748201D01*
X9107713Y-11313887D02*
X9673399Y-11879572D01*
X11313887Y-9107713D02*
X12586679Y-10380506D01*
X-7004164Y18944000D02*
X-7219836Y18944000D01*
X-7004164Y19664000D02*
X-7219836Y19664000D01*
X-19664000Y3155836D02*
X-19664000Y2940164D01*
X-18944000Y3155836D02*
X-18944000Y2940164D01*
X20935836Y1884000D02*
X20720164Y1884000D01*
X20935836Y1164000D02*
X20720164Y1164000D01*
X-20935836Y-8996000D02*
X-20720164Y-8996000D01*
X-20935836Y-8276000D02*
X-20720164Y-8276000D01*
X8996000Y-20935836D02*
X8996000Y-20720164D01*
X8276000Y-20935836D02*
X8276000Y-20720164D01*
X12760000Y28715000D02*
X12695000Y28715000D01*
X12760000Y32245000D02*
X12695000Y32245000D01*
X-12760000Y28715000D02*
X-12760000Y32245000D01*
X-12695000Y28715000D02*
X-12760000Y28715000D01*
X-12695000Y32245000D02*
X-12760000Y32245000D01*
X12695000Y27390000D02*
X12695000Y28715000D01*
X12760000Y28715000D02*
X12760000Y32245000D01*
M02*
