M48
; DRILL file {KiCad 5.99.0-unknown-243631a095~131~ubuntu18.04.1} date Sat Sep  4 20:13:26 2021
; FORMAT={-:-/ absolute / inch / decimal}
; #@! TF.CreationDate,2021-09-04T20:13:26+03:00
; #@! TF.GenerationSoftware,Kicad,Pcbnew,5.99.0-unknown-243631a095~131~ubuntu18.04.1
; #@! TF.FileFunction,Plated,1,4,PTH
FMAT,2
INCH
; #@! TA.AperFunction,Plated,PTH,ComponentDrill
T1C0.0079
; #@! TA.AperFunction,Plated,PTH,ViaDrill
T2C0.0157
; #@! TA.AperFunction,Plated,PTH,ComponentDrill
T3C0.0236
; #@! TA.AperFunction,Plated,PTH,ComponentDrill
T4C0.0335
; #@! TA.AperFunction,Plated,PTH,ComponentDrill
T5C0.0394
%
G90
G05
T1
X-0.9335Y0.2335
X-0.9335Y0.2335
X-0.9335Y0.2
X-0.9335Y0.2
X-0.9335Y0.1665
X-0.9335Y0.1665
X-0.9335Y-0.1665
X-0.9335Y-0.1665
X-0.9335Y-0.2
X-0.9335Y-0.2
X-0.9335Y-0.2335
X-0.9335Y-0.2335
X-0.9Y0.2335
X-0.9Y0.2335
X-0.9Y0.2
X-0.9Y0.2
X-0.9Y0.1665
X-0.9Y0.1665
X-0.9Y-0.1665
X-0.9Y-0.1665
X-0.9Y-0.2
X-0.9Y-0.2
X-0.9Y-0.2335
X-0.9Y-0.2335
X-0.8665Y0.2335
X-0.8665Y0.2335
X-0.8665Y0.2
X-0.8665Y0.2
X-0.8665Y0.1665
X-0.8665Y0.1665
X-0.8665Y-0.1665
X-0.8665Y-0.1665
X-0.8665Y-0.2
X-0.8665Y-0.2
X-0.8665Y-0.2335
X-0.8665Y-0.2335
X-0.2335Y0.9335
X-0.2335Y0.9335
X-0.2335Y0.9
X-0.2335Y0.9
X-0.2335Y0.8665
X-0.2335Y0.8665
X-0.2335Y-0.8665
X-0.2335Y-0.8665
X-0.2335Y-0.9
X-0.2335Y-0.9
X-0.2335Y-0.9335
X-0.2335Y-0.9335
X-0.2Y0.9335
X-0.2Y0.9335
X-0.2Y0.9
X-0.2Y0.9
X-0.2Y0.8665
X-0.2Y0.8665
X-0.2Y-0.8665
X-0.2Y-0.8665
X-0.2Y-0.9
X-0.2Y-0.9
X-0.2Y-0.9335
X-0.2Y-0.9335
X-0.1665Y0.9335
X-0.1665Y0.9335
X-0.1665Y0.9
X-0.1665Y0.9
X-0.1665Y0.8665
X-0.1665Y0.8665
X-0.1665Y-0.8665
X-0.1665Y-0.8665
X-0.1665Y-0.9
X-0.1665Y-0.9
X-0.1665Y-0.9335
X-0.1665Y-0.9335
X0.1665Y0.9335
X0.1665Y0.9335
X0.1665Y0.9
X0.1665Y0.9
X0.1665Y0.8665
X0.1665Y0.8665
X0.1665Y-0.8665
X0.1665Y-0.8665
X0.1665Y-0.9
X0.1665Y-0.9
X0.1665Y-0.9335
X0.1665Y-0.9335
X0.2Y0.9335
X0.2Y0.9335
X0.2Y0.9
X0.2Y0.9
X0.2Y0.8665
X0.2Y0.8665
X0.2Y-0.8665
X0.2Y-0.8665
X0.2Y-0.9
X0.2Y-0.9
X0.2Y-0.9335
X0.2Y-0.9335
X0.2335Y0.9335
X0.2335Y0.9335
X0.2335Y0.9
X0.2335Y0.9
X0.2335Y0.8665
X0.2335Y0.8665
X0.2335Y-0.8665
X0.2335Y-0.8665
X0.2335Y-0.9
X0.2335Y-0.9
X0.2335Y-0.9335
X0.2335Y-0.9335
X0.8665Y0.2335
X0.8665Y0.2335
X0.8665Y0.2
X0.8665Y0.2
X0.8665Y0.1665
X0.8665Y0.1665
X0.8665Y-0.1665
X0.8665Y-0.1665
X0.8665Y-0.2
X0.8665Y-0.2
X0.8665Y-0.2335
X0.8665Y-0.2335
X0.9Y0.2335
X0.9Y0.2335
X0.9Y0.2
X0.9Y0.2
X0.9Y0.1665
X0.9Y0.1665
X0.9Y-0.1665
X0.9Y-0.1665
X0.9Y-0.2
X0.9Y-0.2
X0.9Y-0.2335
X0.9Y-0.2335
X0.9335Y0.2335
X0.9335Y0.2335
X0.9335Y0.2
X0.9335Y0.2
X0.9335Y0.1665
X0.9335Y0.1665
X0.9335Y-0.1665
X0.9335Y-0.1665
X0.9335Y-0.2
X0.9335Y-0.2
X0.9335Y-0.2335
X0.9335Y-0.2335
T2
X-1.3422Y0.0005
X-1.205Y0.166
X-1.2042Y-0.0893
X-1.202Y-0.1257
X-1.2005Y0.0311
X-1.2Y0.207
X-1.2Y-0.04
X-1.2Y-0.296
X-1.199Y-0.236
X-1.198Y0.313
X-1.197Y0.275
X-1.197Y-0.192
X-1.1945Y0.3684
X-1.193Y-0.332
X-1.192Y0.4048
X-1.0521Y-0.2357
X-1.0489Y-0.1217
X-1.0423Y0.2465
X-1.04Y-0.1967
X-1.0353Y0.1197
X-1.0248Y0.2005
X-1.0226Y0.3215
X-1.005Y-0.097
X-1.0036Y-0.3
X-1.0029Y-0.3365
X-0.9974Y0.1126
X-0.9721Y0.3189
X-0.9471Y-0.7406
X-0.9339Y-0.8487
X-0.8913Y-0.8935
X-0.8892Y0.0641
X-0.8861Y-0.7534
X-0.8851Y-0.0651
X-0.88Y0.0195
X-0.88Y-0.02
X-0.8742Y0.3291
X-0.8738Y-0.3289
X-0.8417Y0.3851
X-0.8398Y-0.9433
X-0.8383Y-0.3789
X-0.8349Y-0.0149
X-0.82Y0.02
X-0.8038Y0.3746
X-0.7997Y-0.7987
X-0.7994Y-0.3757
X-0.7927Y-0.9827
X-0.7837Y0.0468
X-0.76Y0.34
X-0.7524Y-0.3232
X-0.7485Y0.06
X-0.7481Y-0.057
X-0.7239Y0.1794
X-0.7239Y0.1014
X-0.72Y-0.34
X-0.7153Y-0.223
X-0.7009Y-0.2996
X-0.7Y0.3
X-0.7Y-0.1447
X-0.68Y0.26
X-0.6792Y0.1459
X-0.676Y-0.2186
X-0.6709Y-0.2547
X-0.668Y-0.3153
X-0.6416Y0.1563
X-0.64Y-0.12
X-0.6044Y0.1238
X-0.5969Y-0.3114
X-0.5588Y-0.3459
X-0.5457Y0.3334
X-0.5199Y0.3592
X-0.48Y-0.04
X-0.4295Y-0.3125
X-0.42Y-0.08
X-0.4095Y-0.4295
X-0.4048Y-1.193
X-0.3874Y-0.8057
X-0.3858Y0.7928
X-0.38Y0.0
X-0.38Y-0.08
X-0.3753Y0.84
X-0.37Y0.465
X-0.3689Y-0.7705
X-0.3683Y-1.1944
X-0.3627Y-0.87
X-0.3574Y-0.0325
X-0.3557Y0.7545
X-0.3547Y-0.1072
X-0.34Y0.16
X-0.3381Y0.5428
X-0.331Y-0.7608
X-0.3259Y0.6391
X-0.325Y0.4872
X-0.3248Y1.1938
X-0.3248Y1.0035
X-0.3212Y0.7244
X-0.3208Y-1.0252
X-0.32Y-0.72
X-0.3138Y-0.5253
X-0.313Y-1.198
X-0.3108Y-0.9802
X-0.3093Y0.3843
X-0.3012Y0.6744
X-0.2989Y-0.1025
X-0.2975Y-0.0628
X-0.2891Y1.2015
X-0.2883Y1.0036
X-0.281Y-0.1999
X-0.28Y-0.72
X-0.275Y-1.197
X-0.2596Y0.6353
X-0.2458Y-1.042
X-0.2455Y-0.2084
X-0.24Y-0.44
X-0.2394Y0.694
X-0.236Y1.199
X-0.2332Y1.0546
X-0.2213Y-0.611
X-0.22Y-0.48
X-0.2144Y-0.1447
X-0.207Y-1.2
X-0.2057Y-0.6914
X-0.2005Y-1.0248
X-0.2Y-0.02
X-0.1977Y-0.2373
X-0.1967Y1.04
X-0.192Y1.197
X-0.189Y-0.7239
X-0.1873Y0.7192
X-0.187Y-0.1697
X-0.1847Y-0.06
X-0.1776Y-0.6683
X-0.166Y-1.205
X-0.1644Y0.1416
X-0.16Y0.66
X-0.16Y-0.14
X-0.1577Y-0.5238
X-0.1504Y0.1753
X-0.1471Y-0.1867
X-0.1281Y0.3319
X-0.1257Y1.202
X-0.1217Y1.0489
X-0.1197Y-1.0353
X-0.1126Y-0.9974
X-0.1014Y-0.7239
X-0.0974Y0.7259
X-0.097Y1.005
X-0.0966Y-0.2238
X-0.0893Y1.2042
X-0.08Y0.32
X-0.068Y0.3669
X-0.0622Y0.4035
X-0.0607Y0.4434
X-0.06Y0.88
X-0.06Y0.7447
X-0.06Y-0.7485
X-0.0469Y-0.7826
X-0.04Y1.2
X-0.04Y-1.2
X-0.032Y0.768
X-0.029Y-0.88
X-0.0277Y0.8503
X-0.0275Y0.2275
X-0.0262Y-0.92
X-0.02Y-0.84
X-0.0013Y0.6835
X-0.0005Y-1.3422
X-0.0002Y0.6104
X0.0Y0.9
X0.0Y0.72
X0.0005Y1.3422
X0.0005Y0.6469
X0.0023Y0.3906
X0.0122Y0.3504
X0.02Y-0.76
X0.02Y-0.84
X0.0247Y0.86
X0.0268Y0.7732
X0.0381Y-0.9181
X0.04Y1.2
X0.04Y-0.48
X0.04Y-0.88
X0.04Y-1.2
X0.0464Y0.2675
X0.0475Y0.0903
X0.0526Y0.7474
X0.0647Y0.88
X0.0665Y-0.2335
X0.0727Y-0.7847
X0.0851Y-0.0047
X0.0893Y-1.2042
X0.0943Y0.0306
X0.097Y-1.005
X0.1126Y0.9974
X0.1197Y1.0353
X0.12Y0.34
X0.12Y-0.72
X0.1217Y-1.0489
X0.1257Y-1.202
X0.1636Y-0.6484
X0.166Y1.205
X0.1677Y0.3485
X0.1693Y0.6614
X0.172Y-0.6839
X0.1811Y0.696
X0.1856Y0.1296
X0.192Y-1.197
X0.1967Y-1.04
X0.1968Y-0.08
X0.1976Y0.7297
X0.2Y-0.7073
X0.2005Y1.0248
X0.207Y1.2
X0.2249Y-0.125
X0.2353Y-0.6547
X0.2357Y-1.0521
X0.236Y-1.199
X0.2399Y0.1501
X0.2486Y1.0424
X0.2625Y-0.0675
X0.2722Y0.3976
X0.2725Y-0.7165
X0.275Y1.197
X0.28Y0.68
X0.2803Y0.1905
X0.2857Y-0.3906
X0.296Y-1.2
X0.3Y-1.0036
X0.3001Y-0.0353
X0.3044Y0.0009
X0.3084Y-0.7273
X0.313Y1.198
X0.3161Y0.7039
X0.3189Y0.9721
X0.3235Y-0.6547
X0.329Y1.017
X0.332Y-1.193
X0.3355Y0.7609
X0.3365Y-1.0029
X0.3424Y0.477
X0.3515Y-0.7623
X0.3553Y-0.3574
X0.3575Y-0.4574
X0.36Y-0.1
X0.366Y0.345
X0.3686Y1.1925
X0.3725Y0.8492
X0.3744Y0.7944
X0.3753Y0.9
X0.3822Y0.3829
X0.3997Y0.2715
X0.4Y-0.495
X0.4Y-0.78
X0.4Y-0.88
X0.4048Y1.197
X0.4068Y-0.7166
X0.42Y-0.28
X0.434Y-0.85
X0.441Y-0.52
X0.4681Y0.0584
X0.4802Y-0.2398
X0.487Y0.486
X0.4972Y-0.7035
X0.4996Y0.2419
X0.5129Y0.399
X0.5232Y-0.944
X0.525Y-0.675
X0.525Y-0.775
X0.57Y-0.525
X0.5774Y-0.9762
X0.58Y-0.1
X0.5826Y-1.0476
X0.583Y-0.791
X0.5905Y-0.5595
X0.6118Y0.2637
X0.625Y-0.8505
X0.64Y0.24
X0.6452Y-0.1766
X0.665Y-0.5392
X0.6814Y-0.1824
X0.687Y0.2176
X0.6931Y-0.8819
X0.6933Y-0.2799
X0.6982Y-0.6658
X0.6998Y0.2798
X0.702Y-1.0161
X0.7153Y0.12
X0.7153Y-0.2047
X0.7182Y-0.127
X0.7184Y0.199
X0.725Y-0.925
X0.7264Y0.3047
X0.7297Y-0.2817
X0.7429Y0.02
X0.76Y-0.02
X0.76Y-0.34
X0.7647Y-0.06
X0.7648Y0.3352
X0.7675Y0.0547
X0.775Y0.9851
X0.7758Y-0.4975
X0.7967Y0.3757
X0.8077Y-0.5423
X0.82Y-0.38
X0.83Y-0.505
X0.848Y0.3788
X0.85Y0.019
X0.8511Y-0.6739
X0.8529Y-0.5471
X0.86Y-0.02
X0.86Y-0.42
X0.8845Y0.0347
X0.8856Y0.3827
X0.899Y-0.0092
X0.9Y-0.3953
X0.9218Y0.0345
X0.925Y-0.85
X0.9351Y-0.0247
X0.9721Y-0.3189
X0.9974Y-0.1126
X1.0035Y0.3248
X1.0046Y0.2883
X1.005Y0.097
X1.017Y-0.329
X1.0248Y-0.2005
X1.025Y-0.62
X1.0297Y-0.7777
X1.0353Y-0.1197
X1.04Y0.1967
X1.0424Y-0.2486
X1.0489Y0.1217
X1.0551Y0.2327
X1.194Y-0.3802
X1.194Y0.3248
X1.197Y0.192
X1.197Y-0.275
X1.197Y-0.418
X1.198Y-0.313
X1.199Y0.236
X1.2Y0.04
X1.2Y-0.04
X1.2Y-0.207
X1.2015Y0.2891
X1.202Y0.1257
X1.2042Y0.0893
X1.205Y-0.166
X1.3422Y-0.0005
T4
X-0.9289Y-0.7897
X-0.7897Y-0.9289
X0.7897Y0.9281
X0.9289Y0.789
T5
X-1.1121Y0.7586
X-1.1Y-0.775
X-1.0414Y0.8293
X-1.0414Y0.6879
X-1.0293Y-0.7043
X-0.9707Y0.9
X-0.9707Y0.7586
X-0.9Y0.9707
X-0.9Y0.8293
X-0.8293Y1.0414
X-0.8293Y0.9
X-0.775Y-1.1
X-0.7586Y1.1121
X-0.7586Y0.9707
X-0.7043Y-1.0293
X-0.6879Y1.0414
X0.5586Y-1.175
X0.6293Y-1.1043
X0.6293Y-1.2457
X0.7Y-1.175
X0.7043Y1.0293
X0.775Y1.1
X1.0293Y0.7043
X1.1Y0.775
X1.1043Y-0.6293
X1.175Y-0.5586
X1.175Y-0.7
X1.2457Y-0.6293
T3
G00X-1.0416Y-0.8468
M15
G01X-1.0221Y-0.8273
M16
G05
G00X-0.8273Y-1.0221
M15
G01X-0.8468Y-1.0416
M16
G05
G00X0.8273Y1.0214
M15
G01X0.8468Y1.0409
M16
G05
G00X1.0416Y0.846
M15
G01X1.0221Y0.8265
M16
G05
T0
M30
