G04 #@! TF.GenerationSoftware,KiCad,Pcbnew,5.99.0-unknown-243631a095~131~ubuntu18.04.1*
G04 #@! TF.CreationDate,2021-09-04T20:13:21+03:00*
G04 #@! TF.ProjectId,FreeEEG128-alpha,46726565-4545-4473-9132-382d616c7068,rev?*
G04 #@! TF.SameCoordinates,Original*
G04 #@! TF.FileFunction,Paste,Top*
G04 #@! TF.FilePolarity,Positive*
%FSLAX46Y46*%
G04 Gerber Fmt 4.6, Leading zero omitted, Abs format (unit mm)*
G04 Created by KiCad (PCBNEW 5.99.0-unknown-243631a095~131~ubuntu18.04.1) date 2021-09-04 20:13:21*
%MOMM*%
%LPD*%
G01*
G04 APERTURE LIST*
G04 Aperture macros list*
%AMRoundRect*
0 Rectangle with rounded corners*
0 $1 Rounding radius*
0 $2 $3 $4 $5 $6 $7 $8 $9 X,Y pos of 4 corners*
0 Add a 4 corners polygon primitive as box body*
4,1,4,$2,$3,$4,$5,$6,$7,$8,$9,$2,$3,0*
0 Add four circle primitives for the rounded corners*
1,1,$1+$1,$2,$3*
1,1,$1+$1,$4,$5*
1,1,$1+$1,$6,$7*
1,1,$1+$1,$8,$9*
0 Add four rect primitives between the rounded corners*
20,1,$1+$1,$2,$3,$4,$5,0*
20,1,$1+$1,$4,$5,$6,$7,0*
20,1,$1+$1,$6,$7,$8,$9,0*
20,1,$1+$1,$8,$9,$2,$3,0*%
%AMRotRect*
0 Rectangle, with rotation*
0 The origin of the aperture is its center*
0 $1 length*
0 $2 width*
0 $3 Rotation angle, in degrees counterclockwise*
0 Add horizontal line*
21,1,$1,$2,0,0,$3*%
%AMFreePoly0*
4,1,51,0.155869,0.189091,0.163498,0.190299,0.183473,0.180121,0.204796,0.173193,0.209336,0.166944,0.216219,0.163437,0.314605,0.065053,0.318113,0.058169,0.324361,0.053629,0.331288,0.032309,0.341467,0.012332,0.340259,0.004702,0.342646,-0.002645,0.342646,-0.095739,0.337960,-0.110161,0.337960,-0.125324,0.329047,-0.137592,0.324361,-0.152013,0.312094,-0.160926,0.303181,-0.173193,
0.288760,-0.177879,0.276492,-0.186792,0.261329,-0.186792,0.246907,-0.191478,-0.246907,-0.191478,-0.261329,-0.186792,-0.276492,-0.186792,-0.288760,-0.177879,-0.303181,-0.173193,-0.312094,-0.160926,-0.324361,-0.152013,-0.329047,-0.137592,-0.337960,-0.125324,-0.337960,-0.110161,-0.342646,-0.095739,-0.342646,-0.002645,-0.340259,0.004702,-0.341467,0.012332,-0.331289,0.032307,-0.324361,0.053629,
-0.318111,0.058170,-0.314604,0.065053,-0.216219,0.163437,-0.209336,0.166944,-0.204796,0.173193,-0.183473,0.180121,-0.163498,0.190299,-0.155869,0.189091,-0.148522,0.191478,0.148522,0.191478,0.155869,0.189091,0.155869,0.189091,$1*%
%AMFreePoly1*
4,1,51,0.004702,0.340259,0.012332,0.341467,0.032307,0.331289,0.053629,0.324361,0.058170,0.318111,0.065053,0.314604,0.163437,0.216219,0.166944,0.209336,0.173193,0.204796,0.180121,0.183473,0.190299,0.163498,0.189091,0.155869,0.191478,0.148522,0.191478,-0.148522,0.189091,-0.155869,0.190299,-0.163498,0.180121,-0.183473,0.173193,-0.204796,0.166944,-0.209336,0.163437,-0.216219,
0.065053,-0.314604,0.058170,-0.318111,0.053629,-0.324361,0.032307,-0.331289,0.012332,-0.341467,0.004702,-0.340259,-0.002645,-0.342646,-0.095739,-0.342646,-0.110161,-0.337960,-0.125324,-0.337960,-0.137592,-0.329047,-0.152013,-0.324361,-0.160926,-0.312094,-0.173193,-0.303181,-0.177879,-0.288760,-0.186792,-0.276492,-0.186792,-0.261329,-0.191478,-0.246907,-0.191478,0.246907,-0.186792,0.261329,
-0.186792,0.276492,-0.177879,0.288760,-0.173193,0.303181,-0.160926,0.312094,-0.152013,0.324361,-0.137592,0.329047,-0.125324,0.337960,-0.110161,0.337960,-0.095739,0.342646,-0.002645,0.342646,0.004702,0.340259,0.004702,0.340259,$1*%
%AMFreePoly2*
4,1,57,0.195015,0.341746,0.197191,0.342329,0.200525,0.340774,0.218481,0.337608,0.232451,0.325886,0.248978,0.318179,0.318179,0.248978,0.321152,0.244733,0.323103,0.243606,0.324361,0.240149,0.334819,0.225214,0.336409,0.207049,0.342646,0.189911,0.342646,-0.189911,0.341746,-0.195015,0.342329,-0.197191,0.340774,-0.200525,0.337608,-0.218481,0.325886,-0.232451,0.318179,-0.248978,
0.248978,-0.318179,0.244733,-0.321152,0.243606,-0.323103,0.240149,-0.324361,0.225214,-0.334819,0.207049,-0.336409,0.189911,-0.342646,-0.189911,-0.342646,-0.195015,-0.341746,-0.197191,-0.342329,-0.200525,-0.340774,-0.218481,-0.337608,-0.232451,-0.325886,-0.248978,-0.318179,-0.318179,-0.248978,-0.321152,-0.244733,-0.323103,-0.243606,-0.324361,-0.240149,-0.334819,-0.225214,-0.336409,-0.207049,
-0.342646,-0.189911,-0.342646,0.189911,-0.341746,0.195015,-0.342329,0.197191,-0.340774,0.200525,-0.337608,0.218481,-0.325886,0.232451,-0.318179,0.248978,-0.248978,0.318179,-0.244733,0.321152,-0.243606,0.323103,-0.240149,0.324361,-0.225214,0.334819,-0.207049,0.336409,-0.189911,0.342646,0.189911,0.342646,0.195015,0.341746,0.195015,0.341746,$1*%
%AMFreePoly3*
4,1,48,0.110161,0.186792,0.125324,0.186792,0.137592,0.177879,0.152013,0.173193,0.160926,0.160926,0.173193,0.152013,0.177879,0.137592,0.186792,0.125324,0.186792,0.110161,0.191478,0.095739,0.191478,-0.095739,0.186792,-0.110161,0.186792,-0.125324,0.177879,-0.137592,0.173193,-0.152013,0.160926,-0.160926,0.152013,-0.173193,0.137592,-0.177879,0.125324,-0.186792,0.110161,-0.186792,
0.095739,-0.191478,-0.095739,-0.191478,-0.110161,-0.186792,-0.125324,-0.186792,-0.137592,-0.177879,-0.152013,-0.173193,-0.160926,-0.160926,-0.173193,-0.152013,-0.177879,-0.137592,-0.186792,-0.125324,-0.186792,-0.110161,-0.191478,-0.095739,-0.191478,-0.038978,-0.189091,-0.031631,-0.190299,-0.024001,-0.180120,-0.004024,-0.173193,0.017296,-0.166945,0.021836,-0.163437,0.028720,-0.028719,0.163437,
-0.021836,0.166944,-0.017296,0.173193,0.004027,0.180121,0.024002,0.190299,0.031631,0.189091,0.038978,0.191478,0.095739,0.191478,0.110161,0.186792,0.110161,0.186792,$1*%
%AMFreePoly4*
4,1,51,0.261329,0.186792,0.276492,0.186792,0.288760,0.177879,0.303181,0.173193,0.312094,0.160926,0.324361,0.152013,0.329047,0.137592,0.337960,0.125324,0.337960,0.110161,0.342646,0.095739,0.342646,0.002645,0.340259,-0.004702,0.341467,-0.012332,0.331288,-0.032309,0.324361,-0.053629,0.318113,-0.058169,0.314605,-0.065053,0.216219,-0.163437,0.209336,-0.166944,0.204796,-0.173193,
0.183473,-0.180121,0.163498,-0.190299,0.155869,-0.189091,0.148522,-0.191478,-0.148522,-0.191478,-0.155869,-0.189091,-0.163498,-0.190299,-0.183473,-0.180121,-0.204796,-0.173193,-0.209336,-0.166944,-0.216219,-0.163437,-0.314604,-0.065053,-0.318111,-0.058170,-0.324361,-0.053629,-0.331289,-0.032307,-0.341467,-0.012332,-0.340259,-0.004702,-0.342646,0.002645,-0.342646,0.095739,-0.337960,0.110161,
-0.337960,0.125324,-0.329047,0.137592,-0.324361,0.152013,-0.312094,0.160926,-0.303181,0.173193,-0.288760,0.177879,-0.276492,0.186792,-0.261329,0.186792,-0.246907,0.191478,0.246907,0.191478,0.261329,0.186792,0.261329,0.186792,$1*%
%AMFreePoly5*
4,1,48,-0.031631,0.189091,-0.024001,0.190299,-0.004024,0.180120,0.017296,0.173193,0.021836,0.166945,0.028720,0.163437,0.163437,0.028719,0.166944,0.021836,0.173193,0.017296,0.180121,-0.004027,0.190299,-0.024002,0.189091,-0.031631,0.191478,-0.038978,0.191478,-0.095739,0.186792,-0.110161,0.186792,-0.125324,0.177879,-0.137592,0.173193,-0.152013,0.160926,-0.160926,0.152013,-0.173193,
0.137592,-0.177879,0.125324,-0.186792,0.110161,-0.186792,0.095739,-0.191478,-0.095739,-0.191478,-0.110161,-0.186792,-0.125324,-0.186792,-0.137592,-0.177879,-0.152013,-0.173193,-0.160926,-0.160926,-0.173193,-0.152013,-0.177879,-0.137592,-0.186792,-0.125324,-0.186792,-0.110161,-0.191478,-0.095739,-0.191478,0.095739,-0.186792,0.110161,-0.186792,0.125324,-0.177879,0.137592,-0.173193,0.152013,
-0.160926,0.160926,-0.152013,0.173193,-0.137592,0.177879,-0.125324,0.186792,-0.110161,0.186792,-0.095739,0.191478,-0.038978,0.191478,-0.031631,0.189091,-0.031631,0.189091,$1*%
%AMFreePoly6*
4,1,51,0.110161,0.337960,0.125324,0.337960,0.137592,0.329047,0.152013,0.324361,0.160926,0.312094,0.173193,0.303181,0.177879,0.288760,0.186792,0.276492,0.186792,0.261329,0.191478,0.246907,0.191478,-0.246907,0.186792,-0.261329,0.186792,-0.276492,0.177879,-0.288760,0.173193,-0.303181,0.160926,-0.312094,0.152013,-0.324361,0.137592,-0.329047,0.125324,-0.337960,0.110161,-0.337960,
0.095739,-0.342646,0.002645,-0.342646,-0.004702,-0.340259,-0.012332,-0.341467,-0.032309,-0.331288,-0.053629,-0.324361,-0.058169,-0.318113,-0.065053,-0.314605,-0.163437,-0.216219,-0.166944,-0.209336,-0.173193,-0.204796,-0.180121,-0.183473,-0.190299,-0.163498,-0.189091,-0.155869,-0.191478,-0.148522,-0.191478,0.148522,-0.189091,0.155869,-0.190299,0.163498,-0.180121,0.183473,-0.173193,0.204796,
-0.166944,0.209336,-0.163437,0.216219,-0.065053,0.314605,-0.058169,0.318113,-0.053629,0.324361,-0.032309,0.331288,-0.012332,0.341467,-0.004702,0.340259,0.002645,0.342646,0.095739,0.342646,0.110161,0.337960,0.110161,0.337960,$1*%
%AMFreePoly7*
4,1,48,0.110161,0.186792,0.125324,0.186792,0.137592,0.177879,0.152013,0.173193,0.160926,0.160926,0.173193,0.152013,0.177879,0.137592,0.186792,0.125324,0.186792,0.110161,0.191478,0.095739,0.191478,-0.095739,0.186792,-0.110161,0.186792,-0.125324,0.177879,-0.137592,0.173193,-0.152013,0.160926,-0.160926,0.152013,-0.173193,0.137592,-0.177879,0.125324,-0.186792,0.110161,-0.186792,
0.095739,-0.191478,0.038978,-0.191478,0.031631,-0.189091,0.024002,-0.190299,0.004027,-0.180121,-0.017296,-0.173193,-0.021836,-0.166944,-0.028719,-0.163437,-0.163437,-0.028720,-0.166945,-0.021836,-0.173193,-0.017296,-0.180120,0.004024,-0.190299,0.024001,-0.189091,0.031631,-0.191478,0.038978,-0.191478,0.095739,-0.186792,0.110161,-0.186792,0.125324,-0.177879,0.137592,-0.173193,0.152013,
-0.160926,0.160926,-0.152013,0.173193,-0.137592,0.177879,-0.125324,0.186792,-0.110161,0.186792,-0.095739,0.191478,0.095739,0.191478,0.110161,0.186792,0.110161,0.186792,$1*%
%AMFreePoly8*
4,1,48,0.110161,0.186792,0.125324,0.186792,0.137592,0.177879,0.152013,0.173193,0.160926,0.160926,0.173193,0.152013,0.177879,0.137592,0.186792,0.125324,0.186792,0.110161,0.191478,0.095739,0.191478,0.038978,0.189091,0.031631,0.190299,0.024002,0.180121,0.004027,0.173193,-0.017296,0.166944,-0.021836,0.163437,-0.028719,0.028720,-0.163437,0.021836,-0.166945,0.017296,-0.173193,
-0.004024,-0.180120,-0.024001,-0.190299,-0.031631,-0.189091,-0.038978,-0.191478,-0.095739,-0.191478,-0.110161,-0.186792,-0.125324,-0.186792,-0.137592,-0.177879,-0.152013,-0.173193,-0.160926,-0.160926,-0.173193,-0.152013,-0.177879,-0.137592,-0.186792,-0.125324,-0.186792,-0.110161,-0.191478,-0.095739,-0.191478,0.095739,-0.186792,0.110161,-0.186792,0.125324,-0.177879,0.137592,-0.173193,0.152013,
-0.160926,0.160926,-0.152013,0.173193,-0.137592,0.177879,-0.125324,0.186792,-0.110161,0.186792,-0.095739,0.191478,0.095739,0.191478,0.110161,0.186792,0.110161,0.186792,$1*%
%AMFreePoly9*
4,1,15,0.314644,0.085355,0.385355,0.014645,0.385355,0.014644,0.400000,-0.020711,0.400000,-0.050000,0.385355,-0.085355,0.350000,-0.100000,-0.350000,-0.100000,-0.385355,-0.085355,-0.400000,-0.050000,-0.400000,0.050000,-0.385355,0.085355,-0.350000,0.100000,0.279289,0.100000,0.314644,0.085355,0.314644,0.085355,$1*%
%AMFreePoly10*
4,1,15,0.385355,0.085355,0.400000,0.050000,0.400000,0.020711,0.397487,0.014645,0.385355,-0.014645,0.314644,-0.085355,0.279289,-0.100000,-0.350000,-0.100000,-0.385355,-0.085355,-0.400000,-0.050000,-0.400000,0.050000,-0.385355,0.085355,-0.350000,0.100000,0.350000,0.100000,0.385355,0.085355,0.385355,0.085355,$1*%
%AMFreePoly11*
4,1,15,0.085355,0.385355,0.100000,0.350000,0.100000,-0.350000,0.085355,-0.385355,0.050000,-0.400000,-0.050000,-0.400000,-0.085355,-0.385355,-0.100000,-0.350000,-0.100000,0.279289,-0.085355,0.314644,-0.014645,0.385355,-0.004289,0.389644,0.020711,0.400000,0.050000,0.400000,0.085355,0.385355,0.085355,0.385355,$1*%
%AMFreePoly12*
4,1,15,0.014644,0.385355,0.085355,0.314645,0.085355,0.314644,0.100000,0.279289,0.100000,-0.350000,0.085355,-0.385355,0.050000,-0.400000,-0.050000,-0.400000,-0.085355,-0.385355,-0.100000,-0.350000,-0.100000,0.350000,-0.085355,0.385355,-0.050000,0.400000,-0.020711,0.400000,0.014644,0.385355,0.014644,0.385355,$1*%
%AMFreePoly13*
4,1,15,0.385355,0.085355,0.400000,0.050000,0.400000,-0.050000,0.385355,-0.085355,0.350000,-0.100000,-0.279289,-0.100000,-0.304289,-0.089644,-0.314645,-0.085355,-0.385355,-0.014644,-0.400000,0.020711,-0.400000,0.050000,-0.385355,0.085355,-0.350000,0.100000,0.350000,0.100000,0.385355,0.085355,0.385355,0.085355,$1*%
%AMFreePoly14*
4,1,15,0.385355,0.085355,0.400000,0.050000,0.400000,-0.050000,0.385355,-0.085355,0.350000,-0.100000,-0.350000,-0.100000,-0.385355,-0.085355,-0.400000,-0.050000,-0.400000,-0.020711,-0.385355,0.014644,-0.314645,0.085355,-0.304289,0.089644,-0.279289,0.100000,0.350000,0.100000,0.385355,0.085355,0.385355,0.085355,$1*%
%AMFreePoly15*
4,1,15,0.085355,0.385355,0.100000,0.350000,0.100000,-0.279289,0.091421,-0.300000,0.085355,-0.314645,0.014644,-0.385355,-0.020711,-0.400000,-0.050000,-0.400000,-0.085355,-0.385355,-0.100000,-0.350000,-0.100000,0.350000,-0.085355,0.385355,-0.050000,0.400000,0.050000,0.400000,0.085355,0.385355,0.085355,0.385355,$1*%
%AMFreePoly16*
4,1,15,0.085355,0.385355,0.100000,0.350000,0.100000,-0.350000,0.085355,-0.385355,0.050000,-0.400000,0.020711,-0.400000,-0.004289,-0.389644,-0.014645,-0.385355,-0.085355,-0.314644,-0.100000,-0.279289,-0.100000,0.350000,-0.085355,0.385355,-0.050000,0.400000,0.050000,0.400000,0.085355,0.385355,0.085355,0.385355,$1*%
G04 Aperture macros list end*
%ADD10RotRect,1.075000X0.250000X45.000000*%
%ADD11RotRect,0.250000X1.075000X45.000000*%
%ADD12RoundRect,0.147500X-0.226274X-0.017678X-0.017678X-0.226274X0.226274X0.017678X0.017678X0.226274X0*%
%ADD13RoundRect,0.147500X0.017678X-0.226274X0.226274X-0.017678X-0.017678X0.226274X-0.226274X0.017678X0*%
%ADD14RoundRect,0.218750X0.026517X-0.335876X0.335876X-0.026517X-0.026517X0.335876X-0.335876X0.026517X0*%
%ADD15RoundRect,0.147500X-0.017678X0.226274X-0.226274X0.017678X0.017678X-0.226274X0.226274X-0.017678X0*%
%ADD16RotRect,1.060000X0.650000X225.000000*%
%ADD17RotRect,2.280000X1.500000X135.000000*%
%ADD18RoundRect,0.147500X0.226274X0.017678X0.017678X0.226274X-0.226274X-0.017678X-0.017678X-0.226274X0*%
%ADD19RoundRect,0.218750X-0.335876X-0.026517X-0.026517X-0.335876X0.335876X0.026517X0.026517X0.335876X0*%
%ADD20RotRect,0.400000X1.350000X135.000000*%
%ADD21RotRect,1.500000X1.900000X135.000000*%
%ADD22RotRect,0.900000X1.700000X225.000000*%
%ADD23RotRect,1.750000X1.800000X225.000000*%
%ADD24R,2.000000X3.500000*%
%ADD25RotRect,0.900000X1.700000X45.000000*%
%ADD26RoundRect,0.218750X0.335876X0.026517X0.026517X0.335876X-0.335876X-0.026517X-0.026517X-0.335876X0*%
%ADD27RotRect,1.500000X0.600000X135.000000*%
%ADD28RoundRect,0.140000X-0.170000X0.140000X-0.170000X-0.140000X0.170000X-0.140000X0.170000X0.140000X0*%
%ADD29R,2.400000X0.740000*%
%ADD30RoundRect,0.140000X0.140000X0.170000X-0.140000X0.170000X-0.140000X-0.170000X0.140000X-0.170000X0*%
%ADD31RoundRect,0.140000X-0.140000X-0.170000X0.140000X-0.170000X0.140000X0.170000X-0.140000X0.170000X0*%
%ADD32FreePoly0,180.000000*%
%ADD33FreePoly1,180.000000*%
%ADD34FreePoly2,180.000000*%
%ADD35FreePoly3,180.000000*%
%ADD36FreePoly4,180.000000*%
%ADD37FreePoly5,180.000000*%
%ADD38FreePoly6,180.000000*%
%ADD39FreePoly7,180.000000*%
%ADD40FreePoly8,180.000000*%
%ADD41FreePoly9,180.000000*%
%ADD42RoundRect,0.050000X0.350000X0.050000X-0.350000X0.050000X-0.350000X-0.050000X0.350000X-0.050000X0*%
%ADD43FreePoly10,180.000000*%
%ADD44FreePoly11,180.000000*%
%ADD45RoundRect,0.050000X0.050000X0.350000X-0.050000X0.350000X-0.050000X-0.350000X0.050000X-0.350000X0*%
%ADD46FreePoly12,180.000000*%
%ADD47FreePoly13,180.000000*%
%ADD48FreePoly14,180.000000*%
%ADD49FreePoly15,180.000000*%
%ADD50FreePoly16,180.000000*%
%ADD51RoundRect,0.140000X0.170000X-0.140000X0.170000X0.140000X-0.170000X0.140000X-0.170000X-0.140000X0*%
%ADD52FreePoly7,270.000000*%
%ADD53FreePoly6,270.000000*%
%ADD54FreePoly2,270.000000*%
%ADD55FreePoly4,270.000000*%
%ADD56FreePoly0,270.000000*%
%ADD57FreePoly1,270.000000*%
%ADD58FreePoly5,270.000000*%
%ADD59FreePoly8,270.000000*%
%ADD60FreePoly3,270.000000*%
%ADD61FreePoly9,270.000000*%
%ADD62RoundRect,0.050000X-0.050000X0.350000X-0.050000X-0.350000X0.050000X-0.350000X0.050000X0.350000X0*%
%ADD63FreePoly10,270.000000*%
%ADD64FreePoly11,270.000000*%
%ADD65RoundRect,0.050000X-0.350000X0.050000X-0.350000X-0.050000X0.350000X-0.050000X0.350000X0.050000X0*%
%ADD66FreePoly12,270.000000*%
%ADD67FreePoly13,270.000000*%
%ADD68FreePoly14,270.000000*%
%ADD69FreePoly15,270.000000*%
%ADD70FreePoly16,270.000000*%
%ADD71RoundRect,0.135000X-0.185000X0.135000X-0.185000X-0.135000X0.185000X-0.135000X0.185000X0.135000X0*%
%ADD72R,0.740000X2.400000*%
%ADD73RoundRect,0.225000X0.335876X0.017678X0.017678X0.335876X-0.335876X-0.017678X-0.017678X-0.335876X0*%
%ADD74FreePoly4,0.000000*%
%ADD75FreePoly2,0.000000*%
%ADD76FreePoly8,0.000000*%
%ADD77FreePoly6,0.000000*%
%ADD78FreePoly7,0.000000*%
%ADD79FreePoly0,0.000000*%
%ADD80FreePoly1,0.000000*%
%ADD81FreePoly3,0.000000*%
%ADD82FreePoly5,0.000000*%
%ADD83FreePoly9,0.000000*%
%ADD84RoundRect,0.050000X-0.350000X-0.050000X0.350000X-0.050000X0.350000X0.050000X-0.350000X0.050000X0*%
%ADD85FreePoly10,0.000000*%
%ADD86FreePoly11,0.000000*%
%ADD87RoundRect,0.050000X-0.050000X-0.350000X0.050000X-0.350000X0.050000X0.350000X-0.050000X0.350000X0*%
%ADD88FreePoly12,0.000000*%
%ADD89FreePoly13,0.000000*%
%ADD90FreePoly14,0.000000*%
%ADD91FreePoly15,0.000000*%
%ADD92FreePoly16,0.000000*%
%ADD93R,1.560000X0.650000*%
%ADD94FreePoly2,90.000000*%
%ADD95FreePoly8,90.000000*%
%ADD96FreePoly7,90.000000*%
%ADD97FreePoly0,90.000000*%
%ADD98FreePoly1,90.000000*%
%ADD99FreePoly3,90.000000*%
%ADD100FreePoly4,90.000000*%
%ADD101FreePoly6,90.000000*%
%ADD102FreePoly5,90.000000*%
%ADD103FreePoly9,90.000000*%
%ADD104RoundRect,0.050000X0.050000X-0.350000X0.050000X0.350000X-0.050000X0.350000X-0.050000X-0.350000X0*%
%ADD105FreePoly10,90.000000*%
%ADD106FreePoly11,90.000000*%
%ADD107RoundRect,0.050000X0.350000X-0.050000X0.350000X0.050000X-0.350000X0.050000X-0.350000X-0.050000X0*%
%ADD108FreePoly12,90.000000*%
%ADD109FreePoly13,90.000000*%
%ADD110FreePoly14,90.000000*%
%ADD111FreePoly15,90.000000*%
%ADD112FreePoly16,90.000000*%
%ADD113RoundRect,0.225000X-0.017678X0.335876X-0.335876X0.017678X0.017678X-0.335876X0.335876X-0.017678X0*%
%ADD114RoundRect,0.150000X0.468458X-0.256326X-0.256326X0.468458X-0.468458X0.256326X0.256326X-0.468458X0*%
%ADD115RoundRect,0.135000X0.135000X0.185000X-0.135000X0.185000X-0.135000X-0.185000X0.135000X-0.185000X0*%
G04 APERTURE END LIST*
D10*
X17431002Y-19506752D03*
X17784556Y-19860305D03*
X18138109Y-20213858D03*
X18491662Y-20567412D03*
D11*
X19499290Y-20213858D03*
X19852843Y-19860305D03*
X20206396Y-19506752D03*
D10*
X20559950Y-18499124D03*
X20206396Y-18145571D03*
X19852843Y-17792018D03*
X19499290Y-17438464D03*
D11*
X18491662Y-17792018D03*
X18138109Y-18145571D03*
X17784556Y-18499124D03*
D12*
X-24599947Y15963947D03*
X-23914053Y15278053D03*
D13*
X-9512347Y-16014747D03*
X-8826453Y-15328853D03*
D14*
X9730153Y13463953D03*
X10843847Y14577647D03*
D13*
X18707053Y-25107947D03*
X19392947Y-24422053D03*
X-23202947Y-25107947D03*
X-22517053Y-24422053D03*
D15*
X-21882053Y-20612053D03*
X-22567947Y-21297947D03*
X-7505653Y-11493453D03*
X-8191547Y-12179347D03*
D16*
X12244569Y10887094D03*
X11572817Y11558845D03*
X10901066Y12230597D03*
X9345431Y10674962D03*
X10688934Y9331459D03*
D13*
X24422053Y-19392947D03*
X25107947Y-18707053D03*
D17*
X-10126969Y-12813975D03*
X-12813975Y-10126969D03*
X-14511031Y-11824025D03*
X-11824025Y-14511031D03*
D18*
X-16421053Y-10020347D03*
X-17106947Y-9334453D03*
D19*
X19788553Y20953047D03*
X20902247Y19839353D03*
D20*
X22745095Y20887874D03*
X22285476Y21347493D03*
X21825856Y21807112D03*
X21366237Y22266732D03*
X20906618Y22726351D03*
D21*
X23027938Y24423407D03*
X24442151Y23009194D03*
D22*
X22157082Y-25467918D03*
X19752918Y-27872082D03*
D23*
X-7340600Y-7391400D03*
X-9638698Y-9689498D03*
D24*
X2100000Y-3250000D03*
X2100000Y3250000D03*
X-2100000Y3250000D03*
X-2100000Y-3250000D03*
D15*
X-20612053Y-21882053D03*
X-21297947Y-22567947D03*
D13*
X19922529Y-21885885D03*
X20608423Y-21199991D03*
D15*
X-8267653Y-10756853D03*
X-8953547Y-11442747D03*
D25*
X25467918Y-22157082D03*
X27872082Y-19752918D03*
D15*
X21983747Y-19824653D03*
X21297853Y-20510547D03*
D18*
X-11468053Y-8851947D03*
X-12153947Y-8166053D03*
D26*
X9446847Y7684181D03*
X8333153Y8797875D03*
D13*
X-25107947Y-23202947D03*
X-24422053Y-22517053D03*
D27*
X-16365043Y10078864D03*
X-15467017Y10976889D03*
X-14568992Y11874915D03*
X-13670966Y12772941D03*
X-12772941Y13670966D03*
X-11874915Y14568992D03*
X-10976889Y15467017D03*
X-10078864Y16365043D03*
X-16654957Y22941136D03*
X-17552983Y22043111D03*
X-18451008Y21145085D03*
X-19349034Y20247059D03*
X-20247059Y19349034D03*
X-21145085Y18451008D03*
X-22043111Y17552983D03*
X-22941136Y16654957D03*
D13*
X-15074947Y9182053D03*
X-14389053Y9867947D03*
D28*
X19304000Y-6632000D03*
X19304000Y-7592000D03*
D29*
X28530000Y12065000D03*
X32430000Y12065000D03*
X28530000Y10795000D03*
X32430000Y10795000D03*
X28530000Y9525000D03*
X32430000Y9525000D03*
X28530000Y8255000D03*
X32430000Y8255000D03*
X28530000Y6985000D03*
X32430000Y6985000D03*
X28530000Y5715000D03*
X32430000Y5715000D03*
X28530000Y4445000D03*
X32430000Y4445000D03*
X28530000Y3175000D03*
X32430000Y3175000D03*
X28530000Y1905000D03*
X32430000Y1905000D03*
X28530000Y635000D03*
X32430000Y635000D03*
X28530000Y-635000D03*
X32430000Y-635000D03*
X28530000Y-1905000D03*
X32430000Y-1905000D03*
X28530000Y-3175000D03*
X32430000Y-3175000D03*
X28530000Y-4445000D03*
X32430000Y-4445000D03*
X28530000Y-5715000D03*
X32430000Y-5715000D03*
X28530000Y-6985000D03*
X32430000Y-6985000D03*
X28530000Y-8255000D03*
X32430000Y-8255000D03*
X28530000Y-9525000D03*
X32430000Y-9525000D03*
X28530000Y-10795000D03*
X32430000Y-10795000D03*
X28530000Y-12065000D03*
X32430000Y-12065000D03*
D30*
X3528000Y-19304000D03*
X2568000Y-19304000D03*
X21308000Y1524000D03*
X20348000Y1524000D03*
X21308000Y-8636000D03*
X20348000Y-8636000D03*
D31*
X-21308000Y-1524000D03*
X-20348000Y-1524000D03*
D32*
X23285000Y6167500D03*
D33*
X23947500Y5505000D03*
D34*
X23285000Y5505000D03*
X23285000Y4655000D03*
D33*
X23947500Y4655000D03*
D35*
X21772500Y6167500D03*
D36*
X23285000Y3992500D03*
D37*
X23947500Y6167500D03*
D38*
X21772500Y4655000D03*
D34*
X22435000Y5505000D03*
D32*
X22435000Y6167500D03*
D39*
X21772500Y3992500D03*
D36*
X22435000Y3992500D03*
D34*
X22435000Y4655000D03*
D40*
X23947500Y3992500D03*
D38*
X21772500Y5505000D03*
D41*
X24810000Y3680000D03*
D42*
X24810000Y4080000D03*
X24810000Y4480000D03*
X24810000Y4880000D03*
X24810000Y5280000D03*
X24810000Y5680000D03*
X24810000Y6080000D03*
D43*
X24810000Y6480000D03*
D44*
X24260000Y7030000D03*
D45*
X23860000Y7030000D03*
X23460000Y7030000D03*
X23060000Y7030000D03*
X22660000Y7030000D03*
X22260000Y7030000D03*
X21860000Y7030000D03*
D46*
X21460000Y7030000D03*
D47*
X20910000Y6480000D03*
D42*
X20910000Y6080000D03*
X20910000Y5680000D03*
X20910000Y5280000D03*
X20910000Y4880000D03*
X20910000Y4480000D03*
X20910000Y4080000D03*
D48*
X20910000Y3680000D03*
D49*
X21460000Y3130000D03*
D45*
X21860000Y3130000D03*
X22260000Y3130000D03*
X22660000Y3130000D03*
X23060000Y3130000D03*
X23460000Y3130000D03*
X23860000Y3130000D03*
D50*
X24260000Y3130000D03*
D51*
X-19304000Y-3528000D03*
X-19304000Y-2568000D03*
D31*
X6632000Y19304000D03*
X7592000Y19304000D03*
X-21308000Y1524000D03*
X-20348000Y1524000D03*
X-21308000Y8636000D03*
X-20348000Y8636000D03*
D52*
X-3992500Y21772500D03*
D53*
X-4655000Y21772500D03*
D54*
X-5505000Y22435000D03*
D55*
X-3992500Y22435000D03*
D56*
X-6167500Y23285000D03*
D54*
X-5505000Y23285000D03*
D56*
X-6167500Y22435000D03*
D57*
X-5505000Y23947500D03*
D54*
X-4655000Y23285000D03*
D55*
X-3992500Y23285000D03*
D57*
X-4655000Y23947500D03*
D53*
X-5505000Y21772500D03*
D58*
X-6167500Y23947500D03*
D59*
X-3992500Y23947500D03*
D54*
X-4655000Y22435000D03*
D60*
X-6167500Y21772500D03*
D61*
X-3680000Y24810000D03*
D62*
X-4080000Y24810000D03*
X-4480000Y24810000D03*
X-4880000Y24810000D03*
X-5280000Y24810000D03*
X-5680000Y24810000D03*
X-6080000Y24810000D03*
D63*
X-6480000Y24810000D03*
D64*
X-7030000Y24260000D03*
D65*
X-7030000Y23860000D03*
X-7030000Y23460000D03*
X-7030000Y23060000D03*
X-7030000Y22660000D03*
X-7030000Y22260000D03*
X-7030000Y21860000D03*
D66*
X-7030000Y21460000D03*
D67*
X-6480000Y20910000D03*
D62*
X-6080000Y20910000D03*
X-5680000Y20910000D03*
X-5280000Y20910000D03*
X-4880000Y20910000D03*
X-4480000Y20910000D03*
X-4080000Y20910000D03*
D68*
X-3680000Y20910000D03*
D69*
X-3130000Y21460000D03*
D65*
X-3130000Y21860000D03*
X-3130000Y22260000D03*
X-3130000Y22660000D03*
X-3130000Y23060000D03*
X-3130000Y23460000D03*
X-3130000Y23860000D03*
D70*
X-3130000Y24260000D03*
D31*
X-3528000Y19304000D03*
X-2568000Y19304000D03*
D28*
X3048000Y18260000D03*
X3048000Y17300000D03*
X-8636000Y21308000D03*
X-8636000Y20348000D03*
D71*
X-4064000Y510000D03*
X-4064000Y-510000D03*
D51*
X-1524000Y-21308000D03*
X-1524000Y-20348000D03*
X1524000Y-21308000D03*
X1524000Y-20348000D03*
D28*
X8636000Y21308000D03*
X8636000Y20348000D03*
X19304000Y3528000D03*
X19304000Y2568000D03*
D72*
X12065000Y-28530000D03*
X12065000Y-32430000D03*
X10795000Y-28530000D03*
X10795000Y-32430000D03*
X9525000Y-28530000D03*
X9525000Y-32430000D03*
X8255000Y-28530000D03*
X8255000Y-32430000D03*
X6985000Y-28530000D03*
X6985000Y-32430000D03*
X5715000Y-28530000D03*
X5715000Y-32430000D03*
X4445000Y-28530000D03*
X4445000Y-32430000D03*
X3175000Y-28530000D03*
X3175000Y-32430000D03*
X1905000Y-28530000D03*
X1905000Y-32430000D03*
X635000Y-28530000D03*
X635000Y-32430000D03*
X-635000Y-28530000D03*
X-635000Y-32430000D03*
X-1905000Y-28530000D03*
X-1905000Y-32430000D03*
X-3175000Y-28530000D03*
X-3175000Y-32430000D03*
X-4445000Y-28530000D03*
X-4445000Y-32430000D03*
X-5715000Y-28530000D03*
X-5715000Y-32430000D03*
X-6985000Y-28530000D03*
X-6985000Y-32430000D03*
X-8255000Y-28530000D03*
X-8255000Y-32430000D03*
X-9525000Y-28530000D03*
X-9525000Y-32430000D03*
X-10795000Y-28530000D03*
X-10795000Y-32430000D03*
X-12065000Y-28530000D03*
X-12065000Y-32430000D03*
D28*
X-1524000Y21308000D03*
X-1524000Y20348000D03*
D32*
X22435000Y-3992500D03*
D34*
X22435000Y-5505000D03*
X22435000Y-4655000D03*
D38*
X21772500Y-4655000D03*
D33*
X23947500Y-4655000D03*
X23947500Y-5505000D03*
D32*
X23285000Y-3992500D03*
D36*
X22435000Y-6167500D03*
D37*
X23947500Y-3992500D03*
D34*
X23285000Y-4655000D03*
D38*
X21772500Y-5505000D03*
D39*
X21772500Y-6167500D03*
D40*
X23947500Y-6167500D03*
D35*
X21772500Y-3992500D03*
D34*
X23285000Y-5505000D03*
D36*
X23285000Y-6167500D03*
D41*
X24810000Y-6480000D03*
D42*
X24810000Y-6080000D03*
X24810000Y-5680000D03*
X24810000Y-5280000D03*
X24810000Y-4880000D03*
X24810000Y-4480000D03*
X24810000Y-4080000D03*
D43*
X24810000Y-3680000D03*
D44*
X24260000Y-3130000D03*
D45*
X23860000Y-3130000D03*
X23460000Y-3130000D03*
X23060000Y-3130000D03*
X22660000Y-3130000D03*
X22260000Y-3130000D03*
X21860000Y-3130000D03*
D46*
X21460000Y-3130000D03*
D47*
X20910000Y-3680000D03*
D42*
X20910000Y-4080000D03*
X20910000Y-4480000D03*
X20910000Y-4880000D03*
X20910000Y-5280000D03*
X20910000Y-5680000D03*
X20910000Y-6080000D03*
D48*
X20910000Y-6480000D03*
D49*
X21460000Y-7030000D03*
D45*
X21860000Y-7030000D03*
X22260000Y-7030000D03*
X22660000Y-7030000D03*
X23060000Y-7030000D03*
X23460000Y-7030000D03*
X23860000Y-7030000D03*
D50*
X24260000Y-7030000D03*
D51*
X-19304000Y6632000D03*
X-19304000Y7592000D03*
D73*
X7406008Y-8396608D03*
X6309992Y-7300592D03*
D74*
X-23285000Y-3992500D03*
D75*
X-23285000Y-4655000D03*
D76*
X-23947500Y-3992500D03*
D77*
X-21772500Y-5505000D03*
D78*
X-21772500Y-3992500D03*
D79*
X-22435000Y-6167500D03*
D80*
X-23947500Y-4655000D03*
D79*
X-23285000Y-6167500D03*
D75*
X-23285000Y-5505000D03*
D77*
X-21772500Y-4655000D03*
D75*
X-22435000Y-4655000D03*
D81*
X-21772500Y-6167500D03*
D74*
X-22435000Y-3992500D03*
D80*
X-23947500Y-5505000D03*
D75*
X-22435000Y-5505000D03*
D82*
X-23947500Y-6167500D03*
D83*
X-24810000Y-3680000D03*
D84*
X-24810000Y-4080000D03*
X-24810000Y-4480000D03*
X-24810000Y-4880000D03*
X-24810000Y-5280000D03*
X-24810000Y-5680000D03*
X-24810000Y-6080000D03*
D85*
X-24810000Y-6480000D03*
D86*
X-24260000Y-7030000D03*
D87*
X-23860000Y-7030000D03*
X-23460000Y-7030000D03*
X-23060000Y-7030000D03*
X-22660000Y-7030000D03*
X-22260000Y-7030000D03*
X-21860000Y-7030000D03*
D88*
X-21460000Y-7030000D03*
D89*
X-20910000Y-6480000D03*
D84*
X-20910000Y-6080000D03*
X-20910000Y-5680000D03*
X-20910000Y-5280000D03*
X-20910000Y-4880000D03*
X-20910000Y-4480000D03*
X-20910000Y-4080000D03*
D90*
X-20910000Y-3680000D03*
D91*
X-21460000Y-3130000D03*
D87*
X-21860000Y-3130000D03*
X-22260000Y-3130000D03*
X-22660000Y-3130000D03*
X-23060000Y-3130000D03*
X-23460000Y-3130000D03*
X-23860000Y-3130000D03*
D92*
X-24260000Y-3130000D03*
D51*
X3048000Y15268000D03*
X3048000Y16228000D03*
D31*
X-21308000Y-8636000D03*
X-20348000Y-8636000D03*
D93*
X-1350000Y17714000D03*
X-1350000Y16764000D03*
X-1350000Y15814000D03*
X1350000Y15814000D03*
X1350000Y17714000D03*
D51*
X-8636000Y-21308000D03*
X-8636000Y-20348000D03*
D94*
X-5505000Y-23285000D03*
D95*
X-6167500Y-23947500D03*
D96*
X-6167500Y-21772500D03*
D97*
X-3992500Y-23285000D03*
D98*
X-4655000Y-23947500D03*
D99*
X-3992500Y-21772500D03*
D100*
X-6167500Y-23285000D03*
D97*
X-3992500Y-22435000D03*
D101*
X-4655000Y-21772500D03*
D100*
X-6167500Y-22435000D03*
D98*
X-5505000Y-23947500D03*
D101*
X-5505000Y-21772500D03*
D94*
X-4655000Y-23285000D03*
X-4655000Y-22435000D03*
X-5505000Y-22435000D03*
D102*
X-3992500Y-23947500D03*
D103*
X-6480000Y-24810000D03*
D104*
X-6080000Y-24810000D03*
X-5680000Y-24810000D03*
X-5280000Y-24810000D03*
X-4880000Y-24810000D03*
X-4480000Y-24810000D03*
X-4080000Y-24810000D03*
D105*
X-3680000Y-24810000D03*
D106*
X-3130000Y-24260000D03*
D107*
X-3130000Y-23860000D03*
X-3130000Y-23460000D03*
X-3130000Y-23060000D03*
X-3130000Y-22660000D03*
X-3130000Y-22260000D03*
X-3130000Y-21860000D03*
D108*
X-3130000Y-21460000D03*
D109*
X-3680000Y-20910000D03*
D104*
X-4080000Y-20910000D03*
X-4480000Y-20910000D03*
X-4880000Y-20910000D03*
X-5280000Y-20910000D03*
X-5680000Y-20910000D03*
X-6080000Y-20910000D03*
D110*
X-6480000Y-20910000D03*
D111*
X-7030000Y-21460000D03*
D107*
X-7030000Y-21860000D03*
X-7030000Y-22260000D03*
X-7030000Y-22660000D03*
X-7030000Y-23060000D03*
X-7030000Y-23460000D03*
X-7030000Y-23860000D03*
D112*
X-7030000Y-24260000D03*
D113*
X13197208Y-11059792D03*
X12101192Y-12155808D03*
D71*
X12192000Y-7110000D03*
X12192000Y-8130000D03*
D114*
X10343383Y-11686885D03*
X11015134Y-11015134D03*
X11686885Y-10343383D03*
X10078217Y-8734715D03*
X8734715Y-10078217D03*
D30*
X-6632000Y-19304000D03*
X-7592000Y-19304000D03*
D51*
X8636000Y-21308000D03*
X8636000Y-20348000D03*
D30*
X21308000Y8636000D03*
X20348000Y8636000D03*
D77*
X-21772500Y4655000D03*
D81*
X-21772500Y3992500D03*
D80*
X-23947500Y4655000D03*
D77*
X-21772500Y5505000D03*
D76*
X-23947500Y6167500D03*
D74*
X-23285000Y6167500D03*
D75*
X-23285000Y4655000D03*
X-22435000Y5505000D03*
D74*
X-22435000Y6167500D03*
D82*
X-23947500Y3992500D03*
D80*
X-23947500Y5505000D03*
D78*
X-21772500Y6167500D03*
D75*
X-23285000Y5505000D03*
X-22435000Y4655000D03*
D79*
X-22435000Y3992500D03*
X-23285000Y3992500D03*
D83*
X-24810000Y6480000D03*
D84*
X-24810000Y6080000D03*
X-24810000Y5680000D03*
X-24810000Y5280000D03*
X-24810000Y4880000D03*
X-24810000Y4480000D03*
X-24810000Y4080000D03*
D85*
X-24810000Y3680000D03*
D86*
X-24260000Y3130000D03*
D87*
X-23860000Y3130000D03*
X-23460000Y3130000D03*
X-23060000Y3130000D03*
X-22660000Y3130000D03*
X-22260000Y3130000D03*
X-21860000Y3130000D03*
D88*
X-21460000Y3130000D03*
D89*
X-20910000Y3680000D03*
D84*
X-20910000Y4080000D03*
X-20910000Y4480000D03*
X-20910000Y4880000D03*
X-20910000Y5280000D03*
X-20910000Y5680000D03*
X-20910000Y6080000D03*
D90*
X-20910000Y6480000D03*
D91*
X-21460000Y7030000D03*
D87*
X-21860000Y7030000D03*
X-22260000Y7030000D03*
X-22660000Y7030000D03*
X-23060000Y7030000D03*
X-23460000Y7030000D03*
X-23860000Y7030000D03*
D92*
X-24260000Y7030000D03*
D28*
X1524000Y21308000D03*
X1524000Y20348000D03*
X-3048000Y17752000D03*
X-3048000Y16792000D03*
D56*
X3992500Y23285000D03*
D54*
X4655000Y23285000D03*
D58*
X3992500Y23947500D03*
D54*
X5505000Y23285000D03*
X4655000Y22435000D03*
D57*
X5505000Y23947500D03*
D60*
X3992500Y21772500D03*
D59*
X6167500Y23947500D03*
D56*
X3992500Y22435000D03*
D54*
X5505000Y22435000D03*
D55*
X6167500Y22435000D03*
D53*
X4655000Y21772500D03*
D57*
X4655000Y23947500D03*
D55*
X6167500Y23285000D03*
D52*
X6167500Y21772500D03*
D53*
X5505000Y21772500D03*
D61*
X6480000Y24810000D03*
D62*
X6080000Y24810000D03*
X5680000Y24810000D03*
X5280000Y24810000D03*
X4880000Y24810000D03*
X4480000Y24810000D03*
X4080000Y24810000D03*
D63*
X3680000Y24810000D03*
D64*
X3130000Y24260000D03*
D65*
X3130000Y23860000D03*
X3130000Y23460000D03*
X3130000Y23060000D03*
X3130000Y22660000D03*
X3130000Y22260000D03*
X3130000Y21860000D03*
D66*
X3130000Y21460000D03*
D67*
X3680000Y20910000D03*
D62*
X4080000Y20910000D03*
X4480000Y20910000D03*
X4880000Y20910000D03*
X5280000Y20910000D03*
X5680000Y20910000D03*
X6080000Y20910000D03*
D68*
X6480000Y20910000D03*
D69*
X7030000Y21460000D03*
D65*
X7030000Y21860000D03*
X7030000Y22260000D03*
X7030000Y22660000D03*
X7030000Y23060000D03*
X7030000Y23460000D03*
X7030000Y23860000D03*
D70*
X7030000Y24260000D03*
D73*
X8472808Y-7329808D03*
X7376792Y-6233792D03*
D94*
X4655000Y-22435000D03*
D97*
X6167500Y-22435000D03*
D101*
X4655000Y-21772500D03*
D94*
X5505000Y-22435000D03*
D98*
X5505000Y-23947500D03*
D100*
X3992500Y-23285000D03*
D96*
X3992500Y-21772500D03*
D101*
X5505000Y-21772500D03*
D94*
X5505000Y-23285000D03*
D100*
X3992500Y-22435000D03*
D94*
X4655000Y-23285000D03*
D98*
X4655000Y-23947500D03*
D102*
X6167500Y-23947500D03*
D99*
X6167500Y-21772500D03*
D97*
X6167500Y-23285000D03*
D95*
X3992500Y-23947500D03*
D103*
X3680000Y-24810000D03*
D104*
X4080000Y-24810000D03*
X4480000Y-24810000D03*
X4880000Y-24810000D03*
X5280000Y-24810000D03*
X5680000Y-24810000D03*
X6080000Y-24810000D03*
D105*
X6480000Y-24810000D03*
D106*
X7030000Y-24260000D03*
D107*
X7030000Y-23860000D03*
X7030000Y-23460000D03*
X7030000Y-23060000D03*
X7030000Y-22660000D03*
X7030000Y-22260000D03*
X7030000Y-21860000D03*
D108*
X7030000Y-21460000D03*
D109*
X6480000Y-20910000D03*
D104*
X6080000Y-20910000D03*
X5680000Y-20910000D03*
X5280000Y-20910000D03*
X4880000Y-20910000D03*
X4480000Y-20910000D03*
X4080000Y-20910000D03*
D110*
X3680000Y-20910000D03*
D111*
X3130000Y-21460000D03*
D107*
X3130000Y-21860000D03*
X3130000Y-22260000D03*
X3130000Y-22660000D03*
X3130000Y-23060000D03*
X3130000Y-23460000D03*
X3130000Y-23860000D03*
D112*
X3130000Y-24260000D03*
D72*
X-12065000Y28530000D03*
X-12065000Y32430000D03*
X-10795000Y28530000D03*
X-10795000Y32430000D03*
X-9525000Y28530000D03*
X-9525000Y32430000D03*
X-8255000Y28530000D03*
X-8255000Y32430000D03*
X-6985000Y28530000D03*
X-6985000Y32430000D03*
X-5715000Y28530000D03*
X-5715000Y32430000D03*
X-4445000Y28530000D03*
X-4445000Y32430000D03*
X-3175000Y28530000D03*
X-3175000Y32430000D03*
X-1905000Y28530000D03*
X-1905000Y32430000D03*
X-635000Y28530000D03*
X-635000Y32430000D03*
X635000Y28530000D03*
X635000Y32430000D03*
X1905000Y28530000D03*
X1905000Y32430000D03*
X3175000Y28530000D03*
X3175000Y32430000D03*
X4445000Y28530000D03*
X4445000Y32430000D03*
X5715000Y28530000D03*
X5715000Y32430000D03*
X6985000Y28530000D03*
X6985000Y32430000D03*
X8255000Y28530000D03*
X8255000Y32430000D03*
X9525000Y28530000D03*
X9525000Y32430000D03*
X10795000Y28530000D03*
X10795000Y32430000D03*
X12065000Y28530000D03*
X12065000Y32430000D03*
D29*
X-28530000Y-12065000D03*
X-32430000Y-12065000D03*
X-28530000Y-10795000D03*
X-32430000Y-10795000D03*
X-28530000Y-9525000D03*
X-32430000Y-9525000D03*
X-28530000Y-8255000D03*
X-32430000Y-8255000D03*
X-28530000Y-6985000D03*
X-32430000Y-6985000D03*
X-28530000Y-5715000D03*
X-32430000Y-5715000D03*
X-28530000Y-4445000D03*
X-32430000Y-4445000D03*
X-28530000Y-3175000D03*
X-32430000Y-3175000D03*
X-28530000Y-1905000D03*
X-32430000Y-1905000D03*
X-28530000Y-635000D03*
X-32430000Y-635000D03*
X-28530000Y635000D03*
X-32430000Y635000D03*
X-28530000Y1905000D03*
X-32430000Y1905000D03*
X-28530000Y3175000D03*
X-32430000Y3175000D03*
X-28530000Y4445000D03*
X-32430000Y4445000D03*
X-28530000Y5715000D03*
X-32430000Y5715000D03*
X-28530000Y6985000D03*
X-32430000Y6985000D03*
X-28530000Y8255000D03*
X-32430000Y8255000D03*
X-28530000Y9525000D03*
X-32430000Y9525000D03*
X-28530000Y10795000D03*
X-32430000Y10795000D03*
X-28530000Y12065000D03*
X-32430000Y12065000D03*
D115*
X510000Y-6096000D03*
X-510000Y-6096000D03*
D30*
X21308000Y-1524000D03*
X20348000Y-1524000D03*
M02*
