G04 #@! TF.GenerationSoftware,KiCad,Pcbnew,5.99.0-unknown-243631a095~131~ubuntu18.04.1*
G04 #@! TF.CreationDate,2021-09-05T03:56:41+03:00*
G04 #@! TF.ProjectId,FreeEEG128-alpha,46726565-4545-4473-9132-382d616c7068,rev?*
G04 #@! TF.SameCoordinates,Original*
G04 #@! TF.FileFunction,Legend,Top*
G04 #@! TF.FilePolarity,Positive*
%FSLAX46Y46*%
G04 Gerber Fmt 4.6, Leading zero omitted, Abs format (unit mm)*
G04 Created by KiCad (PCBNEW 5.99.0-unknown-243631a095~131~ubuntu18.04.1) date 2021-09-05 03:56:41*
%MOMM*%
%LPD*%
G01*
G04 APERTURE LIST*
%ADD10C,0.125000*%
%ADD11C,0.150000*%
%ADD12C,0.075000*%
%ADD13C,0.120000*%
G04 APERTURE END LIST*
D10*
X18617683Y13162859D02*
X18853385Y12927157D01*
X19223774Y13297546D02*
X18516667Y12590439D01*
X18179950Y12927157D01*
X18617683Y13903638D02*
X18146278Y13432233D01*
X18280965Y13566920D02*
X18179950Y13533248D01*
X18112606Y13533248D01*
X18011591Y13566920D01*
X17944248Y13634264D01*
X17876904Y14577073D02*
X17977919Y14543401D01*
X18112606Y14408714D01*
X18146278Y14307699D01*
X18112606Y14206683D01*
X17843232Y13937309D01*
X17742217Y13903638D01*
X17641202Y13937309D01*
X17506515Y14071996D01*
X17472843Y14173012D01*
X17506515Y14274027D01*
X17573858Y14341370D01*
X17977919Y14071996D01*
X17270813Y15183164D02*
X17371828Y15149492D01*
X17506515Y15014805D01*
X17540187Y14913790D01*
X17506515Y14812775D01*
X17237141Y14543401D01*
X17136126Y14509729D01*
X17035110Y14543401D01*
X16900423Y14678088D01*
X16866752Y14779103D01*
X16900423Y14880118D01*
X16967767Y14947462D01*
X17371828Y14678088D01*
X16597378Y15183164D02*
X16361675Y15418866D01*
X16631049Y15890271D02*
X16967767Y15553553D01*
X16260660Y14846447D01*
X15923943Y15183164D01*
X15957614Y15822927D02*
X15721912Y16058630D01*
X15991286Y16530034D02*
X16328004Y16193317D01*
X15620897Y15486210D01*
X15284179Y15822927D01*
X14644416Y16530034D02*
X14678088Y16429019D01*
X14779103Y16328004D01*
X14913790Y16260660D01*
X15048477Y16260660D01*
X15149492Y16294332D01*
X15317851Y16395347D01*
X15418866Y16496362D01*
X15519882Y16664721D01*
X15553553Y16765736D01*
X15553553Y16900423D01*
X15486210Y17035110D01*
X15418866Y17102454D01*
X15284179Y17169797D01*
X15216836Y17169797D01*
X14981134Y16934095D01*
X15115821Y16799408D01*
X14610744Y17910576D02*
X15014805Y17506515D01*
X14812775Y17708545D02*
X14105668Y17001439D01*
X14274027Y17035110D01*
X14408714Y17035110D01*
X14509729Y17001439D01*
X13701607Y17540187D02*
X13634264Y17540187D01*
X13533248Y17573858D01*
X13364890Y17742217D01*
X13331218Y17843232D01*
X13331218Y17910576D01*
X13364890Y18011591D01*
X13432233Y18078935D01*
X13566920Y18146278D01*
X14375042Y18146278D01*
X13937309Y18584011D01*
X13129187Y18584011D02*
X13162859Y18482996D01*
X13162859Y18415652D01*
X13129187Y18314637D01*
X13095515Y18280965D01*
X12994500Y18247293D01*
X12927157Y18247293D01*
X12826141Y18280965D01*
X12691454Y18415652D01*
X12657783Y18516667D01*
X12657783Y18584011D01*
X12691454Y18685026D01*
X12725126Y18718698D01*
X12826141Y18752370D01*
X12893485Y18752370D01*
X12994500Y18718698D01*
X13129187Y18584011D01*
X13230203Y18550339D01*
X13297546Y18550339D01*
X13398561Y18584011D01*
X13533248Y18718698D01*
X13566920Y18819713D01*
X13566920Y18887057D01*
X13533248Y18988072D01*
X13398561Y19122759D01*
X13297546Y19156431D01*
X13230203Y19156431D01*
X13129187Y19122759D01*
X12994500Y18988072D01*
X12960828Y18887057D01*
X12960828Y18819713D01*
X12994500Y18718698D01*
X18392419Y16405785D02*
X18022030Y16035396D01*
X17988358Y15934381D01*
X18022030Y15833366D01*
X18156717Y15698679D01*
X18257732Y15665007D01*
X18358747Y16372114D02*
X18459762Y16338442D01*
X18628121Y16170083D01*
X18661793Y16069068D01*
X18628121Y15968053D01*
X18560778Y15900709D01*
X18459762Y15867037D01*
X18358747Y15900709D01*
X18190388Y16069068D01*
X18089373Y16102740D01*
X17954686Y16843518D02*
X17988358Y16742503D01*
X17954686Y16641488D01*
X17348595Y16035396D01*
X17213908Y16641488D02*
X17921014Y17348595D01*
X17247579Y16675159D02*
X17146564Y16708831D01*
X17011877Y16843518D01*
X16978205Y16944533D01*
X16978205Y17011877D01*
X17011877Y17112892D01*
X17213908Y17314923D01*
X17314923Y17348595D01*
X17382266Y17348595D01*
X17483282Y17314923D01*
X17617969Y17180236D01*
X17651640Y17079221D01*
X17045549Y17752656D02*
X16338442Y17045549D01*
X16742503Y18055701D02*
X16372114Y17685312D01*
X16338442Y17584297D01*
X16372114Y17483282D01*
X16473129Y17382266D01*
X16574144Y17348595D01*
X16641488Y17348595D01*
X16102740Y18695465D02*
X15732350Y18325075D01*
X15698679Y18224060D01*
X15732350Y18123045D01*
X15867037Y17988358D01*
X15968053Y17954686D01*
X16069068Y18661793D02*
X16170083Y18628121D01*
X16338442Y18459762D01*
X16372114Y18358747D01*
X16338442Y18257732D01*
X16271098Y18190388D01*
X16170083Y18156717D01*
X16069068Y18190388D01*
X15900709Y18358747D01*
X15799694Y18392419D01*
D11*
X-13024973Y-20293300D02*
X-12553569Y-19821895D01*
X-12957630Y-20225956D02*
X-13024973Y-20225956D01*
X-13125988Y-20192284D01*
X-13227004Y-20091269D01*
X-13260675Y-19990254D01*
X-13227004Y-19889239D01*
X-12856614Y-19518849D01*
X-13496378Y-18946429D02*
X-13395362Y-18980101D01*
X-13260675Y-19114788D01*
X-13227004Y-19215803D01*
X-13260675Y-19316819D01*
X-13530049Y-19586193D01*
X-13631065Y-19619865D01*
X-13732080Y-19586193D01*
X-13866767Y-19451506D01*
X-13900439Y-19350491D01*
X-13866767Y-19249475D01*
X-13799424Y-19182132D01*
X-13395362Y-19451506D01*
X-14573874Y-18744399D02*
X-14102469Y-18272994D01*
X-14270828Y-19047445D02*
X-13900439Y-18677055D01*
X-13866767Y-18576040D01*
X-13900439Y-18475025D01*
X-14001454Y-18374010D01*
X-14102469Y-18340338D01*
X-14169813Y-18340338D01*
X-14439187Y-17936277D02*
X-14910591Y-18407681D01*
X-14775904Y-18272994D02*
X-14876920Y-18306666D01*
X-14944263Y-18306666D01*
X-15045278Y-18272994D01*
X-15112622Y-18205651D01*
X-14977935Y-17397529D02*
X-14944263Y-17498544D01*
X-14944263Y-17565888D01*
X-14977935Y-17666903D01*
X-15179965Y-17868933D01*
X-15280981Y-17902605D01*
X-15348324Y-17902605D01*
X-15449339Y-17868933D01*
X-15550355Y-17767918D01*
X-15584026Y-17666903D01*
X-15584026Y-17599559D01*
X-15550355Y-17498544D01*
X-15348324Y-17296514D01*
X-15247309Y-17262842D01*
X-15179965Y-17262842D01*
X-15078950Y-17296514D01*
X-14977935Y-17397529D01*
X-15516683Y-16858781D02*
X-15988087Y-17330185D01*
X-16223790Y-17565888D02*
X-16156446Y-17565888D01*
X-16156446Y-17498544D01*
X-16223790Y-17498544D01*
X-16223790Y-17565888D01*
X-16156446Y-17498544D01*
X-16156446Y-16219018D02*
X-16863553Y-16926124D01*
X-16190118Y-16252689D02*
X-16089103Y-16286361D01*
X-15954416Y-16421048D01*
X-15920744Y-16522063D01*
X-15920744Y-16589407D01*
X-15954416Y-16690422D01*
X-16156446Y-16892453D01*
X-16257461Y-16926124D01*
X-16324805Y-16926124D01*
X-16425820Y-16892453D01*
X-16560507Y-16757766D01*
X-16594179Y-16656750D01*
X-16493164Y-15949644D02*
X-16526835Y-15848628D01*
X-16661522Y-15713941D01*
X-16762538Y-15680270D01*
X-16863553Y-15713941D01*
X-16897225Y-15747613D01*
X-16930896Y-15848628D01*
X-16897225Y-15949644D01*
X-16796209Y-16050659D01*
X-16762538Y-16151674D01*
X-16796209Y-16252689D01*
X-16829881Y-16286361D01*
X-16930896Y-16320033D01*
X-17031912Y-16286361D01*
X-17132927Y-16185346D01*
X-17166599Y-16084331D01*
X-17065583Y-15377224D02*
X-17099255Y-15276209D01*
X-17233942Y-15141522D01*
X-17334957Y-15107850D01*
X-17435973Y-15141522D01*
X-17469644Y-15175193D01*
X-17503316Y-15276209D01*
X-17469644Y-15377224D01*
X-17368629Y-15478239D01*
X-17334957Y-15579254D01*
X-17368629Y-15680270D01*
X-17402301Y-15713941D01*
X-17503316Y-15747613D01*
X-17604331Y-15713941D01*
X-17705347Y-15612926D01*
X-17739018Y-15511911D01*
X-17705347Y-14804804D02*
X-17705347Y-14737461D01*
X-17638003Y-14737461D01*
X-17638003Y-14804804D01*
X-17705347Y-14804804D01*
X-17638003Y-14737461D01*
X-18311438Y-14131369D02*
X-18210423Y-14165041D01*
X-18075736Y-14299728D01*
X-18042064Y-14400743D01*
X-18042064Y-14468087D01*
X-18075736Y-14569102D01*
X-18277766Y-14771132D01*
X-18378782Y-14804804D01*
X-18446125Y-14804804D01*
X-18547140Y-14771132D01*
X-18681827Y-14636445D01*
X-18715499Y-14535430D01*
X-18681827Y-13693636D02*
X-18648156Y-13794652D01*
X-18648156Y-13861995D01*
X-18681827Y-13963010D01*
X-18883858Y-14165041D01*
X-18984873Y-14198713D01*
X-19052217Y-14198713D01*
X-19153232Y-14165041D01*
X-19254247Y-14064026D01*
X-19287919Y-13963010D01*
X-19287919Y-13895667D01*
X-19254247Y-13794652D01*
X-19052217Y-13592621D01*
X-18951201Y-13558949D01*
X-18883858Y-13558949D01*
X-18782843Y-13592621D01*
X-18681827Y-13693636D01*
X-19220575Y-13154888D02*
X-19691980Y-13626293D01*
X-19624637Y-13558949D02*
X-19691980Y-13558949D01*
X-19792995Y-13525277D01*
X-19894011Y-13424262D01*
X-19927682Y-13323247D01*
X-19894011Y-13222232D01*
X-19523621Y-12851842D01*
X-19894011Y-13222232D02*
X-19995026Y-13255903D01*
X-20096041Y-13222232D01*
X-20197056Y-13121216D01*
X-20230728Y-13020201D01*
X-20197056Y-12919186D01*
X-19826667Y-12548797D01*
X-18039714Y4582619D02*
X-18039714Y3868333D01*
X-18087333Y3725476D01*
X-18182571Y3630238D01*
X-18325428Y3582619D01*
X-18420666Y3582619D01*
X-17658761Y4582619D02*
X-17039714Y4582619D01*
X-17373047Y4201666D01*
X-17230190Y4201666D01*
X-17134952Y4154047D01*
X-17087333Y4106428D01*
X-17039714Y4011190D01*
X-17039714Y3773095D01*
X-17087333Y3677857D01*
X-17134952Y3630238D01*
X-17230190Y3582619D01*
X-17515904Y3582619D01*
X-17611142Y3630238D01*
X-17658761Y3677857D01*
X-16420666Y4582619D02*
X-16325428Y4582619D01*
X-16230190Y4535000D01*
X-16182571Y4487380D01*
X-16134952Y4392142D01*
X-16087333Y4201666D01*
X-16087333Y3963571D01*
X-16134952Y3773095D01*
X-16182571Y3677857D01*
X-16230190Y3630238D01*
X-16325428Y3582619D01*
X-16420666Y3582619D01*
X-16515904Y3630238D01*
X-16563523Y3677857D01*
X-16611142Y3773095D01*
X-16658761Y3963571D01*
X-16658761Y4201666D01*
X-16611142Y4392142D01*
X-16563523Y4487380D01*
X-16515904Y4535000D01*
X-16420666Y4582619D01*
X-15754000Y4582619D02*
X-15134952Y4582619D01*
X-15468285Y4201666D01*
X-15325428Y4201666D01*
X-15230190Y4154047D01*
X-15182571Y4106428D01*
X-15134952Y4011190D01*
X-15134952Y3773095D01*
X-15182571Y3677857D01*
X-15230190Y3630238D01*
X-15325428Y3582619D01*
X-15611142Y3582619D01*
X-15706380Y3630238D01*
X-15754000Y3677857D01*
X15468285Y-3487380D02*
X15468285Y-4201666D01*
X15420666Y-4344523D01*
X15325428Y-4439761D01*
X15182571Y-4487380D01*
X15087333Y-4487380D01*
X15849238Y-3487380D02*
X16468285Y-3487380D01*
X16134952Y-3868333D01*
X16277809Y-3868333D01*
X16373047Y-3915952D01*
X16420666Y-3963571D01*
X16468285Y-4058809D01*
X16468285Y-4296904D01*
X16420666Y-4392142D01*
X16373047Y-4439761D01*
X16277809Y-4487380D01*
X15992095Y-4487380D01*
X15896857Y-4439761D01*
X15849238Y-4392142D01*
X17087333Y-3487380D02*
X17182571Y-3487380D01*
X17277809Y-3535000D01*
X17325428Y-3582619D01*
X17373047Y-3677857D01*
X17420666Y-3868333D01*
X17420666Y-4106428D01*
X17373047Y-4296904D01*
X17325428Y-4392142D01*
X17277809Y-4439761D01*
X17182571Y-4487380D01*
X17087333Y-4487380D01*
X16992095Y-4439761D01*
X16944476Y-4392142D01*
X16896857Y-4296904D01*
X16849238Y-4106428D01*
X16849238Y-3868333D01*
X16896857Y-3677857D01*
X16944476Y-3582619D01*
X16992095Y-3535000D01*
X17087333Y-3487380D01*
X18373047Y-4487380D02*
X17801619Y-4487380D01*
X18087333Y-4487380D02*
X18087333Y-3487380D01*
X17992095Y-3630238D01*
X17896857Y-3725476D01*
X17801619Y-3773095D01*
D12*
X16895882Y-17442092D02*
X17182092Y-17728302D01*
X17232599Y-17745138D01*
X17266271Y-17745138D01*
X17316779Y-17728302D01*
X17384122Y-17660958D01*
X17400958Y-17610451D01*
X17400958Y-17576779D01*
X17384122Y-17526271D01*
X17097912Y-17240061D01*
X17805019Y-17240061D02*
X17602989Y-17442092D01*
X17704004Y-17341077D02*
X17350451Y-16987523D01*
X17367286Y-17071703D01*
X17367286Y-17139046D01*
X17350451Y-17189554D01*
X-24538446Y14884984D02*
X-24504774Y14884984D01*
X-24437431Y14851312D01*
X-24403759Y14817641D01*
X-24370087Y14750297D01*
X-24370087Y14682954D01*
X-24386923Y14632446D01*
X-24437431Y14548267D01*
X-24487938Y14497759D01*
X-24572118Y14447251D01*
X-24622625Y14430416D01*
X-24689969Y14430416D01*
X-24757312Y14464087D01*
X-24790984Y14497759D01*
X-24824656Y14565103D01*
X-24824656Y14598774D01*
X-24976179Y14682954D02*
X-25195045Y14901820D01*
X-24942507Y14918656D01*
X-24993015Y14969164D01*
X-25009851Y15019671D01*
X-25009851Y15053343D01*
X-24993015Y15103851D01*
X-24908835Y15188030D01*
X-24858328Y15204866D01*
X-24824656Y15204866D01*
X-24774148Y15188030D01*
X-24673133Y15087015D01*
X-24656297Y15036507D01*
X-24656297Y15002835D01*
X-25245553Y15255374D02*
X-25228717Y15204866D01*
X-25228717Y15171194D01*
X-25245553Y15120687D01*
X-25262389Y15103851D01*
X-25312896Y15087015D01*
X-25346568Y15087015D01*
X-25397076Y15103851D01*
X-25464419Y15171194D01*
X-25481255Y15221702D01*
X-25481255Y15255374D01*
X-25464419Y15305881D01*
X-25447583Y15322717D01*
X-25397076Y15339553D01*
X-25363404Y15339553D01*
X-25312896Y15322717D01*
X-25245553Y15255374D01*
X-25195045Y15238538D01*
X-25161374Y15238538D01*
X-25110866Y15255374D01*
X-25043522Y15322717D01*
X-25026687Y15373225D01*
X-25026687Y15406896D01*
X-25043522Y15457404D01*
X-25110866Y15524748D01*
X-25161374Y15541583D01*
X-25195045Y15541583D01*
X-25245553Y15524748D01*
X-25312896Y15457404D01*
X-25329732Y15406896D01*
X-25329732Y15373225D01*
X-25312896Y15322717D01*
X-8483015Y-16914353D02*
X-8483015Y-16948025D01*
X-8516687Y-17015368D01*
X-8550358Y-17049040D01*
X-8617702Y-17082712D01*
X-8685045Y-17082712D01*
X-8735553Y-17065876D01*
X-8819732Y-17015368D01*
X-8870240Y-16964861D01*
X-8920748Y-16880681D01*
X-8937583Y-16830174D01*
X-8937583Y-16762830D01*
X-8903912Y-16695487D01*
X-8870240Y-16661815D01*
X-8802896Y-16628143D01*
X-8769225Y-16628143D01*
X-8499851Y-16291425D02*
X-8567194Y-16358769D01*
X-8584030Y-16409277D01*
X-8584030Y-16442948D01*
X-8567194Y-16527128D01*
X-8516687Y-16611307D01*
X-8382000Y-16745994D01*
X-8331492Y-16762830D01*
X-8297820Y-16762830D01*
X-8247312Y-16745994D01*
X-8179969Y-16678651D01*
X-8163133Y-16628143D01*
X-8163133Y-16594471D01*
X-8179969Y-16543964D01*
X-8264148Y-16459784D01*
X-8314656Y-16442948D01*
X-8348328Y-16442948D01*
X-8398835Y-16459784D01*
X-8466179Y-16527128D01*
X-8483015Y-16577635D01*
X-8483015Y-16611307D01*
X-8466179Y-16661815D01*
X-8163133Y-15954708D02*
X-8230477Y-16022051D01*
X-8247312Y-16072559D01*
X-8247312Y-16106231D01*
X-8230477Y-16190410D01*
X-8179969Y-16274590D01*
X-8045282Y-16409277D01*
X-7994774Y-16426112D01*
X-7961103Y-16426112D01*
X-7910595Y-16409277D01*
X-7843251Y-16341933D01*
X-7826416Y-16291425D01*
X-7826416Y-16257754D01*
X-7843251Y-16207246D01*
X-7927431Y-16123067D01*
X-7977938Y-16106231D01*
X-8011610Y-16106231D01*
X-8062118Y-16123067D01*
X-8129461Y-16190410D01*
X-8146297Y-16240918D01*
X-8146297Y-16274590D01*
X-8129461Y-16325097D01*
X9384832Y14421729D02*
X9384832Y14388057D01*
X9351160Y14320714D01*
X9317489Y14287042D01*
X9250145Y14253370D01*
X9182802Y14253370D01*
X9132294Y14270206D01*
X9048115Y14320714D01*
X8997607Y14371221D01*
X8947099Y14455401D01*
X8930264Y14505908D01*
X8930264Y14573252D01*
X8963935Y14640595D01*
X8997607Y14674267D01*
X9064951Y14707939D01*
X9098622Y14707939D01*
X9755222Y14724775D02*
X9553191Y14522744D01*
X9654206Y14623760D02*
X9300653Y14977313D01*
X9317489Y14893134D01*
X9317489Y14825790D01*
X9300653Y14775283D01*
X9704714Y15381374D02*
X9637370Y15314031D01*
X9620535Y15263523D01*
X9620535Y15229851D01*
X9637370Y15145672D01*
X9687878Y15061492D01*
X9822565Y14926805D01*
X9873073Y14909970D01*
X9906744Y14909970D01*
X9957252Y14926805D01*
X10024596Y14994149D01*
X10041431Y15044657D01*
X10041431Y15078328D01*
X10024596Y15128836D01*
X9940416Y15213015D01*
X9889909Y15229851D01*
X9856237Y15229851D01*
X9805729Y15213015D01*
X9738386Y15145672D01*
X9721550Y15095164D01*
X9721550Y15061492D01*
X9738386Y15010985D01*
X18347656Y-24517225D02*
X18061446Y-24466717D01*
X18145625Y-24719255D02*
X17792072Y-24365702D01*
X17926759Y-24231015D01*
X17977267Y-24214179D01*
X18010938Y-24214179D01*
X18061446Y-24231015D01*
X18111954Y-24281522D01*
X18128790Y-24332030D01*
X18128790Y-24365702D01*
X18111954Y-24416209D01*
X17977267Y-24550896D01*
X18347656Y-24113164D02*
X18297148Y-24130000D01*
X18263477Y-24130000D01*
X18212969Y-24113164D01*
X18196133Y-24096328D01*
X18179297Y-24045820D01*
X18179297Y-24012148D01*
X18196133Y-23961641D01*
X18263477Y-23894297D01*
X18313984Y-23877461D01*
X18347656Y-23877461D01*
X18398164Y-23894297D01*
X18415000Y-23911133D01*
X18431835Y-23961641D01*
X18431835Y-23995312D01*
X18415000Y-24045820D01*
X18347656Y-24113164D01*
X18330820Y-24163671D01*
X18330820Y-24197343D01*
X18347656Y-24247851D01*
X18415000Y-24315194D01*
X18465507Y-24332030D01*
X18499179Y-24332030D01*
X18549687Y-24315194D01*
X18617030Y-24247851D01*
X18633866Y-24197343D01*
X18633866Y-24163671D01*
X18617030Y-24113164D01*
X18549687Y-24045820D01*
X18499179Y-24028984D01*
X18465507Y-24028984D01*
X18415000Y-24045820D01*
X18751717Y-23641759D02*
X18987419Y-23877461D01*
X18532851Y-23591251D02*
X18701209Y-23927969D01*
X18920076Y-23709103D01*
X-22460702Y-25955583D02*
X-22746912Y-25905076D01*
X-22662732Y-26157614D02*
X-23016286Y-25804061D01*
X-22881599Y-25669374D01*
X-22831091Y-25652538D01*
X-22797419Y-25652538D01*
X-22746912Y-25669374D01*
X-22696404Y-25719881D01*
X-22679568Y-25770389D01*
X-22679568Y-25804061D01*
X-22696404Y-25854568D01*
X-22831091Y-25989255D01*
X-22123984Y-25618866D02*
X-22326015Y-25820896D01*
X-22224999Y-25719881D02*
X-22578553Y-25366328D01*
X-22561717Y-25450507D01*
X-22561717Y-25517851D01*
X-22578553Y-25568358D01*
X-21787267Y-25282148D02*
X-21989297Y-25484179D01*
X-21888282Y-25383164D02*
X-22241835Y-25029610D01*
X-22224999Y-25113790D01*
X-22224999Y-25181133D01*
X-22241835Y-25231641D01*
X-22022969Y-24810744D02*
X-21804103Y-24591877D01*
X-21787267Y-24844416D01*
X-21736759Y-24793908D01*
X-21686251Y-24777072D01*
X-21652580Y-24777072D01*
X-21602072Y-24793908D01*
X-21517893Y-24878087D01*
X-21501057Y-24928595D01*
X-21501057Y-24962267D01*
X-21517893Y-25012774D01*
X-21618908Y-25113790D01*
X-21669416Y-25130625D01*
X-21703087Y-25130625D01*
X17349716Y29166941D02*
X17602254Y28914403D01*
X17635926Y28847060D01*
X17635926Y28779716D01*
X17602254Y28712373D01*
X17568583Y28678701D01*
X18056823Y29166941D02*
X17854793Y28964911D01*
X17955808Y29065926D02*
X17602254Y29419480D01*
X17619090Y29335300D01*
X17619090Y29267957D01*
X17602254Y29217449D01*
X17922136Y29739361D02*
X17955808Y29773033D01*
X18006315Y29789869D01*
X18039987Y29789869D01*
X18090495Y29773033D01*
X18174674Y29722525D01*
X18258854Y29638346D01*
X18309361Y29554167D01*
X18326197Y29503659D01*
X18326197Y29469987D01*
X18309361Y29419480D01*
X18275689Y29385808D01*
X18225182Y29368972D01*
X18191510Y29368972D01*
X18141002Y29385808D01*
X18056823Y29436315D01*
X17972644Y29520495D01*
X17922136Y29604674D01*
X17905300Y29655182D01*
X17905300Y29688854D01*
X17922136Y29739361D01*
X18460884Y30042407D02*
X18696586Y29806705D01*
X18242018Y30092915D02*
X18410376Y29756197D01*
X18629243Y29975063D01*
X-20929015Y-19911553D02*
X-20929015Y-19945225D01*
X-20962687Y-20012568D01*
X-20996358Y-20046240D01*
X-21063702Y-20079912D01*
X-21131045Y-20079912D01*
X-21181553Y-20063076D01*
X-21265732Y-20012568D01*
X-21316240Y-19962061D01*
X-21366748Y-19877881D01*
X-21383583Y-19827374D01*
X-21383583Y-19760030D01*
X-21349912Y-19692687D01*
X-21316240Y-19659015D01*
X-21248896Y-19625343D01*
X-21215225Y-19625343D01*
X-21131045Y-19473820D02*
X-20912179Y-19254954D01*
X-20895343Y-19507492D01*
X-20844835Y-19456984D01*
X-20794328Y-19440148D01*
X-20760656Y-19440148D01*
X-20710148Y-19456984D01*
X-20625969Y-19541164D01*
X-20609133Y-19591671D01*
X-20609133Y-19625343D01*
X-20625969Y-19675851D01*
X-20726984Y-19776866D01*
X-20777492Y-19793702D01*
X-20811164Y-19793702D01*
X-20390267Y-19440148D02*
X-20322923Y-19372805D01*
X-20306087Y-19322297D01*
X-20306087Y-19288625D01*
X-20322923Y-19204446D01*
X-20373431Y-19120267D01*
X-20508118Y-18985580D01*
X-20558625Y-18968744D01*
X-20592297Y-18968744D01*
X-20642805Y-18985580D01*
X-20710148Y-19052923D01*
X-20726984Y-19103431D01*
X-20726984Y-19137103D01*
X-20710148Y-19187610D01*
X-20625969Y-19271790D01*
X-20575461Y-19288625D01*
X-20541790Y-19288625D01*
X-20491282Y-19271790D01*
X-20423938Y-19204446D01*
X-20407103Y-19153938D01*
X-20407103Y-19120267D01*
X-20423938Y-19069759D01*
X-5917615Y-10157953D02*
X-5917615Y-10191625D01*
X-5951287Y-10258968D01*
X-5984958Y-10292640D01*
X-6052302Y-10326312D01*
X-6119645Y-10326312D01*
X-6170153Y-10309476D01*
X-6254332Y-10258968D01*
X-6304840Y-10208461D01*
X-6355348Y-10124281D01*
X-6372183Y-10073774D01*
X-6372183Y-10006430D01*
X-6338512Y-9939087D01*
X-6304840Y-9905415D01*
X-6237496Y-9871743D01*
X-6203825Y-9871743D01*
X-5934451Y-9535025D02*
X-6001794Y-9602369D01*
X-6018630Y-9652877D01*
X-6018630Y-9686548D01*
X-6001794Y-9770728D01*
X-5951287Y-9854907D01*
X-5816600Y-9989594D01*
X-5766092Y-10006430D01*
X-5732420Y-10006430D01*
X-5681912Y-9989594D01*
X-5614569Y-9922251D01*
X-5597733Y-9871743D01*
X-5597733Y-9838071D01*
X-5614569Y-9787564D01*
X-5698748Y-9703384D01*
X-5749256Y-9686548D01*
X-5782928Y-9686548D01*
X-5833435Y-9703384D01*
X-5900779Y-9770728D01*
X-5917615Y-9821235D01*
X-5917615Y-9854907D01*
X-5900779Y-9905415D01*
X-5479882Y-9316159D02*
X-5244180Y-9551861D01*
X-5698748Y-9265651D02*
X-5530390Y-9602369D01*
X-5311523Y-9383503D01*
X11856013Y9017438D02*
X12142223Y8731228D01*
X12192730Y8714392D01*
X12226402Y8714392D01*
X12276910Y8731228D01*
X12344253Y8798572D01*
X12361089Y8849079D01*
X12361089Y8882751D01*
X12344253Y8933259D01*
X12058043Y9219469D01*
X12377925Y9539350D02*
X12310582Y9472007D01*
X12293746Y9421499D01*
X12293746Y9387827D01*
X12310582Y9303648D01*
X12361089Y9219469D01*
X12495776Y9084782D01*
X12546284Y9067946D01*
X12579956Y9067946D01*
X12630463Y9084782D01*
X12697807Y9152125D01*
X12714643Y9202633D01*
X12714643Y9236304D01*
X12697807Y9286812D01*
X12613627Y9370991D01*
X12563120Y9387827D01*
X12529448Y9387827D01*
X12478940Y9370991D01*
X12411597Y9303648D01*
X12394761Y9253140D01*
X12394761Y9219469D01*
X12411597Y9168961D01*
X24005028Y-18396994D02*
X24005028Y-18430666D01*
X23971356Y-18498009D01*
X23937685Y-18531681D01*
X23870341Y-18565353D01*
X23802997Y-18565353D01*
X23752490Y-18548517D01*
X23668310Y-18498009D01*
X23617803Y-18447502D01*
X23567295Y-18363322D01*
X23550459Y-18312815D01*
X23550459Y-18245471D01*
X23584131Y-18178128D01*
X23617803Y-18144456D01*
X23685146Y-18110784D01*
X23718818Y-18110784D01*
X24375417Y-18093948D02*
X24173387Y-18295979D01*
X24274402Y-18194964D02*
X23920849Y-17841410D01*
X23937685Y-17925590D01*
X23937685Y-17992933D01*
X23920849Y-18043441D01*
X-14987840Y-9577193D02*
X-14819481Y-9408834D01*
X-15055183Y-9880239D02*
X-14987840Y-9577193D01*
X-15290885Y-9644537D01*
X-15358229Y-9509850D02*
X-15391901Y-9509850D01*
X-15442408Y-9493014D01*
X-15526588Y-9408834D01*
X-15543424Y-9358327D01*
X-15543424Y-9324655D01*
X-15526588Y-9274147D01*
X-15492916Y-9240476D01*
X-15425572Y-9206804D01*
X-15021511Y-9206804D01*
X-15240378Y-8987938D01*
X-17883646Y-8330615D02*
X-17849974Y-8330615D01*
X-17782631Y-8364287D01*
X-17748959Y-8397958D01*
X-17715287Y-8465302D01*
X-17715287Y-8532645D01*
X-17732123Y-8583153D01*
X-17782631Y-8667332D01*
X-17833138Y-8717840D01*
X-17917318Y-8768348D01*
X-17967825Y-8785183D01*
X-18035169Y-8785183D01*
X-18102512Y-8751512D01*
X-18136184Y-8717840D01*
X-18169856Y-8650496D01*
X-18169856Y-8616825D01*
X-18506574Y-8347451D02*
X-18439230Y-8414794D01*
X-18388722Y-8431630D01*
X-18355051Y-8431630D01*
X-18270871Y-8414794D01*
X-18186692Y-8364287D01*
X-18052005Y-8229600D01*
X-18035169Y-8179092D01*
X-18035169Y-8145420D01*
X-18052005Y-8094912D01*
X-18119348Y-8027569D01*
X-18169856Y-8010733D01*
X-18203528Y-8010733D01*
X-18254035Y-8027569D01*
X-18338215Y-8111748D01*
X-18355051Y-8162256D01*
X-18355051Y-8195928D01*
X-18338215Y-8246435D01*
X-18270871Y-8313779D01*
X-18220364Y-8330615D01*
X-18186692Y-8330615D01*
X-18136184Y-8313779D01*
X-18658096Y-8195928D02*
X-18893799Y-7960225D01*
X-18388722Y-7758195D01*
X19800927Y19397158D02*
X19834599Y19397158D01*
X19901942Y19363486D01*
X19935614Y19329815D01*
X19969286Y19262471D01*
X19969286Y19195128D01*
X19952450Y19144620D01*
X19901942Y19060441D01*
X19851435Y19009933D01*
X19767255Y18959425D01*
X19716748Y18942590D01*
X19649404Y18942590D01*
X19582061Y18976261D01*
X19548389Y19009933D01*
X19514717Y19077277D01*
X19514717Y19110948D01*
X19177999Y19380322D02*
X19245343Y19312979D01*
X19295851Y19296143D01*
X19329522Y19296143D01*
X19413702Y19312979D01*
X19497881Y19363486D01*
X19632568Y19498174D01*
X19649404Y19548681D01*
X19649404Y19582353D01*
X19632568Y19632861D01*
X19565225Y19700204D01*
X19514717Y19717040D01*
X19481045Y19717040D01*
X19430538Y19700204D01*
X19346358Y19616025D01*
X19329522Y19565517D01*
X19329522Y19531845D01*
X19346358Y19481338D01*
X19413702Y19413994D01*
X19464209Y19397158D01*
X19497881Y19397158D01*
X19548389Y19413994D01*
X19093820Y19767548D02*
X19110656Y19717040D01*
X19110656Y19683368D01*
X19093820Y19632861D01*
X19076984Y19616025D01*
X19026477Y19599189D01*
X18992805Y19599189D01*
X18942297Y19616025D01*
X18874954Y19683368D01*
X18858118Y19733876D01*
X18858118Y19767548D01*
X18874954Y19818055D01*
X18891790Y19834891D01*
X18942297Y19851727D01*
X18975969Y19851727D01*
X19026477Y19834891D01*
X19093820Y19767548D01*
X19144328Y19750712D01*
X19177999Y19750712D01*
X19228507Y19767548D01*
X19295851Y19834891D01*
X19312686Y19885399D01*
X19312686Y19919070D01*
X19295851Y19969578D01*
X19228507Y20036922D01*
X19177999Y20053757D01*
X19144328Y20053757D01*
X19093820Y20036922D01*
X19026477Y19969578D01*
X19009641Y19919070D01*
X19009641Y19885399D01*
X19026477Y19834891D01*
X21088956Y20129018D02*
X21341494Y20381556D01*
X21408837Y20415228D01*
X21476181Y20415228D01*
X21543524Y20381556D01*
X21577196Y20347885D01*
X21088956Y20836125D02*
X21290986Y20634095D01*
X21189971Y20735110D02*
X20836417Y20381556D01*
X20920597Y20398392D01*
X20987940Y20398392D01*
X21038448Y20381556D01*
X20516536Y20701438D02*
X20482864Y20735110D01*
X20466028Y20785617D01*
X20466028Y20819289D01*
X20482864Y20869797D01*
X20533372Y20953976D01*
X20617551Y21038156D01*
X20701730Y21088663D01*
X20752238Y21105499D01*
X20785910Y21105499D01*
X20836417Y21088663D01*
X20870089Y21054991D01*
X20886925Y21004484D01*
X20886925Y20970812D01*
X20870089Y20920304D01*
X20819582Y20836125D01*
X20735402Y20751946D01*
X20651223Y20701438D01*
X20600715Y20684602D01*
X20567043Y20684602D01*
X20516536Y20701438D01*
X20280834Y20937140D02*
X20061967Y21156007D01*
X20314505Y21172843D01*
X20263998Y21223350D01*
X20247162Y21273858D01*
X20247162Y21307530D01*
X20263998Y21358037D01*
X20348177Y21442217D01*
X20398685Y21459052D01*
X20432356Y21459052D01*
X20482864Y21442217D01*
X20583879Y21341201D01*
X20600715Y21290694D01*
X20600715Y21257022D01*
X28779716Y17736941D02*
X29032254Y17484403D01*
X29065926Y17417060D01*
X29065926Y17349716D01*
X29032254Y17282373D01*
X28998583Y17248701D01*
X29486823Y17736941D02*
X29284793Y17534911D01*
X29385808Y17635926D02*
X29032254Y17989480D01*
X29049090Y17905300D01*
X29049090Y17837957D01*
X29032254Y17787449D01*
X29352136Y18309361D02*
X29385808Y18343033D01*
X29436315Y18359869D01*
X29469987Y18359869D01*
X29520495Y18343033D01*
X29604674Y18292525D01*
X29688854Y18208346D01*
X29739361Y18124167D01*
X29756197Y18073659D01*
X29756197Y18039987D01*
X29739361Y17989480D01*
X29705689Y17955808D01*
X29655182Y17938972D01*
X29621510Y17938972D01*
X29571002Y17955808D01*
X29486823Y18006315D01*
X29402644Y18090495D01*
X29352136Y18174674D01*
X29335300Y18225182D01*
X29335300Y18258854D01*
X29352136Y18309361D01*
X29789869Y18747094D02*
X29621510Y18578735D01*
X29773033Y18393541D01*
X29773033Y18427212D01*
X29789869Y18477720D01*
X29874048Y18561899D01*
X29924556Y18578735D01*
X29958228Y18578735D01*
X30008735Y18561899D01*
X30092915Y18477720D01*
X30109750Y18427212D01*
X30109750Y18393541D01*
X30092915Y18343033D01*
X30008735Y18258854D01*
X29958228Y18242018D01*
X29924556Y18242018D01*
X19356700Y-26014509D02*
X19424043Y-25980837D01*
X19508223Y-25896658D01*
X19525059Y-25846150D01*
X19525059Y-25812478D01*
X19508223Y-25761971D01*
X19474551Y-25728299D01*
X19424043Y-25711463D01*
X19390372Y-25711463D01*
X19339864Y-25728299D01*
X19255685Y-25778807D01*
X19205177Y-25795643D01*
X19171505Y-25795643D01*
X19120998Y-25778807D01*
X19087326Y-25745135D01*
X19070490Y-25694627D01*
X19070490Y-25660956D01*
X19087326Y-25610448D01*
X19171505Y-25526269D01*
X19238849Y-25492597D01*
X19339864Y-25357910D02*
X19777597Y-25627284D01*
X19592402Y-25307402D01*
X19912284Y-25492597D01*
X19642910Y-25054864D01*
X20316345Y-25088536D02*
X20114314Y-25290566D01*
X20215330Y-25189551D02*
X19861776Y-24835998D01*
X19878612Y-24920177D01*
X19878612Y-24987521D01*
X19861776Y-25038028D01*
X-9625576Y-7297340D02*
X-9457217Y-7465699D01*
X-9928622Y-7229997D02*
X-9625576Y-7297340D01*
X-9692920Y-6994295D01*
X-9036321Y-7044802D02*
X-9238351Y-7246833D01*
X-9137336Y-7145817D02*
X-9490889Y-6792264D01*
X-9474053Y-6876443D01*
X-9474053Y-6943787D01*
X-9490889Y-6994295D01*
X-18646079Y-29688854D02*
X-18393541Y-29941392D01*
X-18359869Y-30008735D01*
X-18359869Y-30076079D01*
X-18393541Y-30143422D01*
X-18427212Y-30177094D01*
X-17938972Y-29688854D02*
X-18141002Y-29890884D01*
X-18039987Y-29789869D02*
X-18393541Y-29436315D01*
X-18376705Y-29520495D01*
X-18376705Y-29587838D01*
X-18393541Y-29638346D01*
X-18073659Y-29116434D02*
X-18039987Y-29082762D01*
X-17989480Y-29065926D01*
X-17955808Y-29065926D01*
X-17905300Y-29082762D01*
X-17821121Y-29133270D01*
X-17736941Y-29217449D01*
X-17686434Y-29301628D01*
X-17669598Y-29352136D01*
X-17669598Y-29385808D01*
X-17686434Y-29436315D01*
X-17720106Y-29469987D01*
X-17770613Y-29486823D01*
X-17804285Y-29486823D01*
X-17854793Y-29469987D01*
X-17938972Y-29419480D01*
X-18023151Y-29335300D01*
X-18073659Y-29251121D01*
X-18090495Y-29200613D01*
X-18090495Y-29166941D01*
X-18073659Y-29116434D01*
X-17736941Y-28779716D02*
X-17703270Y-28746045D01*
X-17652762Y-28729209D01*
X-17619090Y-28729209D01*
X-17568583Y-28746045D01*
X-17484403Y-28796552D01*
X-17400224Y-28880732D01*
X-17349716Y-28964911D01*
X-17332880Y-29015419D01*
X-17332880Y-29049090D01*
X-17349716Y-29099598D01*
X-17383388Y-29133270D01*
X-17433896Y-29150106D01*
X-17467567Y-29150106D01*
X-17518075Y-29133270D01*
X-17602254Y-29082762D01*
X-17686434Y-28998583D01*
X-17736941Y-28914403D01*
X-17753777Y-28863896D01*
X-17753777Y-28830224D01*
X-17736941Y-28779716D01*
X-338863Y5974656D02*
X-338863Y5569894D01*
X-315053Y5522275D01*
X-291244Y5498466D01*
X-243625Y5474656D01*
X-148387Y5474656D01*
X-100768Y5498466D01*
X-76958Y5522275D01*
X-53149Y5569894D01*
X-53149Y5974656D01*
X137327Y5974656D02*
X470660Y5974656D01*
X256374Y5474656D01*
X-19659015Y-21181553D02*
X-19659015Y-21215225D01*
X-19692687Y-21282568D01*
X-19726358Y-21316240D01*
X-19793702Y-21349912D01*
X-19861045Y-21349912D01*
X-19911553Y-21333076D01*
X-19995732Y-21282568D01*
X-20046240Y-21232061D01*
X-20096748Y-21147881D01*
X-20113583Y-21097374D01*
X-20113583Y-21030030D01*
X-20079912Y-20962687D01*
X-20046240Y-20929015D01*
X-19978896Y-20895343D01*
X-19945225Y-20895343D01*
X-19558000Y-20676477D02*
X-19322297Y-20912179D01*
X-19776866Y-20625969D02*
X-19608507Y-20962687D01*
X-19389641Y-20743820D01*
X-19423312Y-20306087D02*
X-19389641Y-20272416D01*
X-19339133Y-20255580D01*
X-19305461Y-20255580D01*
X-19254954Y-20272416D01*
X-19170774Y-20322923D01*
X-19086595Y-20407103D01*
X-19036087Y-20491282D01*
X-19019251Y-20541790D01*
X-19019251Y-20575461D01*
X-19036087Y-20625969D01*
X-19069759Y-20659641D01*
X-19120267Y-20676477D01*
X-19153938Y-20676477D01*
X-19204446Y-20659641D01*
X-19288625Y-20609133D01*
X-19372805Y-20524954D01*
X-19423312Y-20440774D01*
X-19440148Y-20390267D01*
X-19440148Y-20356595D01*
X-19423312Y-20306087D01*
X21022343Y-22486394D02*
X21022343Y-22520066D01*
X20988671Y-22587409D01*
X20955000Y-22621081D01*
X20887656Y-22654753D01*
X20820312Y-22654753D01*
X20769805Y-22637917D01*
X20685625Y-22587409D01*
X20635118Y-22536902D01*
X20584610Y-22452722D01*
X20567774Y-22402215D01*
X20567774Y-22334871D01*
X20601446Y-22267528D01*
X20635118Y-22233856D01*
X20702461Y-22200184D01*
X20736133Y-22200184D01*
X20870820Y-22065497D02*
X20870820Y-22031825D01*
X20887656Y-21981318D01*
X20971835Y-21897138D01*
X21022343Y-21880303D01*
X21056015Y-21880303D01*
X21106522Y-21897138D01*
X21140194Y-21930810D01*
X21173866Y-21998154D01*
X21173866Y-22402215D01*
X21392732Y-22183348D01*
X-6806616Y-9421353D02*
X-6806616Y-9455025D01*
X-6840288Y-9522368D01*
X-6873959Y-9556040D01*
X-6941303Y-9589712D01*
X-7008646Y-9589712D01*
X-7059154Y-9572876D01*
X-7143333Y-9522368D01*
X-7193841Y-9471861D01*
X-7244349Y-9387681D01*
X-7261184Y-9337174D01*
X-7261184Y-9269830D01*
X-7227513Y-9202487D01*
X-7193841Y-9168815D01*
X-7126497Y-9135143D01*
X-7092826Y-9135143D01*
X-6823452Y-8798425D02*
X-6890795Y-8865769D01*
X-6907631Y-8916277D01*
X-6907631Y-8949948D01*
X-6890795Y-9034128D01*
X-6840288Y-9118307D01*
X-6705601Y-9252994D01*
X-6655093Y-9269830D01*
X-6621421Y-9269830D01*
X-6570913Y-9252994D01*
X-6503570Y-9185651D01*
X-6486734Y-9135143D01*
X-6486734Y-9101471D01*
X-6503570Y-9050964D01*
X-6587749Y-8966784D01*
X-6638257Y-8949948D01*
X-6671929Y-8949948D01*
X-6722436Y-8966784D01*
X-6789780Y-9034128D01*
X-6806616Y-9084635D01*
X-6806616Y-9118307D01*
X-6789780Y-9168815D01*
X-6469898Y-8444872D02*
X-6638257Y-8613231D01*
X-6486734Y-8798425D01*
X-6486734Y-8764754D01*
X-6469898Y-8714246D01*
X-6385719Y-8630067D01*
X-6335211Y-8613231D01*
X-6301539Y-8613231D01*
X-6251032Y-8630067D01*
X-6166852Y-8714246D01*
X-6150017Y-8764754D01*
X-6150017Y-8798425D01*
X-6166852Y-8848933D01*
X-6251032Y-8933112D01*
X-6301539Y-8949948D01*
X-6335211Y-8949948D01*
X-30076079Y-18258854D02*
X-29823541Y-18511392D01*
X-29789869Y-18578735D01*
X-29789869Y-18646079D01*
X-29823541Y-18713422D01*
X-29857212Y-18747094D01*
X-29368972Y-18258854D02*
X-29571002Y-18460884D01*
X-29469987Y-18359869D02*
X-29823541Y-18006315D01*
X-29806705Y-18090495D01*
X-29806705Y-18157838D01*
X-29823541Y-18208346D01*
X-29503659Y-17686434D02*
X-29469987Y-17652762D01*
X-29419480Y-17635926D01*
X-29385808Y-17635926D01*
X-29335300Y-17652762D01*
X-29251121Y-17703270D01*
X-29166941Y-17787449D01*
X-29116434Y-17871628D01*
X-29099598Y-17922136D01*
X-29099598Y-17955808D01*
X-29116434Y-18006315D01*
X-29150106Y-18039987D01*
X-29200613Y-18056823D01*
X-29234285Y-18056823D01*
X-29284793Y-18039987D01*
X-29368972Y-17989480D01*
X-29453151Y-17905300D01*
X-29503659Y-17821121D01*
X-29520495Y-17770613D01*
X-29520495Y-17736941D01*
X-29503659Y-17686434D01*
X-28695537Y-17585419D02*
X-28897567Y-17787449D01*
X-28796552Y-17686434D02*
X-29150106Y-17332880D01*
X-29133270Y-17417060D01*
X-29133270Y-17484403D01*
X-29150106Y-17534911D01*
X25046300Y-20223309D02*
X25113643Y-20189637D01*
X25197823Y-20105458D01*
X25214659Y-20054950D01*
X25214659Y-20021278D01*
X25197823Y-19970771D01*
X25164151Y-19937099D01*
X25113643Y-19920263D01*
X25079972Y-19920263D01*
X25029464Y-19937099D01*
X24945285Y-19987607D01*
X24894777Y-20004443D01*
X24861105Y-20004443D01*
X24810598Y-19987607D01*
X24776926Y-19953935D01*
X24760090Y-19903427D01*
X24760090Y-19869756D01*
X24776926Y-19819248D01*
X24861105Y-19735069D01*
X24928449Y-19701397D01*
X25029464Y-19566710D02*
X25467197Y-19836084D01*
X25282002Y-19516202D01*
X25601884Y-19701397D01*
X25332510Y-19263664D01*
X25484033Y-19179485D02*
X25484033Y-19145813D01*
X25500869Y-19095305D01*
X25585048Y-19011126D01*
X25635556Y-18994290D01*
X25669227Y-18994290D01*
X25719735Y-19011126D01*
X25753407Y-19044798D01*
X25787078Y-19112141D01*
X25787078Y-19516202D01*
X26005945Y-19297336D01*
X22419343Y-21038594D02*
X22419343Y-21072266D01*
X22385671Y-21139609D01*
X22352000Y-21173281D01*
X22284656Y-21206953D01*
X22217312Y-21206953D01*
X22166805Y-21190117D01*
X22082625Y-21139609D01*
X22032118Y-21089102D01*
X21981610Y-21004922D01*
X21964774Y-20954415D01*
X21964774Y-20887071D01*
X21998446Y-20819728D01*
X22032118Y-20786056D01*
X22099461Y-20752384D01*
X22133133Y-20752384D01*
X22217312Y-20600861D02*
X22436179Y-20381995D01*
X22453015Y-20634533D01*
X22503522Y-20584025D01*
X22554030Y-20567190D01*
X22587702Y-20567190D01*
X22638209Y-20584025D01*
X22722389Y-20668205D01*
X22739225Y-20718712D01*
X22739225Y-20752384D01*
X22722389Y-20802892D01*
X22621374Y-20903907D01*
X22570866Y-20920743D01*
X22537194Y-20920743D01*
X-12500016Y-7500102D02*
X-12550523Y-7786312D01*
X-12297985Y-7702132D02*
X-12651538Y-8055686D01*
X-12786225Y-7920999D01*
X-12803061Y-7870491D01*
X-12803061Y-7836819D01*
X-12786225Y-7786312D01*
X-12735718Y-7735804D01*
X-12685210Y-7718968D01*
X-12651538Y-7718968D01*
X-12601031Y-7735804D01*
X-12466344Y-7870491D01*
X-12836733Y-7163384D02*
X-12634703Y-7365415D01*
X-12735718Y-7264400D02*
X-13089271Y-7617953D01*
X-13005092Y-7601117D01*
X-12937748Y-7601117D01*
X-12887241Y-7617953D01*
X-13173451Y-6826667D02*
X-12971420Y-7028697D01*
X-13072435Y-6927682D02*
X-13425989Y-7281235D01*
X-13341809Y-7264400D01*
X-13274466Y-7264400D01*
X-13223958Y-7281235D01*
X-13644855Y-7062369D02*
X-13880557Y-6826667D01*
X-13375481Y-6624636D01*
X8405353Y7391984D02*
X8439025Y7391984D01*
X8506368Y7358312D01*
X8540040Y7324641D01*
X8573712Y7257297D01*
X8573712Y7189954D01*
X8556876Y7139446D01*
X8506368Y7055267D01*
X8455861Y7004759D01*
X8371681Y6954251D01*
X8321174Y6937416D01*
X8253830Y6937416D01*
X8186487Y6971087D01*
X8152815Y7004759D01*
X8119143Y7072103D01*
X8119143Y7105774D01*
X8102307Y7762374D02*
X8304338Y7560343D01*
X8203322Y7661358D02*
X7849769Y7307805D01*
X7933948Y7324641D01*
X8001292Y7324641D01*
X8051800Y7307805D01*
X7630903Y7526671D02*
X7395200Y7762374D01*
X7900277Y7964404D01*
X14221085Y-33440412D02*
X14473623Y-33187874D01*
X14540967Y-33154202D01*
X14608310Y-33154202D01*
X14675654Y-33187874D01*
X14709325Y-33221546D01*
X14103234Y-33255218D02*
X14069562Y-33255218D01*
X14019055Y-33238382D01*
X13934875Y-33154202D01*
X13918039Y-33103695D01*
X13918039Y-33070023D01*
X13934875Y-33019515D01*
X13968547Y-32985844D01*
X14035890Y-32952172D01*
X14439951Y-32952172D01*
X14221085Y-32733305D01*
X-25635702Y-22780583D02*
X-25921912Y-22730076D01*
X-25837732Y-22982614D02*
X-26191286Y-22629061D01*
X-26056599Y-22494374D01*
X-26006091Y-22477538D01*
X-25972419Y-22477538D01*
X-25921912Y-22494374D01*
X-25871404Y-22544881D01*
X-25854568Y-22595389D01*
X-25854568Y-22629061D01*
X-25871404Y-22679568D01*
X-26006091Y-22814255D01*
X-25298984Y-22443866D02*
X-25501015Y-22645896D01*
X-25399999Y-22544881D02*
X-25753553Y-22191328D01*
X-25736717Y-22275507D01*
X-25736717Y-22342851D01*
X-25753553Y-22393358D01*
X-24962267Y-22107148D02*
X-25164297Y-22309179D01*
X-25063282Y-22208164D02*
X-25416835Y-21854610D01*
X-25399999Y-21938790D01*
X-25399999Y-22006133D01*
X-25416835Y-22056641D01*
X-24894923Y-21568400D02*
X-24659221Y-21804103D01*
X-25113790Y-21517893D02*
X-24945431Y-21854610D01*
X-24726564Y-21635744D01*
X-20538159Y11616534D02*
X-20251949Y11902744D01*
X-20235114Y11953252D01*
X-20235114Y11986923D01*
X-20251949Y12037431D01*
X-20319293Y12104775D01*
X-20369801Y12121610D01*
X-20403472Y12121610D01*
X-20453980Y12104775D01*
X-20740190Y11818565D01*
X-20740190Y12525671D02*
X-20538159Y12323641D01*
X-20639175Y12424656D02*
X-20992728Y12071103D01*
X-20908549Y12087939D01*
X-20841205Y12087939D01*
X-20790697Y12071103D01*
X-21396789Y12475164D02*
X-21329445Y12407820D01*
X-21278938Y12390984D01*
X-21245266Y12390984D01*
X-21161087Y12407820D01*
X-21076907Y12458328D01*
X-20942220Y12593015D01*
X-20925384Y12643523D01*
X-20925384Y12677194D01*
X-20942220Y12727702D01*
X-21009564Y12795045D01*
X-21060071Y12811881D01*
X-21093743Y12811881D01*
X-21144251Y12795045D01*
X-21228430Y12710866D01*
X-21245266Y12660358D01*
X-21245266Y12626687D01*
X-21228430Y12576179D01*
X-21161087Y12508836D01*
X-21110579Y12492000D01*
X-21076907Y12492000D01*
X-21026400Y12508836D01*
X-14198015Y8536446D02*
X-14198015Y8502774D01*
X-14231687Y8435431D01*
X-14265358Y8401759D01*
X-14332702Y8368087D01*
X-14400045Y8368087D01*
X-14450553Y8384923D01*
X-14534732Y8435431D01*
X-14585240Y8485938D01*
X-14635748Y8570118D01*
X-14652583Y8620625D01*
X-14652583Y8687969D01*
X-14618912Y8755312D01*
X-14585240Y8788984D01*
X-14517896Y8822656D01*
X-14484225Y8822656D01*
X-14400045Y8974179D02*
X-14181179Y9193045D01*
X-14164343Y8940507D01*
X-14113835Y8991015D01*
X-14063328Y9007851D01*
X-14029656Y9007851D01*
X-13979148Y8991015D01*
X-13894969Y8906835D01*
X-13878133Y8856328D01*
X-13878133Y8822656D01*
X-13894969Y8772148D01*
X-13995984Y8671133D01*
X-14046492Y8654297D01*
X-14080164Y8654297D01*
X-14063328Y9310896D02*
X-13827625Y9546599D01*
X-13625595Y9041522D01*
X-17560402Y29238177D02*
X-17307864Y29490715D01*
X-17240521Y29524387D01*
X-17173177Y29524387D01*
X-17105834Y29490715D01*
X-17072162Y29457043D01*
X-17627746Y29608566D02*
X-17610910Y29558059D01*
X-17610910Y29524387D01*
X-17627746Y29473879D01*
X-17644582Y29457043D01*
X-17695089Y29440208D01*
X-17728761Y29440208D01*
X-17779269Y29457043D01*
X-17846612Y29524387D01*
X-17863448Y29574895D01*
X-17863448Y29608566D01*
X-17846612Y29659074D01*
X-17829776Y29675910D01*
X-17779269Y29692746D01*
X-17745597Y29692746D01*
X-17695089Y29675910D01*
X-17627746Y29608566D01*
X-17577238Y29591730D01*
X-17543566Y29591730D01*
X-17493059Y29608566D01*
X-17425715Y29675910D01*
X-17408879Y29726417D01*
X-17408879Y29760089D01*
X-17425715Y29810597D01*
X-17493059Y29877940D01*
X-17543566Y29894776D01*
X-17577238Y29894776D01*
X-17627746Y29877940D01*
X-17695089Y29810597D01*
X-17711925Y29760089D01*
X-17711925Y29726417D01*
X-17695089Y29675910D01*
X-17897120Y30282001D02*
X-17695089Y30079971D01*
X-17796104Y30180986D02*
X-18149658Y29827433D01*
X-18065478Y29844269D01*
X-17998135Y29844269D01*
X-17947627Y29827433D01*
X33053187Y-14608310D02*
X33305725Y-14355772D01*
X33373069Y-14322100D01*
X33440412Y-14322100D01*
X33507756Y-14355772D01*
X33541427Y-14389444D01*
X33053187Y-13901203D02*
X33255218Y-14103234D01*
X33154202Y-14002219D02*
X32800649Y-14355772D01*
X32884828Y-14338936D01*
X32952172Y-14338936D01*
X33002679Y-14355772D01*
X-30133402Y17300177D02*
X-29880864Y17552715D01*
X-29813521Y17586387D01*
X-29746177Y17586387D01*
X-29678834Y17552715D01*
X-29645162Y17519043D01*
X-30200746Y17670566D02*
X-30183910Y17620059D01*
X-30183910Y17586387D01*
X-30200746Y17535879D01*
X-30217582Y17519043D01*
X-30268089Y17502208D01*
X-30301761Y17502208D01*
X-30352269Y17519043D01*
X-30419612Y17586387D01*
X-30436448Y17636895D01*
X-30436448Y17670566D01*
X-30419612Y17721074D01*
X-30402776Y17737910D01*
X-30352269Y17754746D01*
X-30318597Y17754746D01*
X-30268089Y17737910D01*
X-30200746Y17670566D01*
X-30150238Y17653730D01*
X-30116566Y17653730D01*
X-30066059Y17670566D01*
X-29998715Y17737910D01*
X-29981879Y17788417D01*
X-29981879Y17822089D01*
X-29998715Y17872597D01*
X-30066059Y17939940D01*
X-30116566Y17956776D01*
X-30150238Y17956776D01*
X-30200746Y17939940D01*
X-30268089Y17872597D01*
X-30284925Y17822089D01*
X-30284925Y17788417D01*
X-30268089Y17737910D01*
X-30672150Y18074627D02*
X-30436448Y18310330D01*
X-30722658Y17855761D02*
X-30385940Y18024120D01*
X-30604807Y18242986D01*
X20642571Y-7433428D02*
X20666380Y-7457238D01*
X20690190Y-7528666D01*
X20690190Y-7576285D01*
X20666380Y-7647714D01*
X20618761Y-7695333D01*
X20571142Y-7719142D01*
X20475904Y-7742952D01*
X20404476Y-7742952D01*
X20309238Y-7719142D01*
X20261619Y-7695333D01*
X20214000Y-7647714D01*
X20190190Y-7576285D01*
X20190190Y-7528666D01*
X20214000Y-7457238D01*
X20237809Y-7433428D01*
X20404476Y-7147714D02*
X20380666Y-7195333D01*
X20356857Y-7219142D01*
X20309238Y-7242952D01*
X20285428Y-7242952D01*
X20237809Y-7219142D01*
X20214000Y-7195333D01*
X20190190Y-7147714D01*
X20190190Y-7052476D01*
X20214000Y-7004857D01*
X20237809Y-6981047D01*
X20285428Y-6957238D01*
X20309238Y-6957238D01*
X20356857Y-6981047D01*
X20380666Y-7004857D01*
X20404476Y-7052476D01*
X20404476Y-7147714D01*
X20428285Y-7195333D01*
X20452095Y-7219142D01*
X20499714Y-7242952D01*
X20594952Y-7242952D01*
X20642571Y-7219142D01*
X20666380Y-7195333D01*
X20690190Y-7147714D01*
X20690190Y-7052476D01*
X20666380Y-7004857D01*
X20642571Y-6981047D01*
X20594952Y-6957238D01*
X20499714Y-6957238D01*
X20452095Y-6981047D01*
X20428285Y-7004857D01*
X20404476Y-7052476D01*
X20690190Y-6481047D02*
X20690190Y-6766761D01*
X20690190Y-6623904D02*
X20190190Y-6623904D01*
X20261619Y-6671523D01*
X20309238Y-6719142D01*
X20333047Y-6766761D01*
X2964666Y-20642571D02*
X2940857Y-20666380D01*
X2869428Y-20690190D01*
X2821809Y-20690190D01*
X2750380Y-20666380D01*
X2702761Y-20618761D01*
X2678952Y-20571142D01*
X2655142Y-20475904D01*
X2655142Y-20404476D01*
X2678952Y-20309238D01*
X2702761Y-20261619D01*
X2750380Y-20214000D01*
X2821809Y-20190190D01*
X2869428Y-20190190D01*
X2940857Y-20214000D01*
X2964666Y-20237809D01*
X3417047Y-20190190D02*
X3178952Y-20190190D01*
X3155142Y-20428285D01*
X3178952Y-20404476D01*
X3226571Y-20380666D01*
X3345619Y-20380666D01*
X3393238Y-20404476D01*
X3417047Y-20428285D01*
X3440857Y-20475904D01*
X3440857Y-20594952D01*
X3417047Y-20642571D01*
X3393238Y-20666380D01*
X3345619Y-20690190D01*
X3226571Y-20690190D01*
X3178952Y-20666380D01*
X3155142Y-20642571D01*
X20506571Y185428D02*
X20482761Y161619D01*
X20411333Y137809D01*
X20363714Y137809D01*
X20292285Y161619D01*
X20244666Y209238D01*
X20220857Y256857D01*
X20197047Y352095D01*
X20197047Y423523D01*
X20220857Y518761D01*
X20244666Y566380D01*
X20292285Y614000D01*
X20363714Y637809D01*
X20411333Y637809D01*
X20482761Y614000D01*
X20506571Y590190D01*
X20673238Y637809D02*
X21006571Y637809D01*
X20792285Y137809D01*
X21220857Y137809D02*
X21316095Y137809D01*
X21363714Y161619D01*
X21387523Y185428D01*
X21435142Y256857D01*
X21458952Y352095D01*
X21458952Y542571D01*
X21435142Y590190D01*
X21411333Y614000D01*
X21363714Y637809D01*
X21268476Y637809D01*
X21220857Y614000D01*
X21197047Y590190D01*
X21173238Y542571D01*
X21173238Y423523D01*
X21197047Y375904D01*
X21220857Y352095D01*
X21268476Y328285D01*
X21363714Y328285D01*
X21411333Y352095D01*
X21435142Y375904D01*
X21458952Y423523D01*
X20506571Y-9974571D02*
X20482761Y-9998380D01*
X20411333Y-10022190D01*
X20363714Y-10022190D01*
X20292285Y-9998380D01*
X20244666Y-9950761D01*
X20220857Y-9903142D01*
X20197047Y-9807904D01*
X20197047Y-9736476D01*
X20220857Y-9641238D01*
X20244666Y-9593619D01*
X20292285Y-9546000D01*
X20363714Y-9522190D01*
X20411333Y-9522190D01*
X20482761Y-9546000D01*
X20506571Y-9569809D01*
X20792285Y-9736476D02*
X20744666Y-9712666D01*
X20720857Y-9688857D01*
X20697047Y-9641238D01*
X20697047Y-9617428D01*
X20720857Y-9569809D01*
X20744666Y-9546000D01*
X20792285Y-9522190D01*
X20887523Y-9522190D01*
X20935142Y-9546000D01*
X20958952Y-9569809D01*
X20982761Y-9617428D01*
X20982761Y-9641238D01*
X20958952Y-9688857D01*
X20935142Y-9712666D01*
X20887523Y-9736476D01*
X20792285Y-9736476D01*
X20744666Y-9760285D01*
X20720857Y-9784095D01*
X20697047Y-9831714D01*
X20697047Y-9926952D01*
X20720857Y-9974571D01*
X20744666Y-9998380D01*
X20792285Y-10022190D01*
X20887523Y-10022190D01*
X20935142Y-9998380D01*
X20958952Y-9974571D01*
X20982761Y-9926952D01*
X20982761Y-9831714D01*
X20958952Y-9784095D01*
X20935142Y-9760285D01*
X20887523Y-9736476D01*
X21173238Y-9569809D02*
X21197047Y-9546000D01*
X21244666Y-9522190D01*
X21363714Y-9522190D01*
X21411333Y-9546000D01*
X21435142Y-9569809D01*
X21458952Y-9617428D01*
X21458952Y-9665047D01*
X21435142Y-9736476D01*
X21149428Y-10022190D01*
X21458952Y-10022190D01*
X-21149428Y-542571D02*
X-21173238Y-566380D01*
X-21244666Y-590190D01*
X-21292285Y-590190D01*
X-21363714Y-566380D01*
X-21411333Y-518761D01*
X-21435142Y-471142D01*
X-21458952Y-375904D01*
X-21458952Y-304476D01*
X-21435142Y-209238D01*
X-21411333Y-161619D01*
X-21363714Y-114000D01*
X-21292285Y-90190D01*
X-21244666Y-90190D01*
X-21173238Y-114000D01*
X-21149428Y-137809D01*
X-20911333Y-590190D02*
X-20816095Y-590190D01*
X-20768476Y-566380D01*
X-20744666Y-542571D01*
X-20697047Y-471142D01*
X-20673238Y-375904D01*
X-20673238Y-185428D01*
X-20697047Y-137809D01*
X-20720857Y-114000D01*
X-20768476Y-90190D01*
X-20863714Y-90190D01*
X-20911333Y-114000D01*
X-20935142Y-137809D01*
X-20958952Y-185428D01*
X-20958952Y-304476D01*
X-20935142Y-352095D01*
X-20911333Y-375904D01*
X-20863714Y-399714D01*
X-20768476Y-399714D01*
X-20720857Y-375904D01*
X-20697047Y-352095D01*
X-20673238Y-304476D01*
X-20197047Y-590190D02*
X-20482761Y-590190D01*
X-20339904Y-590190D02*
X-20339904Y-90190D01*
X-20387523Y-161619D01*
X-20435142Y-209238D01*
X-20482761Y-233047D01*
X22002857Y2053809D02*
X22002857Y1649047D01*
X22026666Y1601428D01*
X22050476Y1577619D01*
X22098095Y1553809D01*
X22193333Y1553809D01*
X22240952Y1577619D01*
X22264761Y1601428D01*
X22288571Y1649047D01*
X22288571Y2053809D01*
X22788571Y1553809D02*
X22502857Y1553809D01*
X22645714Y1553809D02*
X22645714Y2053809D01*
X22598095Y1982380D01*
X22550476Y1934761D01*
X22502857Y1910952D01*
X23264761Y1553809D02*
X22979047Y1553809D01*
X23121904Y1553809D02*
X23121904Y2053809D01*
X23074285Y1982380D01*
X23026666Y1934761D01*
X22979047Y1910952D01*
X23431428Y2053809D02*
X23740952Y2053809D01*
X23574285Y1863333D01*
X23645714Y1863333D01*
X23693333Y1839523D01*
X23717142Y1815714D01*
X23740952Y1768095D01*
X23740952Y1649047D01*
X23717142Y1601428D01*
X23693333Y1577619D01*
X23645714Y1553809D01*
X23502857Y1553809D01*
X23455238Y1577619D01*
X23431428Y1601428D01*
X-20285428Y-3369428D02*
X-20261619Y-3393238D01*
X-20237809Y-3464666D01*
X-20237809Y-3512285D01*
X-20261619Y-3583714D01*
X-20309238Y-3631333D01*
X-20356857Y-3655142D01*
X-20452095Y-3678952D01*
X-20523523Y-3678952D01*
X-20618761Y-3655142D01*
X-20666380Y-3631333D01*
X-20714000Y-3583714D01*
X-20737809Y-3512285D01*
X-20737809Y-3464666D01*
X-20714000Y-3393238D01*
X-20690190Y-3369428D01*
X-20237809Y-3131333D02*
X-20237809Y-3036095D01*
X-20261619Y-2988476D01*
X-20285428Y-2964666D01*
X-20356857Y-2917047D01*
X-20452095Y-2893238D01*
X-20642571Y-2893238D01*
X-20690190Y-2917047D01*
X-20714000Y-2940857D01*
X-20737809Y-2988476D01*
X-20737809Y-3083714D01*
X-20714000Y-3131333D01*
X-20690190Y-3155142D01*
X-20642571Y-3178952D01*
X-20523523Y-3178952D01*
X-20475904Y-3155142D01*
X-20452095Y-3131333D01*
X-20428285Y-3083714D01*
X-20428285Y-2988476D01*
X-20452095Y-2940857D01*
X-20475904Y-2917047D01*
X-20523523Y-2893238D01*
X-20737809Y-2583714D02*
X-20737809Y-2536095D01*
X-20714000Y-2488476D01*
X-20690190Y-2464666D01*
X-20642571Y-2440857D01*
X-20547333Y-2417047D01*
X-20428285Y-2417047D01*
X-20333047Y-2440857D01*
X-20285428Y-2464666D01*
X-20261619Y-2488476D01*
X-20237809Y-2536095D01*
X-20237809Y-2583714D01*
X-20261619Y-2631333D01*
X-20285428Y-2655142D01*
X-20333047Y-2678952D01*
X-20428285Y-2702761D01*
X-20547333Y-2702761D01*
X-20642571Y-2678952D01*
X-20690190Y-2655142D01*
X-20714000Y-2631333D01*
X-20737809Y-2583714D01*
X29837142Y14033809D02*
X29837142Y13676666D01*
X29813333Y13605238D01*
X29765714Y13557619D01*
X29694285Y13533809D01*
X29646666Y13533809D01*
X30051428Y13986190D02*
X30075238Y14010000D01*
X30122857Y14033809D01*
X30241904Y14033809D01*
X30289523Y14010000D01*
X30313333Y13986190D01*
X30337142Y13938571D01*
X30337142Y13890952D01*
X30313333Y13819523D01*
X30027619Y13533809D01*
X30337142Y13533809D01*
X30646666Y14033809D02*
X30694285Y14033809D01*
X30741904Y14010000D01*
X30765714Y13986190D01*
X30789523Y13938571D01*
X30813333Y13843333D01*
X30813333Y13724285D01*
X30789523Y13629047D01*
X30765714Y13581428D01*
X30741904Y13557619D01*
X30694285Y13533809D01*
X30646666Y13533809D01*
X30599047Y13557619D01*
X30575238Y13581428D01*
X30551428Y13629047D01*
X30527619Y13724285D01*
X30527619Y13843333D01*
X30551428Y13938571D01*
X30575238Y13986190D01*
X30599047Y14010000D01*
X30646666Y14033809D01*
X30980000Y14033809D02*
X31313333Y14033809D01*
X31099047Y13533809D01*
X7028666Y20285428D02*
X7004857Y20261619D01*
X6933428Y20237809D01*
X6885809Y20237809D01*
X6814380Y20261619D01*
X6766761Y20309238D01*
X6742952Y20356857D01*
X6719142Y20452095D01*
X6719142Y20523523D01*
X6742952Y20618761D01*
X6766761Y20666380D01*
X6814380Y20714000D01*
X6885809Y20737809D01*
X6933428Y20737809D01*
X7004857Y20714000D01*
X7028666Y20690190D01*
X7314380Y20523523D02*
X7266761Y20547333D01*
X7242952Y20571142D01*
X7219142Y20618761D01*
X7219142Y20642571D01*
X7242952Y20690190D01*
X7266761Y20714000D01*
X7314380Y20737809D01*
X7409619Y20737809D01*
X7457238Y20714000D01*
X7481047Y20690190D01*
X7504857Y20642571D01*
X7504857Y20618761D01*
X7481047Y20571142D01*
X7457238Y20547333D01*
X7409619Y20523523D01*
X7314380Y20523523D01*
X7266761Y20499714D01*
X7242952Y20475904D01*
X7219142Y20428285D01*
X7219142Y20333047D01*
X7242952Y20285428D01*
X7266761Y20261619D01*
X7314380Y20237809D01*
X7409619Y20237809D01*
X7457238Y20261619D01*
X7481047Y20285428D01*
X7504857Y20333047D01*
X7504857Y20428285D01*
X7481047Y20475904D01*
X7457238Y20499714D01*
X7409619Y20523523D01*
X-21149428Y2505428D02*
X-21173238Y2481619D01*
X-21244666Y2457809D01*
X-21292285Y2457809D01*
X-21363714Y2481619D01*
X-21411333Y2529238D01*
X-21435142Y2576857D01*
X-21458952Y2672095D01*
X-21458952Y2743523D01*
X-21435142Y2838761D01*
X-21411333Y2886380D01*
X-21363714Y2934000D01*
X-21292285Y2957809D01*
X-21244666Y2957809D01*
X-21173238Y2934000D01*
X-21149428Y2910190D01*
X-20911333Y2457809D02*
X-20816095Y2457809D01*
X-20768476Y2481619D01*
X-20744666Y2505428D01*
X-20697047Y2576857D01*
X-20673238Y2672095D01*
X-20673238Y2862571D01*
X-20697047Y2910190D01*
X-20720857Y2934000D01*
X-20768476Y2957809D01*
X-20863714Y2957809D01*
X-20911333Y2934000D01*
X-20935142Y2910190D01*
X-20958952Y2862571D01*
X-20958952Y2743523D01*
X-20935142Y2695904D01*
X-20911333Y2672095D01*
X-20863714Y2648285D01*
X-20768476Y2648285D01*
X-20720857Y2672095D01*
X-20697047Y2695904D01*
X-20673238Y2743523D01*
X-20482761Y2910190D02*
X-20458952Y2934000D01*
X-20411333Y2957809D01*
X-20292285Y2957809D01*
X-20244666Y2934000D01*
X-20220857Y2910190D01*
X-20197047Y2862571D01*
X-20197047Y2814952D01*
X-20220857Y2743523D01*
X-20506571Y2457809D01*
X-20197047Y2457809D01*
X-21149428Y9617428D02*
X-21173238Y9593619D01*
X-21244666Y9569809D01*
X-21292285Y9569809D01*
X-21363714Y9593619D01*
X-21411333Y9641238D01*
X-21435142Y9688857D01*
X-21458952Y9784095D01*
X-21458952Y9855523D01*
X-21435142Y9950761D01*
X-21411333Y9998380D01*
X-21363714Y10046000D01*
X-21292285Y10069809D01*
X-21244666Y10069809D01*
X-21173238Y10046000D01*
X-21149428Y10022190D01*
X-20911333Y9569809D02*
X-20816095Y9569809D01*
X-20768476Y9593619D01*
X-20744666Y9617428D01*
X-20697047Y9688857D01*
X-20673238Y9784095D01*
X-20673238Y9974571D01*
X-20697047Y10022190D01*
X-20720857Y10046000D01*
X-20768476Y10069809D01*
X-20863714Y10069809D01*
X-20911333Y10046000D01*
X-20935142Y10022190D01*
X-20958952Y9974571D01*
X-20958952Y9855523D01*
X-20935142Y9807904D01*
X-20911333Y9784095D01*
X-20863714Y9760285D01*
X-20768476Y9760285D01*
X-20720857Y9784095D01*
X-20697047Y9807904D01*
X-20673238Y9855523D01*
X-20244666Y9903142D02*
X-20244666Y9569809D01*
X-20363714Y10093619D02*
X-20482761Y9736476D01*
X-20173238Y9736476D01*
X-2053809Y22002857D02*
X-1649047Y22002857D01*
X-1601428Y22026666D01*
X-1577619Y22050476D01*
X-1553809Y22098095D01*
X-1553809Y22193333D01*
X-1577619Y22240952D01*
X-1601428Y22264761D01*
X-1649047Y22288571D01*
X-2053809Y22288571D01*
X-1553809Y22788571D02*
X-1553809Y22502857D01*
X-1553809Y22645714D02*
X-2053809Y22645714D01*
X-1982380Y22598095D01*
X-1934761Y22550476D01*
X-1910952Y22502857D01*
X-2053809Y23098095D02*
X-2053809Y23145714D01*
X-2030000Y23193333D01*
X-2006190Y23217142D01*
X-1958571Y23240952D01*
X-1863333Y23264761D01*
X-1744285Y23264761D01*
X-1649047Y23240952D01*
X-1601428Y23217142D01*
X-1577619Y23193333D01*
X-1553809Y23145714D01*
X-1553809Y23098095D01*
X-1577619Y23050476D01*
X-1601428Y23026666D01*
X-1649047Y23002857D01*
X-1744285Y22979047D01*
X-1863333Y22979047D01*
X-1958571Y23002857D01*
X-2006190Y23026666D01*
X-2030000Y23050476D01*
X-2053809Y23098095D01*
X-1553809Y23502857D02*
X-1553809Y23598095D01*
X-1577619Y23645714D01*
X-1601428Y23669523D01*
X-1672857Y23717142D01*
X-1768095Y23740952D01*
X-1958571Y23740952D01*
X-2006190Y23717142D01*
X-2030000Y23693333D01*
X-2053809Y23645714D01*
X-2053809Y23550476D01*
X-2030000Y23502857D01*
X-2006190Y23479047D01*
X-1958571Y23455238D01*
X-1839523Y23455238D01*
X-1791904Y23479047D01*
X-1768095Y23502857D01*
X-1744285Y23550476D01*
X-1744285Y23645714D01*
X-1768095Y23693333D01*
X-1791904Y23717142D01*
X-1839523Y23740952D01*
X-3607523Y20285428D02*
X-3631333Y20261619D01*
X-3702761Y20237809D01*
X-3750380Y20237809D01*
X-3821809Y20261619D01*
X-3869428Y20309238D01*
X-3893238Y20356857D01*
X-3917047Y20452095D01*
X-3917047Y20523523D01*
X-3893238Y20618761D01*
X-3869428Y20666380D01*
X-3821809Y20714000D01*
X-3750380Y20737809D01*
X-3702761Y20737809D01*
X-3631333Y20714000D01*
X-3607523Y20690190D01*
X-3131333Y20237809D02*
X-3417047Y20237809D01*
X-3274190Y20237809D02*
X-3274190Y20737809D01*
X-3321809Y20666380D01*
X-3369428Y20618761D01*
X-3417047Y20594952D01*
X-2821809Y20737809D02*
X-2774190Y20737809D01*
X-2726571Y20714000D01*
X-2702761Y20690190D01*
X-2678952Y20642571D01*
X-2655142Y20547333D01*
X-2655142Y20428285D01*
X-2678952Y20333047D01*
X-2702761Y20285428D01*
X-2726571Y20261619D01*
X-2774190Y20237809D01*
X-2821809Y20237809D01*
X-2869428Y20261619D01*
X-2893238Y20285428D01*
X-2917047Y20333047D01*
X-2940857Y20428285D01*
X-2940857Y20547333D01*
X-2917047Y20642571D01*
X-2893238Y20690190D01*
X-2869428Y20714000D01*
X-2821809Y20737809D01*
X-2464666Y20690190D02*
X-2440857Y20714000D01*
X-2393238Y20737809D01*
X-2274190Y20737809D01*
X-2226571Y20714000D01*
X-2202761Y20690190D01*
X-2178952Y20642571D01*
X-2178952Y20594952D01*
X-2202761Y20523523D01*
X-2488476Y20237809D01*
X-2178952Y20237809D01*
D11*
X-4142619Y-18039714D02*
X-3428333Y-18039714D01*
X-3285476Y-18087333D01*
X-3190238Y-18182571D01*
X-3142619Y-18325428D01*
X-3142619Y-18420666D01*
X-4142619Y-17658761D02*
X-4142619Y-17039714D01*
X-3761666Y-17373047D01*
X-3761666Y-17230190D01*
X-3714047Y-17134952D01*
X-3666428Y-17087333D01*
X-3571190Y-17039714D01*
X-3333095Y-17039714D01*
X-3237857Y-17087333D01*
X-3190238Y-17134952D01*
X-3142619Y-17230190D01*
X-3142619Y-17515904D01*
X-3190238Y-17611142D01*
X-3237857Y-17658761D01*
X-4142619Y-16420666D02*
X-4142619Y-16325428D01*
X-4095000Y-16230190D01*
X-4047380Y-16182571D01*
X-3952142Y-16134952D01*
X-3761666Y-16087333D01*
X-3523571Y-16087333D01*
X-3333095Y-16134952D01*
X-3237857Y-16182571D01*
X-3190238Y-16230190D01*
X-3142619Y-16325428D01*
X-3142619Y-16420666D01*
X-3190238Y-16515904D01*
X-3237857Y-16563523D01*
X-3333095Y-16611142D01*
X-3523571Y-16658761D01*
X-3761666Y-16658761D01*
X-3952142Y-16611142D01*
X-4047380Y-16563523D01*
X-4095000Y-16515904D01*
X-4142619Y-16420666D01*
X-4047380Y-15706380D02*
X-4095000Y-15658761D01*
X-4142619Y-15563523D01*
X-4142619Y-15325428D01*
X-4095000Y-15230190D01*
X-4047380Y-15182571D01*
X-3952142Y-15134952D01*
X-3856904Y-15134952D01*
X-3714047Y-15182571D01*
X-3142619Y-15754000D01*
X-3142619Y-15134952D01*
D12*
X29178333Y19213809D02*
X29011666Y19451904D01*
X28892619Y19213809D02*
X28892619Y19713809D01*
X29083095Y19713809D01*
X29130714Y19690000D01*
X29154523Y19666190D01*
X29178333Y19618571D01*
X29178333Y19547142D01*
X29154523Y19499523D01*
X29130714Y19475714D01*
X29083095Y19451904D01*
X28892619Y19451904D01*
X29392619Y19475714D02*
X29559285Y19475714D01*
X29630714Y19213809D02*
X29392619Y19213809D01*
X29392619Y19713809D01*
X29630714Y19713809D01*
X30011666Y19475714D02*
X29845000Y19475714D01*
X29845000Y19213809D02*
X29845000Y19713809D01*
X30083095Y19713809D01*
X30345000Y19713809D02*
X30345000Y19594761D01*
X30225952Y19642380D02*
X30345000Y19594761D01*
X30464047Y19642380D01*
X30273571Y19499523D02*
X30345000Y19594761D01*
X30416428Y19499523D01*
X30725952Y19713809D02*
X30725952Y19594761D01*
X30606904Y19642380D02*
X30725952Y19594761D01*
X30845000Y19642380D01*
X30654523Y19499523D02*
X30725952Y19594761D01*
X30797380Y19499523D01*
X-31122857Y-13486190D02*
X-31122857Y-13843333D01*
X-31146666Y-13914761D01*
X-31194285Y-13962380D01*
X-31265714Y-13986190D01*
X-31313333Y-13986190D01*
X-30908571Y-13533809D02*
X-30884761Y-13510000D01*
X-30837142Y-13486190D01*
X-30718095Y-13486190D01*
X-30670476Y-13510000D01*
X-30646666Y-13533809D01*
X-30622857Y-13581428D01*
X-30622857Y-13629047D01*
X-30646666Y-13700476D01*
X-30932380Y-13986190D01*
X-30622857Y-13986190D01*
X-30313333Y-13486190D02*
X-30265714Y-13486190D01*
X-30218095Y-13510000D01*
X-30194285Y-13533809D01*
X-30170476Y-13581428D01*
X-30146666Y-13676666D01*
X-30146666Y-13795714D01*
X-30170476Y-13890952D01*
X-30194285Y-13938571D01*
X-30218095Y-13962380D01*
X-30265714Y-13986190D01*
X-30313333Y-13986190D01*
X-30360952Y-13962380D01*
X-30384761Y-13938571D01*
X-30408571Y-13890952D01*
X-30432380Y-13795714D01*
X-30432380Y-13676666D01*
X-30408571Y-13581428D01*
X-30384761Y-13533809D01*
X-30360952Y-13510000D01*
X-30313333Y-13486190D01*
X-29980000Y-13486190D02*
X-29670476Y-13486190D01*
X-29837142Y-13676666D01*
X-29765714Y-13676666D01*
X-29718095Y-13700476D01*
X-29694285Y-13724285D01*
X-29670476Y-13771904D01*
X-29670476Y-13890952D01*
X-29694285Y-13938571D01*
X-29718095Y-13962380D01*
X-29765714Y-13986190D01*
X-29908571Y-13986190D01*
X-29956190Y-13962380D01*
X-29980000Y-13938571D01*
X4386571Y17458571D02*
X4410380Y17434761D01*
X4434190Y17363333D01*
X4434190Y17315714D01*
X4410380Y17244285D01*
X4362761Y17196666D01*
X4315142Y17172857D01*
X4219904Y17149047D01*
X4148476Y17149047D01*
X4053238Y17172857D01*
X4005619Y17196666D01*
X3958000Y17244285D01*
X3934190Y17315714D01*
X3934190Y17363333D01*
X3958000Y17434761D01*
X3981809Y17458571D01*
X3981809Y17649047D02*
X3958000Y17672857D01*
X3934190Y17720476D01*
X3934190Y17839523D01*
X3958000Y17887142D01*
X3981809Y17910952D01*
X4029428Y17934761D01*
X4077047Y17934761D01*
X4148476Y17910952D01*
X4434190Y17625238D01*
X4434190Y17934761D01*
X3934190Y18387142D02*
X3934190Y18149047D01*
X4172285Y18125238D01*
X4148476Y18149047D01*
X4124666Y18196666D01*
X4124666Y18315714D01*
X4148476Y18363333D01*
X4172285Y18387142D01*
X4219904Y18410952D01*
X4338952Y18410952D01*
X4386571Y18387142D01*
X4410380Y18363333D01*
X4434190Y18315714D01*
X4434190Y18196666D01*
X4410380Y18149047D01*
X4386571Y18125238D01*
X-7297428Y20268476D02*
X-7273619Y20244666D01*
X-7249809Y20173238D01*
X-7249809Y20125619D01*
X-7273619Y20054190D01*
X-7321238Y20006571D01*
X-7368857Y19982761D01*
X-7464095Y19958952D01*
X-7535523Y19958952D01*
X-7630761Y19982761D01*
X-7678380Y20006571D01*
X-7726000Y20054190D01*
X-7749809Y20125619D01*
X-7749809Y20173238D01*
X-7726000Y20244666D01*
X-7702190Y20268476D01*
X-7249809Y20744666D02*
X-7249809Y20458952D01*
X-7249809Y20601809D02*
X-7749809Y20601809D01*
X-7678380Y20554190D01*
X-7630761Y20506571D01*
X-7606952Y20458952D01*
X-7749809Y21054190D02*
X-7749809Y21101809D01*
X-7726000Y21149428D01*
X-7702190Y21173238D01*
X-7654571Y21197047D01*
X-7559333Y21220857D01*
X-7440285Y21220857D01*
X-7345047Y21197047D01*
X-7297428Y21173238D01*
X-7273619Y21149428D01*
X-7249809Y21101809D01*
X-7249809Y21054190D01*
X-7273619Y21006571D01*
X-7297428Y20982761D01*
X-7345047Y20958952D01*
X-7440285Y20935142D01*
X-7559333Y20935142D01*
X-7654571Y20958952D01*
X-7702190Y20982761D01*
X-7726000Y21006571D01*
X-7749809Y21054190D01*
X-7249809Y21697047D02*
X-7249809Y21411333D01*
X-7249809Y21554190D02*
X-7749809Y21554190D01*
X-7678380Y21506571D01*
X-7630761Y21458952D01*
X-7606952Y21411333D01*
X-2667809Y-559523D02*
X-2905904Y-726190D01*
X-2667809Y-845238D02*
X-3167809Y-845238D01*
X-3167809Y-654761D01*
X-3144000Y-607142D01*
X-3120190Y-583333D01*
X-3072571Y-559523D01*
X-3001142Y-559523D01*
X-2953523Y-583333D01*
X-2929714Y-607142D01*
X-2905904Y-654761D01*
X-2905904Y-845238D01*
X-2667809Y-83333D02*
X-2667809Y-369047D01*
X-2667809Y-226190D02*
X-3167809Y-226190D01*
X-3096380Y-273809D01*
X-3048761Y-321428D01*
X-3024952Y-369047D01*
X-2667809Y392857D02*
X-2667809Y107142D01*
X-2667809Y250000D02*
X-3167809Y250000D01*
X-3096380Y202380D01*
X-3048761Y154761D01*
X-3024952Y107142D01*
X-3120190Y583333D02*
X-3144000Y607142D01*
X-3167809Y654761D01*
X-3167809Y773809D01*
X-3144000Y821428D01*
X-3120190Y845238D01*
X-3072571Y869047D01*
X-3024952Y869047D01*
X-2953523Y845238D01*
X-2667809Y559523D01*
X-2667809Y869047D01*
X-2505428Y-21149428D02*
X-2481619Y-21173238D01*
X-2457809Y-21244666D01*
X-2457809Y-21292285D01*
X-2481619Y-21363714D01*
X-2529238Y-21411333D01*
X-2576857Y-21435142D01*
X-2672095Y-21458952D01*
X-2743523Y-21458952D01*
X-2838761Y-21435142D01*
X-2886380Y-21411333D01*
X-2934000Y-21363714D01*
X-2957809Y-21292285D01*
X-2957809Y-21244666D01*
X-2934000Y-21173238D01*
X-2910190Y-21149428D01*
X-2910190Y-20958952D02*
X-2934000Y-20935142D01*
X-2957809Y-20887523D01*
X-2957809Y-20768476D01*
X-2934000Y-20720857D01*
X-2910190Y-20697047D01*
X-2862571Y-20673238D01*
X-2814952Y-20673238D01*
X-2743523Y-20697047D01*
X-2457809Y-20982761D01*
X-2457809Y-20673238D01*
X-2910190Y-20482761D02*
X-2934000Y-20458952D01*
X-2957809Y-20411333D01*
X-2957809Y-20292285D01*
X-2934000Y-20244666D01*
X-2910190Y-20220857D01*
X-2862571Y-20197047D01*
X-2814952Y-20197047D01*
X-2743523Y-20220857D01*
X-2457809Y-20506571D01*
X-2457809Y-20197047D01*
X542571Y-20911333D02*
X566380Y-20935142D01*
X590190Y-21006571D01*
X590190Y-21054190D01*
X566380Y-21125619D01*
X518761Y-21173238D01*
X471142Y-21197047D01*
X375904Y-21220857D01*
X304476Y-21220857D01*
X209238Y-21197047D01*
X161619Y-21173238D01*
X113999Y-21125619D01*
X90190Y-21054190D01*
X90190Y-21006571D01*
X114000Y-20935142D01*
X137809Y-20911333D01*
X90190Y-20482761D02*
X90190Y-20578000D01*
X114000Y-20625619D01*
X137809Y-20649428D01*
X209238Y-20697047D01*
X304476Y-20720857D01*
X494952Y-20720857D01*
X542571Y-20697047D01*
X566380Y-20673238D01*
X590190Y-20625619D01*
X590190Y-20530380D01*
X566380Y-20482761D01*
X542571Y-20458952D01*
X494952Y-20435142D01*
X375904Y-20435142D01*
X328285Y-20458952D01*
X304476Y-20482761D01*
X280666Y-20530380D01*
X280666Y-20625619D01*
X304476Y-20673238D01*
X328285Y-20697047D01*
X375904Y-20720857D01*
X-30511666Y-11266190D02*
X-30678333Y-11028095D01*
X-30797380Y-11266190D02*
X-30797380Y-10766190D01*
X-30606904Y-10766190D01*
X-30559285Y-10790000D01*
X-30535476Y-10813809D01*
X-30511666Y-10861428D01*
X-30511666Y-10932857D01*
X-30535476Y-10980476D01*
X-30559285Y-11004285D01*
X-30606904Y-11028095D01*
X-30797380Y-11028095D01*
X-30297380Y-11004285D02*
X-30130714Y-11004285D01*
X-30059285Y-11266190D02*
X-30297380Y-11266190D01*
X-30297380Y-10766190D01*
X-30059285Y-10766190D01*
X-29678333Y-11004285D02*
X-29845000Y-11004285D01*
X-29845000Y-11266190D02*
X-29845000Y-10766190D01*
X-29606904Y-10766190D01*
X-29345000Y-10766190D02*
X-29345000Y-10885238D01*
X-29464047Y-10837619D02*
X-29345000Y-10885238D01*
X-29225952Y-10837619D01*
X-29416428Y-10980476D02*
X-29345000Y-10885238D01*
X-29273571Y-10980476D01*
X-28964047Y-10766190D02*
X-28964047Y-10885238D01*
X-29083095Y-10837619D02*
X-28964047Y-10885238D01*
X-28845000Y-10837619D01*
X-29035476Y-10980476D02*
X-28964047Y-10885238D01*
X-28892619Y-10980476D01*
X-15906666Y33818809D02*
X-16073333Y34056904D01*
X-16192380Y33818809D02*
X-16192380Y34318809D01*
X-16001904Y34318809D01*
X-15954285Y34295000D01*
X-15930476Y34271190D01*
X-15906666Y34223571D01*
X-15906666Y34152142D01*
X-15930476Y34104523D01*
X-15954285Y34080714D01*
X-16001904Y34056904D01*
X-16192380Y34056904D01*
X-15692380Y34080714D02*
X-15525714Y34080714D01*
X-15454285Y33818809D02*
X-15692380Y33818809D01*
X-15692380Y34318809D01*
X-15454285Y34318809D01*
X-15073333Y34080714D02*
X-15240000Y34080714D01*
X-15240000Y33818809D02*
X-15240000Y34318809D01*
X-15001904Y34318809D01*
X-14740000Y34318809D02*
X-14740000Y34199761D01*
X-14859047Y34247380D02*
X-14740000Y34199761D01*
X-14620952Y34247380D01*
X-14811428Y34104523D02*
X-14740000Y34199761D01*
X-14668571Y34104523D01*
X-14359047Y34318809D02*
X-14359047Y34199761D01*
X-14478095Y34247380D02*
X-14359047Y34199761D01*
X-14240000Y34247380D01*
X-14430476Y34104523D02*
X-14359047Y34199761D01*
X-14287619Y34104523D01*
X9974571Y20744666D02*
X9998380Y20720857D01*
X10022190Y20649428D01*
X10022190Y20601809D01*
X9998380Y20530380D01*
X9950761Y20482761D01*
X9903142Y20458952D01*
X9807904Y20435142D01*
X9736476Y20435142D01*
X9641238Y20458952D01*
X9593619Y20482761D01*
X9546000Y20530380D01*
X9522190Y20601809D01*
X9522190Y20649428D01*
X9546000Y20720857D01*
X9569809Y20744666D01*
X10022190Y20982761D02*
X10022190Y21078000D01*
X9998380Y21125619D01*
X9974571Y21149428D01*
X9903142Y21197047D01*
X9807904Y21220857D01*
X9617428Y21220857D01*
X9569809Y21197047D01*
X9546000Y21173238D01*
X9522190Y21125619D01*
X9522190Y21030380D01*
X9546000Y20982761D01*
X9569809Y20958952D01*
X9617428Y20935142D01*
X9736476Y20935142D01*
X9784095Y20958952D01*
X9807904Y20982761D01*
X9831714Y21030380D01*
X9831714Y21125619D01*
X9807904Y21173238D01*
X9784095Y21197047D01*
X9736476Y21220857D01*
X20642571Y2726571D02*
X20666380Y2702761D01*
X20690190Y2631333D01*
X20690190Y2583714D01*
X20666380Y2512285D01*
X20618761Y2464666D01*
X20571142Y2440857D01*
X20475904Y2417047D01*
X20404476Y2417047D01*
X20309238Y2440857D01*
X20261619Y2464666D01*
X20214000Y2512285D01*
X20190190Y2583714D01*
X20190190Y2631333D01*
X20214000Y2702761D01*
X20237809Y2726571D01*
X20190190Y2893238D02*
X20190190Y3226571D01*
X20690190Y3012285D01*
X20404476Y3488476D02*
X20380666Y3440857D01*
X20356857Y3417047D01*
X20309238Y3393238D01*
X20285428Y3393238D01*
X20237809Y3417047D01*
X20214000Y3440857D01*
X20190190Y3488476D01*
X20190190Y3583714D01*
X20214000Y3631333D01*
X20237809Y3655142D01*
X20285428Y3678952D01*
X20309238Y3678952D01*
X20356857Y3655142D01*
X20380666Y3631333D01*
X20404476Y3583714D01*
X20404476Y3488476D01*
X20428285Y3440857D01*
X20452095Y3417047D01*
X20499714Y3393238D01*
X20594952Y3393238D01*
X20642571Y3417047D01*
X20666380Y3440857D01*
X20690190Y3488476D01*
X20690190Y3583714D01*
X20666380Y3631333D01*
X20642571Y3655142D01*
X20594952Y3678952D01*
X20499714Y3678952D01*
X20452095Y3655142D01*
X20428285Y3631333D01*
X20404476Y3583714D01*
X14573333Y33818809D02*
X14406666Y34056904D01*
X14287619Y33818809D02*
X14287619Y34318809D01*
X14478095Y34318809D01*
X14525714Y34295000D01*
X14549523Y34271190D01*
X14573333Y34223571D01*
X14573333Y34152142D01*
X14549523Y34104523D01*
X14525714Y34080714D01*
X14478095Y34056904D01*
X14287619Y34056904D01*
X14787619Y34080714D02*
X14954285Y34080714D01*
X15025714Y33818809D02*
X14787619Y33818809D01*
X14787619Y34318809D01*
X15025714Y34318809D01*
X15406666Y34080714D02*
X15240000Y34080714D01*
X15240000Y33818809D02*
X15240000Y34318809D01*
X15478095Y34318809D01*
X15740000Y34318809D02*
X15740000Y34199761D01*
X15620952Y34247380D02*
X15740000Y34199761D01*
X15859047Y34247380D01*
X15668571Y34104523D02*
X15740000Y34199761D01*
X15811428Y34104523D01*
X16120952Y34318809D02*
X16120952Y34199761D01*
X16001904Y34247380D02*
X16120952Y34199761D01*
X16240000Y34247380D01*
X16049523Y34104523D02*
X16120952Y34199761D01*
X16192380Y34104523D01*
X-185428Y20268476D02*
X-161619Y20244666D01*
X-137809Y20173238D01*
X-137809Y20125619D01*
X-161619Y20054190D01*
X-209238Y20006571D01*
X-256857Y19982761D01*
X-352095Y19958952D01*
X-423523Y19958952D01*
X-518761Y19982761D01*
X-566380Y20006571D01*
X-614000Y20054190D01*
X-637809Y20125619D01*
X-637809Y20173238D01*
X-614000Y20244666D01*
X-590190Y20268476D01*
X-137809Y20744666D02*
X-137809Y20458952D01*
X-137809Y20601809D02*
X-637809Y20601809D01*
X-566380Y20554190D01*
X-518761Y20506571D01*
X-494952Y20458952D01*
X-637809Y21054190D02*
X-637809Y21101809D01*
X-614000Y21149428D01*
X-590190Y21173238D01*
X-542571Y21197047D01*
X-447333Y21220857D01*
X-328285Y21220857D01*
X-233047Y21197047D01*
X-185428Y21173238D01*
X-161619Y21149428D01*
X-137809Y21101809D01*
X-137809Y21054190D01*
X-161619Y21006571D01*
X-185428Y20982761D01*
X-233047Y20958952D01*
X-328285Y20935142D01*
X-447333Y20935142D01*
X-542571Y20958952D01*
X-590190Y20982761D01*
X-614000Y21006571D01*
X-637809Y21054190D01*
X-637809Y21387523D02*
X-637809Y21697047D01*
X-447333Y21530380D01*
X-447333Y21601809D01*
X-423523Y21649428D01*
X-399714Y21673238D01*
X-352095Y21697047D01*
X-233047Y21697047D01*
X-185428Y21673238D01*
X-161619Y21649428D01*
X-137809Y21601809D01*
X-137809Y21458952D01*
X-161619Y21411333D01*
X-185428Y21387523D01*
X22002857Y-8106190D02*
X22002857Y-8510952D01*
X22026666Y-8558571D01*
X22050476Y-8582380D01*
X22098095Y-8606190D01*
X22193333Y-8606190D01*
X22240952Y-8582380D01*
X22264761Y-8558571D01*
X22288571Y-8510952D01*
X22288571Y-8106190D01*
X22788571Y-8606190D02*
X22502857Y-8606190D01*
X22645714Y-8606190D02*
X22645714Y-8106190D01*
X22598095Y-8177619D01*
X22550476Y-8225238D01*
X22502857Y-8249047D01*
X23264761Y-8606190D02*
X22979047Y-8606190D01*
X23121904Y-8606190D02*
X23121904Y-8106190D01*
X23074285Y-8177619D01*
X23026666Y-8225238D01*
X22979047Y-8249047D01*
X23693333Y-8272857D02*
X23693333Y-8606190D01*
X23574285Y-8082380D02*
X23455238Y-8439523D01*
X23764761Y-8439523D01*
X-20285428Y6790571D02*
X-20261619Y6766761D01*
X-20237809Y6695333D01*
X-20237809Y6647714D01*
X-20261619Y6576285D01*
X-20309238Y6528666D01*
X-20356857Y6504857D01*
X-20452095Y6481047D01*
X-20523523Y6481047D01*
X-20618761Y6504857D01*
X-20666380Y6528666D01*
X-20714000Y6576285D01*
X-20737809Y6647714D01*
X-20737809Y6695333D01*
X-20714000Y6766761D01*
X-20690190Y6790571D01*
X-20237809Y7028666D02*
X-20237809Y7123904D01*
X-20261619Y7171523D01*
X-20285428Y7195333D01*
X-20356857Y7242952D01*
X-20452095Y7266761D01*
X-20642571Y7266761D01*
X-20690190Y7242952D01*
X-20714000Y7219142D01*
X-20737809Y7171523D01*
X-20737809Y7076285D01*
X-20714000Y7028666D01*
X-20690190Y7004857D01*
X-20642571Y6981047D01*
X-20523523Y6981047D01*
X-20475904Y7004857D01*
X-20452095Y7028666D01*
X-20428285Y7076285D01*
X-20428285Y7171523D01*
X-20452095Y7219142D01*
X-20475904Y7242952D01*
X-20523523Y7266761D01*
X-20737809Y7433428D02*
X-20737809Y7742952D01*
X-20547333Y7576285D01*
X-20547333Y7647714D01*
X-20523523Y7695333D01*
X-20499714Y7719142D01*
X-20452095Y7742952D01*
X-20333047Y7742952D01*
X-20285428Y7719142D01*
X-20261619Y7695333D01*
X-20237809Y7647714D01*
X-20237809Y7504857D01*
X-20261619Y7457238D01*
X-20285428Y7433428D01*
X6200390Y-8960778D02*
X6234062Y-8960778D01*
X6301405Y-8994450D01*
X6335077Y-9028121D01*
X6368749Y-9095465D01*
X6368749Y-9162808D01*
X6351913Y-9213316D01*
X6301405Y-9297495D01*
X6250898Y-9348003D01*
X6166718Y-9398511D01*
X6116211Y-9415346D01*
X6048867Y-9415346D01*
X5981524Y-9381675D01*
X5947852Y-9348003D01*
X5914180Y-9280659D01*
X5914180Y-9246988D01*
X5897344Y-8590388D02*
X6099375Y-8792419D01*
X5998359Y-8691404D02*
X5644806Y-9044957D01*
X5728985Y-9028121D01*
X5796329Y-9028121D01*
X5846837Y-9044957D01*
X5728985Y-8422030D02*
X5661642Y-8354686D01*
X5611134Y-8337850D01*
X5577462Y-8337850D01*
X5493283Y-8354686D01*
X5409104Y-8405194D01*
X5274417Y-8539881D01*
X5257581Y-8590388D01*
X5257581Y-8624060D01*
X5274417Y-8674568D01*
X5341760Y-8741911D01*
X5392268Y-8758747D01*
X5425940Y-8758747D01*
X5476447Y-8741911D01*
X5560627Y-8657732D01*
X5577462Y-8607224D01*
X5577462Y-8573553D01*
X5560627Y-8523045D01*
X5493283Y-8455701D01*
X5442775Y-8438866D01*
X5409104Y-8438866D01*
X5358596Y-8455701D01*
X-15906666Y-25871190D02*
X-16073333Y-25633095D01*
X-16192380Y-25871190D02*
X-16192380Y-25371190D01*
X-16001904Y-25371190D01*
X-15954285Y-25395000D01*
X-15930476Y-25418809D01*
X-15906666Y-25466428D01*
X-15906666Y-25537857D01*
X-15930476Y-25585476D01*
X-15954285Y-25609285D01*
X-16001904Y-25633095D01*
X-16192380Y-25633095D01*
X-15692380Y-25609285D02*
X-15525714Y-25609285D01*
X-15454285Y-25871190D02*
X-15692380Y-25871190D01*
X-15692380Y-25371190D01*
X-15454285Y-25371190D01*
X-15073333Y-25609285D02*
X-15240000Y-25609285D01*
X-15240000Y-25871190D02*
X-15240000Y-25371190D01*
X-15001904Y-25371190D01*
X-14740000Y-25371190D02*
X-14740000Y-25490238D01*
X-14859047Y-25442619D02*
X-14740000Y-25490238D01*
X-14620952Y-25442619D01*
X-14811428Y-25585476D02*
X-14740000Y-25490238D01*
X-14668571Y-25585476D01*
X-14359047Y-25371190D02*
X-14359047Y-25490238D01*
X-14478095Y-25442619D02*
X-14359047Y-25490238D01*
X-14240000Y-25442619D01*
X-14430476Y-25585476D02*
X-14359047Y-25490238D01*
X-14287619Y-25585476D01*
X-23717142Y-1506190D02*
X-23717142Y-1910952D01*
X-23693333Y-1958571D01*
X-23669523Y-1982380D01*
X-23621904Y-2006190D01*
X-23526666Y-2006190D01*
X-23479047Y-1982380D01*
X-23455238Y-1958571D01*
X-23431428Y-1910952D01*
X-23431428Y-1506190D01*
X-22931428Y-2006190D02*
X-23217142Y-2006190D01*
X-23074285Y-2006190D02*
X-23074285Y-1506190D01*
X-23121904Y-1577619D01*
X-23169523Y-1625238D01*
X-23217142Y-1649047D01*
X-22621904Y-1506190D02*
X-22574285Y-1506190D01*
X-22526666Y-1530000D01*
X-22502857Y-1553809D01*
X-22479047Y-1601428D01*
X-22455238Y-1696666D01*
X-22455238Y-1815714D01*
X-22479047Y-1910952D01*
X-22502857Y-1958571D01*
X-22526666Y-1982380D01*
X-22574285Y-2006190D01*
X-22621904Y-2006190D01*
X-22669523Y-1982380D01*
X-22693333Y-1958571D01*
X-22717142Y-1910952D01*
X-22740952Y-1815714D01*
X-22740952Y-1696666D01*
X-22717142Y-1601428D01*
X-22693333Y-1553809D01*
X-22669523Y-1530000D01*
X-22621904Y-1506190D01*
X-22002857Y-1506190D02*
X-22240952Y-1506190D01*
X-22264761Y-1744285D01*
X-22240952Y-1720476D01*
X-22193333Y-1696666D01*
X-22074285Y-1696666D01*
X-22026666Y-1720476D01*
X-22002857Y-1744285D01*
X-21979047Y-1791904D01*
X-21979047Y-1910952D01*
X-22002857Y-1958571D01*
X-22026666Y-1982380D01*
X-22074285Y-2006190D01*
X-22193333Y-2006190D01*
X-22240952Y-1982380D01*
X-22264761Y-1958571D01*
X2066571Y15426571D02*
X2090380Y15402761D01*
X2114190Y15331333D01*
X2114190Y15283714D01*
X2090380Y15212285D01*
X2042761Y15164666D01*
X1995142Y15140857D01*
X1899904Y15117047D01*
X1828476Y15117047D01*
X1733238Y15140857D01*
X1685619Y15164666D01*
X1638000Y15212285D01*
X1614190Y15283714D01*
X1614190Y15331333D01*
X1638000Y15402761D01*
X1661809Y15426571D01*
X1661809Y15617047D02*
X1638000Y15640857D01*
X1614190Y15688476D01*
X1614190Y15807523D01*
X1638000Y15855142D01*
X1661809Y15878952D01*
X1709428Y15902761D01*
X1757047Y15902761D01*
X1828476Y15878952D01*
X2114190Y15593238D01*
X2114190Y15902761D01*
X2114190Y16378952D02*
X2114190Y16093238D01*
X2114190Y16236095D02*
X1614190Y16236095D01*
X1685619Y16188476D01*
X1733238Y16140857D01*
X1757047Y16093238D01*
X-21149428Y-7654571D02*
X-21173238Y-7678380D01*
X-21244666Y-7702190D01*
X-21292285Y-7702190D01*
X-21363714Y-7678380D01*
X-21411333Y-7630761D01*
X-21435142Y-7583142D01*
X-21458952Y-7487904D01*
X-21458952Y-7416476D01*
X-21435142Y-7321238D01*
X-21411333Y-7273619D01*
X-21363714Y-7226000D01*
X-21292285Y-7202190D01*
X-21244666Y-7202190D01*
X-21173238Y-7226000D01*
X-21149428Y-7249809D01*
X-20863714Y-7416476D02*
X-20911333Y-7392666D01*
X-20935142Y-7368857D01*
X-20958952Y-7321238D01*
X-20958952Y-7297428D01*
X-20935142Y-7249809D01*
X-20911333Y-7226000D01*
X-20863714Y-7202190D01*
X-20768476Y-7202190D01*
X-20720857Y-7226000D01*
X-20697047Y-7249809D01*
X-20673238Y-7297428D01*
X-20673238Y-7321238D01*
X-20697047Y-7368857D01*
X-20720857Y-7392666D01*
X-20768476Y-7416476D01*
X-20863714Y-7416476D01*
X-20911333Y-7440285D01*
X-20935142Y-7464095D01*
X-20958952Y-7511714D01*
X-20958952Y-7606952D01*
X-20935142Y-7654571D01*
X-20911333Y-7678380D01*
X-20863714Y-7702190D01*
X-20768476Y-7702190D01*
X-20720857Y-7678380D01*
X-20697047Y-7654571D01*
X-20673238Y-7606952D01*
X-20673238Y-7511714D01*
X-20697047Y-7464095D01*
X-20720857Y-7440285D01*
X-20768476Y-7416476D01*
X-20435142Y-7702190D02*
X-20339904Y-7702190D01*
X-20292285Y-7678380D01*
X-20268476Y-7654571D01*
X-20220857Y-7583142D01*
X-20197047Y-7487904D01*
X-20197047Y-7297428D01*
X-20220857Y-7249809D01*
X-20244666Y-7226000D01*
X-20292285Y-7202190D01*
X-20387523Y-7202190D01*
X-20435142Y-7226000D01*
X-20458952Y-7249809D01*
X-20482761Y-7297428D01*
X-20482761Y-7416476D01*
X-20458952Y-7464095D01*
X-20435142Y-7487904D01*
X-20387523Y-7511714D01*
X-20292285Y-7511714D01*
X-20244666Y-7487904D01*
X-20220857Y-7464095D01*
X-20197047Y-7416476D01*
D11*
X-761904Y20211619D02*
X-761904Y19402095D01*
X-714285Y19306857D01*
X-666666Y19259238D01*
X-571428Y19211619D01*
X-380952Y19211619D01*
X-285714Y19259238D01*
X-238095Y19306857D01*
X-190476Y19402095D01*
X-190476Y20211619D01*
X238095Y20116380D02*
X285714Y20164000D01*
X380952Y20211619D01*
X619047Y20211619D01*
X714285Y20164000D01*
X761904Y20116380D01*
X809523Y20021142D01*
X809523Y19925904D01*
X761904Y19783047D01*
X190476Y19211619D01*
X809523Y19211619D01*
D12*
X-9617428Y-21149428D02*
X-9593619Y-21173238D01*
X-9569809Y-21244666D01*
X-9569809Y-21292285D01*
X-9593619Y-21363714D01*
X-9641238Y-21411333D01*
X-9688857Y-21435142D01*
X-9784095Y-21458952D01*
X-9855523Y-21458952D01*
X-9950761Y-21435142D01*
X-9998380Y-21411333D01*
X-10046000Y-21363714D01*
X-10069809Y-21292285D01*
X-10069809Y-21244666D01*
X-10046000Y-21173238D01*
X-10022190Y-21149428D01*
X-10022190Y-20958952D02*
X-10046000Y-20935142D01*
X-10069809Y-20887523D01*
X-10069809Y-20768476D01*
X-10046000Y-20720857D01*
X-10022190Y-20697047D01*
X-9974571Y-20673238D01*
X-9926952Y-20673238D01*
X-9855523Y-20697047D01*
X-9569809Y-20982761D01*
X-9569809Y-20673238D01*
X-9903142Y-20244666D02*
X-9569809Y-20244666D01*
X-10093619Y-20363714D02*
X-9736476Y-20482761D01*
X-9736476Y-20173238D01*
X-8653809Y-23717142D02*
X-8249047Y-23717142D01*
X-8201428Y-23693333D01*
X-8177619Y-23669523D01*
X-8153809Y-23621904D01*
X-8153809Y-23526666D01*
X-8177619Y-23479047D01*
X-8201428Y-23455238D01*
X-8249047Y-23431428D01*
X-8653809Y-23431428D01*
X-8153809Y-22931428D02*
X-8153809Y-23217142D01*
X-8153809Y-23074285D02*
X-8653809Y-23074285D01*
X-8582380Y-23121904D01*
X-8534761Y-23169523D01*
X-8510952Y-23217142D01*
X-8653809Y-22621904D02*
X-8653809Y-22574285D01*
X-8630000Y-22526666D01*
X-8606190Y-22502857D01*
X-8558571Y-22479047D01*
X-8463333Y-22455238D01*
X-8344285Y-22455238D01*
X-8249047Y-22479047D01*
X-8201428Y-22502857D01*
X-8177619Y-22526666D01*
X-8153809Y-22574285D01*
X-8153809Y-22621904D01*
X-8177619Y-22669523D01*
X-8201428Y-22693333D01*
X-8249047Y-22717142D01*
X-8344285Y-22740952D01*
X-8463333Y-22740952D01*
X-8558571Y-22717142D01*
X-8606190Y-22693333D01*
X-8630000Y-22669523D01*
X-8653809Y-22621904D01*
X-8606190Y-22264761D02*
X-8630000Y-22240952D01*
X-8653809Y-22193333D01*
X-8653809Y-22074285D01*
X-8630000Y-22026666D01*
X-8606190Y-22002857D01*
X-8558571Y-21979047D01*
X-8510952Y-21979047D01*
X-8439523Y-22002857D01*
X-8153809Y-22288571D01*
X-8153809Y-21979047D01*
X13559347Y-12972516D02*
X13559347Y-13006188D01*
X13525675Y-13073531D01*
X13492004Y-13107203D01*
X13424660Y-13140875D01*
X13357317Y-13140875D01*
X13306809Y-13124039D01*
X13222630Y-13073531D01*
X13172122Y-13023024D01*
X13121614Y-12938844D01*
X13104779Y-12888337D01*
X13104779Y-12820993D01*
X13138450Y-12753650D01*
X13172122Y-12719978D01*
X13239466Y-12686306D01*
X13273137Y-12686306D01*
X13929737Y-12669470D02*
X13727706Y-12871501D01*
X13828721Y-12770485D02*
X13475168Y-12416932D01*
X13492004Y-12501111D01*
X13492004Y-12568455D01*
X13475168Y-12618963D01*
X13929737Y-12265409D02*
X13879229Y-12282245D01*
X13845557Y-12282245D01*
X13795050Y-12265409D01*
X13778214Y-12248573D01*
X13761378Y-12198066D01*
X13761378Y-12164394D01*
X13778214Y-12113886D01*
X13845557Y-12046543D01*
X13896065Y-12029707D01*
X13929737Y-12029707D01*
X13980244Y-12046543D01*
X13997080Y-12063379D01*
X14013916Y-12113886D01*
X14013916Y-12147558D01*
X13997080Y-12198066D01*
X13929737Y-12265409D01*
X13912901Y-12315917D01*
X13912901Y-12349588D01*
X13929737Y-12400096D01*
X13997080Y-12467440D01*
X14047588Y-12484275D01*
X14081259Y-12484275D01*
X14131767Y-12467440D01*
X14199111Y-12400096D01*
X14215946Y-12349588D01*
X14215946Y-12315917D01*
X14199111Y-12265409D01*
X14131767Y-12198066D01*
X14081259Y-12181230D01*
X14047588Y-12181230D01*
X13997080Y-12198066D01*
X13588190Y-8179523D02*
X13350095Y-8346190D01*
X13588190Y-8465238D02*
X13088190Y-8465238D01*
X13088190Y-8274761D01*
X13112000Y-8227142D01*
X13135809Y-8203333D01*
X13183428Y-8179523D01*
X13254857Y-8179523D01*
X13302476Y-8203333D01*
X13326285Y-8227142D01*
X13350095Y-8274761D01*
X13350095Y-8465238D01*
X13588190Y-7703333D02*
X13588190Y-7989047D01*
X13588190Y-7846190D02*
X13088190Y-7846190D01*
X13159619Y-7893809D01*
X13207238Y-7941428D01*
X13231047Y-7989047D01*
X13588190Y-7227142D02*
X13588190Y-7512857D01*
X13588190Y-7370000D02*
X13088190Y-7370000D01*
X13159619Y-7417619D01*
X13207238Y-7465238D01*
X13231047Y-7512857D01*
X13088190Y-6917619D02*
X13088190Y-6870000D01*
X13112000Y-6822380D01*
X13135809Y-6798571D01*
X13183428Y-6774761D01*
X13278666Y-6750952D01*
X13397714Y-6750952D01*
X13492952Y-6774761D01*
X13540571Y-6798571D01*
X13564380Y-6822380D01*
X13588190Y-6870000D01*
X13588190Y-6917619D01*
X13564380Y-6965238D01*
X13540571Y-6989047D01*
X13492952Y-7012857D01*
X13397714Y-7036666D01*
X13278666Y-7036666D01*
X13183428Y-7012857D01*
X13135809Y-6989047D01*
X13112000Y-6965238D01*
X13088190Y-6917619D01*
X8757864Y-12539201D02*
X9044074Y-12252991D01*
X9060909Y-12202483D01*
X9060909Y-12168812D01*
X9044074Y-12118304D01*
X8976730Y-12050960D01*
X8926222Y-12034125D01*
X8892551Y-12034125D01*
X8842043Y-12050960D01*
X8555833Y-12337170D01*
X8437982Y-12151976D02*
X8404310Y-12151976D01*
X8353803Y-12135140D01*
X8269623Y-12050960D01*
X8252787Y-12000453D01*
X8252787Y-11966781D01*
X8269623Y-11916273D01*
X8303295Y-11882602D01*
X8370639Y-11848930D01*
X8774700Y-11848930D01*
X8555833Y-11630064D01*
X8101265Y-11815258D02*
X8067593Y-11815258D01*
X8017085Y-11798422D01*
X7932906Y-11714243D01*
X7916070Y-11663735D01*
X7916070Y-11630064D01*
X7932906Y-11579556D01*
X7966578Y-11545884D01*
X8033921Y-11512212D01*
X8437982Y-11512212D01*
X8219116Y-11293346D01*
X-7433428Y-20642571D02*
X-7457238Y-20666380D01*
X-7528666Y-20690190D01*
X-7576285Y-20690190D01*
X-7647714Y-20666380D01*
X-7695333Y-20618761D01*
X-7719142Y-20571142D01*
X-7742952Y-20475904D01*
X-7742952Y-20404476D01*
X-7719142Y-20309238D01*
X-7695333Y-20261619D01*
X-7647714Y-20214000D01*
X-7576285Y-20190190D01*
X-7528666Y-20190190D01*
X-7457238Y-20214000D01*
X-7433428Y-20237809D01*
X-7242952Y-20237809D02*
X-7219142Y-20214000D01*
X-7171523Y-20190190D01*
X-7052476Y-20190190D01*
X-7004857Y-20214000D01*
X-6981047Y-20237809D01*
X-6957238Y-20285428D01*
X-6957238Y-20333047D01*
X-6981047Y-20404476D01*
X-7266761Y-20690190D01*
X-6957238Y-20690190D01*
X-6790571Y-20190190D02*
X-6481047Y-20190190D01*
X-6647714Y-20380666D01*
X-6576285Y-20380666D01*
X-6528666Y-20404476D01*
X-6504857Y-20428285D01*
X-6481047Y-20475904D01*
X-6481047Y-20594952D01*
X-6504857Y-20642571D01*
X-6528666Y-20666380D01*
X-6576285Y-20690190D01*
X-6719142Y-20690190D01*
X-6766761Y-20666380D01*
X-6790571Y-20642571D01*
X13486190Y-31122857D02*
X13843333Y-31122857D01*
X13914761Y-31146666D01*
X13962380Y-31194285D01*
X13986190Y-31265714D01*
X13986190Y-31313333D01*
X13533809Y-30908571D02*
X13510000Y-30884761D01*
X13486190Y-30837142D01*
X13486190Y-30718095D01*
X13510000Y-30670476D01*
X13533809Y-30646666D01*
X13581428Y-30622857D01*
X13629047Y-30622857D01*
X13700476Y-30646666D01*
X13986190Y-30932380D01*
X13986190Y-30622857D01*
X13486190Y-30313333D02*
X13486190Y-30265714D01*
X13510000Y-30218095D01*
X13533809Y-30194285D01*
X13581428Y-30170476D01*
X13676666Y-30146666D01*
X13795714Y-30146666D01*
X13890952Y-30170476D01*
X13938571Y-30194285D01*
X13962380Y-30218095D01*
X13986190Y-30265714D01*
X13986190Y-30313333D01*
X13962380Y-30360952D01*
X13938571Y-30384761D01*
X13890952Y-30408571D01*
X13795714Y-30432380D01*
X13676666Y-30432380D01*
X13581428Y-30408571D01*
X13533809Y-30384761D01*
X13510000Y-30360952D01*
X13486190Y-30313333D01*
X13986190Y-29670476D02*
X13986190Y-29956190D01*
X13986190Y-29813333D02*
X13486190Y-29813333D01*
X13557619Y-29860952D01*
X13605238Y-29908571D01*
X13629047Y-29956190D01*
X7654571Y-20911333D02*
X7678380Y-20935142D01*
X7702190Y-21006571D01*
X7702190Y-21054190D01*
X7678380Y-21125619D01*
X7630761Y-21173238D01*
X7583142Y-21197047D01*
X7487904Y-21220857D01*
X7416476Y-21220857D01*
X7321238Y-21197047D01*
X7273619Y-21173238D01*
X7226000Y-21125619D01*
X7202190Y-21054190D01*
X7202190Y-21006571D01*
X7226000Y-20935142D01*
X7249809Y-20911333D01*
X7368857Y-20482761D02*
X7702190Y-20482761D01*
X7178380Y-20601809D02*
X7535523Y-20720857D01*
X7535523Y-20411333D01*
X20506571Y7297428D02*
X20482761Y7273619D01*
X20411333Y7249809D01*
X20363714Y7249809D01*
X20292285Y7273619D01*
X20244666Y7321238D01*
X20220857Y7368857D01*
X20197047Y7464095D01*
X20197047Y7535523D01*
X20220857Y7630761D01*
X20244666Y7678380D01*
X20292285Y7726000D01*
X20363714Y7749809D01*
X20411333Y7749809D01*
X20482761Y7726000D01*
X20506571Y7702190D01*
X20673238Y7749809D02*
X21006571Y7749809D01*
X20792285Y7249809D01*
X21149428Y7749809D02*
X21482761Y7749809D01*
X21268476Y7249809D01*
X-14033809Y29837142D02*
X-13676666Y29837142D01*
X-13605238Y29813333D01*
X-13557619Y29765714D01*
X-13533809Y29694285D01*
X-13533809Y29646666D01*
X-13986190Y30051428D02*
X-14010000Y30075238D01*
X-14033809Y30122857D01*
X-14033809Y30241904D01*
X-14010000Y30289523D01*
X-13986190Y30313333D01*
X-13938571Y30337142D01*
X-13890952Y30337142D01*
X-13819523Y30313333D01*
X-13533809Y30027619D01*
X-13533809Y30337142D01*
X-14033809Y30646666D02*
X-14033809Y30694285D01*
X-14010000Y30741904D01*
X-13986190Y30765714D01*
X-13938571Y30789523D01*
X-13843333Y30813333D01*
X-13724285Y30813333D01*
X-13629047Y30789523D01*
X-13581428Y30765714D01*
X-13557619Y30741904D01*
X-13533809Y30694285D01*
X-13533809Y30646666D01*
X-13557619Y30599047D01*
X-13581428Y30575238D01*
X-13629047Y30551428D01*
X-13724285Y30527619D01*
X-13843333Y30527619D01*
X-13938571Y30551428D01*
X-13986190Y30575238D01*
X-14010000Y30599047D01*
X-14033809Y30646666D01*
X-14033809Y31265714D02*
X-14033809Y31027619D01*
X-13795714Y31003809D01*
X-13819523Y31027619D01*
X-13843333Y31075238D01*
X-13843333Y31194285D01*
X-13819523Y31241904D01*
X-13795714Y31265714D01*
X-13748095Y31289523D01*
X-13629047Y31289523D01*
X-13581428Y31265714D01*
X-13557619Y31241904D01*
X-13533809Y31194285D01*
X-13533809Y31075238D01*
X-13557619Y31027619D01*
X-13581428Y31003809D01*
X-30511666Y19213809D02*
X-30678333Y19451904D01*
X-30797380Y19213809D02*
X-30797380Y19713809D01*
X-30606904Y19713809D01*
X-30559285Y19690000D01*
X-30535476Y19666190D01*
X-30511666Y19618571D01*
X-30511666Y19547142D01*
X-30535476Y19499523D01*
X-30559285Y19475714D01*
X-30606904Y19451904D01*
X-30797380Y19451904D01*
X-30297380Y19475714D02*
X-30130714Y19475714D01*
X-30059285Y19213809D02*
X-30297380Y19213809D01*
X-30297380Y19713809D01*
X-30059285Y19713809D01*
X-29678333Y19475714D02*
X-29845000Y19475714D01*
X-29845000Y19213809D02*
X-29845000Y19713809D01*
X-29606904Y19713809D01*
X-29345000Y19713809D02*
X-29345000Y19594761D01*
X-29464047Y19642380D02*
X-29345000Y19594761D01*
X-29225952Y19642380D01*
X-29416428Y19499523D02*
X-29345000Y19594761D01*
X-29273571Y19499523D01*
X-28964047Y19713809D02*
X-28964047Y19594761D01*
X-29083095Y19642380D02*
X-28964047Y19594761D01*
X-28845000Y19642380D01*
X-29035476Y19499523D02*
X-28964047Y19594761D01*
X-28892619Y19499523D01*
X-23717142Y8653809D02*
X-23717142Y8249047D01*
X-23693333Y8201428D01*
X-23669523Y8177619D01*
X-23621904Y8153809D01*
X-23526666Y8153809D01*
X-23479047Y8177619D01*
X-23455238Y8201428D01*
X-23431428Y8249047D01*
X-23431428Y8653809D01*
X-22931428Y8153809D02*
X-23217142Y8153809D01*
X-23074285Y8153809D02*
X-23074285Y8653809D01*
X-23121904Y8582380D01*
X-23169523Y8534761D01*
X-23217142Y8510952D01*
X-22621904Y8653809D02*
X-22574285Y8653809D01*
X-22526666Y8630000D01*
X-22502857Y8606190D01*
X-22479047Y8558571D01*
X-22455238Y8463333D01*
X-22455238Y8344285D01*
X-22479047Y8249047D01*
X-22502857Y8201428D01*
X-22526666Y8177619D01*
X-22574285Y8153809D01*
X-22621904Y8153809D01*
X-22669523Y8177619D01*
X-22693333Y8201428D01*
X-22717142Y8249047D01*
X-22740952Y8344285D01*
X-22740952Y8463333D01*
X-22717142Y8558571D01*
X-22693333Y8606190D01*
X-22669523Y8630000D01*
X-22621904Y8653809D01*
X-22026666Y8653809D02*
X-22121904Y8653809D01*
X-22169523Y8630000D01*
X-22193333Y8606190D01*
X-22240952Y8534761D01*
X-22264761Y8439523D01*
X-22264761Y8249047D01*
X-22240952Y8201428D01*
X-22217142Y8177619D01*
X-22169523Y8153809D01*
X-22074285Y8153809D01*
X-22026666Y8177619D01*
X-22002857Y8201428D01*
X-21979047Y8249047D01*
X-21979047Y8368095D01*
X-22002857Y8415714D01*
X-22026666Y8439523D01*
X-22074285Y8463333D01*
X-22169523Y8463333D01*
X-22217142Y8439523D01*
X-22240952Y8415714D01*
X-22264761Y8368095D01*
X2862571Y20744666D02*
X2886380Y20720857D01*
X2910190Y20649428D01*
X2910190Y20601809D01*
X2886380Y20530380D01*
X2838761Y20482761D01*
X2791142Y20458952D01*
X2695904Y20435142D01*
X2624476Y20435142D01*
X2529238Y20458952D01*
X2481619Y20482761D01*
X2434000Y20530380D01*
X2410190Y20601809D01*
X2410190Y20649428D01*
X2434000Y20720857D01*
X2457809Y20744666D01*
X2410190Y20911333D02*
X2410190Y21244666D01*
X2910190Y21030380D01*
X-1709428Y16950571D02*
X-1685619Y16926761D01*
X-1661809Y16855333D01*
X-1661809Y16807714D01*
X-1685619Y16736285D01*
X-1733238Y16688666D01*
X-1780857Y16664857D01*
X-1876095Y16641047D01*
X-1947523Y16641047D01*
X-2042761Y16664857D01*
X-2090380Y16688666D01*
X-2138000Y16736285D01*
X-2161809Y16807714D01*
X-2161809Y16855333D01*
X-2138000Y16926761D01*
X-2114190Y16950571D01*
X-2114190Y17141047D02*
X-2138000Y17164857D01*
X-2161809Y17212476D01*
X-2161809Y17331523D01*
X-2138000Y17379142D01*
X-2114190Y17402952D01*
X-2066571Y17426761D01*
X-2018952Y17426761D01*
X-1947523Y17402952D01*
X-1661809Y17117238D01*
X-1661809Y17426761D01*
X-2161809Y17736285D02*
X-2161809Y17783904D01*
X-2138000Y17831523D01*
X-2114190Y17855333D01*
X-2066571Y17879142D01*
X-1971333Y17902952D01*
X-1852285Y17902952D01*
X-1757047Y17879142D01*
X-1709428Y17855333D01*
X-1685619Y17831523D01*
X-1661809Y17783904D01*
X-1661809Y17736285D01*
X-1685619Y17688666D01*
X-1709428Y17664857D01*
X-1757047Y17641047D01*
X-1852285Y17617238D01*
X-1971333Y17617238D01*
X-2066571Y17641047D01*
X-2114190Y17664857D01*
X-2138000Y17688666D01*
X-2161809Y17736285D01*
X8106190Y22002857D02*
X8510952Y22002857D01*
X8558571Y22026666D01*
X8582380Y22050476D01*
X8606190Y22098095D01*
X8606190Y22193333D01*
X8582380Y22240952D01*
X8558571Y22264761D01*
X8510952Y22288571D01*
X8106190Y22288571D01*
X8606190Y22788571D02*
X8606190Y22502857D01*
X8606190Y22645714D02*
X8106190Y22645714D01*
X8177619Y22598095D01*
X8225238Y22550476D01*
X8249047Y22502857D01*
X8606190Y23264761D02*
X8606190Y22979047D01*
X8606190Y23121904D02*
X8106190Y23121904D01*
X8177619Y23074285D01*
X8225238Y23026666D01*
X8249047Y22979047D01*
X8106190Y23574285D02*
X8106190Y23621904D01*
X8130000Y23669523D01*
X8153809Y23693333D01*
X8201428Y23717142D01*
X8296666Y23740952D01*
X8415714Y23740952D01*
X8510952Y23717142D01*
X8558571Y23693333D01*
X8582380Y23669523D01*
X8606190Y23621904D01*
X8606190Y23574285D01*
X8582380Y23526666D01*
X8558571Y23502857D01*
X8510952Y23479047D01*
X8415714Y23455238D01*
X8296666Y23455238D01*
X8201428Y23479047D01*
X8153809Y23502857D01*
X8130000Y23526666D01*
X8106190Y23574285D01*
X7267190Y-7893978D02*
X7300862Y-7893978D01*
X7368205Y-7927650D01*
X7401877Y-7961321D01*
X7435549Y-8028665D01*
X7435549Y-8096008D01*
X7418713Y-8146516D01*
X7368205Y-8230695D01*
X7317698Y-8281203D01*
X7233518Y-8331711D01*
X7183011Y-8348546D01*
X7115667Y-8348546D01*
X7048324Y-8314875D01*
X7014652Y-8281203D01*
X6980980Y-8213859D01*
X6980980Y-8180188D01*
X6829457Y-8096008D02*
X6593755Y-7860306D01*
X7098831Y-7658275D01*
X6307545Y-7574096D02*
X6374888Y-7641440D01*
X6425396Y-7658275D01*
X6459068Y-7658275D01*
X6543247Y-7641440D01*
X6627427Y-7590932D01*
X6762114Y-7456245D01*
X6778949Y-7405737D01*
X6778949Y-7372066D01*
X6762114Y-7321558D01*
X6694770Y-7254214D01*
X6644262Y-7237379D01*
X6610591Y-7237379D01*
X6560083Y-7254214D01*
X6475904Y-7338394D01*
X6459068Y-7388901D01*
X6459068Y-7422573D01*
X6475904Y-7473081D01*
X6543247Y-7540424D01*
X6593755Y-7557260D01*
X6627427Y-7557260D01*
X6677934Y-7540424D01*
X1506190Y-23717142D02*
X1910952Y-23717142D01*
X1958571Y-23693333D01*
X1982380Y-23669523D01*
X2006190Y-23621904D01*
X2006190Y-23526666D01*
X1982380Y-23479047D01*
X1958571Y-23455238D01*
X1910952Y-23431428D01*
X1506190Y-23431428D01*
X2006190Y-22931428D02*
X2006190Y-23217142D01*
X2006190Y-23074285D02*
X1506190Y-23074285D01*
X1577619Y-23121904D01*
X1625238Y-23169523D01*
X1649047Y-23217142D01*
X1506190Y-22621904D02*
X1506190Y-22574285D01*
X1530000Y-22526666D01*
X1553809Y-22502857D01*
X1601428Y-22479047D01*
X1696666Y-22455238D01*
X1815714Y-22455238D01*
X1910952Y-22479047D01*
X1958571Y-22502857D01*
X1982380Y-22526666D01*
X2006190Y-22574285D01*
X2006190Y-22621904D01*
X1982380Y-22669523D01*
X1958571Y-22693333D01*
X1910952Y-22717142D01*
X1815714Y-22740952D01*
X1696666Y-22740952D01*
X1601428Y-22717142D01*
X1553809Y-22693333D01*
X1530000Y-22669523D01*
X1506190Y-22621904D01*
X2006190Y-21979047D02*
X2006190Y-22264761D01*
X2006190Y-22121904D02*
X1506190Y-22121904D01*
X1577619Y-22169523D01*
X1625238Y-22217142D01*
X1649047Y-22264761D01*
X-559523Y-7492190D02*
X-726190Y-7254095D01*
X-845238Y-7492190D02*
X-845238Y-6992190D01*
X-654761Y-6992190D01*
X-607142Y-7016000D01*
X-583333Y-7039809D01*
X-559523Y-7087428D01*
X-559523Y-7158857D01*
X-583333Y-7206476D01*
X-607142Y-7230285D01*
X-654761Y-7254095D01*
X-845238Y-7254095D01*
X-83333Y-7492190D02*
X-369047Y-7492190D01*
X-226190Y-7492190D02*
X-226190Y-6992190D01*
X-273809Y-7063619D01*
X-321428Y-7111238D01*
X-369047Y-7135047D01*
X226190Y-6992190D02*
X273809Y-6992190D01*
X321428Y-7016000D01*
X345238Y-7039809D01*
X369047Y-7087428D01*
X392857Y-7182666D01*
X392857Y-7301714D01*
X369047Y-7396952D01*
X345238Y-7444571D01*
X321428Y-7468380D01*
X273809Y-7492190D01*
X226190Y-7492190D01*
X178571Y-7468380D01*
X154761Y-7444571D01*
X130952Y-7396952D01*
X107142Y-7301714D01*
X107142Y-7182666D01*
X130952Y-7087428D01*
X154761Y-7039809D01*
X178571Y-7016000D01*
X226190Y-6992190D01*
X630952Y-7492190D02*
X726190Y-7492190D01*
X773809Y-7468380D01*
X797619Y-7444571D01*
X845238Y-7373142D01*
X869047Y-7277904D01*
X869047Y-7087428D01*
X845238Y-7039809D01*
X821428Y-7016000D01*
X773809Y-6992190D01*
X678571Y-6992190D01*
X630952Y-7016000D01*
X607142Y-7039809D01*
X583333Y-7087428D01*
X583333Y-7206476D01*
X607142Y-7254095D01*
X630952Y-7277904D01*
X678571Y-7301714D01*
X773809Y-7301714D01*
X821428Y-7277904D01*
X845238Y-7254095D01*
X869047Y-7206476D01*
X20506571Y-2862571D02*
X20482761Y-2886380D01*
X20411333Y-2910190D01*
X20363714Y-2910190D01*
X20292285Y-2886380D01*
X20244666Y-2838761D01*
X20220857Y-2791142D01*
X20197047Y-2695904D01*
X20197047Y-2624476D01*
X20220857Y-2529238D01*
X20244666Y-2481619D01*
X20292285Y-2434000D01*
X20363714Y-2410190D01*
X20411333Y-2410190D01*
X20482761Y-2434000D01*
X20506571Y-2457809D01*
X20792285Y-2624476D02*
X20744666Y-2600666D01*
X20720857Y-2576857D01*
X20697047Y-2529238D01*
X20697047Y-2505428D01*
X20720857Y-2457809D01*
X20744666Y-2434000D01*
X20792285Y-2410190D01*
X20887523Y-2410190D01*
X20935142Y-2434000D01*
X20958952Y-2457809D01*
X20982761Y-2505428D01*
X20982761Y-2529238D01*
X20958952Y-2576857D01*
X20935142Y-2600666D01*
X20887523Y-2624476D01*
X20792285Y-2624476D01*
X20744666Y-2648285D01*
X20720857Y-2672095D01*
X20697047Y-2719714D01*
X20697047Y-2814952D01*
X20720857Y-2862571D01*
X20744666Y-2886380D01*
X20792285Y-2910190D01*
X20887523Y-2910190D01*
X20935142Y-2886380D01*
X20958952Y-2862571D01*
X20982761Y-2814952D01*
X20982761Y-2719714D01*
X20958952Y-2672095D01*
X20935142Y-2648285D01*
X20887523Y-2624476D01*
X21292285Y-2410190D02*
X21339904Y-2410190D01*
X21387523Y-2434000D01*
X21411333Y-2457809D01*
X21435142Y-2505428D01*
X21458952Y-2600666D01*
X21458952Y-2719714D01*
X21435142Y-2814952D01*
X21411333Y-2862571D01*
X21387523Y-2886380D01*
X21339904Y-2910190D01*
X21292285Y-2910190D01*
X21244666Y-2886380D01*
X21220857Y-2862571D01*
X21197047Y-2814952D01*
X21173238Y-2719714D01*
X21173238Y-2600666D01*
X21197047Y-2505428D01*
X21220857Y-2457809D01*
X21244666Y-2434000D01*
X21292285Y-2410190D01*
D13*
X-18339000Y2595000D02*
X-17696530Y2595000D01*
X-17081470Y2595000D02*
X-16879000Y2595000D01*
X-18339000Y2595000D02*
X-18339000Y-2605000D01*
X-15811470Y-2605000D02*
X-15169000Y-2605000D01*
X-18339000Y-2605000D02*
X-17696530Y-2605000D01*
X-17081470Y-2605000D02*
X-16426530Y-2605000D01*
X-15169000Y1265000D02*
X-15169000Y-2605000D01*
X-15359000Y1265000D02*
X-15169000Y1265000D01*
X-15169000Y2660000D02*
X-15169000Y1900000D01*
X-16119000Y2660000D02*
X-15169000Y2660000D01*
X18339000Y-2595000D02*
X17696530Y-2595000D01*
X17081470Y-2595000D02*
X16879000Y-2595000D01*
X18339000Y-2595000D02*
X18339000Y2605000D01*
X15811470Y2605000D02*
X15169000Y2605000D01*
X18339000Y2605000D02*
X17696530Y2605000D01*
X17081470Y2605000D02*
X16426530Y2605000D01*
X15169000Y-1265000D02*
X15169000Y2605000D01*
X15359000Y-1265000D02*
X15169000Y-1265000D01*
X15169000Y-2660000D02*
X15169000Y-1900000D01*
X16119000Y-2660000D02*
X15169000Y-2660000D01*
D12*
X21081441Y-18826161D02*
X20572324Y-19335278D01*
X18818699Y-21088903D02*
X19327816Y-20579786D01*
X18663136Y-17426090D02*
X19172253Y-16916973D01*
X16838800Y-19250425D02*
X17418628Y-18670598D01*
X19172253Y-16916973D02*
X19327816Y-17072536D01*
X20925878Y-18670598D02*
X21081441Y-18826161D01*
X18818699Y-21088903D02*
X18663136Y-20933340D01*
X9811273Y14266322D02*
X10041478Y14496527D01*
X10532522Y13545073D02*
X10762727Y13775278D01*
X22527569Y30895707D02*
X26770210Y35138347D01*
X26558078Y35350479D02*
X27095479Y34813078D01*
X16092898Y26143949D02*
X16990923Y27041975D01*
X22782128Y30641148D02*
X27024769Y34883789D01*
X20153762Y28946163D02*
X20434533Y29226935D01*
X22612422Y30810854D02*
X26855063Y35053494D01*
X22442717Y30980559D02*
X26685357Y35223200D01*
X22357864Y31065412D02*
X26600505Y35308053D01*
X19762782Y29898686D02*
X21643686Y28017782D01*
X22697275Y30726001D02*
X26939916Y34968642D01*
X20691163Y28408762D02*
X20971935Y28689533D01*
X18405137Y27197538D02*
X18678837Y27471239D01*
X18942538Y26660137D02*
X19216239Y26933837D01*
X21643686Y31779590D02*
X19762782Y29898686D01*
X23524590Y29898686D02*
X21643686Y31779590D01*
X27095479Y34813078D02*
X22852839Y30570437D01*
X21643686Y28017782D02*
X23524590Y29898686D01*
X22315437Y31107839D02*
X26558078Y35350479D01*
X16990923Y25245923D02*
X16092898Y26143949D01*
X10292954Y12555866D02*
X9020162Y11283074D01*
X11297046Y9006190D02*
X13029457Y10738602D01*
X-10551233Y-11541183D02*
X-10091614Y-11081563D01*
X-11541183Y-10551233D02*
X-10551233Y-11541183D01*
X-9243086Y-14829229D02*
X-10126969Y-13945346D01*
X-14511031Y-10692654D02*
X-13945346Y-10126969D01*
X-13096817Y-14086767D02*
X-14086767Y-13096817D01*
X-10126969Y-13945346D02*
X-10692654Y-14511031D01*
X19869673Y20150678D02*
X20099878Y19920473D01*
X20590922Y20871927D02*
X20821127Y20641722D01*
X21967278Y27463967D02*
X21790501Y27287190D01*
X20164155Y25660844D02*
X18856008Y24352697D01*
X27482711Y21948534D02*
X27305934Y21771757D01*
X25679588Y20145411D02*
X24371441Y18837264D01*
X18856008Y24352697D02*
X19174206Y24034499D01*
X22426897Y20003990D02*
X22745095Y20322188D01*
X22426897Y20003990D02*
X22108699Y20322188D01*
X24371441Y18837264D02*
X24053243Y19155462D01*
X27197538Y18405137D02*
X27471239Y18678837D01*
X29898686Y23524590D02*
X28017782Y21643686D01*
X28408762Y20691163D02*
X28689533Y20971935D01*
X30612864Y22810412D02*
X34855505Y27053053D01*
X31037128Y22386148D02*
X35279769Y26628789D01*
X30952275Y22471001D02*
X35194916Y26713642D01*
X28946163Y20153762D02*
X29226935Y20434533D01*
X30697717Y22725559D02*
X34940357Y26968200D01*
X31779590Y21643686D02*
X29898686Y23524590D01*
X34813078Y27095479D02*
X35350479Y26558078D01*
X24347898Y17888949D02*
X25245923Y18786975D01*
X35350479Y26558078D02*
X31107839Y22315437D01*
X30782569Y22640707D02*
X35025210Y26883347D01*
X30570437Y22852839D02*
X34813078Y27095479D01*
X30867422Y22555854D02*
X35110063Y26798494D01*
X29898686Y19762782D02*
X31779590Y21643686D01*
X26660137Y18942538D02*
X26933837Y19216239D01*
X28017782Y21643686D02*
X29898686Y19762782D01*
X25245923Y16990923D02*
X24347898Y17888949D01*
X21343909Y-24725456D02*
X21131777Y-24513324D01*
X18798324Y-26846777D02*
X19010456Y-27058909D01*
X22899544Y-26281091D02*
X23111676Y-26493223D01*
X20778223Y-28826676D02*
X20566091Y-28614544D01*
X23111676Y-26493223D02*
X20778223Y-28826676D01*
X21131777Y-24513324D02*
X18798324Y-26846777D01*
X-8772492Y-7479789D02*
X-9550309Y-8257606D01*
X-5944065Y-7267657D02*
X-7216857Y-5994865D01*
X-7428989Y-8823292D02*
X-8206806Y-9601109D01*
X-18942538Y-26660137D02*
X-19216239Y-26933837D01*
X-26558078Y-35350479D02*
X-27095479Y-34813078D01*
X-22612422Y-30810854D02*
X-26855063Y-35053494D01*
X-20691163Y-28408762D02*
X-20971935Y-28689533D01*
X-22697275Y-30726001D02*
X-26939916Y-34968642D01*
X-21643686Y-28017782D02*
X-23524590Y-29898686D01*
X-16092898Y-26143949D02*
X-16990923Y-27041975D01*
X-20153762Y-28946163D02*
X-20434533Y-29226935D01*
X-22357864Y-31065412D02*
X-26600505Y-35308053D01*
X-16990923Y-25245923D02*
X-16092898Y-26143949D01*
X-18405137Y-27197538D02*
X-18678837Y-27471239D01*
X-23524590Y-29898686D02*
X-21643686Y-31779590D01*
X-21643686Y-31779590D02*
X-19762782Y-29898686D01*
X-22527569Y-30895707D02*
X-26770210Y-35138347D01*
X-22315437Y-31107839D02*
X-26558078Y-35350479D01*
X-22782128Y-30641148D02*
X-27024769Y-34883789D01*
X-27095479Y-34813078D02*
X-22852839Y-30570437D01*
X-22442717Y-30980559D02*
X-26685357Y-35223200D01*
X-19762782Y-29898686D02*
X-21643686Y-28017782D01*
X-900000Y3700000D02*
X900000Y3700000D01*
X2700000Y1300000D02*
X2700000Y-1300000D01*
X-2700000Y-1300000D02*
X-2700000Y1300000D01*
X2700000Y-1300000D02*
X3300000Y-1300000D01*
X900000Y-5200000D02*
X900000Y-3700000D01*
X900000Y-3700000D02*
X-900000Y-3700000D01*
X-25245923Y-16990923D02*
X-24347898Y-17888949D01*
X-30570437Y-22852839D02*
X-34813078Y-27095479D01*
X-31037128Y-22386148D02*
X-35279769Y-26628789D01*
X-29898686Y-19762782D02*
X-31779590Y-21643686D01*
X-28946163Y-20153762D02*
X-29226935Y-20434533D01*
X-31779590Y-21643686D02*
X-29898686Y-23524590D01*
X-28408762Y-20691163D02*
X-28689533Y-20971935D01*
X-30867422Y-22555854D02*
X-35110063Y-26798494D01*
X-27197538Y-18405137D02*
X-27471239Y-18678837D01*
X-24347898Y-17888949D02*
X-25245923Y-18786975D01*
X-29898686Y-23524590D02*
X-28017782Y-21643686D01*
X-35350479Y-26558078D02*
X-31107839Y-22315437D01*
X-30612864Y-22810412D02*
X-34855505Y-27053053D01*
X-30782569Y-22640707D02*
X-35025210Y-26883347D01*
X-34813078Y-27095479D02*
X-35350479Y-26558078D01*
X-30697717Y-22725559D02*
X-34940357Y-26968200D01*
X-26660137Y-18942538D02*
X-26933837Y-19216239D01*
X-28017782Y-21643686D02*
X-29898686Y-19762782D01*
X-30952275Y-22471001D02*
X-35194916Y-26713642D01*
X26281091Y-22899544D02*
X26493223Y-23111676D01*
X24725456Y-21343909D02*
X24513324Y-21131777D01*
X26846777Y-18798324D02*
X27058909Y-19010456D01*
X24513324Y-21131777D02*
X26846777Y-18798324D01*
X28826676Y-20778223D02*
X28614544Y-20566091D01*
X26493223Y-23111676D02*
X28826676Y-20778223D01*
X8644478Y7765301D02*
X8414273Y7995506D01*
X9365727Y8486550D02*
X9135522Y8716755D01*
X20820559Y-32602717D02*
X25063200Y-36845357D01*
X20566001Y-32857275D02*
X24808642Y-37099916D01*
X15085923Y-27150923D02*
X15983949Y-26252898D01*
X20947839Y-32475437D02*
X25190479Y-36718078D01*
X15983949Y-26252898D02*
X16881975Y-27150923D01*
X25190479Y-36718078D02*
X24653078Y-37255479D01*
X15194061Y-30313762D02*
X15515187Y-30634889D01*
X17037538Y-28565137D02*
X17311239Y-28838837D01*
X21619590Y-31803686D02*
X19738686Y-29922782D01*
X19738686Y-29922782D02*
X16061731Y-33599737D01*
X18786163Y-30313762D02*
X19066935Y-30594533D01*
X14656659Y-30851163D02*
X14977786Y-31172290D01*
X16452711Y-32647214D02*
X16733482Y-32927986D01*
X20481148Y-32942128D02*
X24723789Y-37184769D01*
X16500137Y-29102538D02*
X16773837Y-29376239D01*
X20905412Y-32517864D02*
X25148053Y-36760505D01*
X24653078Y-37255479D02*
X20410437Y-33012839D01*
X18248762Y-30851163D02*
X18529533Y-31131935D01*
X19151787Y-34271489D02*
X23394428Y-38514129D01*
X20735707Y-32687569D02*
X24978347Y-36930210D01*
X22857027Y-39051531D02*
X18614386Y-34808890D01*
X16061731Y-33599737D02*
X17942635Y-35480641D01*
X23394428Y-38514129D02*
X22857027Y-39051531D01*
X16990112Y-32109813D02*
X17270883Y-32390585D01*
X17900208Y-31761260D02*
X19781112Y-33642164D01*
X17942635Y-35480641D02*
X21619590Y-31803686D01*
X20650854Y-32772422D02*
X24893494Y-37015063D01*
X-17340850Y10199072D02*
X-16262513Y9120734D01*
X-15484695Y23015382D02*
X-15735718Y22764359D01*
X-23015382Y15484695D02*
X-22764359Y15735718D01*
X-17535305Y10004618D02*
X-23015382Y15484695D01*
X-10004618Y17535305D02*
X-10255641Y17284282D01*
X-10004618Y17535305D02*
X-15484695Y23015382D01*
X-17535305Y10004618D02*
X-17340850Y10199072D01*
X-21580137Y23913589D02*
X-21853837Y24187290D01*
X-26678377Y35121232D02*
X-26140976Y35658633D01*
X-25730854Y27583473D02*
X-29973494Y31826114D01*
X-26027839Y27286488D02*
X-30270479Y31529129D01*
X-25646001Y27668326D02*
X-29888642Y31910967D01*
X-22070112Y26920864D02*
X-22350883Y27201636D01*
X-19736659Y29254316D02*
X-20017431Y29535088D01*
X-19736659Y25662214D02*
X-20057786Y25983341D01*
X-25815707Y27498620D02*
X-30058347Y31741261D01*
X-30270479Y31529129D02*
X-29733078Y32066530D01*
X-23866163Y25124813D02*
X-24146935Y25405584D01*
X-17940608Y27458265D02*
X-18261735Y27779392D01*
X-20274061Y28716915D02*
X-20554832Y28997687D01*
X-23328762Y25662214D02*
X-23609533Y25942986D01*
X-19345680Y30206839D02*
X-21226584Y32087743D01*
X-22980208Y26572311D02*
X-24861112Y28453215D01*
X-21226584Y32087743D02*
X-26699590Y26614737D01*
X-21184157Y28368362D02*
X-23065061Y30249266D01*
X-27937027Y33862582D02*
X-23694386Y29619941D01*
X-26140976Y35658633D02*
X-21898335Y31415992D01*
X-20274061Y25124813D02*
X-20595187Y25445940D01*
X-26699590Y26614737D02*
X-24818686Y24733833D01*
X-24231787Y29082540D02*
X-28474428Y33325180D01*
X-24818686Y24733833D02*
X-19345680Y30206839D01*
X-25561148Y27753179D02*
X-29803789Y31995820D01*
X-21532711Y27458265D02*
X-21813482Y27739037D01*
X-25985412Y27328915D02*
X-30228053Y31571556D01*
X-20165923Y21961974D02*
X-21063949Y21063949D01*
X-22117538Y23376188D02*
X-22391239Y23649888D01*
X-18478009Y26920864D02*
X-18799136Y27241991D01*
X-28474428Y33325180D02*
X-27937027Y33862582D01*
X-22435736Y30878591D02*
X-26678377Y35121232D01*
X-21063949Y21063949D02*
X-21961975Y21961974D01*
X-25900559Y27413768D02*
X-30143200Y31656408D01*
X-29733078Y32066530D02*
X-25490437Y27823890D01*
X34342199Y-19081077D02*
X38584840Y-23323718D01*
X32109813Y-16990112D02*
X32390584Y-17270884D01*
X29845000Y-12391847D02*
X30743026Y-13289872D01*
X37255479Y-24653078D02*
X36718078Y-25190480D01*
X31803686Y-21619590D02*
X35480641Y-17942635D01*
X28946974Y-13289872D02*
X29845000Y-12391847D01*
X30361188Y-15241487D02*
X30634888Y-15515188D01*
X34511905Y-18911371D02*
X38754545Y-23154012D01*
X28517710Y-16990112D02*
X28838837Y-17311239D01*
X30313762Y-18786163D02*
X30594533Y-19066935D01*
X34766463Y-18656813D02*
X39009104Y-22899454D01*
X38514129Y-23394428D02*
X34271488Y-19151788D01*
X34427052Y-18996224D02*
X38669693Y-23238865D01*
X30898589Y-14704086D02*
X31172290Y-14977786D01*
X29922782Y-19738686D02*
X31803686Y-21619590D01*
X34681610Y-18741666D02*
X38924251Y-22984306D01*
X30851163Y-18248762D02*
X31131934Y-18529534D01*
X36718078Y-25190480D02*
X32475437Y-20947839D01*
X34596758Y-18826518D02*
X38839398Y-23069159D01*
X34808890Y-18614386D02*
X39051530Y-22857027D01*
X33012838Y-20410438D02*
X37255479Y-24653078D01*
X29055112Y-16452711D02*
X29376238Y-16773838D01*
X39051530Y-22857027D02*
X38514129Y-23394428D01*
X31761259Y-17900209D02*
X33642163Y-19781113D01*
X35480641Y-17942635D02*
X33599737Y-16061731D01*
X33599737Y-16061731D02*
X29922782Y-19738686D01*
X32647214Y-16452711D02*
X32927986Y-16733482D01*
X-26968290Y18525435D02*
X-27241990Y18799136D01*
X-27458265Y21532710D02*
X-27739036Y21813482D01*
X-24733833Y24818685D02*
X-26614737Y26699589D01*
X-31203860Y22110466D02*
X-35446500Y26353107D01*
X-31529129Y30270479D02*
X-27286488Y26027838D01*
X-28716915Y20274060D02*
X-28997686Y20554832D01*
X-26452102Y15675795D02*
X-27350128Y16573820D01*
X-27505691Y17988034D02*
X-27779392Y18261734D01*
X-31373565Y21940761D02*
X-35616206Y26183402D01*
X-25124812Y23866162D02*
X-25405584Y24146934D01*
X-23866162Y21532710D02*
X-24187289Y21853837D01*
X-29254316Y19736659D02*
X-29535088Y20017430D01*
X-26920864Y22070111D02*
X-27201635Y22350883D01*
X-30949301Y22365025D02*
X-35191942Y26607666D01*
X-28368361Y21184157D02*
X-30249265Y23065061D01*
X-26572310Y22980208D02*
X-28453214Y24861112D01*
X-30206839Y19345679D02*
X-24733833Y24818685D01*
X-29619940Y23694386D02*
X-33862581Y27937026D01*
X-31288712Y22025614D02*
X-35531353Y26268254D01*
X-27823889Y25490437D02*
X-32066530Y29733078D01*
X-35121231Y26678376D02*
X-30878590Y22435736D01*
X-31034154Y22280172D02*
X-35276795Y26522813D01*
X-25554076Y16573820D02*
X-26452102Y15675795D01*
X-32066530Y29733078D02*
X-31529129Y30270479D01*
X-31119007Y22195319D02*
X-35361647Y26437960D01*
X-26614737Y26699589D02*
X-32087743Y21226583D01*
X-25124812Y20274060D02*
X-25445939Y20595187D01*
X-32087743Y21226583D02*
X-30206839Y19345679D01*
X-33325180Y28474428D02*
X-29082539Y24231787D01*
X-25662214Y19736659D02*
X-25983340Y20057786D01*
X-23328761Y22070111D02*
X-23649888Y22391238D01*
X-33862581Y27937026D02*
X-33325180Y28474428D01*
X-31415992Y21898334D02*
X-35658632Y26140975D01*
X-25662214Y23328761D02*
X-25942985Y23609533D01*
X-35658632Y26140975D02*
X-35121231Y26678376D01*
D13*
X18944000Y-7004164D02*
X18944000Y-7219836D01*
X19664000Y-7004164D02*
X19664000Y-7219836D01*
X3155836Y-18944000D02*
X2940164Y-18944000D01*
X3155836Y-19664000D02*
X2940164Y-19664000D01*
X20935836Y1884000D02*
X20720164Y1884000D01*
X20935836Y1164000D02*
X20720164Y1164000D01*
X20935836Y-8996000D02*
X20720164Y-8996000D01*
X20935836Y-8276000D02*
X20720164Y-8276000D01*
X-20935836Y-1884000D02*
X-20720164Y-1884000D01*
X-20935836Y-1164000D02*
X-20720164Y-1164000D01*
X24970000Y7190000D02*
X24970000Y6840000D01*
X24620000Y7190000D02*
X24970000Y7190000D01*
X20750000Y7190000D02*
X20750000Y6840000D01*
X20750000Y2970000D02*
X20750000Y3320000D01*
X21100000Y7190000D02*
X20750000Y7190000D01*
X21100000Y2970000D02*
X20750000Y2970000D01*
X24620000Y2970000D02*
X24970000Y2970000D01*
X-19664000Y-3155836D02*
X-19664000Y-2940164D01*
X-18944000Y-3155836D02*
X-18944000Y-2940164D01*
X28715000Y12760000D02*
X28715000Y12695000D01*
X32245000Y12760000D02*
X32245000Y12695000D01*
X28715000Y-12760000D02*
X32245000Y-12760000D01*
X28715000Y-12695000D02*
X28715000Y-12760000D01*
X32245000Y-12695000D02*
X32245000Y-12760000D01*
X27390000Y12695000D02*
X28715000Y12695000D01*
X28715000Y12760000D02*
X32245000Y12760000D01*
X7004164Y19664000D02*
X7219836Y19664000D01*
X7004164Y18944000D02*
X7219836Y18944000D01*
X-20935836Y1884000D02*
X-20720164Y1884000D01*
X-20935836Y1164000D02*
X-20720164Y1164000D01*
X-20935836Y8996000D02*
X-20720164Y8996000D01*
X-20935836Y8276000D02*
X-20720164Y8276000D01*
X-2970000Y20750000D02*
X-3320000Y20750000D01*
X-7190000Y24970000D02*
X-6840000Y24970000D01*
X-7190000Y24620000D02*
X-7190000Y24970000D01*
X-2970000Y21100000D02*
X-2970000Y20750000D01*
X-7190000Y21100000D02*
X-7190000Y20750000D01*
X-2970000Y24620000D02*
X-2970000Y24970000D01*
X-7190000Y20750000D02*
X-6840000Y20750000D01*
X-3155836Y18944000D02*
X-2940164Y18944000D01*
X-3155836Y19664000D02*
X-2940164Y19664000D01*
X2605000Y-15811470D02*
X2605000Y-14989000D01*
X-1140000Y-16825529D02*
X-1140000Y-16682471D01*
X-2660000Y-18519000D02*
X-2660000Y-17389000D01*
X-2595000Y-16629000D02*
X-2595000Y-16426530D01*
X2605000Y-18519000D02*
X2605000Y-17696530D01*
X-1140000Y-18519000D02*
X-1140000Y-17952471D01*
X-2463471Y-16629000D02*
X-2595000Y-16629000D01*
X-2595000Y-15811470D02*
X-2595000Y-14989000D01*
X2605000Y-17081470D02*
X2605000Y-16426530D01*
X-2595000Y-14989000D02*
X2605000Y-14989000D01*
X-1193471Y-16629000D02*
X-1336529Y-16629000D01*
X-1900000Y-18519000D02*
X-2660000Y-18519000D01*
X-1140000Y-18519000D02*
X2605000Y-18519000D01*
X-28715000Y-12760000D02*
X-28715000Y-12695000D01*
X-32245000Y-12760000D02*
X-32245000Y-12695000D01*
X-28715000Y12760000D02*
X-32245000Y12760000D01*
X-28715000Y12695000D02*
X-28715000Y12760000D01*
X-32245000Y12695000D02*
X-32245000Y12760000D01*
X-27390000Y-12695000D02*
X-28715000Y-12695000D01*
X-28715000Y-12760000D02*
X-32245000Y-12760000D01*
X2688000Y17887836D02*
X2688000Y17672164D01*
X3408000Y17887836D02*
X3408000Y17672164D01*
X-8996000Y20935836D02*
X-8996000Y20720164D01*
X-8276000Y20935836D02*
X-8276000Y20720164D01*
X-4444000Y153641D02*
X-4444000Y-153641D01*
X-3684000Y153641D02*
X-3684000Y-153641D01*
X-1164000Y-20935836D02*
X-1164000Y-20720164D01*
X-1884000Y-20935836D02*
X-1884000Y-20720164D01*
X1884000Y-20935836D02*
X1884000Y-20720164D01*
X1164000Y-20935836D02*
X1164000Y-20720164D01*
X8276000Y20935836D02*
X8276000Y20720164D01*
X8996000Y20935836D02*
X8996000Y20720164D01*
X19664000Y3155836D02*
X19664000Y2940164D01*
X18944000Y3155836D02*
X18944000Y2940164D01*
X-1164000Y20935836D02*
X-1164000Y20720164D01*
X-1884000Y20935836D02*
X-1884000Y20720164D01*
X21100000Y-2970000D02*
X20750000Y-2970000D01*
X24970000Y-2970000D02*
X24970000Y-3320000D01*
X24620000Y-7190000D02*
X24970000Y-7190000D01*
X20750000Y-2970000D02*
X20750000Y-3320000D01*
X21100000Y-7190000D02*
X20750000Y-7190000D01*
X24620000Y-2970000D02*
X24970000Y-2970000D01*
X20750000Y-7190000D02*
X20750000Y-6840000D01*
X-18944000Y7004164D02*
X-18944000Y7219836D01*
X-19664000Y7004164D02*
X-19664000Y7219836D01*
X6596781Y-8308630D02*
X6397970Y-8109819D01*
X7318030Y-7587381D02*
X7119219Y-7388570D01*
X-24620000Y-2970000D02*
X-24970000Y-2970000D01*
X-21100000Y-7190000D02*
X-20750000Y-7190000D01*
X-24970000Y-7190000D02*
X-24970000Y-6840000D01*
X-20750000Y-2970000D02*
X-20750000Y-3320000D01*
X-21100000Y-2970000D02*
X-20750000Y-2970000D01*
X-20750000Y-7190000D02*
X-20750000Y-6840000D01*
X-24620000Y-7190000D02*
X-24970000Y-7190000D01*
X2688000Y15640164D02*
X2688000Y15855836D01*
X3408000Y15640164D02*
X3408000Y15855836D01*
X-20935836Y-8996000D02*
X-20720164Y-8996000D01*
X-20935836Y-8276000D02*
X-20720164Y-8276000D01*
X900000Y18374000D02*
X-1550000Y18374000D01*
X-900000Y15154000D02*
X900000Y15154000D01*
X-8276000Y-20935836D02*
X-8276000Y-20720164D01*
X-8996000Y-20935836D02*
X-8996000Y-20720164D01*
X-2970000Y-24970000D02*
X-3320000Y-24970000D01*
X-2970000Y-24620000D02*
X-2970000Y-24970000D01*
X-7190000Y-24620000D02*
X-7190000Y-24970000D01*
X-2970000Y-21100000D02*
X-2970000Y-20750000D01*
X-2970000Y-20750000D02*
X-3320000Y-20750000D01*
X-7190000Y-20750000D02*
X-6840000Y-20750000D01*
X-7190000Y-21100000D02*
X-7190000Y-20750000D01*
X12387981Y-11147770D02*
X12189170Y-11346581D01*
X13109230Y-11869019D02*
X12910419Y-12067830D01*
X12572000Y-7466359D02*
X12572000Y-7773641D01*
X11812000Y-7466359D02*
X11812000Y-7773641D01*
X9107713Y-11313887D02*
X10380506Y-12586679D01*
X11313887Y-9107713D02*
X10748201Y-8542028D01*
X11313887Y-9107713D02*
X11879572Y-9673399D01*
X9107713Y-11313887D02*
X8542028Y-10748201D01*
X-7004164Y-18944000D02*
X-7219836Y-18944000D01*
X-7004164Y-19664000D02*
X-7219836Y-19664000D01*
X12760000Y-28715000D02*
X12695000Y-28715000D01*
X12760000Y-32245000D02*
X12695000Y-32245000D01*
X-12760000Y-28715000D02*
X-12760000Y-32245000D01*
X-12695000Y-28715000D02*
X-12760000Y-28715000D01*
X-12695000Y-32245000D02*
X-12760000Y-32245000D01*
X12695000Y-27390000D02*
X12695000Y-28715000D01*
X12760000Y-28715000D02*
X12760000Y-32245000D01*
X8996000Y-20935836D02*
X8996000Y-20720164D01*
X8276000Y-20935836D02*
X8276000Y-20720164D01*
X20935836Y8276000D02*
X20720164Y8276000D01*
X20935836Y8996000D02*
X20720164Y8996000D01*
X-12760000Y28715000D02*
X-12695000Y28715000D01*
X-12760000Y32245000D02*
X-12695000Y32245000D01*
X12760000Y28715000D02*
X12760000Y32245000D01*
X12695000Y28715000D02*
X12760000Y28715000D01*
X12695000Y32245000D02*
X12760000Y32245000D01*
X-12695000Y27390000D02*
X-12695000Y28715000D01*
X-12760000Y28715000D02*
X-12760000Y32245000D01*
X-20750000Y2970000D02*
X-20750000Y3320000D01*
X-20750000Y7190000D02*
X-20750000Y6840000D01*
X-21100000Y7190000D02*
X-20750000Y7190000D01*
X-24620000Y2970000D02*
X-24970000Y2970000D01*
X-24620000Y7190000D02*
X-24970000Y7190000D01*
X-21100000Y2970000D02*
X-20750000Y2970000D01*
X-24970000Y2970000D02*
X-24970000Y3320000D01*
X1164000Y20935836D02*
X1164000Y20720164D01*
X1884000Y20935836D02*
X1884000Y20720164D01*
X-3408000Y17379836D02*
X-3408000Y17164164D01*
X-2688000Y17379836D02*
X-2688000Y17164164D01*
X2970000Y20750000D02*
X3320000Y20750000D01*
X2970000Y24620000D02*
X2970000Y24970000D01*
X7190000Y24620000D02*
X7190000Y24970000D01*
X2970000Y21100000D02*
X2970000Y20750000D01*
X7190000Y21100000D02*
X7190000Y20750000D01*
X7190000Y20750000D02*
X6840000Y20750000D01*
X2970000Y24970000D02*
X3320000Y24970000D01*
X7663581Y-7241830D02*
X7464770Y-7043019D01*
X8384830Y-6520581D02*
X8186019Y-6321770D01*
X7190000Y-24620000D02*
X7190000Y-24970000D01*
X2970000Y-21100000D02*
X2970000Y-20750000D01*
X2970000Y-24620000D02*
X2970000Y-24970000D01*
X7190000Y-24970000D02*
X6840000Y-24970000D01*
X2970000Y-20750000D02*
X3320000Y-20750000D01*
X7190000Y-21100000D02*
X7190000Y-20750000D01*
X7190000Y-20750000D02*
X6840000Y-20750000D01*
X153641Y-6476000D02*
X-153641Y-6476000D01*
X153641Y-5716000D02*
X-153641Y-5716000D01*
X20935836Y-1164000D02*
X20720164Y-1164000D01*
X20935836Y-1884000D02*
X20720164Y-1884000D01*
M02*
